<?xml version="1.0" encoding="utf-8"?>
<svg style="fill: none; stroke: none; stroke-linecap: square; stroke-miterlimit: 10;" viewBox="6 13 890 389" xmlns="http://www.w3.org/2000/svg">
  <g style="clip-path: url(#p.0);">
    <path d="M 0 0 L 960 0 L 960 720 L 0 720 L 0 0 Z" style="fill: rgb(0, 0, 0); fill-opacity: 0; fill-rule: nonzero;"/>
    <path d="m12.0 53.0l117.98425 0l0 86.99213l-117.98425 0z" style="fill: rgb(201, 218, 248); fill-rule: nonzero;"/>
    <path d="m12.0 53.0l117.98425 0l0 86.99213l-117.98425 0z" style="stroke: rgb(0, 0, 0); stroke-width: 1; stroke-linejoin: round; stroke-linecap: butt; fill-rule: nonzero;"/>
    <path d="m63.178688 79.92l-2.609375 0l0 -5.03125q0 -1.59375 -0.171875 -2.0625q-0.15625 -0.46875 -0.53125 -0.71875q-0.375 -0.265625 -0.90625 -0.265625q-0.6875 0 -1.234375 0.375q-0.53125 0.359375 -0.734375 0.984375q-0.1875 0.609375 -0.1875 2.25l0 4.46875l-2.609375 0l0 -9.859375l2.421875 0l0 1.453125q1.296875 -1.671875 3.25 -1.671875q0.859375 0 1.578125 0.3125q0.71875 0.3125 1.078125 0.796875q0.359375 0.484375 0.5 1.09375q0.15625 0.609375 0.15625 1.75l0 6.125zm8.130356 -3.140625l2.609375 0.4375q-0.5 1.4375 -1.59375 2.1875q-1.078125 0.734375 -2.703125 0.734375q-2.5625 0 -3.796875 -1.671875q-0.96875 -1.34375 -0.96875 -3.40625q0 -2.4375 1.265625 -3.828125q1.28125 -1.390625 3.25 -1.390625q2.1875 0 3.453125 1.453125q1.28125 1.453125 1.234375 4.453125l-6.53125 0q0.015625 1.15625 0.625 1.8125q0.609375 0.640625 1.5 0.640625q0.609375 0 1.03125 -0.328125q0.421875 -0.34375 0.625 -1.09375zm0.15625 -2.625q-0.03125 -1.140625 -0.59375 -1.71875q-0.546875 -0.59375 -1.34375 -0.59375q-0.859375 0 -1.40625 0.625q-0.5625 0.609375 -0.546875 1.6875l3.890625 0zm6.360092 5.765625l-3.125 -9.859375l2.53125 0l1.859375 6.46875l1.6875 -6.46875l2.515625 0l1.640625 6.46875l1.890625 -6.46875l2.5625 0l-3.15625 9.859375l-2.515625 0l-1.6875 -6.34375l-1.671875 6.34375l-2.53125 0z" style="fill: rgb(0, 0, 0); fill-rule: nonzero;"/>
    <path d="m41.546135 99.53438l-1.21875 0q-0.984375 -1.46875 -1.5 -3.046875q-0.5 -1.578125 -0.5 -3.0625q0 -1.828125 0.640625 -3.46875q0.546875 -1.421875 1.375 -2.625l1.21875 0q-0.859375 1.921875 -1.1875 3.28125q-0.328125 1.34375 -0.328125 2.859375q0 1.03125 0.1875 2.125q0.203125 1.09375 0.53125 2.078125q0.21875 0.65625 0.78125 1.859375zm3.1883698 -2.734375l-1.78125 0l0 -6.734375l1.65625 0l0 0.953125q0.421875 -0.6875 0.765625 -0.890625q0.34375 -0.21875 0.765625 -0.21875q0.609375 0 1.171875 0.328125l-0.546875 1.5625q-0.453125 -0.296875 -0.84375 -0.296875q-0.375 0 -0.640625 0.21875q-0.25 0.203125 -0.40625 0.75q-0.140625 0.53125 -0.140625 2.25l0 2.078125zm7.389908 -2.140625l1.765625 0.296875q-0.34375 0.96875 -1.078125 1.484375q-0.734375 0.515625 -1.84375 0.515625q-1.765625 0 -2.609375 -1.15625q-0.671875 -0.921875 -0.671875 -2.3125q0 -1.6875 0.875 -2.625q0.890625 -0.953125 2.21875 -0.953125q1.515625 0 2.375 1.0q0.875 0.984375 0.828125 3.03125l-4.46875 0q0.03125 0.796875 0.4375 1.234375q0.40625 0.4375 1.03125 0.4375q0.421875 0 0.703125 -0.21875q0.28125 -0.234375 0.4375 -0.734375zm0.09375 -1.8125q-0.015625 -0.765625 -0.40625 -1.171875q-0.375 -0.40625 -0.921875 -0.40625q-0.578125 0 -0.96875 0.421875q-0.375 0.4375 -0.375 1.15625l2.671875 0zm4.7406006 -0.734375l-1.625 -0.296875q0.28125 -0.96875 0.9375 -1.4375q0.671875 -0.46875 1.984375 -0.46875q1.203125 0 1.78125 0.28125q0.578125 0.28125 0.8125 0.71875q0.25 0.4375 0.25 1.59375l-0.015625 2.078125q0 0.890625 0.078125 1.3125q0.09375 0.421875 0.328125 0.90625l-1.765625 0q-0.078125 -0.171875 -0.171875 -0.53125q-0.046875 -0.15625 -0.0625 -0.203125q-0.46875 0.4375 -0.984375 0.671875q-0.515625 0.21875 -1.109375 0.21875q-1.046875 0 -1.640625 -0.5625q-0.59375 -0.578125 -0.59375 -1.4375q0 -0.5625 0.265625 -1.015625q0.28125 -0.453125 0.765625 -0.6875q0.5 -0.234375 1.421875 -0.421875q1.25 -0.234375 1.734375 -0.4375l0 -0.171875q0 -0.515625 -0.265625 -0.734375q-0.25 -0.21875 -0.953125 -0.21875q-0.46875 0 -0.734375 0.1875q-0.265625 0.1875 -0.4375 0.65625zm2.390625 1.453125q-0.34375 0.109375 -1.09375 0.265625q-0.734375 0.15625 -0.96875 0.3125q-0.34375 0.25 -0.34375 0.625q0 0.375 0.28125 0.65625q0.28125 0.265625 0.703125 0.265625q0.484375 0 0.921875 -0.3125q0.328125 -0.234375 0.421875 -0.59375q0.078125 -0.21875 0.078125 -0.859375l0 -0.359375zm9.568726 -1.515625l-1.765625 0.3125q-0.078125 -0.515625 -0.40625 -0.78125q-0.3125 -0.265625 -0.8125 -0.265625q-0.65625 0 -1.0625 0.453125q-0.390625 0.453125 -0.390625 1.546875q0 1.1875 0.40625 1.6875q0.40625 0.5 1.078125 0.5q0.515625 0 0.828125 -0.28125q0.328125 -0.296875 0.453125 -1.0l1.765625 0.296875q-0.28125 1.203125 -1.0625 1.828125q-0.765625 0.609375 -2.0625 0.609375q-1.484375 0 -2.359375 -0.9375q-0.875 -0.9375 -0.875 -2.578125q0 -1.671875 0.875 -2.59375q0.875 -0.9375 2.390625 -0.9375q1.234375 0 1.953125 0.53125q0.734375 0.53125 1.046875 1.609375zm3.3031006 -4.5625l0 3.421875q0.875 -1.0 2.078125 -1.0q0.609375 0 1.09375 0.234375q0.5 0.21875 0.75 0.578125q0.25 0.359375 0.34375 0.796875q0.09375 0.421875 0.09375 1.328125l0 3.953125l-1.78125 0l0 -3.5625q0 -1.0625 -0.109375 -1.34375q-0.09375 -0.28125 -0.359375 -0.453125q-0.25 -0.171875 -0.640625 -0.171875q-0.4375 0 -0.796875 0.21875q-0.34375 0.21875 -0.515625 0.65625q-0.15625 0.421875 -0.15625 1.28125l0 3.375l-1.78125 0l0 -9.3125l1.78125 0zm7.7038574 4.625l-1.625 -0.296875q0.28125 -0.96875 0.9375 -1.4375q0.671875 -0.46875 1.984375 -0.46875q1.203125 0 1.78125 0.28125q0.578125 0.28125 0.8125 0.71875q0.25 0.4375 0.25 1.59375l-0.015625 2.078125q0 0.890625 0.078125 1.3125q0.09375 0.421875 0.328125 0.90625l-1.765625 0q-0.078125 -0.171875 -0.171875 -0.53125q-0.046875 -0.15625 -0.0625 -0.203125q-0.46875 0.4375 -0.984375 0.671875q-0.515625 0.21875 -1.109375 0.21875q-1.046875 0 -1.640625 -0.5625q-0.59375 -0.578125 -0.59375 -1.4375q0 -0.5625 0.265625 -1.015625q0.28125 -0.453125 0.765625 -0.6875q0.5 -0.234375 1.421875 -0.421875q1.25 -0.234375 1.734375 -0.4375l0 -0.171875q0 -0.515625 -0.265625 -0.734375q-0.25 -0.21875 -0.953125 -0.21875q-0.46875 0 -0.734375 0.1875q-0.265625 0.1875 -0.4375 0.65625zm2.390625 1.453125q-0.34375 0.109375 -1.09375 0.265625q-0.734375 0.15625 -0.96875 0.3125q-0.34375 0.25 -0.34375 0.625q0 0.375 0.28125 0.65625q0.28125 0.265625 0.703125 0.265625q0.484375 0 0.921875 -0.3125q0.328125 -0.234375 0.421875 -0.59375q0.078125 -0.21875 0.078125 -0.859375l0 -0.359375zm3.6156006 3.234375l0 -9.3125l1.78125 0l0 3.359375q0.828125 -0.9375 1.953125 -0.9375q1.234375 0 2.03125 0.890625q0.8125 0.890625 0.8125 2.5625q0 1.71875 -0.828125 2.65625q-0.8125 0.9375 -1.984375 0.9375q-0.578125 0 -1.140625 -0.28125q-0.5625 -0.296875 -0.96875 -0.859375l0 0.984375l-1.65625 0zm1.765625 -3.515625q0 1.046875 0.328125 1.546875q0.46875 0.71875 1.234375 0.71875q0.59375 0 1.0 -0.5q0.421875 -0.515625 0.421875 -1.609375q0 -1.140625 -0.421875 -1.65625q-0.40625 -0.515625 -1.0625 -0.515625q-0.640625 0 -1.078125 0.5q-0.421875 0.5 -0.421875 1.515625zm6.4538574 3.515625l0 -9.3125l1.78125 0l0 9.3125l-1.78125 0zm7.6092377 -2.140625l1.765625 0.296875q-0.34375 0.96875 -1.078125 1.484375q-0.734375 0.515625 -1.84375 0.515625q-1.765625 0 -2.609375 -1.15625q-0.671875 -0.921875 -0.671875 -2.3125q0 -1.6875 0.875 -2.625q0.890625 -0.953125 2.21875 -0.953125q1.515625 0 2.375 1.0q0.875 0.984375 0.828125 3.03125l-4.46875 0q0.03125 0.796875 0.4375 1.234375q0.40625 0.4375 1.03125 0.4375q0.421875 0 0.703125 -0.21875q0.28125 -0.234375 0.4375 -0.734375zm0.09375 -1.8125q-0.015625 -0.765625 -0.40625 -1.171875q-0.375 -0.40625 -0.921875 -0.40625q-0.578125 0 -0.96875 0.421875q-0.375 0.4375 -0.375 1.15625l2.671875 0z" style="fill: rgb(0, 0, 0); fill-rule: nonzero;"/>
    <path d="m25.596474 106.06563l0.984375 0l0 -0.515625q0 -0.84375 0.171875 -1.265625q0.1875 -0.421875 0.671875 -0.6875q0.484375 -0.265625 1.234375 -0.265625q0.765625 0 1.484375 0.234375l-0.234375 1.25q-0.421875 -0.109375 -0.8125 -0.109375q-0.390625 0 -0.5625 0.1875q-0.171875 0.171875 -0.171875 0.6875l0 0.484375l1.34375 0l0 1.390625l-1.34375 0l0 5.34375l-1.78125 0l0 -5.34375l-0.984375 0l0 -1.390625zm6.9227448 6.734375l-1.78125 0l0 -6.734375l1.65625 0l0 0.953125q0.421875 -0.6875 0.765625 -0.890625q0.34375 -0.21875 0.765625 -0.21875q0.609375 0 1.171875 0.328125l-0.546875 1.5625q-0.453125 -0.296875 -0.84375 -0.296875q-0.375 0 -0.640625 0.21875q-0.25 0.203125 -0.40625 0.75q-0.140625 0.53125 -0.140625 2.25l0 2.078125zm3.0617828 -3.46875q0 -0.890625 0.4375 -1.71875q0.4375 -0.828125 1.234375 -1.265625q0.8125 -0.4375 1.8125 -0.4375q1.515625 0 2.5 1.0q0.984375 0.984375 0.984375 2.5q0 1.53125 -1.0 2.546875q-0.984375 1.0 -2.484375 1.0q-0.921875 0 -1.765625 -0.421875q-0.84375 -0.421875 -1.28125 -1.21875q-0.4375 -0.8125 -0.4375 -1.984375zm1.828125 0.09375q0 1.0 0.46875 1.546875q0.484375 0.53125 1.1875 0.53125q0.703125 0 1.171875 -0.53125q0.46875 -0.546875 0.46875 -1.5625q0 -0.984375 -0.46875 -1.515625q-0.46875 -0.53125 -1.171875 -0.53125q-0.703125 0 -1.1875 0.53125q-0.46875 0.53125 -0.46875 1.53125zm6.5944824 -3.359375l1.640625 0l0 0.90625q0.890625 -1.0625 2.109375 -1.0625q0.640625 0 1.109375 0.265625q0.484375 0.265625 0.796875 0.796875q0.4375 -0.53125 0.953125 -0.796875q0.515625 -0.265625 1.09375 -0.265625q0.75 0 1.265625 0.296875q0.515625 0.296875 0.765625 0.890625q0.1875 0.421875 0.1875 1.390625l0 4.3125l-1.78125 0l0 -3.859375q0 -1.0 -0.1875 -1.28125q-0.25 -0.390625 -0.765625 -0.390625q-0.375 0 -0.703125 0.234375q-0.328125 0.21875 -0.484375 0.671875q-0.140625 0.4375 -0.140625 1.390625l0 3.234375l-1.78125 0l0 -3.6875q0 -0.984375 -0.09375 -1.265625q-0.09375 -0.296875 -0.296875 -0.4375q-0.203125 -0.140625 -0.546875 -0.140625q-0.40625 0 -0.734375 0.234375q-0.328125 0.21875 -0.484375 0.640625q-0.140625 0.40625 -0.140625 1.375l0 3.28125l-1.78125 0l0 -6.734375zm17.022583 2.046875l-1.625 -0.296875q0.28125 -0.96875 0.9375 -1.4375q0.671875 -0.46875 1.984375 -0.46875q1.203125 0 1.78125 0.28125q0.578125 0.28125 0.8125 0.71875q0.25 0.4375 0.25 1.59375l-0.015625 2.078125q0 0.890625 0.078125 1.3125q0.09375 0.421875 0.328125 0.90625l-1.765625 0q-0.078125 -0.171875 -0.171875 -0.53125q-0.046875 -0.15625 -0.0625 -0.203125q-0.46875 0.4375 -0.984375 0.671875q-0.515625 0.21875 -1.109375 0.21875q-1.046875 0 -1.640625 -0.5625q-0.59375 -0.578125 -0.59375 -1.4375q0 -0.5625 0.265625 -1.015625q0.28125 -0.453125 0.765625 -0.6875q0.5 -0.234375 1.421875 -0.421875q1.25 -0.234375 1.734375 -0.4375l0 -0.171875q0 -0.515625 -0.265625 -0.734375q-0.25 -0.21875 -0.953125 -0.21875q-0.46875 0 -0.734375 0.1875q-0.265625 0.1875 -0.4375 0.65625zm2.390625 1.453125q-0.34375 0.109375 -1.09375 0.265625q-0.734375 0.15625 -0.96875 0.3125q-0.34375 0.25 -0.34375 0.625q0 0.375 0.28125 0.65625q0.28125 0.265625 0.703125 0.265625q0.484375 0 0.921875 -0.3125q0.328125 -0.234375 0.421875 -0.59375q0.078125 -0.21875 0.078125 -0.859375l0 -0.359375zm9.818726 3.234375l-1.78125 0l0 -3.4375q0 -1.09375 -0.125 -1.40625q-0.109375 -0.328125 -0.375 -0.5q-0.25 -0.1875 -0.609375 -0.1875q-0.453125 0 -0.828125 0.265625q-0.359375 0.25 -0.5 0.671875q-0.140625 0.40625 -0.140625 1.546875l0 3.046875l-1.78125 0l0 -6.734375l1.65625 0l0 0.984375q0.875 -1.140625 2.21875 -1.140625q0.59375 0 1.078125 0.21875q0.484375 0.203125 0.734375 0.53125q0.265625 0.328125 0.359375 0.75q0.09375 0.421875 0.09375 1.203125l0 4.1875zm1.1726074 -6.734375l1.890625 0l1.609375 4.78125l1.578125 -4.78125l1.84375 0l-2.375 6.484375l-0.421875 1.171875q-0.234375 0.59375 -0.453125 0.90625q-0.203125 0.3125 -0.484375 0.5q-0.28125 0.1875 -0.6875 0.296875q-0.390625 0.109375 -0.90625 0.109375q-0.515625 0 -1.015625 -0.109375l-0.15625 -1.390625q0.421875 0.078125 0.765625 0.078125q0.609375 0 0.90625 -0.375q0.3125 -0.359375 0.46875 -0.921875l-2.5625 -6.75zm11.334213 4.8125l1.78125 -0.28125q0.109375 0.53125 0.453125 0.796875q0.359375 0.265625 0.984375 0.265625q0.703125 0 1.046875 -0.25q0.234375 -0.171875 0.234375 -0.46875q0 -0.203125 -0.125 -0.34375q-0.140625 -0.125 -0.59375 -0.234375q-2.15625 -0.46875 -2.734375 -0.875q-0.8125 -0.546875 -0.8125 -1.515625q0 -0.875 0.6875 -1.46875q0.703125 -0.59375 2.15625 -0.59375q1.390625 0 2.0625 0.453125q0.671875 0.4375 0.921875 1.328125l-1.6875 0.3125q-0.109375 -0.390625 -0.40625 -0.59375q-0.296875 -0.21875 -0.859375 -0.21875q-0.703125 0 -1.015625 0.1875q-0.203125 0.140625 -0.203125 0.375q0 0.1875 0.1875 0.3125q0.234375 0.1875 1.65625 0.515625q1.4375 0.3125 2.0 0.78125q0.5625 0.484375 0.5625 1.328125q0 0.921875 -0.78125 1.59375q-0.78125 0.671875 -2.296875 0.671875q-1.375 0 -2.1875 -0.5625q-0.796875 -0.5625 -1.03125 -1.515625zm11.131226 -4.8125l0 1.421875l-1.21875 0l0 2.703125q0 0.828125 0.03125 0.96875q0.03125 0.140625 0.15625 0.234375q0.125 0.078125 0.296875 0.078125q0.25 0 0.71875 -0.171875l0.15625 1.390625q-0.625 0.265625 -1.40625 0.265625q-0.484375 0 -0.875 -0.15625q-0.390625 -0.171875 -0.578125 -0.421875q-0.171875 -0.265625 -0.234375 -0.703125q-0.0625 -0.3125 -0.0625 -1.25l0 -2.9375l-0.8125 0l0 -1.421875l0.8125 0l0 -1.34375l1.796875 -1.046875l0 2.390625l1.21875 0zm2.6727448 2.046875l-1.625 -0.296875q0.28125 -0.96875 0.9375 -1.4375q0.671875 -0.46875 1.984375 -0.46875q1.203125 0 1.78125 0.28125q0.578125 0.28125 0.8125 0.71875q0.25 0.4375 0.25 1.59375l-0.015625 2.078125q0 0.890625 0.078125 1.3125q0.09375 0.421875 0.328125 0.90625l-1.765625 0q-0.078125 -0.171875 -0.171875 -0.53125q-0.046875 -0.15625 -0.0625 -0.203125q-0.46875 0.4375 -0.984375 0.671875q-0.515625 0.21875 -1.109375 0.21875q-1.046875 0 -1.640625 -0.5625q-0.59375 -0.578125 -0.59375 -1.4375q0 -0.5625 0.265625 -1.015625q0.28125 -0.453125 0.765625 -0.6875q0.5 -0.234375 1.421875 -0.421875q1.25 -0.234375 1.734375 -0.4375l0 -0.171875q0 -0.515625 -0.265625 -0.734375q-0.25 -0.21875 -0.953125 -0.21875q-0.46875 0 -0.734375 0.1875q-0.265625 0.1875 -0.4375 0.65625zm2.390625 1.453125q-0.34375 0.109375 -1.09375 0.265625q-0.734375 0.15625 -0.96875 0.3125q-0.34375 0.25 -0.34375 0.625q0 0.375 0.28125 0.65625q0.28125 0.265625 0.703125 0.265625q0.484375 0 0.921875 -0.3125q0.328125 -0.234375 0.421875 -0.59375q0.078125 -0.21875 0.078125 -0.859375l0 -0.359375zm6.7874756 -3.5l0 1.421875l-1.21875 0l0 2.703125q0 0.828125 0.03125 0.96875q0.03125 0.140625 0.15625 0.234375q0.125 0.078125 0.296875 0.078125q0.25 0 0.71875 -0.171875l0.15625 1.390625q-0.625 0.265625 -1.40625 0.265625q-0.484375 0 -0.875 -0.15625q-0.390625 -0.171875 -0.578125 -0.421875q-0.171875 -0.265625 -0.234375 -0.703125q-0.0625 -0.3125 -0.0625 -1.25l0 -2.9375l-0.8125 0l0 -1.421875l0.8125 0l0 -1.34375l1.796875 -1.046875l0 2.390625l1.21875 0zm5.2508698 4.59375l1.765625 0.296875q-0.34375 0.96875 -1.078125 1.484375q-0.734375 0.515625 -1.84375 0.515625q-1.765625 0 -2.609375 -1.15625q-0.671875 -0.921875 -0.671875 -2.3125q0 -1.6875 0.875 -2.625q0.890625 -0.953125 2.21875 -0.953125q1.515625 0 2.375 1.0q0.875 0.984375 0.828125 3.03125l-4.46875 0q0.03125 0.796875 0.4375 1.234375q0.40625 0.4375 1.03125 0.4375q0.421875 0 0.703125 -0.21875q0.28125 -0.234375 0.4375 -0.734375zm0.09375 -1.8125q-0.015625 -0.765625 -0.40625 -1.171875q-0.375 -0.40625 -0.921875 -0.40625q-0.578125 0 -0.96875 0.421875q-0.375 0.4375 -0.375 1.15625l2.671875 0z" style="fill: rgb(0, 0, 0); fill-rule: nonzero;"/>
    <path d="m29.538818 126.65938l1.765625 0.296875q-0.34375 0.96875 -1.078125 1.484375q-0.734375 0.515625 -1.84375 0.515625q-1.765625 0 -2.609375 -1.15625q-0.671875 -0.921875 -0.671875 -2.3125q0 -1.6875 0.875 -2.625q0.890625 -0.953125 2.21875 -0.953125q1.515625 0 2.375 1.0q0.875 0.984375 0.828125 3.03125l-4.46875 0q0.03125 0.796875 0.4375 1.234375q0.40625 0.4375 1.03125 0.4375q0.421875 0 0.703125 -0.21875q0.28125 -0.234375 0.4375 -0.734375zm0.09375 -1.8125q-0.015625 -0.765625 -0.40625 -1.171875q-0.375 -0.40625 -0.921875 -0.40625q-0.578125 0 -0.96875 0.421875q-0.375 0.4375 -0.375 1.15625l2.671875 0zm2.5531006 3.953125l2.421875 -3.46875l-2.328125 -3.265625l2.1875 0l1.1875 1.84375l1.265625 -1.84375l2.09375 0l-2.296875 3.1875l2.5 3.546875l-2.1875 0l-1.375 -2.09375l-1.375 2.09375l-2.09375 0zm14.146851 -4.75l-1.765625 0.3125q-0.078125 -0.515625 -0.40625 -0.78125q-0.3125 -0.265625 -0.8125 -0.265625q-0.65625 0 -1.0625 0.453125q-0.390625 0.453125 -0.390625 1.546875q0 1.1875 0.40625 1.6875q0.40625 0.5 1.078125 0.5q0.515625 0 0.828125 -0.28125q0.328125 -0.296875 0.453125 -1.0l1.765625 0.296875q-0.28125 1.203125 -1.0625 1.828125q-0.765625 0.609375 -2.0625 0.609375q-1.484375 0 -2.359375 -0.9375q-0.875 -0.9375 -0.875 -2.578125q0 -1.671875 0.875 -2.59375q0.875 -0.9375 2.390625 -0.9375q1.234375 0 1.953125 0.53125q0.734375 0.53125 1.046875 1.609375zm5.4437256 2.609375l1.765625 0.296875q-0.34375 0.96875 -1.078125 1.484375q-0.734375 0.515625 -1.84375 0.515625q-1.765625 0 -2.609375 -1.15625q-0.671875 -0.921875 -0.671875 -2.3125q0 -1.6875 0.875 -2.625q0.890625 -0.953125 2.21875 -0.953125q1.515625 0 2.375 1.0q0.875 0.984375 0.828125 3.03125l-4.46875 0q0.03125 0.796875 0.4375 1.234375q0.40625 0.4375 1.03125 0.4375q0.421875 0 0.703125 -0.21875q0.28125 -0.234375 0.4375 -0.734375zm0.09375 -1.8125q-0.015625 -0.765625 -0.40625 -1.171875q-0.375 -0.40625 -0.921875 -0.40625q-0.578125 0 -0.96875 0.421875q-0.375 0.4375 -0.375 1.15625l2.671875 0zm3.3499756 -2.78125l1.671875 0l0 0.984375q0.328125 -0.515625 0.875 -0.828125q0.546875 -0.3125 1.21875 -0.3125q1.1875 0 2.0 0.921875q0.8125 0.921875 0.8125 2.5625q0 1.6875 -0.828125 2.625q-0.8125 0.9375 -1.984375 0.9375q-0.5625 0 -1.015625 -0.21875q-0.453125 -0.234375 -0.953125 -0.765625l0 3.390625l-1.796875 0l0 -9.296875zm1.765625 3.25q0 1.140625 0.453125 1.6875q0.453125 0.53125 1.109375 0.53125q0.609375 0 1.015625 -0.5q0.421875 -0.5 0.421875 -1.625q0 -1.0625 -0.421875 -1.578125q-0.421875 -0.515625 -1.046875 -0.515625q-0.65625 0 -1.09375 0.515625q-0.4375 0.5 -0.4375 1.484375zm9.531982 -3.25l0 1.421875l-1.21875 0l0 2.703125q0 0.828125 0.03125 0.96875q0.03125 0.140625 0.15625 0.234375q0.125 0.078125 0.296875 0.078125q0.25 0 0.71875 -0.171875l0.15625 1.390625q-0.625 0.265625 -1.40625 0.265625q-0.484375 0 -0.875 -0.15625q-0.390625 -0.171875 -0.578125 -0.421875q-0.171875 -0.265625 -0.234375 -0.703125q-0.0625 -0.3125 -0.0625 -1.25l0 -2.9375l-0.8125 0l0 -1.421875l0.8125 0l0 -1.34375l1.796875 -1.046875l0 2.390625l1.21875 0zm10.922607 1.984375l-1.765625 0.3125q-0.078125 -0.515625 -0.40625 -0.78125q-0.3125 -0.265625 -0.8125 -0.265625q-0.65625 0 -1.0625 0.453125q-0.390625 0.453125 -0.390625 1.546875q0 1.1875 0.40625 1.6875q0.40625 0.5 1.078125 0.5q0.515625 0 0.828125 -0.28125q0.328125 -0.296875 0.453125 -1.0l1.765625 0.296875q-0.28125 1.203125 -1.0625 1.828125q-0.765625 0.609375 -2.0625 0.609375q-1.484375 0 -2.359375 -0.9375q-0.875 -0.9375 -0.875 -2.578125q0 -1.671875 0.875 -2.59375q0.875 -0.9375 2.390625 -0.9375q1.234375 0 1.953125 0.53125q0.734375 0.53125 1.046875 1.609375zm1.5374756 4.75l0 -9.3125l1.78125 0l0 9.3125l-1.78125 0zm3.2811127 -3.46875q0 -0.890625 0.4375 -1.71875q0.4375 -0.828125 1.234375 -1.265625q0.8125 -0.4375 1.8125 -0.4375q1.515625 0 2.5 1.0q0.984375 0.984375 0.984375 2.5q0 1.53125 -1.0 2.546875q-0.984375 1.0 -2.484375 1.0q-0.921875 0 -1.765625 -0.421875q-0.84375 -0.421875 -1.28125 -1.21875q-0.4375 -0.8125 -0.4375 -1.984375zm1.828125 0.09375q0 1.0 0.46875 1.546875q0.484375 0.53125 1.1875 0.53125q0.703125 0 1.171875 -0.53125q0.46875 -0.546875 0.46875 -1.5625q0 -0.984375 -0.46875 -1.515625q-0.46875 -0.53125 -1.171875 -0.53125q-0.703125 0 -1.1875 0.53125q-0.46875 0.53125 -0.46875 1.53125zm6.1101074 1.453125l1.78125 -0.28125q0.109375 0.53125 0.453125 0.796875q0.359375 0.265625 0.984375 0.265625q0.703125 0 1.046875 -0.25q0.234375 -0.171875 0.234375 -0.46875q0 -0.203125 -0.125 -0.34375q-0.140625 -0.125 -0.59375 -0.234375q-2.15625 -0.46875 -2.734375 -0.875q-0.8125 -0.546875 -0.8125 -1.515625q0 -0.875 0.6875 -1.46875q0.703125 -0.59375 2.15625 -0.59375q1.390625 0 2.0625 0.453125q0.671875 0.4375 0.921875 1.328125l-1.6875 0.3125q-0.109375 -0.390625 -0.40625 -0.59375q-0.296875 -0.21875 -0.859375 -0.21875q-0.703125 0 -1.015625 0.1875q-0.203125 0.140625 -0.203125 0.375q0 0.1875 0.1875 0.3125q0.234375 0.1875 1.65625 0.515625q1.4375 0.3125 2.0 0.78125q0.5625 0.484375 0.5625 1.328125q0 0.921875 -0.78125 1.59375q-0.78125 0.671875 -2.296875 0.671875q-1.375 0 -2.1875 -0.5625q-0.796875 -0.5625 -1.03125 -1.515625zm11.943726 -0.21875l1.765625 0.296875q-0.34375 0.96875 -1.078125 1.484375q-0.734375 0.515625 -1.84375 0.515625q-1.765625 0 -2.609375 -1.15625q-0.671875 -0.921875 -0.671875 -2.3125q0 -1.6875 0.875 -2.625q0.890625 -0.953125 2.21875 -0.953125q1.515625 0 2.375 1.0q0.875 0.984375 0.828125 3.03125l-4.46875 0q0.03125 0.796875 0.4375 1.234375q0.40625 0.4375 1.03125 0.4375q0.421875 0 0.703125 -0.21875q0.28125 -0.234375 0.4375 -0.734375zm0.09375 -1.8125q-0.015625 -0.765625 -0.40625 -1.171875q-0.375 -0.40625 -0.921875 -0.40625q-0.578125 0 -0.96875 0.421875q-0.375 0.4375 -0.375 1.15625l2.671875 0zm9.584351 3.953125l-1.65625 0l0 -0.984375q-0.40625 0.578125 -0.96875 0.859375q-0.5625 0.28125 -1.125 0.28125q-1.171875 0 -2.0 -0.9375q-0.828125 -0.9375 -0.828125 -2.609375q0 -1.71875 0.796875 -2.609375q0.8125 -0.890625 2.046875 -0.890625q1.125 0 1.953125 0.9375l0 -3.359375l1.78125 0l0 9.3125zm-4.75 -3.515625q0 1.078125 0.296875 1.5625q0.421875 0.703125 1.203125 0.703125q0.609375 0 1.046875 -0.515625q0.4375 -0.53125 0.4375 -1.578125q0 -1.15625 -0.421875 -1.671875q-0.421875 -0.515625 -1.078125 -0.515625q-0.625 0 -1.0625 0.515625q-0.421875 0.5 -0.421875 1.5zm6.2194824 6.25q0.53125 -1.125 0.734375 -1.734375q0.21875 -0.59375 0.40625 -1.375q0.1875 -0.796875 0.265625 -1.5q0.09375 -0.71875 0.09375 -1.453125q0 -1.515625 -0.328125 -2.859375q-0.3125 -1.359375 -1.1875 -3.28125l1.21875 0q0.953125 1.375 1.484375 2.90625q0.53125 1.515625 0.53125 3.09375q0 1.328125 -0.421875 2.84375q-0.46875 1.703125 -1.5625 3.359375l-1.234375 0z" style="fill: rgb(0, 0, 0); fill-rule: nonzero;"/>
    <path d="m279.0 53.0l117.98425 0l0 86.99213l-117.98425 0z" style="fill: rgb(201, 218, 248); fill-rule: nonzero;"/>
    <path d="m279.0 53.0l117.98425 0l0 86.99213l-117.98425 0z" style="stroke: rgb(0, 0, 0); stroke-width: 1; stroke-linejoin: round; stroke-linecap: butt; fill-rule: nonzero;"/>
    <path d="m307.50818 94.9825l-2.5625 0.46875q-0.140625 -0.78125 -0.59375 -1.171875q-0.453125 -0.390625 -1.1875 -0.390625q-0.984375 0 -1.5625 0.671875q-0.578125 0.671875 -0.578125 2.25q0 1.765625 0.578125 2.484375q0.59375 0.71875 1.59375 0.71875q0.75 0 1.21875 -0.421875q0.46875 -0.421875 0.671875 -1.453125l2.546875 0.4375q-0.390625 1.765625 -1.53125 2.671875q-1.125 0.890625 -3.03125 0.890625q-2.15625 0 -3.453125 -1.359375q-1.28125 -1.359375 -1.28125 -3.78125q0 -2.4375 1.296875 -3.796875q1.296875 -1.359375 3.484375 -1.359375q1.796875 0 2.859375 0.78125q1.0625 0.765625 1.53125 2.359375zm4.3913574 -6.65625l0 5.0q1.25 -1.484375 3.015625 -1.484375q0.890625 0 1.609375 0.34375q0.734375 0.328125 1.09375 0.84375q0.375 0.515625 0.5 1.15625q0.140625 0.625 0.140625 1.953125l0 5.78125l-2.609375 0l0 -5.203125q0 -1.546875 -0.15625 -1.96875q-0.140625 -0.421875 -0.515625 -0.65625q-0.375 -0.25 -0.9375 -0.25q-0.65625 0 -1.171875 0.3125q-0.5 0.3125 -0.734375 0.953125q-0.234375 0.640625 -0.234375 1.875l0 4.9375l-2.609375 0l0 -13.59375l2.609375 0zm14.489746 10.453125l2.609375 0.4375q-0.5 1.4375 -1.59375 2.1875q-1.078125 0.734375 -2.703125 0.734375q-2.5625 0 -3.796875 -1.671875q-0.96875 -1.34375 -0.96875 -3.40625q0 -2.4375 1.265625 -3.828125q1.28125 -1.390625 3.25 -1.390625q2.1875 0 3.453125 1.453125q1.28125 1.453125 1.234375 4.453125l-6.53125 0q0.015625 1.15625 0.625 1.8125q0.609375 0.640625 1.5 0.640625q0.609375 0 1.03125 -0.328125q0.421875 -0.34375 0.625 -1.09375zm0.15625 -2.625q-0.03125 -1.140625 -0.59375 -1.71875q-0.546875 -0.59375 -1.34375 -0.59375q-0.859375 0 -1.40625 0.625q-0.5625 0.609375 -0.546875 1.6875l3.890625 0zm13.110077 -1.171875l-2.5625 0.46875q-0.140625 -0.78125 -0.59375 -1.171875q-0.453125 -0.390625 -1.1875 -0.390625q-0.984375 0 -1.5625 0.671875q-0.578125 0.671875 -0.578125 2.25q0 1.765625 0.578125 2.484375q0.59375 0.71875 1.59375 0.71875q0.75 0 1.21875 -0.421875q0.46875 -0.421875 0.671875 -1.453125l2.546875 0.4375q-0.390625 1.765625 -1.53125 2.671875q-1.125 0.890625 -3.03125 0.890625q-2.15625 0 -3.453125 -1.359375q-1.28125 -1.359375 -1.28125 -3.78125q0 -2.4375 1.296875 -3.796875q1.296875 -1.359375 3.484375 -1.359375q1.796875 0 2.859375 0.78125q1.0625 0.765625 1.53125 2.359375zm1.6882019 6.9375l0 -13.59375l2.609375 0l0 7.203125l3.0625 -3.46875l3.203125 0l-3.375 3.609375l3.609375 6.25l-2.796875 0l-2.484375 -4.421875l-1.21875 1.265625l0 3.15625l-2.609375 0zm10.469482 -11.1875l0 -2.40625l2.609375 0l0 2.40625l-2.609375 0zm0 11.1875l0 -9.859375l2.609375 0l0 9.859375l-2.609375 0zm14.152039 0l-2.609375 0l0 -5.03125q0 -1.59375 -0.171875 -2.0625q-0.15625 -0.46875 -0.53125 -0.71875q-0.375 -0.265625 -0.90625 -0.265625q-0.6875 0 -1.234375 0.375q-0.53125 0.359375 -0.734375 0.984375q-0.1875 0.609375 -0.1875 2.25l0 4.46875l-2.609375 0l0 -9.859375l2.421875 0l0 1.453125q1.296875 -1.671875 3.25 -1.671875q0.859375 0 1.578125 0.3125q0.71875 0.3125 1.078125 0.796875q0.359375 0.484375 0.5 1.09375q0.15625 0.609375 0.15625 1.75l0 6.125zm2.192871 0.65625l2.96875 0.359375q0.078125 0.515625 0.34375 0.703125q0.375 0.28125 1.171875 0.28125q1.03125 0 1.53125 -0.296875q0.34375 -0.203125 0.515625 -0.65625q0.125 -0.328125 0.125 -1.203125l0 -1.4375q-1.171875 1.59375 -2.953125 1.59375q-1.984375 0 -3.140625 -1.671875q-0.90625 -1.328125 -0.90625 -3.3125q0 -2.46875 1.1875 -3.78125q1.1875 -1.3125 2.96875 -1.3125q1.828125 0 3.015625 1.609375l0 -1.390625l2.4375 0l0 8.84375q0 1.75 -0.296875 2.609375q-0.28125 0.859375 -0.796875 1.34375q-0.515625 0.5 -1.390625 0.78125q-0.859375 0.28125 -2.1875 0.28125q-2.515625 0 -3.5625 -0.859375q-1.046875 -0.859375 -1.046875 -2.171875q0 -0.140625 0.015625 -0.3125zm2.328125 -5.78125q0 1.5625 0.609375 2.296875q0.609375 0.71875 1.5 0.71875q0.953125 0 1.609375 -0.734375q0.65625 -0.75 0.65625 -2.21875q0 -1.53125 -0.640625 -2.265625q-0.625 -0.75 -1.578125 -0.75q-0.9375 0 -1.546875 0.734375q-0.609375 0.71875 -0.609375 2.21875z" style="fill: rgb(0, 0, 0); fill-rule: nonzero;"/>
    <path d="m510.0 53.0l117.98425 0l0 86.99213l-117.98425 0z" style="fill: rgb(201, 218, 248); fill-rule: nonzero;"/>
    <path d="m510.0 53.0l117.98425 0l0 86.99213l-117.98425 0z" style="stroke: rgb(0, 0, 0); stroke-width: 1; stroke-linejoin: round; stroke-linecap: butt; fill-rule: nonzero;"/>
    <path d="m532.29553 94.9825l-2.5625 0.46875q-0.140625 -0.78125 -0.59375 -1.171875q-0.453125 -0.390625 -1.1875 -0.390625q-0.984375 0 -1.5625 0.671875q-0.578125 0.671875 -0.578125 2.25q0 1.765625 0.578125 2.484375q0.59375 0.71875 1.59375 0.71875q0.75 0 1.21875 -0.421875q0.46875 -0.421875 0.671875 -1.453125l2.546875 0.4375q-0.390625 1.765625 -1.53125 2.671875q-1.125 0.890625 -3.03125 0.890625q-2.15625 0 -3.453125 -1.359375q-1.28125 -1.359375 -1.28125 -3.78125q0 -2.4375 1.296875 -3.796875q1.296875 -1.359375 3.484375 -1.359375q1.796875 0 2.859375 0.78125q1.0625 0.765625 1.53125 2.359375zm1.1882324 1.875q0 -1.296875 0.640625 -2.515625q0.640625 -1.21875 1.8125 -1.859375q1.171875 -0.640625 2.609375 -0.640625q2.25 0 3.671875 1.453125q1.421875 1.453125 1.421875 3.671875q0 2.234375 -1.4375 3.703125q-1.4375 1.46875 -3.625 1.46875q-1.359375 0 -2.59375 -0.609375q-1.21875 -0.609375 -1.859375 -1.796875q-0.640625 -1.1875 -0.640625 -2.875zm2.671875 0.140625q0 1.46875 0.6875 2.25q0.703125 0.765625 1.71875 0.765625q1.015625 0 1.703125 -0.765625q0.703125 -0.78125 0.703125 -2.265625q0 -1.453125 -0.703125 -2.234375q-0.6875 -0.78125 -1.703125 -0.78125q-1.015625 0 -1.71875 0.78125q-0.6875 0.78125 -0.6875 2.25zm18.28656 4.921875l-2.609375 0l0 -5.03125q0 -1.59375 -0.171875 -2.0625q-0.15625 -0.46875 -0.53125 -0.71875q-0.375 -0.265625 -0.90625 -0.265625q-0.6875 0 -1.234375 0.375q-0.53125 0.359375 -0.734375 0.984375q-0.1875 0.609375 -0.1875 2.25l0 4.46875l-2.609375 0l0 -9.859375l2.421875 0l0 1.453125q1.296875 -1.671875 3.25 -1.671875q0.859375 0 1.578125 0.3125q0.71875 0.3125 1.078125 0.796875q0.359375 0.484375 0.5 1.09375q0.15625 0.609375 0.15625 1.75l0 6.125zm11.395996 0l-2.609375 0l0 -5.03125q0 -1.59375 -0.171875 -2.0625q-0.15625 -0.46875 -0.53125 -0.71875q-0.375 -0.265625 -0.90625 -0.265625q-0.6875 0 -1.234375 0.375q-0.53125 0.359375 -0.734375 0.984375q-0.1875 0.609375 -0.1875 2.25l0 4.46875l-2.609375 0l0 -9.859375l2.421875 0l0 1.453125q1.296875 -1.671875 3.25 -1.671875q0.859375 0 1.578125 0.3125q0.71875 0.3125 1.078125 0.796875q0.359375 0.484375 0.5 1.09375q0.15625 0.609375 0.15625 1.75l0 6.125zm8.130371 -3.140625l2.609375 0.4375q-0.5 1.4375 -1.59375 2.1875q-1.078125 0.734375 -2.703125 0.734375q-2.5625 0 -3.796875 -1.671875q-0.96875 -1.34375 -0.96875 -3.40625q0 -2.4375 1.265625 -3.828125q1.28125 -1.390625 3.25 -1.390625q2.1875 0 3.453125 1.453125q1.28125 1.453125 1.234375 4.453125l-6.53125 0q0.015625 1.15625 0.625 1.8125q0.609375 0.640625 1.5 0.640625q0.609375 0 1.03125 -0.328125q0.421875 -0.34375 0.625 -1.09375zm0.15625 -2.625q-0.03125 -1.140625 -0.59375 -1.71875q-0.546875 -0.59375 -1.34375 -0.59375q-0.859375 0 -1.40625 0.625q-0.5625 0.609375 -0.546875 1.6875l3.890625 0zm13.110046 -1.171875l-2.5625 0.46875q-0.140625 -0.78125 -0.59375 -1.171875q-0.453125 -0.390625 -1.1875 -0.390625q-0.984375 0 -1.5625 0.671875q-0.578125 0.671875 -0.578125 2.25q0 1.765625 0.578125 2.484375q0.59375 0.71875 1.59375 0.71875q0.75 0 1.21875 -0.421875q0.46875 -0.421875 0.671875 -1.453125l2.546875 0.4375q-0.390625 1.765625 -1.53125 2.671875q-1.125 0.890625 -3.03125 0.890625q-2.15625 0 -3.453125 -1.359375q-1.28125 -1.359375 -1.28125 -3.78125q0 -2.4375 1.296875 -3.796875q1.296875 -1.359375 3.484375 -1.359375q1.796875 0 2.859375 0.78125q1.0625 0.765625 1.53125 2.359375zm6.2976074 -2.921875l0 2.078125l-1.78125 0l0 3.984375q0 1.203125 0.046875 1.40625q0.0625 0.1875 0.234375 0.328125q0.1875 0.125 0.453125 0.125q0.359375 0 1.046875 -0.25l0.21875 2.015625q-0.90625 0.390625 -2.0625 0.390625q-0.703125 0 -1.265625 -0.234375q-0.5625 -0.234375 -0.828125 -0.609375q-0.265625 -0.375 -0.375 -1.015625q-0.078125 -0.453125 -0.078125 -1.84375l0 -4.296875l-1.203125 0l0 -2.078125l1.203125 0l0 -1.953125l2.609375 -1.515625l0 3.46875l1.78125 0zm7.4002075 6.71875l2.609375 0.4375q-0.5 1.4375 -1.59375 2.1875q-1.078125 0.734375 -2.703125 0.734375q-2.5625 0 -3.796875 -1.671875q-0.96875 -1.34375 -0.96875 -3.40625q0 -2.4375 1.265625 -3.828125q1.28125 -1.390625 3.25 -1.390625q2.1875 0 3.453125 1.453125q1.28125 1.453125 1.234375 4.453125l-6.53125 0q0.015625 1.15625 0.625 1.8125q0.609375 0.640625 1.5 0.640625q0.609375 0 1.03125 -0.328125q0.421875 -0.34375 0.625 -1.09375zm0.15625 -2.625q-0.03125 -1.140625 -0.59375 -1.71875q-0.546875 -0.59375 -1.34375 -0.59375q-0.859375 0 -1.40625 0.625q-0.5625 0.609375 -0.546875 1.6875l3.890625 0zm13.563171 5.765625l-2.421875 0l0 -1.453125q-0.609375 0.84375 -1.4375 1.265625q-0.8125 0.40625 -1.640625 0.40625q-1.703125 0 -2.921875 -1.359375q-1.203125 -1.375 -1.203125 -3.828125q0 -2.5 1.171875 -3.796875q1.1875 -1.3125 2.984375 -1.3125q1.65625 0 2.859375 1.375l0 -4.890625l2.609375 0l0 13.59375zm-6.96875 -5.140625q0 1.578125 0.4375 2.28125q0.640625 1.015625 1.765625 1.015625q0.90625 0 1.53125 -0.765625q0.625 -0.765625 0.625 -2.28125q0 -1.703125 -0.609375 -2.4375q-0.609375 -0.75 -1.5625 -0.75q-0.9375 0 -1.5625 0.734375q-0.625 0.734375 -0.625 2.203125z" style="fill: rgb(0, 0, 0); fill-rule: nonzero;"/>
    <path d="m719.0 53.0l117.98425 0l0 86.99213l-117.98425 0z" style="fill: rgb(201, 218, 248); fill-rule: nonzero;"/>
    <path d="m719.0 53.0l117.98425 0l0 86.99213l-117.98425 0z" style="stroke: rgb(0, 0, 0); stroke-width: 1; stroke-linejoin: round; stroke-linecap: butt; fill-rule: nonzero;"/>
    <path d="m741.29553 94.9825l-2.5625 0.46875q-0.140625 -0.78125 -0.59375 -1.171875q-0.453125 -0.390625 -1.1875 -0.390625q-0.984375 0 -1.5625 0.671875q-0.578125 0.671875 -0.578125 2.25q0 1.765625 0.578125 2.484375q0.59375 0.71875 1.59375 0.71875q0.75 0 1.21875 -0.421875q0.46875 -0.421875 0.671875 -1.453125l2.546875 0.4375q-0.390625 1.765625 -1.53125 2.671875q-1.125 0.890625 -3.03125 0.890625q-2.15625 0 -3.453125 -1.359375q-1.28125 -1.359375 -1.28125 -3.78125q0 -2.4375 1.296875 -3.796875q1.296875 -1.359375 3.484375 -1.359375q1.796875 0 2.859375 0.78125q1.0625 0.765625 1.53125 2.359375zm1.1882324 1.875q0 -1.296875 0.640625 -2.515625q0.640625 -1.21875 1.8125 -1.859375q1.171875 -0.640625 2.609375 -0.640625q2.25 0 3.671875 1.453125q1.421875 1.453125 1.421875 3.671875q0 2.234375 -1.4375 3.703125q-1.4375 1.46875 -3.625 1.46875q-1.359375 0 -2.59375 -0.609375q-1.21875 -0.609375 -1.859375 -1.796875q-0.640625 -1.1875 -0.640625 -2.875zm2.671875 0.140625q0 1.46875 0.6875 2.25q0.703125 0.765625 1.71875 0.765625q1.015625 0 1.703125 -0.765625q0.703125 -0.78125 0.703125 -2.265625q0 -1.453125 -0.703125 -2.234375q-0.6875 -0.78125 -1.703125 -0.78125q-1.015625 0 -1.71875 0.78125q-0.6875 0.78125 -0.6875 2.25zm9.13031 -4.9375l2.40625 0l0 1.359375q1.28125 -1.578125 3.0625 -1.578125q0.953125 0 1.640625 0.390625q0.703125 0.390625 1.140625 1.1875q0.65625 -0.796875 1.40625 -1.1875q0.75 -0.390625 1.609375 -0.390625q1.078125 0 1.828125 0.453125q0.75 0.4375 1.125 1.28125q0.265625 0.640625 0.265625 2.046875l0 6.296875l-2.609375 0l0 -5.625q0 -1.46875 -0.265625 -1.90625q-0.359375 -0.546875 -1.109375 -0.546875q-0.546875 0 -1.03125 0.34375q-0.484375 0.328125 -0.703125 0.96875q-0.203125 0.640625 -0.203125 2.03125l0 4.734375l-2.609375 0l0 -5.40625q0 -1.4375 -0.140625 -1.84375q-0.140625 -0.421875 -0.4375 -0.625q-0.28125 -0.203125 -0.78125 -0.203125q-0.609375 0 -1.09375 0.328125q-0.484375 0.3125 -0.6875 0.9375q-0.203125 0.609375 -0.203125 2.03125l0 4.78125l-2.609375 0l0 -9.859375zm16.71344 0l2.421875 0l0 1.453125q0.46875 -0.734375 1.28125 -1.203125q0.8125 -0.46875 1.796875 -0.46875q1.703125 0 2.90625 1.34375q1.203125 1.34375 1.203125 3.75q0 2.46875 -1.21875 3.84375q-1.203125 1.359375 -2.921875 1.359375q-0.8125 0 -1.484375 -0.3125q-0.65625 -0.328125 -1.390625 -1.125l0 4.96875l-2.59375 0l0 -13.609375zm2.578125 4.765625q0 1.65625 0.65625 2.453125q0.65625 0.796875 1.59375 0.796875q0.921875 0 1.515625 -0.71875q0.609375 -0.734375 0.609375 -2.40625q0 -1.546875 -0.625 -2.296875q-0.625 -0.75 -1.53125 -0.75q-0.96875 0 -1.59375 0.734375q-0.625 0.734375 -0.625 2.1875zm8.88031 5.09375l0 -13.59375l2.609375 0l0 13.59375l-2.609375 0zm10.886414 -3.140625l2.609375 0.4375q-0.5 1.4375 -1.59375 2.1875q-1.078125 0.734375 -2.703125 0.734375q-2.5625 0 -3.796875 -1.671875q-0.96875 -1.34375 -0.96875 -3.40625q0 -2.4375 1.265625 -3.828125q1.28125 -1.390625 3.25 -1.390625q2.1875 0 3.453125 1.453125q1.28125 1.453125 1.234375 4.453125l-6.53125 0q0.015625 1.15625 0.625 1.8125q0.609375 0.640625 1.5 0.640625q0.609375 0 1.03125 -0.328125q0.421875 -0.34375 0.625 -1.09375zm0.15625 -2.625q-0.03125 -1.140625 -0.59375 -1.71875q-0.546875 -0.59375 -1.34375 -0.59375q-0.859375 0 -1.40625 0.625q-0.5625 0.609375 -0.546875 1.6875l3.890625 0zm9.031982 -4.09375l0 2.078125l-1.78125 0l0 3.984375q0 1.203125 0.046875 1.40625q0.0625 0.1875 0.234375 0.328125q0.1875 0.125 0.453125 0.125q0.359375 0 1.046875 -0.25l0.21875 2.015625q-0.90625 0.390625 -2.0625 0.390625q-0.703125 0 -1.265625 -0.234375q-0.5625 -0.234375 -0.828125 -0.609375q-0.265625 -0.375 -0.375 -1.015625q-0.078125 -0.453125 -0.078125 -1.84375l0 -4.296875l-1.203125 0l0 -2.078125l1.203125 0l0 -1.953125l2.609375 -1.515625l0 3.46875l1.78125 0zm7.4002075 6.71875l2.609375 0.4375q-0.5 1.4375 -1.59375 2.1875q-1.078125 0.734375 -2.703125 0.734375q-2.5625 0 -3.796875 -1.671875q-0.96875 -1.34375 -0.96875 -3.40625q0 -2.4375 1.265625 -3.828125q1.28125 -1.390625 3.25 -1.390625q2.1875 0 3.453125 1.453125q1.28125 1.453125 1.234375 4.453125l-6.53125 0q0.015625 1.15625 0.625 1.8125q0.609375 0.640625 1.5 0.640625q0.609375 0 1.03125 -0.328125q0.421875 -0.34375 0.625 -1.09375zm0.15625 -2.625q-0.03125 -1.140625 -0.59375 -1.71875q-0.546875 -0.59375 -1.34375 -0.59375q-0.859375 0 -1.40625 0.625q-0.5625 0.609375 -0.546875 1.6875l3.890625 0zm13.563171 5.765625l-2.421875 0l0 -1.453125q-0.609375 0.84375 -1.4375 1.265625q-0.8125 0.40625 -1.640625 0.40625q-1.703125 0 -2.921875 -1.359375q-1.203125 -1.375 -1.203125 -3.828125q0 -2.5 1.171875 -3.796875q1.1875 -1.3125 2.984375 -1.3125q1.65625 0 2.859375 1.375l0 -4.890625l2.609375 0l0 13.59375zm-6.96875 -5.140625q0 1.578125 0.4375 2.28125q0.640625 1.015625 1.765625 1.015625q0.90625 0 1.53125 -0.765625q0.625 -0.765625 0.625 -2.28125q0 -1.703125 -0.609375 -2.4375q-0.609375 -0.75 -1.5625 -0.75q-0.9375 0 -1.5625 0.734375q-0.625 0.734375 -0.625 2.203125z" style="fill: rgb(0, 0, 0); fill-rule: nonzero;"/>
    <path d="m510.0 268.0l117.98425 0l0 86.99213l-117.98425 0z" style="fill: rgb(201, 218, 248); fill-rule: nonzero;"/>
    <path d="m510.0 268.0l117.98425 0l0 86.99213l-117.98425 0z" style="stroke: rgb(0, 0, 0); stroke-width: 1; stroke-linejoin: round; stroke-linecap: butt; fill-rule: nonzero;"/>
    <path d="m529.9596 313.08002l-1.90625 0l0 -1.140625q-0.46875 0.671875 -1.125 1.0q-0.640625 0.3125 -1.296875 0.3125q-1.34375 0 -2.3125 -1.078125q-0.953125 -1.078125 -0.953125 -3.015625q0 -1.96875 0.921875 -3.0q0.9375 -1.03125 2.359375 -1.03125q1.3125 0 2.265625 1.078125l0 -3.859375l2.046875 0l0 10.734375zm-5.484375 -4.0625q0 1.25 0.34375 1.8125q0.5 0.796875 1.390625 0.796875q0.703125 0 1.203125 -0.59375q0.5 -0.609375 0.5 -1.8125q0 -1.34375 -0.484375 -1.921875q-0.484375 -0.59375 -1.234375 -0.59375q-0.734375 0 -1.234375 0.578125q-0.484375 0.578125 -0.484375 1.734375zm7.3120117 -4.765625l0 -1.90625l2.0625 0l0 1.90625l-2.0625 0zm0 8.828125l0 -7.78125l2.0625 0l0 7.78125l-2.0625 0zm3.3532104 -2.21875l2.0625 -0.3125q0.125 0.59375 0.53125 0.90625q0.40625 0.3125 1.125 0.3125q0.796875 0 1.203125 -0.296875q0.265625 -0.203125 0.265625 -0.546875q0 -0.234375 -0.140625 -0.390625q-0.15625 -0.140625 -0.6875 -0.265625q-2.484375 -0.546875 -3.15625 -1.0q-0.921875 -0.640625 -0.921875 -1.75q0 -1.015625 0.796875 -1.703125q0.796875 -0.6875 2.46875 -0.6875q1.609375 0 2.375 0.515625q0.78125 0.515625 1.078125 1.546875l-1.953125 0.359375q-0.125 -0.453125 -0.46875 -0.6875q-0.34375 -0.25 -0.984375 -0.25q-0.8125 0 -1.171875 0.21875q-0.234375 0.15625 -0.234375 0.421875q0 0.21875 0.203125 0.375q0.28125 0.203125 1.921875 0.578125q1.65625 0.375 2.296875 0.90625q0.65625 0.5625 0.65625 1.53125q0 1.078125 -0.90625 1.84375q-0.890625 0.765625 -2.640625 0.765625q-1.59375 0 -2.515625 -0.640625q-0.921875 -0.640625 -1.203125 -1.75zm15.651123 -3.265625l-2.03125 0.375q-0.09375 -0.609375 -0.46875 -0.90625q-0.359375 -0.3125 -0.9375 -0.3125q-0.765625 0 -1.234375 0.53125q-0.453125 0.515625 -0.453125 1.765625q0 1.390625 0.46875 1.96875q0.46875 0.5625 1.25 0.5625q0.59375 0 0.953125 -0.328125q0.375 -0.34375 0.53125 -1.15625l2.03125 0.34375q-0.328125 1.390625 -1.21875 2.109375q-0.890625 0.703125 -2.390625 0.703125q-1.703125 0 -2.71875 -1.078125q-1.015625 -1.078125 -1.015625 -2.96875q0 -1.9375 1.015625 -3.0q1.015625 -1.078125 2.75 -1.078125q1.421875 0 2.265625 0.609375q0.84375 0.609375 1.203125 1.859375zm0.88549805 1.484375q0 -1.03125 0.5 -1.984375q0.515625 -0.953125 1.4375 -1.453125q0.9375 -0.515625 2.078125 -0.515625q1.765625 0 2.890625 1.15625q1.125 1.140625 1.125 2.890625q0 1.765625 -1.140625 2.921875q-1.140625 1.15625 -2.859375 1.15625q-1.078125 0 -2.046875 -0.484375q-0.96875 -0.484375 -1.484375 -1.40625q-0.5 -0.9375 -0.5 -2.28125zm2.109375 0.109375q0 1.15625 0.546875 1.78125q0.5625 0.609375 1.359375 0.609375q0.8125 0 1.359375 -0.609375q0.546875 -0.625 0.546875 -1.796875q0 -1.140625 -0.546875 -1.75q-0.546875 -0.625 -1.359375 -0.625q-0.796875 0 -1.359375 0.625q-0.546875 0.609375 -0.546875 1.765625zm14.405762 3.890625l-2.0625 0l0 -3.96875q0 -1.265625 -0.140625 -1.625q-0.125 -0.375 -0.421875 -0.578125q-0.296875 -0.203125 -0.71875 -0.203125q-0.53125 0 -0.953125 0.296875q-0.421875 0.28125 -0.578125 0.765625q-0.15625 0.484375 -0.15625 1.796875l0 3.515625l-2.0625 0l0 -7.78125l1.90625 0l0 1.140625q1.015625 -1.3125 2.5625 -1.3125q0.6875 0 1.25 0.25q0.5625 0.234375 0.84375 0.625q0.296875 0.375 0.40625 0.859375q0.125 0.484375 0.125 1.390625l0 4.828125zm8.952576 0l-2.0625 0l0 -3.96875q0 -1.265625 -0.140625 -1.625q-0.125 -0.375 -0.421875 -0.578125q-0.296875 -0.203125 -0.71875 -0.203125q-0.53125 0 -0.953125 0.296875q-0.421875 0.28125 -0.578125 0.765625q-0.15625 0.484375 -0.15625 1.796875l0 3.515625l-2.0625 0l0 -7.78125l1.90625 0l0 1.140625q1.015625 -1.3125 2.5625 -1.3125q0.6875 0 1.25 0.25q0.5625 0.234375 0.84375 0.625q0.296875 0.375 0.40625 0.859375q0.125 0.484375 0.125 1.390625l0 4.828125zm6.3745117 -2.46875l2.046875 0.34375q-0.390625 1.125 -1.25 1.71875q-0.84375 0.578125 -2.125 0.578125q-2.03125 0 -3.0 -1.328125q-0.78125 -1.0625 -0.78125 -2.671875q0 -1.9375 1.015625 -3.03125q1.015625 -1.09375 2.5625 -1.09375q1.734375 0 2.734375 1.15625q1.0 1.140625 0.953125 3.5l-5.15625 0q0.03125 0.921875 0.5 1.4375q0.484375 0.5 1.1875 0.5q0.484375 0 0.8125 -0.265625q0.328125 -0.265625 0.5 -0.84375zm0.125 -2.09375q-0.03125 -0.890625 -0.46875 -1.34375q-0.4375 -0.46875 -1.0625 -0.46875q-0.671875 0 -1.125 0.484375q-0.4375 0.5 -0.421875 1.328125l3.078125 0zm10.307373 -0.921875l-2.03125 0.375q-0.09375 -0.609375 -0.46875 -0.90625q-0.359375 -0.3125 -0.9375 -0.3125q-0.765625 0 -1.234375 0.53125q-0.453125 0.515625 -0.453125 1.765625q0 1.390625 0.46875 1.96875q0.46875 0.5625 1.25 0.5625q0.59375 0 0.953125 -0.328125q0.375 -0.34375 0.53125 -1.15625l2.03125 0.34375q-0.328125 1.390625 -1.21875 2.109375q-0.890625 0.703125 -2.390625 0.703125q-1.703125 0 -2.71875 -1.078125q-1.015625 -1.078125 -1.015625 -2.96875q0 -1.9375 1.015625 -3.0q1.015625 -1.078125 2.75 -1.078125q1.421875 0 2.265625 0.609375q0.84375 0.609375 1.203125 1.859375zm4.932373 -2.296875l0 1.640625l-1.40625 0l0 3.140625q0 0.953125 0.03125 1.109375q0.046875 0.15625 0.1875 0.265625q0.15625 0.09375 0.359375 0.09375q0.28125 0 0.828125 -0.203125l0.171875 1.609375q-0.71875 0.296875 -1.625 0.296875q-0.5625 0 -1.015625 -0.1875q-0.4375 -0.1875 -0.65625 -0.484375q-0.203125 -0.296875 -0.28125 -0.796875q-0.0625 -0.359375 -0.0625 -1.453125l0 -3.390625l-0.9375 0l0 -1.640625l0.9375 0l0 -1.546875l2.0625 -1.203125l0 2.75l1.40625 0zm5.818115 5.3125l2.046875 0.34375q-0.390625 1.125 -1.25 1.71875q-0.84375 0.578125 -2.125 0.578125q-2.03125 0 -3.0 -1.328125q-0.78125 -1.0625 -0.78125 -2.671875q0 -1.9375 1.015625 -3.03125q1.015625 -1.09375 2.5625 -1.09375q1.734375 0 2.734375 1.15625q1.0 1.140625 0.953125 3.5l-5.15625 0q0.03125 0.921875 0.5 1.4375q0.484375 0.5 1.1875 0.5q0.484375 0 0.8125 -0.265625q0.328125 -0.265625 0.5 -0.84375zm0.125 -2.09375q-0.03125 -0.890625 -0.46875 -1.34375q-0.4375 -0.46875 -1.0625 -0.46875q-0.671875 0 -1.125 0.484375q-0.4375 0.5 -0.421875 1.328125l3.078125 0zm10.651123 4.5625l-1.90625 0l0 -1.140625q-0.46875 0.671875 -1.125 1.0q-0.640625 0.3125 -1.296875 0.3125q-1.34375 0 -2.3125 -1.078125q-0.953125 -1.078125 -0.953125 -3.015625q0 -1.96875 0.921875 -3.0q0.9375 -1.03125 2.359375 -1.03125q1.3125 0 2.265625 1.078125l0 -3.859375l2.046875 0l0 10.734375zm-5.484375 -4.0625q0 1.25 0.34375 1.8125q0.5 0.796875 1.390625 0.796875q0.703125 0 1.203125 -0.59375q0.5 -0.609375 0.5 -1.8125q0 -1.34375 -0.484375 -1.921875q-0.484375 -0.59375 -1.234375 -0.59375q-0.734375 0 -1.234375 0.578125q-0.484375 0.578125 -0.484375 1.734375z" style="fill: rgb(0, 0, 0); fill-rule: nonzero;"/>
    <path d="m279.0 268.0l117.98425 0l0 86.99213l-117.98425 0z" style="fill: rgb(201, 218, 248); fill-rule: nonzero;"/>
    <path d="m279.0 268.0l117.98425 0l0 86.99213l-117.98425 0z" style="stroke: rgb(0, 0, 0); stroke-width: 1; stroke-linejoin: round; stroke-linecap: butt; fill-rule: nonzero;"/>
    <path d="m317.2851 306.0631l1.21875 0l0 -0.625q0 -1.046875 0.21875 -1.5625q0.234375 -0.515625 0.828125 -0.84375q0.59375 -0.328125 1.515625 -0.328125q0.9375 0 1.828125 0.28125l-0.296875 1.53125q-0.515625 -0.125 -1.0 -0.125q-0.484375 0 -0.6875 0.234375q-0.203125 0.21875 -0.203125 0.84375l0 0.59375l1.640625 0l0 1.71875l-1.640625 0l0 6.578125l-2.203125 0l0 -6.578125l-1.21875 0l0 -1.71875zm7.9375 2.53125l-2.0 -0.359375q0.34375 -1.203125 1.15625 -1.78125q0.828125 -0.578125 2.4375 -0.578125q1.46875 0 2.1875 0.34375q0.71875 0.34375 1.015625 0.890625q0.296875 0.53125 0.296875 1.953125l-0.03125 2.5625q0 1.09375 0.109375 1.625q0.109375 0.515625 0.390625 1.109375l-2.171875 0q-0.078125 -0.21875 -0.203125 -0.65625q-0.0625 -0.1875 -0.078125 -0.25q-0.5625 0.546875 -1.203125 0.828125q-0.640625 0.265625 -1.375 0.265625q-1.28125 0 -2.015625 -0.6875q-0.734375 -0.703125 -0.734375 -1.765625q0 -0.703125 0.328125 -1.25q0.34375 -0.5625 0.9375 -0.84375q0.609375 -0.296875 1.75 -0.515625q1.546875 -0.296875 2.140625 -0.546875l0 -0.21875q0 -0.625 -0.3125 -0.890625q-0.3125 -0.28125 -1.1875 -0.28125q-0.578125 0 -0.90625 0.234375q-0.328125 0.234375 -0.53125 0.8125zm2.9375 1.78125q-0.421875 0.140625 -1.34375 0.34375q-0.90625 0.1875 -1.1875 0.375q-0.4375 0.296875 -0.4375 0.765625q0 0.46875 0.34375 0.8125q0.34375 0.328125 0.875 0.328125q0.59375 0 1.140625 -0.390625q0.390625 -0.296875 0.515625 -0.734375q0.09375 -0.28125 0.09375 -1.0625l0 -0.4375zm4.3203125 -5.4375l0 -2.03125l2.1875 0l0 2.03125l-2.1875 0zm0 9.421875l0 -8.296875l2.1875 0l0 8.296875l-2.1875 0zm4.4453125 0l0 -11.453125l2.1875 0l0 11.453125l-2.1875 0zm9.2421875 -2.640625l2.1875 0.359375q-0.421875 1.203125 -1.328125 1.84375q-0.90625 0.625 -2.28125 0.625q-2.15625 0 -3.203125 -1.421875q-0.8125 -1.125 -0.8125 -2.859375q0 -2.0625 1.078125 -3.21875q1.078125 -1.171875 2.71875 -1.171875q1.859375 0 2.921875 1.21875q1.078125 1.21875 1.03125 3.75l-5.5 0q0.015625 0.96875 0.515625 1.515625q0.515625 0.546875 1.28125 0.546875q0.515625 0 0.859375 -0.28125q0.359375 -0.28125 0.53125 -0.90625zm0.125 -2.21875q-0.015625 -0.953125 -0.484375 -1.453125q-0.46875 -0.5 -1.140625 -0.5q-0.71875 0 -1.1875 0.53125q-0.46875 0.515625 -0.46875 1.421875l3.28125 0zm11.5859375 4.859375l-2.046875 0l0 -1.21875q-0.5 0.703125 -1.203125 1.0625q-0.6875 0.34375 -1.390625 0.34375q-1.421875 0 -2.453125 -1.15625q-1.015625 -1.15625 -1.015625 -3.21875q0 -2.109375 0.984375 -3.203125q1.0 -1.09375 2.515625 -1.09375q1.390625 0 2.40625 1.15625l0 -4.125l2.203125 0l0 11.453125zm-5.859375 -4.328125q0 1.328125 0.359375 1.921875q0.53125 0.859375 1.484375 0.859375q0.765625 0 1.296875 -0.640625q0.53125 -0.65625 0.53125 -1.9375q0 -1.421875 -0.515625 -2.046875q-0.515625 -0.640625 -1.328125 -0.640625q-0.78125 0 -1.3125 0.625q-0.515625 0.625 -0.515625 1.859375z" style="fill: rgb(0, 0, 0); fill-rule: nonzero;"/>
    <path d="m733.0 268.0l117.98425 0l0 86.99213l-117.98425 0z" style="fill: rgb(201, 218, 248); fill-rule: nonzero;"/>
    <path d="m733.0 268.0l117.98425 0l0 86.99213l-117.98425 0z" style="stroke: rgb(0, 0, 0); stroke-width: 1; stroke-linejoin: round; stroke-linecap: butt; fill-rule: nonzero;"/>
    <path d="m767.50305 287.98248l-2.5625 0.46875q-0.140625 -0.78125 -0.59375 -1.171875q-0.453125 -0.390625 -1.1875 -0.390625q-0.984375 0 -1.5625 0.671875q-0.578125 0.671875 -0.578125 2.25q0 1.765625 0.578125 2.484375q0.59375 0.71875 1.59375 0.71875q0.75 0 1.21875 -0.421875q0.46875 -0.421875 0.671875 -1.453125l2.546875 0.4375q-0.390625 1.765625 -1.53125 2.671875q-1.125 0.890625 -3.03125 0.890625q-2.15625 0 -3.453125 -1.359375q-1.28125 -1.359375 -1.28125 -3.78125q0 -2.4375 1.296875 -3.796875q1.296875 -1.359375 3.484375 -1.359375q1.796875 0 2.859375 0.78125q1.0625 0.765625 1.53125 2.359375zm1.7819824 6.9375l0 -13.59375l2.609375 0l0 13.59375l-2.609375 0zm4.5895386 -5.0625q0 -1.296875 0.640625 -2.515625q0.640625 -1.21875 1.8125 -1.859375q1.171875 -0.640625 2.609375 -0.640625q2.25 0 3.671875 1.453125q1.421875 1.453125 1.421875 3.671875q0 2.234375 -1.4375 3.703125q-1.4375 1.46875 -3.625 1.46875q-1.359375 0 -2.59375 -0.609375q-1.21875 -0.609375 -1.859375 -1.796875q-0.640625 -1.1875 -0.640625 -2.875zm2.671875 0.140625q0 1.46875 0.6875 2.25q0.703125 0.765625 1.71875 0.765625q1.015625 0 1.703125 -0.765625q0.703125 -0.78125 0.703125 -2.265625q0 -1.453125 -0.703125 -2.234375q-0.6875 -0.78125 -1.703125 -0.78125q-1.015625 0 -1.71875 0.78125q-0.6875 0.78125 -0.6875 2.25zm8.41156 2.109375l2.609375 -0.390625q0.171875 0.75 0.671875 1.15625q0.515625 0.390625 1.4375 0.390625q1.0 0 1.515625 -0.375q0.34375 -0.265625 0.34375 -0.703125q0 -0.296875 -0.1875 -0.484375q-0.1875 -0.1875 -0.875 -0.34375q-3.140625 -0.703125 -4.0 -1.265625q-1.15625 -0.796875 -1.15625 -2.21875q0 -1.28125 1.0 -2.15625q1.015625 -0.875 3.140625 -0.875q2.03125 0 3.0 0.65625q0.984375 0.65625 1.359375 1.953125l-2.453125 0.453125q-0.15625 -0.578125 -0.609375 -0.875q-0.4375 -0.3125 -1.25 -0.3125q-1.03125 0 -1.46875 0.296875q-0.296875 0.203125 -0.296875 0.515625q0 0.28125 0.25 0.484375q0.359375 0.25 2.4375 0.734375q2.078125 0.46875 2.90625 1.15625q0.828125 0.6875 0.828125 1.9375q0 1.359375 -1.140625 2.328125q-1.125 0.96875 -3.34375 0.96875q-2.015625 0 -3.1875 -0.8125q-1.171875 -0.8125 -1.53125 -2.21875zm16.985107 -0.328125l2.609375 0.4375q-0.5 1.4375 -1.59375 2.1875q-1.078125 0.734375 -2.703125 0.734375q-2.5625 0 -3.796875 -1.671875q-0.96875 -1.34375 -0.96875 -3.40625q0 -2.4375 1.265625 -3.828125q1.28125 -1.390625 3.25 -1.390625q2.1875 0 3.453125 1.453125q1.28125 1.453125 1.234375 4.453125l-6.53125 0q0.015625 1.15625 0.625 1.8125q0.609375 0.640625 1.5 0.640625q0.609375 0 1.03125 -0.328125q0.421875 -0.34375 0.625 -1.09375zm0.15625 -2.625q-0.03125 -1.140625 -0.59375 -1.71875q-0.546875 -0.59375 -1.34375 -0.59375q-0.859375 0 -1.40625 0.625q-0.5625 0.609375 -0.546875 1.6875l3.890625 0zm13.563232 5.765625l-2.421875 0l0 -1.453125q-0.609375 0.84375 -1.4375 1.265625q-0.8125 0.40625 -1.640625 0.40625q-1.703125 0 -2.921875 -1.359375q-1.203125 -1.375 -1.203125 -3.828125q0 -2.5 1.171875 -3.796875q1.1875 -1.3125 2.984375 -1.3125q1.65625 0 2.859375 1.375l0 -4.890625l2.609375 0l0 13.59375zm-6.96875 -5.140625q0 1.578125 0.4375 2.28125q0.640625 1.015625 1.765625 1.015625q0.90625 0 1.53125 -0.765625q0.625 -0.765625 0.625 -2.28125q0 -1.703125 -0.609375 -2.4375q-0.609375 -0.75 -1.5625 -0.75q-0.9375 0 -1.5625 0.734375q-0.625 0.734375 -0.625 2.203125z" style="fill: rgb(0, 0, 0); fill-rule: nonzero;"/>
    <path d="m762.54614 314.53436l-1.21875 0q-0.984375 -1.46875 -1.5 -3.046875q-0.5 -1.578125 -0.5 -3.0625q0 -1.828125 0.640625 -3.46875q0.546875 -1.421875 1.375 -2.625l1.21875 0q-0.859375 1.921875 -1.1875 3.28125q-0.328125 1.34375 -0.328125 2.859375q0 1.03125 0.1875 2.125q0.203125 1.09375 0.53125 2.078125q0.21875 0.65625 0.78125 1.859375zm3.1883545 -2.734375l-1.78125 0l0 -6.734375l1.65625 0l0 0.953125q0.421875 -0.6875 0.765625 -0.890625q0.34375 -0.21875 0.765625 -0.21875q0.609375 0 1.171875 0.328125l-0.546875 1.5625q-0.453125 -0.296875 -0.84375 -0.296875q-0.375 0 -0.640625 0.21875q-0.25 0.203125 -0.40625 0.75q-0.140625 0.53125 -0.140625 2.25l0 2.078125zm7.3898926 -2.140625l1.765625 0.296875q-0.34375 0.96875 -1.078125 1.484375q-0.734375 0.515625 -1.84375 0.515625q-1.765625 0 -2.609375 -1.15625q-0.671875 -0.921875 -0.671875 -2.3125q0 -1.6875 0.875 -2.625q0.890625 -0.953125 2.21875 -0.953125q1.515625 0 2.375 1.0q0.875 0.984375 0.828125 3.03125l-4.46875 0q0.03125 0.796875 0.4375 1.234375q0.40625 0.4375 1.03125 0.4375q0.421875 0 0.703125 -0.21875q0.28125 -0.234375 0.4375 -0.734375zm0.09375 -1.8125q-0.015625 -0.765625 -0.40625 -1.171875q-0.375 -0.40625 -0.921875 -0.40625q-0.578125 0 -0.96875 0.421875q-0.375 0.4375 -0.375 1.15625l2.671875 0zm4.7406006 -0.734375l-1.625 -0.296875q0.28125 -0.96875 0.9375 -1.4375q0.671875 -0.46875 1.984375 -0.46875q1.203125 0 1.78125 0.28125q0.578125 0.28125 0.8125 0.71875q0.25 0.4375 0.25 1.59375l-0.015625 2.078125q0 0.890625 0.078125 1.3125q0.09375 0.421875 0.328125 0.90625l-1.765625 0q-0.078125 -0.171875 -0.171875 -0.53125q-0.046875 -0.15625 -0.0625 -0.203125q-0.46875 0.4375 -0.984375 0.671875q-0.515625 0.21875 -1.109375 0.21875q-1.046875 0 -1.640625 -0.5625q-0.59375 -0.578125 -0.59375 -1.4375q0 -0.5625 0.265625 -1.015625q0.28125 -0.453125 0.765625 -0.6875q0.5 -0.234375 1.421875 -0.421875q1.25 -0.234375 1.734375 -0.4375l0 -0.171875q0 -0.515625 -0.265625 -0.734375q-0.25 -0.21875 -0.953125 -0.21875q-0.46875 0 -0.734375 0.1875q-0.265625 0.1875 -0.4375 0.65625zm2.390625 1.453125q-0.34375 0.109375 -1.09375 0.265625q-0.734375 0.15625 -0.96875 0.3125q-0.34375 0.25 -0.34375 0.625q0 0.375 0.28125 0.65625q0.28125 0.265625 0.703125 0.265625q0.484375 0 0.921875 -0.3125q0.328125 -0.234375 0.421875 -0.59375q0.078125 -0.21875 0.078125 -0.859375l0 -0.359375zm9.568726 -1.515625l-1.765625 0.3125q-0.078125 -0.515625 -0.40625 -0.78125q-0.3125 -0.265625 -0.8125 -0.265625q-0.65625 0 -1.0625 0.453125q-0.390625 0.453125 -0.390625 1.546875q0 1.1875 0.40625 1.6875q0.40625 0.5 1.078125 0.5q0.515625 0 0.828125 -0.28125q0.328125 -0.296875 0.453125 -1.0l1.765625 0.296875q-0.28125 1.203125 -1.0625 1.828125q-0.765625 0.609375 -2.0625 0.609375q-1.484375 0 -2.359375 -0.9375q-0.875 -0.9375 -0.875 -2.578125q0 -1.671875 0.875 -2.59375q0.875 -0.9375 2.390625 -0.9375q1.234375 0 1.953125 0.53125q0.734375 0.53125 1.046875 1.609375zm3.3031006 -4.5625l0 3.421875q0.875 -1.0 2.078125 -1.0q0.609375 0 1.09375 0.234375q0.5 0.21875 0.75 0.578125q0.25 0.359375 0.34375 0.796875q0.09375 0.421875 0.09375 1.328125l0 3.953125l-1.78125 0l0 -3.5625q0 -1.0625 -0.109375 -1.34375q-0.09375 -0.28125 -0.359375 -0.453125q-0.25 -0.171875 -0.640625 -0.171875q-0.4375 0 -0.796875 0.21875q-0.34375 0.21875 -0.515625 0.65625q-0.15625 0.421875 -0.15625 1.28125l0 3.375l-1.78125 0l0 -9.3125l1.78125 0zm7.7038574 4.625l-1.625 -0.296875q0.28125 -0.96875 0.9375 -1.4375q0.671875 -0.46875 1.984375 -0.46875q1.203125 0 1.78125 0.28125q0.578125 0.28125 0.8125 0.71875q0.25 0.4375 0.25 1.59375l-0.015625 2.078125q0 0.890625 0.078125 1.3125q0.09375 0.421875 0.328125 0.90625l-1.765625 0q-0.078125 -0.171875 -0.171875 -0.53125q-0.046875 -0.15625 -0.0625 -0.203125q-0.46875 0.4375 -0.984375 0.671875q-0.515625 0.21875 -1.109375 0.21875q-1.046875 0 -1.640625 -0.5625q-0.59375 -0.578125 -0.59375 -1.4375q0 -0.5625 0.265625 -1.015625q0.28125 -0.453125 0.765625 -0.6875q0.5 -0.234375 1.421875 -0.421875q1.25 -0.234375 1.734375 -0.4375l0 -0.171875q0 -0.515625 -0.265625 -0.734375q-0.25 -0.21875 -0.953125 -0.21875q-0.46875 0 -0.734375 0.1875q-0.265625 0.1875 -0.4375 0.65625zm2.390625 1.453125q-0.34375 0.109375 -1.09375 0.265625q-0.734375 0.15625 -0.96875 0.3125q-0.34375 0.25 -0.34375 0.625q0 0.375 0.28125 0.65625q0.28125 0.265625 0.703125 0.265625q0.484375 0 0.921875 -0.3125q0.328125 -0.234375 0.421875 -0.59375q0.078125 -0.21875 0.078125 -0.859375l0 -0.359375zm3.6156006 3.234375l0 -9.3125l1.78125 0l0 3.359375q0.828125 -0.9375 1.953125 -0.9375q1.234375 0 2.03125 0.890625q0.8125 0.890625 0.8125 2.5625q0 1.71875 -0.828125 2.65625q-0.8125 0.9375 -1.984375 0.9375q-0.578125 0 -1.140625 -0.28125q-0.5625 -0.296875 -0.96875 -0.859375l0 0.984375l-1.65625 0zm1.765625 -3.515625q0 1.046875 0.328125 1.546875q0.46875 0.71875 1.234375 0.71875q0.59375 0 1.0 -0.5q0.421875 -0.515625 0.421875 -1.609375q0 -1.140625 -0.421875 -1.65625q-0.40625 -0.515625 -1.0625 -0.515625q-0.640625 0 -1.078125 0.5q-0.421875 0.5 -0.421875 1.515625zm6.4538574 3.515625l0 -9.3125l1.78125 0l0 9.3125l-1.78125 0zm7.609253 -2.140625l1.765625 0.296875q-0.34375 0.96875 -1.078125 1.484375q-0.734375 0.515625 -1.84375 0.515625q-1.765625 0 -2.609375 -1.15625q-0.671875 -0.921875 -0.671875 -2.3125q0 -1.6875 0.875 -2.625q0.890625 -0.953125 2.21875 -0.953125q1.515625 0 2.375 1.0q0.875 0.984375 0.828125 3.03125l-4.46875 0q0.03125 0.796875 0.4375 1.234375q0.40625 0.4375 1.03125 0.4375q0.421875 0 0.703125 -0.21875q0.28125 -0.234375 0.4375 -0.734375zm0.09375 -1.8125q-0.015625 -0.765625 -0.40625 -1.171875q-0.375 -0.40625 -0.921875 -0.40625q-0.578125 0 -0.96875 0.421875q-0.375 0.4375 -0.375 1.15625l2.671875 0z" style="fill: rgb(0, 0, 0); fill-rule: nonzero;"/>
    <path d="m744.3773 321.0656l0.984375 0l0 -0.515625q0 -0.84375 0.171875 -1.265625q0.1875 -0.421875 0.671875 -0.6875q0.484375 -0.265625 1.234375 -0.265625q0.765625 0 1.484375 0.234375l-0.234375 1.25q-0.421875 -0.109375 -0.8125 -0.109375q-0.390625 0 -0.5625 0.1875q-0.171875 0.171875 -0.171875 0.6875l0 0.484375l1.34375 0l0 1.390625l-1.34375 0l0 5.34375l-1.78125 0l0 -5.34375l-0.984375 0l0 -1.390625zm6.9227295 6.734375l-1.78125 0l0 -6.734375l1.65625 0l0 0.953125q0.421875 -0.6875 0.765625 -0.890625q0.34375 -0.21875 0.765625 -0.21875q0.609375 0 1.171875 0.328125l-0.546875 1.5625q-0.453125 -0.296875 -0.84375 -0.296875q-0.375 0 -0.640625 0.21875q-0.25 0.203125 -0.40625 0.75q-0.140625 0.53125 -0.140625 2.25l0 2.078125zm3.0617676 -3.46875q0 -0.890625 0.4375 -1.71875q0.4375 -0.828125 1.234375 -1.265625q0.8125 -0.4375 1.8125 -0.4375q1.515625 0 2.5 1.0q0.984375 0.984375 0.984375 2.5q0 1.53125 -1.0 2.546875q-0.984375 1.0 -2.484375 1.0q-0.921875 0 -1.765625 -0.421875q-0.84375 -0.421875 -1.28125 -1.21875q-0.4375 -0.8125 -0.4375 -1.984375zm1.828125 0.09375q0 1.0 0.46875 1.546875q0.484375 0.53125 1.1875 0.53125q0.703125 0 1.171875 -0.53125q0.46875 -0.546875 0.46875 -1.5625q0 -0.984375 -0.46875 -1.515625q-0.46875 -0.53125 -1.171875 -0.53125q-0.703125 0 -1.1875 0.53125q-0.46875 0.53125 -0.46875 1.53125zm6.5944824 -3.359375l1.640625 0l0 0.90625q0.890625 -1.0625 2.109375 -1.0625q0.640625 0 1.109375 0.265625q0.484375 0.265625 0.796875 0.796875q0.4375 -0.53125 0.953125 -0.796875q0.515625 -0.265625 1.09375 -0.265625q0.75 0 1.265625 0.296875q0.515625 0.296875 0.765625 0.890625q0.1875 0.421875 0.1875 1.390625l0 4.3125l-1.78125 0l0 -3.859375q0 -1.0 -0.1875 -1.28125q-0.25 -0.390625 -0.765625 -0.390625q-0.375 0 -0.703125 0.234375q-0.328125 0.21875 -0.484375 0.671875q-0.140625 0.4375 -0.140625 1.390625l0 3.234375l-1.78125 0l0 -3.6875q0 -0.984375 -0.09375 -1.265625q-0.09375 -0.296875 -0.296875 -0.4375q-0.203125 -0.140625 -0.546875 -0.140625q-0.40625 0 -0.734375 0.234375q-0.328125 0.21875 -0.484375 0.640625q-0.140625 0.40625 -0.140625 1.375l0 3.28125l-1.78125 0l0 -6.734375zm17.022583 2.046875l-1.625 -0.296875q0.28125 -0.96875 0.9375 -1.4375q0.671875 -0.46875 1.984375 -0.46875q1.203125 0 1.78125 0.28125q0.578125 0.28125 0.8125 0.71875q0.25 0.4375 0.25 1.59375l-0.015625 2.078125q0 0.890625 0.078125 1.3125q0.09375 0.421875 0.328125 0.90625l-1.765625 0q-0.078125 -0.171875 -0.171875 -0.53125q-0.046875 -0.15625 -0.0625 -0.203125q-0.46875 0.4375 -0.984375 0.671875q-0.515625 0.21875 -1.109375 0.21875q-1.046875 0 -1.640625 -0.5625q-0.59375 -0.578125 -0.59375 -1.4375q0 -0.5625 0.265625 -1.015625q0.28125 -0.453125 0.765625 -0.6875q0.5 -0.234375 1.421875 -0.421875q1.25 -0.234375 1.734375 -0.4375l0 -0.171875q0 -0.515625 -0.265625 -0.734375q-0.25 -0.21875 -0.953125 -0.21875q-0.46875 0 -0.734375 0.1875q-0.265625 0.1875 -0.4375 0.65625zm2.390625 1.453125q-0.34375 0.109375 -1.09375 0.265625q-0.734375 0.15625 -0.96875 0.3125q-0.34375 0.25 -0.34375 0.625q0 0.375 0.28125 0.65625q0.28125 0.265625 0.703125 0.265625q0.484375 0 0.921875 -0.3125q0.328125 -0.234375 0.421875 -0.59375q0.078125 -0.21875 0.078125 -0.859375l0 -0.359375zm9.818726 3.234375l-1.78125 0l0 -3.4375q0 -1.09375 -0.125 -1.40625q-0.109375 -0.328125 -0.375 -0.5q-0.25 -0.1875 -0.609375 -0.1875q-0.453125 0 -0.828125 0.265625q-0.359375 0.25 -0.5 0.671875q-0.140625 0.40625 -0.140625 1.546875l0 3.046875l-1.78125 0l0 -6.734375l1.65625 0l0 0.984375q0.875 -1.140625 2.21875 -1.140625q0.59375 0 1.078125 0.21875q0.484375 0.203125 0.734375 0.53125q0.265625 0.328125 0.359375 0.75q0.09375 0.421875 0.09375 1.203125l0 4.1875zm1.1726074 -6.734375l1.890625 0l1.609375 4.78125l1.578125 -4.78125l1.84375 0l-2.375 6.484375l-0.421875 1.171875q-0.234375 0.59375 -0.453125 0.90625q-0.203125 0.3125 -0.484375 0.5q-0.28125 0.1875 -0.6875 0.296875q-0.390625 0.109375 -0.90625 0.109375q-0.515625 0 -1.015625 -0.109375l-0.15625 -1.390625q0.421875 0.078125 0.765625 0.078125q0.609375 0 0.90625 -0.375q0.3125 -0.359375 0.46875 -0.921875l-2.5625 -6.75zm11.3342285 4.8125l1.78125 -0.28125q0.109375 0.53125 0.453125 0.796875q0.359375 0.265625 0.984375 0.265625q0.703125 0 1.046875 -0.25q0.234375 -0.171875 0.234375 -0.46875q0 -0.203125 -0.125 -0.34375q-0.140625 -0.125 -0.59375 -0.234375q-2.15625 -0.46875 -2.734375 -0.875q-0.8125 -0.546875 -0.8125 -1.515625q0 -0.875 0.6875 -1.46875q0.703125 -0.59375 2.15625 -0.59375q1.390625 0 2.0625 0.453125q0.671875 0.4375 0.921875 1.328125l-1.6875 0.3125q-0.109375 -0.390625 -0.40625 -0.59375q-0.296875 -0.21875 -0.859375 -0.21875q-0.703125 0 -1.015625 0.1875q-0.203125 0.140625 -0.203125 0.375q0 0.1875 0.1875 0.3125q0.234375 0.1875 1.65625 0.515625q1.4375 0.3125 2.0 0.78125q0.5625 0.484375 0.5625 1.328125q0 0.921875 -0.78125 1.59375q-0.78125 0.671875 -2.296875 0.671875q-1.375 0 -2.1875 -0.5625q-0.796875 -0.5625 -1.03125 -1.515625zm11.131226 -4.8125l0 1.421875l-1.21875 0l0 2.703125q0 0.828125 0.03125 0.96875q0.03125 0.140625 0.15625 0.234375q0.125 0.078125 0.296875 0.078125q0.25 0 0.71875 -0.171875l0.15625 1.390625q-0.625 0.265625 -1.40625 0.265625q-0.484375 0 -0.875 -0.15625q-0.390625 -0.171875 -0.578125 -0.421875q-0.171875 -0.265625 -0.234375 -0.703125q-0.0625 -0.3125 -0.0625 -1.25l0 -2.9375l-0.8125 0l0 -1.421875l0.8125 0l0 -1.34375l1.796875 -1.046875l0 2.390625l1.21875 0zm2.6727295 2.046875l-1.625 -0.296875q0.28125 -0.96875 0.9375 -1.4375q0.671875 -0.46875 1.984375 -0.46875q1.203125 0 1.78125 0.28125q0.578125 0.28125 0.8125 0.71875q0.25 0.4375 0.25 1.59375l-0.015625 2.078125q0 0.890625 0.078125 1.3125q0.09375 0.421875 0.328125 0.90625l-1.765625 0q-0.078125 -0.171875 -0.171875 -0.53125q-0.046875 -0.15625 -0.0625 -0.203125q-0.46875 0.4375 -0.984375 0.671875q-0.515625 0.21875 -1.109375 0.21875q-1.046875 0 -1.640625 -0.5625q-0.59375 -0.578125 -0.59375 -1.4375q0 -0.5625 0.265625 -1.015625q0.28125 -0.453125 0.765625 -0.6875q0.5 -0.234375 1.421875 -0.421875q1.25 -0.234375 1.734375 -0.4375l0 -0.171875q0 -0.515625 -0.265625 -0.734375q-0.25 -0.21875 -0.953125 -0.21875q-0.46875 0 -0.734375 0.1875q-0.265625 0.1875 -0.4375 0.65625zm2.390625 1.453125q-0.34375 0.109375 -1.09375 0.265625q-0.734375 0.15625 -0.96875 0.3125q-0.34375 0.25 -0.34375 0.625q0 0.375 0.28125 0.65625q0.28125 0.265625 0.703125 0.265625q0.484375 0 0.921875 -0.3125q0.328125 -0.234375 0.421875 -0.59375q0.078125 -0.21875 0.078125 -0.859375l0 -0.359375zm6.7874756 -3.5l0 1.421875l-1.21875 0l0 2.703125q0 0.828125 0.03125 0.96875q0.03125 0.140625 0.15625 0.234375q0.125 0.078125 0.296875 0.078125q0.25 0 0.71875 -0.171875l0.15625 1.390625q-0.625 0.265625 -1.40625 0.265625q-0.484375 0 -0.875 -0.15625q-0.390625 -0.171875 -0.578125 -0.421875q-0.171875 -0.265625 -0.234375 -0.703125q-0.0625 -0.3125 -0.0625 -1.25l0 -2.9375l-0.8125 0l0 -1.421875l0.8125 0l0 -1.34375l1.796875 -1.046875l0 2.390625l1.21875 0zm5.2508545 4.59375l1.765625 0.296875q-0.34375 0.96875 -1.078125 1.484375q-0.734375 0.515625 -1.84375 0.515625q-1.765625 0 -2.609375 -1.15625q-0.671875 -0.921875 -0.671875 -2.3125q0 -1.6875 0.875 -2.625q0.890625 -0.953125 2.21875 -0.953125q1.515625 0 2.375 1.0q0.875 0.984375 0.828125 3.03125l-4.46875 0q0.03125 0.796875 0.4375 1.234375q0.40625 0.4375 1.03125 0.4375q0.421875 0 0.703125 -0.21875q0.28125 -0.234375 0.4375 -0.734375zm0.09375 -1.8125q-0.015625 -0.765625 -0.40625 -1.171875q-0.375 -0.40625 -0.921875 -0.40625q-0.578125 0 -0.96875 0.421875q-0.375 0.4375 -0.375 1.15625l2.671875 0zm2.9124756 6.6875q0.53125 -1.125 0.734375 -1.734375q0.21875 -0.59375 0.40625 -1.375q0.1875 -0.796875 0.265625 -1.5q0.09375 -0.71875 0.09375 -1.453125q0 -1.515625 -0.328125 -2.859375q-0.3125 -1.359375 -1.1875 -3.28125l1.21875 0q0.953125 1.375 1.484375 2.90625q0.53125 1.515625 0.53125 3.09375q0 1.328125 -0.421875 2.84375q-0.46875 1.703125 -1.5625 3.359375l-1.234375 0z" style="fill: rgb(0, 0, 0); fill-rule: nonzero;"/>
    <path d="m129.98425 96.49606l149.00787 0" style="fill: rgb(0, 0, 0); fill-opacity: 0; fill-rule: nonzero;"/>
    <path d="m129.98425 96.49606l137.00787 0" style="stroke: rgb(0, 0, 0); stroke-width: 2; stroke-linejoin: round; stroke-linecap: butt; fill-rule: evenodd;"/>
    <path d="m266.99213 99.79953l9.076202 -3.3034668l-9.076202 -3.3034668z" style="fill: rgb(0, 0, 0); stroke: rgb(0, 0, 0); stroke-width: 2; stroke-linecap: butt; fill-rule: evenodd;"/>
    <path d="m349.28873 139.99081l0 128.0" style="fill: rgb(0, 0, 0); fill-opacity: 0; fill-rule: nonzero;"/>
    <path d="m349.28873 139.99081l0 116.0" style="stroke: rgb(0, 0, 0); stroke-width: 2; stroke-linejoin: round; stroke-linecap: butt; fill-rule: evenodd;"/>
    <path d="m345.98526 255.99081l3.3034668 9.076202l3.3034668 -9.076202z" style="fill: rgb(0, 0, 0); stroke: rgb(0, 0, 0); stroke-width: 2; stroke-linecap: butt; fill-rule: evenodd;"/>
    <path d="m397.99213 83.3727l113.00787 0" style="fill: rgb(0, 0, 0); fill-opacity: 0; fill-rule: nonzero;"/>
    <path d="m397.99213 83.3727l101.00787 0" style="stroke: rgb(0, 0, 0); stroke-width: 2; stroke-linejoin: round; stroke-linecap: butt; fill-rule: evenodd;"/>
    <path d="m499.0 86.67617l9.076202 -3.3034668l-9.076202 -3.3034668z" style="fill: rgb(0, 0, 0); stroke: rgb(0, 0, 0); stroke-width: 2; stroke-linecap: butt; fill-rule: evenodd;"/>
    <path d="m511.0 106.68767l-113.00787 0" style="fill: rgb(0, 0, 0); fill-opacity: 0; fill-rule: nonzero;"/>
    <path d="m511.0 106.68767l-101.00787 0" style="stroke: rgb(0, 0, 0); stroke-width: 2; stroke-linejoin: round; stroke-linecap: butt; fill-rule: evenodd;"/>
    <path d="m409.99213 103.3842l-9.076202 3.3034668l9.076202 3.3034592z" style="fill: rgb(0, 0, 0); stroke: rgb(0, 0, 0); stroke-width: 2; stroke-linecap: butt; fill-rule: evenodd;"/>
    <path d="m563.32806 141.0l0 128.0" style="fill: rgb(0, 0, 0); fill-opacity: 0; fill-rule: nonzero;"/>
    <path d="m563.32806 141.0l0 116.0" style="stroke: rgb(0, 0, 0); stroke-width: 2; stroke-linejoin: round; stroke-linecap: butt; fill-rule: evenodd;"/>
    <path d="m560.0246 257.0l3.3034668 9.076202l3.3034668 -9.076202z" style="fill: rgb(0, 0, 0); stroke: rgb(0, 0, 0); stroke-width: 2; stroke-linecap: butt; fill-rule: evenodd;"/>
    <path d="m581.4698 269.0l0 -128.0" style="fill: rgb(0, 0, 0); fill-opacity: 0; fill-rule: nonzero;"/>
    <path d="m581.4698 269.0l0 -116.0" style="stroke: rgb(0, 0, 0); stroke-width: 2; stroke-linejoin: round; stroke-linecap: butt; fill-rule: evenodd;"/>
    <path d="m584.77325 153.0l-3.3034668 -9.076202l-3.3034058 9.076202z" style="fill: rgb(0, 0, 0); stroke: rgb(0, 0, 0); stroke-width: 2; stroke-linecap: butt; fill-rule: evenodd;"/>
    <path d="m628.4803 84.74672l91.02368 0" style="fill: rgb(0, 0, 0); fill-opacity: 0; fill-rule: nonzero;"/>
    <path d="m628.4803 84.74672l79.02368 0" style="stroke: rgb(0, 0, 0); stroke-width: 2; stroke-linejoin: round; stroke-linecap: butt; fill-rule: evenodd;"/>
    <path d="m707.50397 88.050186l9.076172 -3.3034668l-9.076172 -3.3034668z" style="fill: rgb(0, 0, 0); stroke: rgb(0, 0, 0); stroke-width: 2; stroke-linecap: butt; fill-rule: evenodd;"/>
    <path d="m627.98425 311.49606l150.01575 -171.49606" style="fill: rgb(0, 0, 0); fill-opacity: 0; fill-rule: nonzero;"/>
    <path d="m627.98425 311.49606l142.11499 -162.46402" style="stroke: rgb(0, 0, 0); stroke-width: 2; stroke-linejoin: round; stroke-linecap: butt; fill-rule: evenodd;"/>
    <path d="m772.58563 151.20705l3.4893188 -9.006378l-8.462158 4.6563873z" style="fill: rgb(0, 0, 0); stroke: rgb(0, 0, 0); stroke-width: 2; stroke-linecap: butt; fill-rule: evenodd;"/>
    <path d="m808.0 141.0l-178.99213 202.99213" style="fill: rgb(0, 0, 0); fill-opacity: 0; fill-rule: nonzero;"/>
    <path d="m808.0 141.0l-171.0556 193.99146" style="stroke: rgb(0, 0, 0); stroke-width: 2; stroke-linejoin: round; stroke-linecap: butt; fill-rule: evenodd;"/>
    <path d="m634.4666 332.80664l-3.5250244 8.992462l8.480591 -4.6228027z" style="fill: rgb(0, 0, 0); stroke: rgb(0, 0, 0); stroke-width: 2; stroke-linecap: butt; fill-rule: evenodd;"/>
    <path d="m509.4908 311.49606l-112.0 0" style="fill: rgb(0, 0, 0); fill-opacity: 0; fill-rule: nonzero;"/>
    <path d="m509.4908 311.49606l-100.0 0" style="stroke: rgb(0, 0, 0); stroke-width: 2; stroke-linejoin: round; stroke-linecap: butt; fill-rule: evenodd;"/>
    <path d="m409.4908 308.1926l-9.076202 3.3034668l9.076202 3.3034668z" style="fill: rgb(0, 0, 0); stroke: rgb(0, 0, 0); stroke-width: 2; stroke-linecap: butt; fill-rule: evenodd;"/>
    <path d="m549.0 269.0l-154.99213 -128.0" style="fill: rgb(0, 0, 0); fill-opacity: 0; fill-rule: nonzero;"/>
    <path d="m549.0 269.0l-145.7395 -120.358734" style="stroke: rgb(0, 0, 0); stroke-width: 2; stroke-linejoin: round; stroke-linecap: butt; fill-rule: evenodd;"/>
    <path d="m405.36404 146.09412l-9.101776 -3.232315l4.894684 8.326614z" style="fill: rgb(0, 0, 0); stroke: rgb(0, 0, 0); stroke-width: 2; stroke-linecap: butt; fill-rule: evenodd;"/>
    <path d="m366.0 141.0l157.00787 128.0" style="fill: rgb(0, 0, 0); fill-opacity: 0; fill-rule: nonzero;"/>
    <path d="m366.0 141.0l147.70703 120.41751" style="stroke: rgb(0, 0, 0); stroke-width: 2; stroke-linejoin: round; stroke-linecap: butt; fill-rule: evenodd;"/>
    <path d="m511.61966 263.97794l9.12204 3.174591l-4.9473267 -8.295441z" style="fill: rgb(0, 0, 0); stroke: rgb(0, 0, 0); stroke-width: 2; stroke-linecap: butt; fill-rule: evenodd;"/>
    <path d="m332.73752 397.5013l0 -42.519684" style="fill: rgb(0, 0, 0); fill-opacity: 0; fill-rule: nonzero;"/>
    <path d="m332.73752 397.5013l0 -30.519684" style="stroke: rgb(0, 0, 0); stroke-width: 2; stroke-linejoin: round; stroke-linecap: butt; fill-rule: evenodd;"/>
    <path d="m336.041 366.98163l-3.3034668 -9.076202l-3.3034363 9.076202z" style="fill: rgb(0, 0, 0); stroke: rgb(0, 0, 0); stroke-width: 2; stroke-linecap: butt; fill-rule: evenodd;"/>
    <path d="m332.73752 397.5013l558.9292 0" style="fill: rgb(0, 0, 0); fill-opacity: 0; fill-rule: nonzero;"/>
    <path d="m332.73752 397.5013l558.9292 0" style="stroke: rgb(0, 0, 0); stroke-width: 2; stroke-linejoin: round; stroke-linecap: butt; fill-rule: nonzero;"/>
    <path d="m836.98425 96.49606l53.007874 0" style="fill: rgb(0, 0, 0); fill-opacity: 0; fill-rule: nonzero;"/>
    <path d="m836.98425 96.49606l53.007874 0" style="stroke: rgb(0, 0, 0); stroke-width: 2; stroke-linejoin: round; stroke-linecap: butt; fill-rule: nonzero;"/>
    <path d="m890.0 96.666664l0 301.6693" style="fill: rgb(0, 0, 0); fill-opacity: 0; fill-rule: nonzero;"/>
    <path d="m890.0 96.666664l0 301.6693" style="stroke: rgb(0, 0, 0); stroke-width: 2; stroke-linejoin: round; stroke-linecap: butt; fill-rule: nonzero;"/>
    <path d="m338.39896 19.19685l439.52756 0" style="fill: rgb(0, 0, 0); fill-opacity: 0; fill-rule: nonzero;"/>
    <path d="m338.39896 19.19685l439.52756 0" style="stroke: rgb(0, 0, 0); stroke-width: 2; stroke-linejoin: round; stroke-linecap: butt; fill-rule: nonzero;"/>
    <path d="m777.9921 18.007874l0 34.992126" style="fill: rgb(0, 0, 0); fill-opacity: 0; fill-rule: nonzero;"/>
    <path d="m777.9921 18.007874l0 22.992126" style="stroke: rgb(0, 0, 0); stroke-width: 2; stroke-linejoin: round; stroke-linecap: butt; fill-rule: evenodd;"/>
    <path d="m774.68866 41.0l3.3034668 9.076195l3.3034668 -9.076195z" style="fill: rgb(0, 0, 0); stroke: rgb(0, 0, 0); stroke-width: 2; stroke-linecap: butt; fill-rule: evenodd;"/>
    <path d="m337.99213 53.0l0 -33.795273" style="fill: rgb(0, 0, 0); fill-opacity: 0; fill-rule: nonzero;"/>
    <path d="m337.99213 53.0l0 -33.795273" style="stroke: rgb(0, 0, 0); stroke-width: 2; stroke-linejoin: round; stroke-linecap: butt; fill-rule: nonzero;"/>
  </g>
</svg>