<svg baseProfile="full" xmlns="http://www.w3.org/2000/svg" width="1900" height="1770">
<text x="100" y="60"  text-anchor="middle">Alice's Turn</text>
<line x1="100" y1="90" x2="100" y2="1650" width = "1" stroke="black"/>
<text x="100" y="1710"  text-anchor="middle">Alice's Turn</text>
<text x="300" y="60"  text-anchor="middle">Alice's Browser</text>
<line x1="300" y1="90" x2="300" y2="1650" width = "1" stroke="black"/>
<text x="300" y="1710"  text-anchor="middle">Alice's Browser</text>
<text x="500" y="60"  text-anchor="middle">Alice's App</text>
<line x1="500" y1="90" x2="500" y2="1650" width = "1" stroke="black"/>
<text x="500" y="1710"  text-anchor="middle">Alice's App</text>
<text x="700" y="60"  text-anchor="middle">Alice</text>
<line x1="700" y1="90" x2="700" y2="1650" width = "1" stroke="black"/>
<text x="700" y="1710"  text-anchor="middle">Alice</text>
<text x="900" y="60"  text-anchor="middle">Web Server Browse</text>
<line x1="900" y1="90" x2="900" y2="1650" width = "1" stroke="black"/>
<text x="900" y="1710"  text-anchor="middle">Web Server Browse</text>
<text x="1100" y="60"  text-anchor="middle">Bob</text>
<line x1="1100" y1="90" x2="1100" y2="1650" width = "1" stroke="black"/>
<text x="1100" y="1710"  text-anchor="middle">Bob</text>
<text x="1300" y="60"  text-anchor="middle">Bob's App</text>
<line x1="1300" y1="90" x2="1300" y2="1650" width = "1" stroke="black"/>
<text x="1300" y="1710"  text-anchor="middle">Bob's App</text>
<text x="1500" y="60"  text-anchor="middle">Bob's Browse</text>
<line x1="1500" y1="90" x2="1500" y2="1650" width = "1" stroke="black"/>
<text x="1500" y="1710"  text-anchor="middle">Bob's Browse</text>
<text x="1700" y="60"  text-anchor="middle">Bob's Turn</text>
<line x1="1700" y1="90" x2="1700" y2="1650" width = "1" stroke="black"/>
<text x="1700" y="1710"  text-anchor="middle">Bob's Turn</text>
<line x1="300" y1="150" x2="900" y2="150" width = "1" stroke="black"/>
<line x1="900" y1="150" x2="893" y2="143"  transform="rotate(0, 900, 150)"  width="1"  stroke="black"/><line x1="900" y1="150" x2="893" y2="157"  transform="rotate(0, 900, 150)"  width="1"  stroke="black"/><line x1="300" y1="150" x2="307" y2="143"  transform="rotate(0, 300, 150)"  width="1"  stroke="black"/><line x1="300" y1="150" x2="307" y2="157"  transform="rotate(0, 300, 150)"  width="1"  stroke="black"/><text x="600" y="147"  text-anchor="middle"  transform="rotate(0, 600, 147)" >Load Page </text>
<line x1="300" y1="180" x2="900" y2="180" width = "1" stroke="black"/>
<line x1="900" y1="180" x2="893" y2="173"  transform="rotate(0, 900, 180)"  width="1"  stroke="black"/><line x1="900" y1="180" x2="893" y2="187"  transform="rotate(0, 900, 180)"  width="1"  stroke="black"/><line x1="300" y1="180" x2="307" y2="173"  transform="rotate(0, 300, 180)"  width="1"  stroke="black"/><line x1="300" y1="180" x2="307" y2="187"  transform="rotate(0, 300, 180)"  width="1"  stroke="black"/><text x="600" y="177"  text-anchor="middle"  transform="rotate(0, 600, 177)" >Authenticate</text>
<line x1="500" y1="210" x2="300" y2="210" width = "1" stroke="black"/>
<line x1="300" y1="210" x2="307" y2="203"  transform="rotate(0, 300, 210)"  width="1"  stroke="black"/><line x1="300" y1="210" x2="307" y2="217"  transform="rotate(0, 300, 210)"  width="1"  stroke="black"/><text x="497" y="207"  text-anchor="end"  transform="rotate(0, 497, 207)" >create PeerConnection()</text>
<line x1="300" y1="240" x2="100" y2="240" width = "1" stroke="black"/>
<line x1="100" y1="240" x2="107" y2="233"  transform="rotate(0, 100, 240)"  width="1"  stroke="black"/><line x1="100" y1="240" x2="107" y2="247"  transform="rotate(0, 100, 240)"  width="1"  stroke="black"/><text x="297" y="237"  text-anchor="end"  transform="rotate(0, 297, 237)" >Alloc</text>
<line x1="100" y1="270" x2="300" y2="270" width = "1" stroke="black"/>
<line x1="300" y1="270" x2="293" y2="263"  transform="rotate(0, 300, 270)"  width="1"  stroke="black"/><line x1="300" y1="270" x2="293" y2="277"  transform="rotate(0, 300, 270)"  width="1"  stroke="black"/><text x="103" y="267"  text-anchor="start"  transform="rotate(0, 103, 267)" >IPs and Ports</text>
<line x1="1500" y1="300" x2="900" y2="300" width = "1" stroke="black"/>
<line x1="1500" y1="300" x2="1493" y2="293"  transform="rotate(0, 1500, 300)"  width="1"  stroke="black"/><line x1="1500" y1="300" x2="1493" y2="307"  transform="rotate(0, 1500, 300)"  width="1"  stroke="black"/><line x1="900" y1="300" x2="907" y2="293"  transform="rotate(0, 900, 300)"  width="1"  stroke="black"/><line x1="900" y1="300" x2="907" y2="307"  transform="rotate(0, 900, 300)"  width="1"  stroke="black"/><text x="1200" y="297"  text-anchor="middle"  transform="rotate(0, 1200, 297)" >Load Page </text>
<line x1="1500" y1="330" x2="900" y2="330" width = "1" stroke="black"/>
<line x1="1500" y1="330" x2="1493" y2="323"  transform="rotate(0, 1500, 330)"  width="1"  stroke="black"/><line x1="1500" y1="330" x2="1493" y2="337"  transform="rotate(0, 1500, 330)"  width="1"  stroke="black"/><line x1="900" y1="330" x2="907" y2="323"  transform="rotate(0, 900, 330)"  width="1"  stroke="black"/><line x1="900" y1="330" x2="907" y2="337"  transform="rotate(0, 900, 330)"  width="1"  stroke="black"/><text x="1200" y="327"  text-anchor="middle"  transform="rotate(0, 1200, 327)" >Authenticate</text>
<line x1="1300" y1="360" x2="1500" y2="360" width = "1" stroke="black"/>
<line x1="1500" y1="360" x2="1493" y2="353"  transform="rotate(0, 1500, 360)"  width="1"  stroke="black"/><line x1="1500" y1="360" x2="1493" y2="367"  transform="rotate(0, 1500, 360)"  width="1"  stroke="black"/><text x="1303" y="357"  text-anchor="start"  transform="rotate(0, 1303, 357)" >create PeerConnection()</text>
<line x1="1500" y1="390" x2="1700" y2="390" width = "1" stroke="black"/>
<line x1="1700" y1="390" x2="1693" y2="383"  transform="rotate(0, 1700, 390)"  width="1"  stroke="black"/><line x1="1700" y1="390" x2="1693" y2="397"  transform="rotate(0, 1700, 390)"  width="1"  stroke="black"/><text x="1503" y="387"  text-anchor="start"  transform="rotate(0, 1503, 387)" >Alloc</text>
<line x1="1700" y1="420" x2="1500" y2="420" width = "1" stroke="black"/>
<line x1="1500" y1="420" x2="1507" y2="413"  transform="rotate(0, 1500, 420)"  width="1"  stroke="black"/><line x1="1500" y1="420" x2="1507" y2="427"  transform="rotate(0, 1500, 420)"  width="1"  stroke="black"/><text x="1697" y="417"  text-anchor="end"  transform="rotate(0, 1697, 417)" >IPs and Ports</text>
<line x1="700" y1="450" x2="500" y2="450" width = "1" stroke="black"/>
<line x1="500" y1="450" x2="507" y2="443"  transform="rotate(0, 500, 450)"  width="1"  stroke="black"/><line x1="500" y1="450" x2="507" y2="457"  transform="rotate(0, 500, 450)"  width="1"  stroke="black"/><text x="697" y="447"  text-anchor="end"  transform="rotate(0, 697, 447)" >Call Bob </text>
<line x1="500" y1="480" x2="300" y2="480" width = "1" stroke="black"/>
<line x1="300" y1="480" x2="307" y2="473"  transform="rotate(0, 300, 480)"  width="1"  stroke="black"/><line x1="300" y1="480" x2="307" y2="487"  transform="rotate(0, 300, 480)"  width="1"  stroke="black"/><text x="497" y="477"  text-anchor="end"  transform="rotate(0, 497, 477)" >addStream( data )</text>
<line x1="500" y1="510" x2="300" y2="510" width = "1" stroke="black"/>
<line x1="300" y1="510" x2="307" y2="503"  transform="rotate(0, 300, 510)"  width="1"  stroke="black"/><line x1="300" y1="510" x2="307" y2="517"  transform="rotate(0, 300, 510)"  width="1"  stroke="black"/><text x="497" y="507"  text-anchor="end"  transform="rotate(0, 497, 507)" >addStream( audio/video )</text>
<line x1="500" y1="540" x2="300" y2="540" width = "1" stroke="black"/>
<line x1="300" y1="540" x2="307" y2="533"  transform="rotate(0, 300, 540)"  width="1"  stroke="black"/><line x1="300" y1="540" x2="307" y2="547"  transform="rotate(0, 300, 540)"  width="1"  stroke="black"/><text x="497" y="537"  text-anchor="end"  transform="rotate(0, 497, 537)" >createOffer</text>
<line x1="300" y1="570" x2="500" y2="570" width = "1" stroke="black"/>
<line x1="500" y1="570" x2="493" y2="563"  transform="rotate(0, 500, 570)"  width="1"  stroke="black"/><line x1="500" y1="570" x2="493" y2="577"  transform="rotate(0, 500, 570)"  width="1"  stroke="black"/><text x="303" y="567"  text-anchor="start"  transform="rotate(0, 303, 567)" >offer</text>
<line x1="500" y1="600" x2="300" y2="600" width = "1" stroke="black"/>
<line x1="300" y1="600" x2="307" y2="593"  transform="rotate(0, 300, 600)"  width="1"  stroke="black"/><line x1="300" y1="600" x2="307" y2="607"  transform="rotate(0, 300, 600)"  width="1"  stroke="black"/><text x="497" y="597"  text-anchor="end"  transform="rotate(0, 497, 597)" >setLocal</text>
<line x1="500" y1="630" x2="900" y2="630" width = "1" stroke="black"/>
<line x1="900" y1="630" x2="893" y2="623"  transform="rotate(0, 900, 630)"  width="1"  stroke="black"/><line x1="900" y1="630" x2="893" y2="637"  transform="rotate(0, 900, 630)"  width="1"  stroke="black"/><text x="503" y="627"  text-anchor="start"  transform="rotate(0, 503, 627)" >Offer to Bob</text>
<line x1="900" y1="660" x2="1300" y2="660" width = "1" stroke="black"/>
<line x1="1300" y1="660" x2="1293" y2="653"  transform="rotate(0, 1300, 660)"  width="1"  stroke="black"/><line x1="1300" y1="660" x2="1293" y2="667"  transform="rotate(0, 1300, 660)"  width="1"  stroke="black"/><text x="903" y="657"  text-anchor="start"  transform="rotate(0, 903, 657)" >Offer</text>
<line x1="1300" y1="690" x2="1500" y2="690" width = "1" stroke="black"/>
<line x1="1500" y1="690" x2="1493" y2="683"  transform="rotate(0, 1500, 690)"  width="1"  stroke="black"/><line x1="1500" y1="690" x2="1493" y2="697"  transform="rotate(0, 1500, 690)"  width="1"  stroke="black"/><text x="1303" y="687"  text-anchor="start"  transform="rotate(0, 1303, 687)" >SetRemote </text>
<line x1="1500" y1="720" x2="1300" y2="720" width = "1" stroke="black"/>
<line x1="1300" y1="720" x2="1307" y2="713"  transform="rotate(0, 1300, 720)"  width="1"  stroke="black"/><line x1="1300" y1="720" x2="1307" y2="727"  transform="rotate(0, 1300, 720)"  width="1"  stroke="black"/><text x="1497" y="717"  text-anchor="end"  transform="rotate(0, 1497, 717)" >TBD Remote has audio, video, and data </text>
<line x1="1300" y1="750" x2="1100" y2="750" width = "1" stroke="black"/>
<line x1="1100" y1="750" x2="1107" y2="743"  transform="rotate(0, 1100, 750)"  width="1"  stroke="black"/><line x1="1100" y1="750" x2="1107" y2="757"  transform="rotate(0, 1100, 750)"  width="1"  stroke="black"/><text x="1297" y="747"  text-anchor="end"  transform="rotate(0, 1297, 747)" >Phones Ringing Dude</text>
<line x1="1300" y1="780" x2="1500" y2="780" width = "1" stroke="black"/>
<line x1="1500" y1="780" x2="1493" y2="773"  transform="rotate(0, 1500, 780)"  width="1"  stroke="black"/><line x1="1500" y1="780" x2="1493" y2="787"  transform="rotate(0, 1500, 780)"  width="1"  stroke="black"/><text x="1303" y="777"  text-anchor="start"  transform="rotate(0, 1303, 777)" >addStream( data )</text>
<line x1="1300" y1="810" x2="1500" y2="810" width = "1" stroke="black"/>
<line x1="1500" y1="810" x2="1493" y2="803"  transform="rotate(0, 1500, 810)"  width="1"  stroke="black"/><line x1="1500" y1="810" x2="1493" y2="817"  transform="rotate(0, 1500, 810)"  width="1"  stroke="black"/><text x="1303" y="807"  text-anchor="start"  transform="rotate(0, 1303, 807)" >createAnswer( Provisional, RelayOnly )</text>
<line x1="1500" y1="840" x2="1300" y2="840" width = "1" stroke="black"/>
<line x1="1300" y1="840" x2="1307" y2="833"  transform="rotate(0, 1300, 840)"  width="1"  stroke="black"/><line x1="1300" y1="840" x2="1307" y2="847"  transform="rotate(0, 1300, 840)"  width="1"  stroke="black"/><text x="1497" y="837"  text-anchor="end"  transform="rotate(0, 1497, 837)" >PR_Answer</text>
<line x1="1300" y1="870" x2="1500" y2="870" width = "1" stroke="black"/>
<line x1="1500" y1="870" x2="1493" y2="863"  transform="rotate(0, 1500, 870)"  width="1"  stroke="black"/><line x1="1500" y1="870" x2="1493" y2="877"  transform="rotate(0, 1500, 870)"  width="1"  stroke="black"/><text x="1303" y="867"  text-anchor="start"  transform="rotate(0, 1303, 867)" >setLocal</text>
<line x1="1300" y1="900" x2="900" y2="900" width = "1" stroke="black"/>
<line x1="900" y1="900" x2="907" y2="893"  transform="rotate(0, 900, 900)"  width="1"  stroke="black"/><line x1="900" y1="900" x2="907" y2="907"  transform="rotate(0, 900, 900)"  width="1"  stroke="black"/><text x="1297" y="897"  text-anchor="end"  transform="rotate(0, 1297, 897)" >PR_Answer to Alice </text>
<line x1="1500" y1="900" x2="1700" y2="900" width = "1" stroke="black"/>
<line x1="1700" y1="900" x2="1693" y2="893"  transform="rotate(0, 1700, 900)"  width="1"  stroke="black"/><line x1="1700" y1="900" x2="1693" y2="907"  transform="rotate(0, 1700, 900)"  width="1"  stroke="black"/><text x="1503" y="897"  text-anchor="start"  transform="rotate(0, 1503, 897)" >Perm</text>
<line x1="1500" y1="930" x2="1300" y2="930" width = "1" stroke="black"/>
<line x1="1300" y1="930" x2="1307" y2="923"  transform="rotate(0, 1300, 930)"  width="1"  stroke="black"/><line x1="1300" y1="930" x2="1307" y2="937"  transform="rotate(0, 1300, 930)"  width="1"  stroke="black"/><text x="1497" y="927"  text-anchor="end"  transform="rotate(0, 1497, 927)" >onRemoteStream( data )</text>
<line x1="1500" y1="960" x2="1700" y2="960" width = "1" stroke="black"/>
<line x1="1700" y1="960" x2="1693" y2="953"  transform="rotate(0, 1700, 960)"  width="1"  stroke="black"/><line x1="1700" y1="960" x2="1693" y2="967"  transform="rotate(0, 1700, 960)"  width="1"  stroke="black"/><line x1="1500" y1="960" x2="1507" y2="953"  transform="rotate(0, 1500, 960)"  width="1"  stroke="black"/><line x1="1500" y1="960" x2="1507" y2="967"  transform="rotate(0, 1500, 960)"  width="1"  stroke="black"/><text x="1600" y="957"  text-anchor="middle"  transform="rotate(0, 1600, 957)" >ICE Check</text>
<line x1="1700" y1="990" x2="300" y2="990" width = "1" stroke="black"/>
<line x1="1700" y1="990" x2="1693" y2="983"  transform="rotate(0, 1700, 990)"  width="1"  stroke="black"/><line x1="1700" y1="990" x2="1693" y2="997"  transform="rotate(0, 1700, 990)"  width="1"  stroke="black"/><line x1="300" y1="990" x2="307" y2="983"  transform="rotate(0, 300, 990)"  width="1"  stroke="black"/><line x1="300" y1="990" x2="307" y2="997"  transform="rotate(0, 300, 990)"  width="1"  stroke="black"/><text x="1000" y="987"  text-anchor="middle"  transform="rotate(0, 1000, 987)" >ICE Check </text>
<line x1="1500" y1="1020" x2="1700" y2="1020" width = "1" stroke="black"/>
<line x1="1700" y1="1020" x2="1693" y2="1013"  transform="rotate(0, 1700, 1020)"  width="1"  stroke="black"/><line x1="1700" y1="1020" x2="1693" y2="1027"  transform="rotate(0, 1700, 1020)"  width="1"  stroke="black"/><line x1="1500" y1="1020" x2="1507" y2="1013"  transform="rotate(0, 1500, 1020)"  width="1"  stroke="black"/><line x1="1500" y1="1020" x2="1507" y2="1027"  transform="rotate(0, 1500, 1020)"  width="1"  stroke="black"/><text x="1600" y="1017"  text-anchor="middle"  transform="rotate(0, 1600, 1017)" >DTLS</text>
<line x1="1700" y1="1050" x2="300" y2="1050" width = "1" stroke="black"/>
<line x1="1700" y1="1050" x2="1693" y2="1043"  transform="rotate(0, 1700, 1050)"  width="1"  stroke="black"/><line x1="1700" y1="1050" x2="1693" y2="1057"  transform="rotate(0, 1700, 1050)"  width="1"  stroke="black"/><line x1="300" y1="1050" x2="307" y2="1043"  transform="rotate(0, 300, 1050)"  width="1"  stroke="black"/><line x1="300" y1="1050" x2="307" y2="1057"  transform="rotate(0, 300, 1050)"  width="1"  stroke="black"/><text x="1000" y="1047"  text-anchor="middle"  transform="rotate(0, 1000, 1047)" >DTLS</text>
<line x1="1500" y1="1080" x2="1700" y2="1080" width = "1" stroke="black"/>
<line x1="1700" y1="1080" x2="1693" y2="1073"  transform="rotate(0, 1700, 1080)"  width="1"  stroke="black"/><line x1="1700" y1="1080" x2="1693" y2="1087"  transform="rotate(0, 1700, 1080)"  width="1"  stroke="black"/><line x1="1500" y1="1080" x2="1507" y2="1073"  transform="rotate(0, 1500, 1080)"  width="1"  stroke="black"/><line x1="1500" y1="1080" x2="1507" y2="1087"  transform="rotate(0, 1500, 1080)"  width="1"  stroke="black"/><text x="1600" y="1077"  text-anchor="middle"  transform="rotate(0, 1600, 1077)" >SCTP/Data</text>
<line x1="1700" y1="1110" x2="300" y2="1110" width = "1" stroke="black"/>
<line x1="1700" y1="1110" x2="1693" y2="1103"  transform="rotate(0, 1700, 1110)"  width="1"  stroke="black"/><line x1="1700" y1="1110" x2="1693" y2="1117"  transform="rotate(0, 1700, 1110)"  width="1"  stroke="black"/><line x1="300" y1="1110" x2="307" y2="1103"  transform="rotate(0, 300, 1110)"  width="1"  stroke="black"/><line x1="300" y1="1110" x2="307" y2="1117"  transform="rotate(0, 300, 1110)"  width="1"  stroke="black"/><text x="1000" y="1107"  text-anchor="middle"  transform="rotate(0, 1000, 1107)" >SCTP/Data</text>
<line x1="300" y1="1140" x2="500" y2="1140" width = "1" stroke="black"/>
<line x1="500" y1="1140" x2="493" y2="1133"  transform="rotate(0, 500, 1140)"  width="1"  stroke="black"/><line x1="500" y1="1140" x2="493" y2="1147"  transform="rotate(0, 500, 1140)"  width="1"  stroke="black"/><text x="303" y="1137"  text-anchor="start"  transform="rotate(0, 303, 1137)" >onRemoteStream( data )</text>
<line x1="900" y1="900" x2="500" y2="1170" width = "1" stroke="black"/>
<line x1="500" y1="1170" x2="507" y2="1163"  transform="rotate(-34.03660509806968, 500, 1170)"  width="1"  stroke="black"/><line x1="500" y1="1170" x2="507" y2="1177"  transform="rotate(-34.03660509806968, 500, 1170)"  width="1"  stroke="black"/><text x="897" y="897"  text-anchor="end"  transform="rotate(-34.03660509806968, 897, 897)" >PR_Answer </text>
<line x1="500" y1="1200" x2="300" y2="1200" width = "1" stroke="black"/>
<line x1="300" y1="1200" x2="307" y2="1193"  transform="rotate(0, 300, 1200)"  width="1"  stroke="black"/><line x1="300" y1="1200" x2="307" y2="1207"  transform="rotate(0, 300, 1200)"  width="1"  stroke="black"/><text x="497" y="1197"  text-anchor="end"  transform="rotate(0, 497, 1197)" >setRemote</text>
<line x1="300" y1="1230" x2="100" y2="1230" width = "1" stroke="black"/>
<line x1="100" y1="1230" x2="107" y2="1223"  transform="rotate(0, 100, 1230)"  width="1"  stroke="black"/><line x1="100" y1="1230" x2="107" y2="1237"  transform="rotate(0, 100, 1230)"  width="1"  stroke="black"/><text x="297" y="1227"  text-anchor="end"  transform="rotate(0, 297, 1227)" >Perm</text>
<line x1="1100" y1="1260" x2="1300" y2="1260" width = "1" stroke="black"/>
<line x1="1300" y1="1260" x2="1293" y2="1253"  transform="rotate(0, 1300, 1260)"  width="1"  stroke="black"/><line x1="1300" y1="1260" x2="1293" y2="1267"  transform="rotate(0, 1300, 1260)"  width="1"  stroke="black"/><text x="1103" y="1257"  text-anchor="start"  transform="rotate(0, 1103, 1257)" >Accept Audio and Video </text>
<line x1="1300" y1="1290" x2="1500" y2="1290" width = "1" stroke="black"/>
<line x1="1500" y1="1290" x2="1493" y2="1283"  transform="rotate(0, 1500, 1290)"  width="1"  stroke="black"/><line x1="1500" y1="1290" x2="1493" y2="1297"  transform="rotate(0, 1500, 1290)"  width="1"  stroke="black"/><text x="1303" y="1287"  text-anchor="start"  transform="rotate(0, 1303, 1287)" >addStream( audio/video )</text>
<line x1="1300" y1="1320" x2="1500" y2="1320" width = "1" stroke="black"/>
<line x1="1500" y1="1320" x2="1493" y2="1313"  transform="rotate(0, 1500, 1320)"  width="1"  stroke="black"/><line x1="1500" y1="1320" x2="1493" y2="1327"  transform="rotate(0, 1500, 1320)"  width="1"  stroke="black"/><text x="1303" y="1317"  text-anchor="start"  transform="rotate(0, 1303, 1317)" >createAnswer</text>
<line x1="1500" y1="1350" x2="1300" y2="1350" width = "1" stroke="black"/>
<line x1="1300" y1="1350" x2="1307" y2="1343"  transform="rotate(0, 1300, 1350)"  width="1"  stroke="black"/><line x1="1300" y1="1350" x2="1307" y2="1357"  transform="rotate(0, 1300, 1350)"  width="1"  stroke="black"/><text x="1497" y="1347"  text-anchor="end"  transform="rotate(0, 1497, 1347)" >Answer </text>
<line x1="1300" y1="1380" x2="1500" y2="1380" width = "1" stroke="black"/>
<line x1="1500" y1="1380" x2="1493" y2="1373"  transform="rotate(0, 1500, 1380)"  width="1"  stroke="black"/><line x1="1500" y1="1380" x2="1493" y2="1387"  transform="rotate(0, 1500, 1380)"  width="1"  stroke="black"/><text x="1303" y="1377"  text-anchor="start"  transform="rotate(0, 1303, 1377)" >setLocal</text>
<line x1="1300" y1="1410" x2="900" y2="1410" width = "1" stroke="black"/>
<line x1="900" y1="1410" x2="907" y2="1403"  transform="rotate(0, 900, 1410)"  width="1"  stroke="black"/><line x1="900" y1="1410" x2="907" y2="1417"  transform="rotate(0, 900, 1410)"  width="1"  stroke="black"/><text x="1297" y="1407"  text-anchor="end"  transform="rotate(0, 1297, 1407)" >Answer to Alice</text>
<line x1="1500" y1="1440" x2="1300" y2="1440" width = "1" stroke="black"/>
<line x1="1300" y1="1440" x2="1307" y2="1433"  transform="rotate(0, 1300, 1440)"  width="1"  stroke="black"/><line x1="1300" y1="1440" x2="1307" y2="1447"  transform="rotate(0, 1300, 1440)"  width="1"  stroke="black"/><text x="1497" y="1437"  text-anchor="end"  transform="rotate(0, 1497, 1437)" >onRemoteStream( audio/video )</text>
<line x1="1500" y1="1470" x2="1700" y2="1470" width = "1" stroke="black"/>
<line x1="1700" y1="1470" x2="1693" y2="1463"  transform="rotate(0, 1700, 1470)"  width="1"  stroke="black"/><line x1="1700" y1="1470" x2="1693" y2="1477"  transform="rotate(0, 1700, 1470)"  width="1"  stroke="black"/><line x1="1500" y1="1470" x2="1507" y2="1463"  transform="rotate(0, 1500, 1470)"  width="1"  stroke="black"/><line x1="1500" y1="1470" x2="1507" y2="1477"  transform="rotate(0, 1500, 1470)"  width="1"  stroke="black"/><text x="1600" y="1467"  text-anchor="middle"  transform="rotate(0, 1600, 1467)" >RTP/Data</text>
<line x1="1700" y1="1500" x2="300" y2="1500" width = "1" stroke="black"/>
<line x1="1700" y1="1500" x2="1693" y2="1493"  transform="rotate(0, 1700, 1500)"  width="1"  stroke="black"/><line x1="1700" y1="1500" x2="1693" y2="1507"  transform="rotate(0, 1700, 1500)"  width="1"  stroke="black"/><line x1="300" y1="1500" x2="307" y2="1493"  transform="rotate(0, 300, 1500)"  width="1"  stroke="black"/><line x1="300" y1="1500" x2="307" y2="1507"  transform="rotate(0, 300, 1500)"  width="1"  stroke="black"/><text x="1000" y="1497"  text-anchor="middle"  transform="rotate(0, 1000, 1497)" >RTP/Data</text>
<line x1="1500" y1="1530" x2="300" y2="1530" width = "1" stroke="black"/>
<line x1="1500" y1="1530" x2="1493" y2="1523"  transform="rotate(0, 1500, 1530)"  width="1"  stroke="black"/><line x1="1500" y1="1530" x2="1493" y2="1537"  transform="rotate(0, 1500, 1530)"  width="1"  stroke="black"/><line x1="300" y1="1530" x2="307" y2="1523"  transform="rotate(0, 300, 1530)"  width="1"  stroke="black"/><line x1="300" y1="1530" x2="307" y2="1537"  transform="rotate(0, 300, 1530)"  width="1"  stroke="black"/><text x="900" y="1527"  text-anchor="middle"  transform="rotate(0, 900, 1527)" >ICE Check</text>
<line x1="1500" y1="1560" x2="300" y2="1560" width = "1" stroke="black"/>
<line x1="1500" y1="1560" x2="1493" y2="1553"  transform="rotate(0, 1500, 1560)"  width="1"  stroke="black"/><line x1="1500" y1="1560" x2="1493" y2="1567"  transform="rotate(0, 1500, 1560)"  width="1"  stroke="black"/><line x1="300" y1="1560" x2="307" y2="1553"  transform="rotate(0, 300, 1560)"  width="1"  stroke="black"/><line x1="300" y1="1560" x2="307" y2="1567"  transform="rotate(0, 300, 1560)"  width="1"  stroke="black"/><text x="900" y="1557"  text-anchor="middle"  transform="rotate(0, 900, 1557)" >RTP/Data</text>
<line x1="900" y1="1410" x2="500" y2="1590" width = "1" stroke="black"/>
<line x1="500" y1="1590" x2="507" y2="1583"  transform="rotate(-24.240033982143096, 500, 1590)"  width="1"  stroke="black"/><line x1="500" y1="1590" x2="507" y2="1597"  transform="rotate(-24.240033982143096, 500, 1590)"  width="1"  stroke="black"/><text x="897" y="1407"  text-anchor="end"  transform="rotate(-24.240033982143096, 897, 1407)" >Answer </text>
<line x1="500" y1="1620" x2="300" y2="1620" width = "1" stroke="black"/>
<line x1="300" y1="1620" x2="307" y2="1613"  transform="rotate(0, 300, 1620)"  width="1"  stroke="black"/><line x1="300" y1="1620" x2="307" y2="1627"  transform="rotate(0, 300, 1620)"  width="1"  stroke="black"/><text x="497" y="1617"  text-anchor="end"  transform="rotate(0, 497, 1617)" >setRemote </text>
</svg>
