<svg baseProfile="full" xmlns="http://www.w3.org/2000/svg" width="975" height="720">
<text x="525" y="20"  font-size="15"  text-anchor="middle">Simple hangout where media set is overlapped with hair check</text>
<text x="75" y="60"  font-size="15"  text-anchor="middle">Alice</text>
<line x1="75" y1="80" x2="75" y2="640" width = "1" stroke="black"/>
<text x="75" y="680"  font-size="15"  text-anchor="middle">Alice</text>
<text x="225" y="60"  font-size="15"  text-anchor="middle">Alice's Browser</text>
<line x1="225" y1="80" x2="225" y2="640" width = "1" stroke="black"/>
<text x="225" y="680"  font-size="15"  text-anchor="middle">Alice's Browser</text>
<text x="375" y="60"  font-size="15"  text-anchor="middle">Alice's App</text>
<line x1="375" y1="80" x2="375" y2="640" width = "1" stroke="black"/>
<text x="375" y="680"  font-size="15"  text-anchor="middle">Alice's App</text>
<text x="525" y="60"  font-size="15"  text-anchor="middle">Alice's Turn</text>
<line x1="525" y1="80" x2="525" y2="640" width = "1" stroke="black"/>
<text x="525" y="680"  font-size="15"  text-anchor="middle">Alice's Turn</text>
<text x="675" y="60"  font-size="15"  text-anchor="middle">Web Server Browse</text>
<line x1="675" y1="80" x2="675" y2="640" width = "1" stroke="black"/>
<text x="675" y="680"  font-size="15"  text-anchor="middle">Web Server Browse</text>
<text x="825" y="60"  font-size="15"  text-anchor="middle">Media Switch</text>
<line x1="825" y1="80" x2="825" y2="640" width = "1" stroke="black"/>
<text x="825" y="680"  font-size="15"  text-anchor="middle">Media Switch</text>
<line x1="225" y1="120" x2="675" y2="120" width = "1" stroke="black"/>
<line x1="675" y1="120" x2="668" y2="113"  transform="rotate(0, 675, 120)"  width="1"  stroke="black"/><line x1="675" y1="120" x2="668" y2="127"  transform="rotate(0, 675, 120)"  width="1"  stroke="black"/><line x1="225" y1="120" x2="232" y2="113"  transform="rotate(0, 225, 120)"  width="1"  stroke="black"/><line x1="225" y1="120" x2="232" y2="127"  transform="rotate(0, 225, 120)"  width="1"  stroke="black"/><text x="450" y="117"  font-size="15"  text-anchor="middle"  transform="rotate(0, 450, 117)"  fill = "black" >1. Load Page </text>
<line x1="375" y1="140" x2="675" y2="140" width = "1" stroke="black"/>
<line x1="675" y1="140" x2="668" y2="133"  transform="rotate(0, 675, 140)"  width="1"  stroke="black"/><line x1="675" y1="140" x2="668" y2="147"  transform="rotate(0, 675, 140)"  width="1"  stroke="black"/><line x1="375" y1="140" x2="382" y2="133"  transform="rotate(0, 375, 140)"  width="1"  stroke="black"/><line x1="375" y1="140" x2="382" y2="147"  transform="rotate(0, 375, 140)"  width="1"  stroke="black"/><text x="525" y="137"  font-size="15"  text-anchor="middle"  transform="rotate(0, 525, 137)"  fill = "black" >2. Authenticate</text>
<line x1="675" y1="160" x2="825" y2="160" width = "1" stroke="black"/>
<line x1="825" y1="160" x2="818" y2="153"  transform="rotate(0, 825, 160)"  width="1"  stroke="black"/><line x1="825" y1="160" x2="818" y2="167"  transform="rotate(0, 825, 160)"  width="1"  stroke="black"/><line x1="675" y1="160" x2="682" y2="153"  transform="rotate(0, 675, 160)"  width="1"  stroke="black"/><line x1="675" y1="160" x2="682" y2="167"  transform="rotate(0, 675, 160)"  width="1"  stroke="black"/><text x="750" y="157"  font-size="15"  text-anchor="middle"  transform="rotate(0, 750, 157)"  fill = "black" >3. stuff</text>
<line x1="675" y1="180" x2="375" y2="180" width = "1" stroke="black"/>
<line x1="375" y1="180" x2="382" y2="173"  transform="rotate(0, 375, 180)"  width="1"  stroke="black"/><line x1="375" y1="180" x2="382" y2="187"  transform="rotate(0, 375, 180)"  width="1"  stroke="black"/><text x="672" y="177"  font-size="15"  text-anchor="end"  transform="rotate(0, 672, 177)"  fill = "black" >4. Offer </text>
<line x1="375" y1="200" x2="75" y2="200" width = "1" stroke="black"/>
<line x1="75" y1="200" x2="82" y2="193"  transform="rotate(0, 75, 200)"  width="1"  stroke="black"/><line x1="75" y1="200" x2="82" y2="207"  transform="rotate(0, 75, 200)"  width="1"  stroke="black"/><text x="372" y="197"  font-size="15"  text-anchor="end"  transform="rotate(0, 372, 197)"  fill = "black" >5. Check Hair</text>
<line x1="375" y1="220" x2="225" y2="220" width = "1" stroke="black"/>
<line x1="225" y1="220" x2="232" y2="213"  transform="rotate(0, 225, 220)"  width="1"  stroke="black"/><line x1="225" y1="220" x2="232" y2="227"  transform="rotate(0, 225, 220)"  width="1"  stroke="black"/><text x="372" y="217"  font-size="15"  text-anchor="end"  transform="rotate(0, 372, 217)"  fill = "black" >6. create PeerConnection()</text>
<line x1="225" y1="240" x2="525" y2="240" width = "1" stroke="black"/>
<line x1="525" y1="240" x2="518" y2="233"  transform="rotate(0, 525, 240)"  width="1"  stroke="black"/><line x1="525" y1="240" x2="518" y2="247"  transform="rotate(0, 525, 240)"  width="1"  stroke="black"/><text x="228" y="237"  font-size="15"  text-anchor="start"  transform="rotate(0, 228, 237)"  fill = "black" >7. Alloc</text>
<line x1="375" y1="260" x2="225" y2="260" width = "1" stroke="black"/>
<line x1="225" y1="260" x2="232" y2="253"  transform="rotate(0, 225, 260)"  width="1"  stroke="black"/><line x1="225" y1="260" x2="232" y2="267"  transform="rotate(0, 225, 260)"  width="1"  stroke="black"/><text x="372" y="257"  font-size="15"  text-anchor="end"  transform="rotate(0, 372, 257)"  fill = "black" >8. SetRemote( Offer ) </text>
<line x1="375" y1="280" x2="225" y2="280" width = "1" stroke="black"/>
<line x1="225" y1="280" x2="232" y2="273"  transform="rotate(0, 225, 280)"  width="1"  stroke="black"/><line x1="225" y1="280" x2="232" y2="287"  transform="rotate(0, 225, 280)"  width="1"  stroke="black"/><text x="372" y="277"  font-size="15"  text-anchor="end"  transform="rotate(0, 372, 277)"  fill = "black" >9. createAnswer(  Provisional )</text>
<line x1="525" y1="300" x2="225" y2="300" width = "1" stroke="black"/>
<line x1="225" y1="300" x2="232" y2="293"  transform="rotate(0, 225, 300)"  width="1"  stroke="black"/><line x1="225" y1="300" x2="232" y2="307"  transform="rotate(0, 225, 300)"  width="1"  stroke="black"/><text x="522" y="297"  font-size="15"  text-anchor="end"  transform="rotate(0, 522, 297)"  fill = "black" >10. IPs and Ports</text>
<line x1="225" y1="320" x2="375" y2="320" width = "1" stroke="black"/>
<line x1="375" y1="320" x2="368" y2="313"  transform="rotate(0, 375, 320)"  width="1"  stroke="black"/><line x1="375" y1="320" x2="368" y2="327"  transform="rotate(0, 375, 320)"  width="1"  stroke="black"/><text x="228" y="317"  font-size="15"  text-anchor="start"  transform="rotate(0, 228, 317)"  fill = "black" >11. answer </text>
<line x1="375" y1="340" x2="225" y2="340" width = "1" stroke="black"/>
<line x1="225" y1="340" x2="232" y2="333"  transform="rotate(0, 225, 340)"  width="1"  stroke="black"/><line x1="225" y1="340" x2="232" y2="347"  transform="rotate(0, 225, 340)"  width="1"  stroke="black"/><text x="372" y="337"  font-size="15"  text-anchor="end"  transform="rotate(0, 372, 337)"  fill = "black" >12. setLocal</text>
<line x1="225" y1="360" x2="375" y2="360" width = "1" stroke="black"/>
<line x1="375" y1="360" x2="368" y2="353"  transform="rotate(0, 375, 360)"  width="1"  stroke="black"/><line x1="375" y1="360" x2="368" y2="367"  transform="rotate(0, 375, 360)"  width="1"  stroke="black"/><text x="228" y="357"  font-size="15"  text-anchor="start"  transform="rotate(0, 228, 357)"  fill = "black" >13. onRemoteStream main</text>
<line x1="225" y1="380" x2="375" y2="380" width = "1" stroke="black"/>
<line x1="375" y1="380" x2="368" y2="373"  transform="rotate(0, 375, 380)"  width="1"  stroke="black"/><line x1="375" y1="380" x2="368" y2="387"  transform="rotate(0, 375, 380)"  width="1"  stroke="black"/><text x="228" y="377"  font-size="15"  text-anchor="start"  transform="rotate(0, 228, 377)"  fill = "black" >14. onRemoteStream thumbnail one</text>
<line x1="225" y1="400" x2="375" y2="400" width = "1" stroke="black"/>
<line x1="375" y1="400" x2="368" y2="393"  transform="rotate(0, 375, 400)"  width="1"  stroke="black"/><line x1="375" y1="400" x2="368" y2="407"  transform="rotate(0, 375, 400)"  width="1"  stroke="black"/><text x="228" y="397"  font-size="15"  text-anchor="start"  transform="rotate(0, 228, 397)"  fill = "black" >15. onRemoteStream thumbnail two</text>
<line x1="225" y1="420" x2="825" y2="420" width = "1" stroke="black"/>
<line x1="825" y1="420" x2="818" y2="413"  transform="rotate(0, 825, 420)"  width="1"  stroke="black"/><line x1="825" y1="420" x2="818" y2="427"  transform="rotate(0, 825, 420)"  width="1"  stroke="black"/><line x1="225" y1="420" x2="232" y2="413"  transform="rotate(0, 225, 420)"  width="1"  stroke="black"/><line x1="225" y1="420" x2="232" y2="427"  transform="rotate(0, 225, 420)"  width="1"  stroke="black"/><text x="525" y="417"  font-size="15"  text-anchor="middle"  transform="rotate(0, 525, 417)"  fill = "black" >16. ICE</text>
<line x1="675" y1="440" x2="825" y2="440" width = "1" stroke="black"/>
<line x1="825" y1="440" x2="818" y2="433"  transform="rotate(0, 825, 440)"  width="1"  stroke="black"/><line x1="825" y1="440" x2="818" y2="447"  transform="rotate(0, 825, 440)"  width="1"  stroke="black"/><text x="678" y="437"  font-size="15"  text-anchor="start"  transform="rotate(0, 678, 437)"  fill = "black" >17. stuff</text>
<line x1="375" y1="340" x2="675" y2="440" width = "1" stroke="black"/>
<line x1="675" y1="440" x2="668" y2="433"  transform="rotate(18.4442992966228, 675, 440)"  width="1"  stroke="black"/><line x1="675" y1="440" x2="668" y2="447"  transform="rotate(18.4442992966228, 675, 440)"  width="1"  stroke="black"/><text x="378" y="337"  font-size="15"  text-anchor="start"  transform="rotate(18.4442992966228, 378, 337)"  fill = "black" >18. answer </text>
<line x1="225" y1="460" x2="825" y2="460" width = "1" stroke="black"/>
<line x1="825" y1="460" x2="818" y2="453"  transform="rotate(0, 825, 460)"  width="1"  stroke="black"/><line x1="825" y1="460" x2="818" y2="467"  transform="rotate(0, 825, 460)"  width="1"  stroke="black"/><line x1="225" y1="460" x2="232" y2="453"  transform="rotate(0, 225, 460)"  width="1"  stroke="black"/><line x1="225" y1="460" x2="232" y2="467"  transform="rotate(0, 225, 460)"  width="1"  stroke="black"/><text x="525" y="457"  font-size="15"  text-anchor="middle"  transform="rotate(0, 525, 457)"  fill = "black" >19. DTLS</text>
<line x1="225" y1="480" x2="825" y2="480" width = "1" stroke="black"/>
<line x1="825" y1="480" x2="818" y2="473"  transform="rotate(0, 825, 480)"  width="1"  stroke="black"/><line x1="825" y1="480" x2="818" y2="487"  transform="rotate(0, 825, 480)"  width="1"  stroke="black"/><line x1="225" y1="480" x2="232" y2="473"  transform="rotate(0, 225, 480)"  width="1"  stroke="black"/><line x1="225" y1="480" x2="232" y2="487"  transform="rotate(0, 225, 480)"  width="1"  stroke="black"/><text x="525" y="477"  font-size="15"  text-anchor="middle"  transform="rotate(0, 525, 477)"  fill = "black" >20. SRTP</text>
<line x1="75" y1="500" x2="375" y2="500" width = "1" stroke="black"/>
<line x1="375" y1="500" x2="368" y2="493"  transform="rotate(0, 375, 500)"  width="1"  stroke="black"/><line x1="375" y1="500" x2="368" y2="507"  transform="rotate(0, 375, 500)"  width="1"  stroke="black"/><text x="78" y="497"  font-size="15"  text-anchor="start"  transform="rotate(0, 78, 497)"  fill = "black" >21. Hair is fluffy </text>
<line x1="375" y1="520" x2="225" y2="520" width = "1" stroke="black"/>
<line x1="225" y1="520" x2="232" y2="513"  transform="rotate(0, 225, 520)"  width="1"  stroke="black"/><line x1="225" y1="520" x2="232" y2="527"  transform="rotate(0, 225, 520)"  width="1"  stroke="black"/><text x="372" y="517"  font-size="15"  text-anchor="end"  transform="rotate(0, 372, 517)"  fill = "black" >22. addStream audio/video</text>
<line x1="375" y1="540" x2="225" y2="540" width = "1" stroke="black"/>
<line x1="225" y1="540" x2="232" y2="533"  transform="rotate(0, 225, 540)"  width="1"  stroke="black"/><line x1="225" y1="540" x2="232" y2="547"  transform="rotate(0, 225, 540)"  width="1"  stroke="black"/><text x="372" y="537"  font-size="15"  text-anchor="end"  transform="rotate(0, 372, 537)"  fill = "black" >23. createAnswer</text>
<line x1="225" y1="560" x2="375" y2="560" width = "1" stroke="black"/>
<line x1="375" y1="560" x2="368" y2="553"  transform="rotate(0, 375, 560)"  width="1"  stroke="black"/><line x1="375" y1="560" x2="368" y2="567"  transform="rotate(0, 375, 560)"  width="1"  stroke="black"/><text x="228" y="557"  font-size="15"  text-anchor="start"  transform="rotate(0, 228, 557)"  fill = "black" >24. answer</text>
<line x1="375" y1="580" x2="225" y2="580" width = "1" stroke="black"/>
<line x1="225" y1="580" x2="232" y2="573"  transform="rotate(0, 225, 580)"  width="1"  stroke="black"/><line x1="225" y1="580" x2="232" y2="587"  transform="rotate(0, 225, 580)"  width="1"  stroke="black"/><text x="372" y="577"  font-size="15"  text-anchor="end"  transform="rotate(0, 372, 577)"  fill = "black" >25. setLocal</text>
<line x1="675" y1="600" x2="825" y2="600" width = "1" stroke="black"/>
<line x1="825" y1="600" x2="818" y2="593"  transform="rotate(0, 825, 600)"  width="1"  stroke="black"/><line x1="825" y1="600" x2="818" y2="607"  transform="rotate(0, 825, 600)"  width="1"  stroke="black"/><text x="678" y="597"  font-size="15"  text-anchor="start"  transform="rotate(0, 678, 597)"  fill = "black" >26. stuff</text>
<line x1="375" y1="580" x2="675" y2="600" width = "1" stroke="black"/>
<line x1="675" y1="600" x2="668" y2="593"  transform="rotate(3.816009388423021, 675, 600)"  width="1"  stroke="black"/><line x1="675" y1="600" x2="668" y2="607"  transform="rotate(3.816009388423021, 675, 600)"  width="1"  stroke="black"/><text x="378" y="577"  font-size="15"  text-anchor="start"  transform="rotate(3.816009388423021, 378, 577)"  fill = "black" >27. answer </text>
<line x1="225" y1="620" x2="825" y2="620" width = "1" stroke="black"/>
<line x1="825" y1="620" x2="818" y2="613"  transform="rotate(0, 825, 620)"  width="1"  stroke="black"/><line x1="825" y1="620" x2="818" y2="627"  transform="rotate(0, 825, 620)"  width="1"  stroke="black"/><line x1="225" y1="620" x2="232" y2="613"  transform="rotate(0, 225, 620)"  width="1"  stroke="black"/><line x1="225" y1="620" x2="232" y2="627"  transform="rotate(0, 225, 620)"  width="1"  stroke="black"/><text x="525" y="617"  font-size="15"  text-anchor="middle"  transform="rotate(0, 525, 617)"  fill = "black" >28. SRTP</text>
</svg>