<?xml version="1.0" encoding="utf-8"?>
<!-- Generator: Adobe Illustrator 15.0.2, SVG Export Plug-In . SVG Version: 6.00 Build 0)  -->
<!DOCTYPE svg PUBLIC "-//W3C//DTD SVG 1.1//EN" "http://www.w3.org/Graphics/SVG/1.1/DTD/svg11.dtd">
<svg version="1.1" id="Layer_1" xmlns="http://www.w3.org/2000/svg" xmlns:xlink="http://www.w3.org/1999/xlink" x="0px" y="0px"
	 width="612px" height="300px" viewBox="0 0 612 300" enable-background="new 0 0 612 300" xml:space="preserve">
<path fill="#CFE2F3" d="M10.713,11.457h81.583v52.895H10.713V11.457z"/>
<path fill="none" stroke="#000000" stroke-width="2" stroke-linejoin="round" stroke-miterlimit="10" d="M10.713,11.457h81.583
	v52.895H10.713V11.457z"/>
<path d="M32.805,38.974l1.008-0.084c0.05,0.405,0.162,0.738,0.336,1c0.174,0.261,0.445,0.473,0.812,0.635
	c0.374,0.162,0.791,0.243,1.251,0.243c0.411,0,0.772-0.062,1.083-0.187c0.317-0.125,0.554-0.292,0.709-0.504
	c0.156-0.211,0.233-0.442,0.233-0.691c0-0.255-0.075-0.476-0.224-0.663c-0.149-0.193-0.395-0.355-0.738-0.485
	c-0.218-0.087-0.7-0.218-1.447-0.393c-0.747-0.18-1.27-0.352-1.569-0.514c-0.386-0.205-0.675-0.458-0.869-0.756
	c-0.187-0.299-0.28-0.635-0.28-1.008c0-0.411,0.115-0.794,0.345-1.148c0.237-0.361,0.576-0.632,1.018-0.812
	c0.448-0.187,0.946-0.28,1.494-0.28c0.604,0,1.136,0.097,1.597,0.29c0.461,0.193,0.812,0.479,1.055,0.859
	c0.249,0.374,0.383,0.8,0.402,1.279l-1.027,0.075c-0.056-0.51-0.246-0.896-0.57-1.158c-0.317-0.268-0.787-0.401-1.41-0.401
	c-0.647,0-1.121,0.121-1.419,0.364c-0.299,0.237-0.448,0.523-0.448,0.859c0,0.292,0.105,0.532,0.317,0.719
	c0.206,0.187,0.744,0.379,1.615,0.579c0.878,0.199,1.479,0.374,1.803,0.523c0.473,0.218,0.822,0.495,1.046,0.831
	c0.23,0.33,0.345,0.713,0.345,1.149s-0.125,0.847-0.374,1.232c-0.249,0.38-0.607,0.676-1.074,0.887
	c-0.461,0.212-0.98,0.317-1.56,0.317c-0.735,0-1.351-0.105-1.849-0.317c-0.498-0.218-0.89-0.542-1.177-0.971
	C32.964,40.01,32.817,39.522,32.805,38.974z M42.66,40.693l0.14,0.887c-0.28,0.056-0.532,0.084-0.756,0.084
	c-0.361,0-0.642-0.056-0.841-0.168c-0.199-0.118-0.339-0.268-0.42-0.448c-0.081-0.187-0.122-0.582-0.122-1.186v-3.38h-0.738v-0.784
	h0.738v-1.457l0.99-0.598v2.055h1.009v0.784h-1.009v3.437c0,0.287,0.016,0.47,0.047,0.551c0.037,0.081,0.097,0.146,0.177,0.196
	c0.081,0.05,0.196,0.075,0.346,0.075C42.327,40.739,42.473,40.723,42.66,40.693z M47.42,40.86c-0.374,0.317-0.731,0.542-1.074,0.672
	c-0.342,0.125-0.709,0.187-1.102,0.187c-0.641,0-1.136-0.156-1.485-0.467c-0.349-0.317-0.523-0.722-0.523-1.214
	c0-0.292,0.065-0.557,0.196-0.794c0.131-0.236,0.302-0.426,0.514-0.57c0.211-0.143,0.451-0.252,0.719-0.327
	c0.199-0.056,0.495-0.106,0.887-0.149c0.81-0.1,1.404-0.215,1.784-0.345c0-0.137,0-0.225,0-0.262c0-0.405-0.093-0.691-0.28-0.859
	c-0.255-0.224-0.635-0.336-1.14-0.336c-0.467,0-0.812,0.081-1.037,0.243c-0.224,0.162-0.389,0.455-0.495,0.878l-0.98-0.14
	c0.093-0.417,0.24-0.753,0.439-1.008c0.205-0.255,0.498-0.452,0.877-0.588c0.386-0.146,0.834-0.215,1.345-0.215
	c0.504,0,0.912,0.059,1.224,0.177c0.311,0.119,0.542,0.268,0.691,0.448c0.149,0.181,0.252,0.408,0.308,0.682
	c0.038,0.168,0.056,0.473,0.056,0.916v1.335c0,0.928,0.019,1.516,0.056,1.765c0.043,0.243,0.13,0.476,0.261,0.701h-1.046
	C47.51,41.383,47.445,41.141,47.42,40.86z M47.336,38.638c-0.361,0.143-0.906,0.268-1.634,0.374c-0.411,0.056-0.7,0.122-0.868,0.196
	s-0.299,0.184-0.392,0.327c-0.094,0.143-0.14,0.302-0.14,0.476c0,0.268,0.1,0.492,0.299,0.672c0.205,0.174,0.501,0.262,0.887,0.262
	c0.386,0,0.728-0.084,1.027-0.252c0.299-0.175,0.52-0.405,0.663-0.691c0.106-0.23,0.159-0.563,0.159-0.999L47.336,38.638
	L47.336,38.638z M49.765,41.589v-5.893h0.896v0.896c0.23-0.417,0.442-0.691,0.635-0.822c0.193-0.137,0.408-0.206,0.645-0.206
	c0.336,0,0.679,0.109,1.027,0.327l-0.346,0.925c-0.243-0.144-0.489-0.215-0.738-0.215c-0.218,0-0.414,0.065-0.588,0.196
	c-0.168,0.131-0.29,0.312-0.364,0.542c-0.112,0.354-0.168,0.744-0.168,1.167v3.082L49.765,41.589L49.765,41.589z M55.672,40.693
	l0.14,0.887c-0.28,0.056-0.532,0.084-0.756,0.084c-0.361,0-0.641-0.056-0.84-0.168c-0.199-0.118-0.339-0.268-0.42-0.448
	c-0.081-0.187-0.121-0.582-0.121-1.186v-3.38h-0.738v-0.784h0.738v-1.457l0.99-0.598v2.055h1.008v0.784h-1.008v3.437
	c0,0.287,0.016,0.47,0.047,0.551c0.037,0.081,0.096,0.146,0.177,0.196s0.196,0.075,0.346,0.075
	C55.339,40.739,55.486,40.723,55.672,40.693z M56.594,34.604v-1.139h0.999v1.139H56.594z M56.594,41.589v-5.893h0.999v5.893H56.594z
	 M59.062,41.589v-5.893h0.896v0.84c0.436-0.647,1.062-0.971,1.877-0.971c0.355,0,0.682,0.065,0.98,0.196
	c0.299,0.124,0.52,0.292,0.663,0.504c0.149,0.206,0.255,0.448,0.317,0.729c0.038,0.187,0.056,0.511,0.056,0.971v3.624h-0.999v-3.586
	c0-0.405-0.041-0.707-0.122-0.906c-0.075-0.205-0.212-0.367-0.411-0.485c-0.199-0.118-0.433-0.178-0.7-0.178
	c-0.423,0-0.791,0.134-1.102,0.402c-0.305,0.268-0.458,0.781-0.458,1.541v3.213L59.062,41.589L59.062,41.589z M65.086,42.074
	l0.962,0.149c0.043,0.299,0.159,0.517,0.346,0.654c0.243,0.18,0.579,0.271,1.008,0.271c0.467,0,0.825-0.093,1.074-0.28
	c0.249-0.181,0.42-0.436,0.514-0.766c0.05-0.205,0.071-0.635,0.065-1.289c-0.436,0.517-0.977,0.775-1.625,0.775
	c-0.81,0-1.438-0.293-1.887-0.878c-0.442-0.585-0.663-1.286-0.663-2.101c0-0.561,0.103-1.077,0.308-1.55
	c0.205-0.479,0.501-0.847,0.887-1.102c0.386-0.261,0.837-0.392,1.354-0.392c0.697,0,1.27,0.28,1.718,0.84v-0.709h0.924v5.089
	c0,0.921-0.093,1.572-0.28,1.952c-0.187,0.386-0.482,0.688-0.887,0.906c-0.404,0.224-0.902,0.336-1.494,0.336
	c-0.703,0-1.273-0.159-1.708-0.477C65.273,43.186,65.067,42.709,65.086,42.074z M65.907,38.535c0,0.778,0.153,1.345,0.458,1.699
	c0.312,0.355,0.697,0.532,1.158,0.532c0.455,0,0.837-0.177,1.148-0.532c0.312-0.354,0.467-0.909,0.467-1.662
	c0-0.722-0.162-1.264-0.486-1.625c-0.317-0.367-0.7-0.551-1.148-0.551c-0.442,0-0.819,0.181-1.13,0.542
	C66.063,37.293,65.907,37.825,65.907,38.535z"/>
<path fill="#CFE2F3" d="M341.021,183.561h86.156v52.744h-86.156V183.561L341.021,183.561z"/>
<path fill="none" stroke="#000000" stroke-width="2" stroke-linejoin="round" stroke-miterlimit="10" d="M341.021,183.561h86.156
	v52.744h-86.156V183.561L341.021,183.561z"/>
<path d="M351.199,213.616v-8.125H354c0.629,0,1.111,0.036,1.447,0.112c0.461,0.104,0.854,0.299,1.186,0.578
	c0.43,0.366,0.752,0.834,0.963,1.4c0.211,0.561,0.316,1.202,0.316,1.923c0,0.617-0.07,1.165-0.213,1.646
	c-0.146,0.474-0.328,0.869-0.553,1.186c-0.227,0.312-0.473,0.559-0.736,0.738c-0.271,0.174-0.594,0.308-0.973,0.402
	c-0.381,0.092-0.814,0.14-1.309,0.14H351.199L351.199,213.616z M352.273,212.654h1.734c0.535,0,0.955-0.051,1.26-0.149
	c0.309-0.1,0.551-0.239,0.73-0.42c0.256-0.255,0.455-0.599,0.598-1.026c0.146-0.43,0.217-0.953,0.217-1.568
	c0-0.848-0.143-1.497-0.422-1.952c-0.279-0.46-0.617-0.771-1.018-0.924c-0.287-0.112-0.752-0.168-1.393-0.168h-1.711v6.209
	L352.273,212.654L352.273,212.654z M359.129,206.631v-1.139h1v1.139H359.129z M359.129,213.616v-5.894h1v5.894H359.129z
	 M361.195,211.859l0.988-0.158c0.059,0.398,0.207,0.703,0.457,0.915c0.258,0.206,0.609,0.308,1.064,0.308
	c0.461,0,0.801-0.093,1.018-0.279c0.227-0.188,0.336-0.403,0.336-0.652c0-0.225-0.096-0.402-0.287-0.532
	c-0.139-0.087-0.479-0.199-1.02-0.336c-0.734-0.188-1.246-0.347-1.531-0.478c-0.279-0.137-0.496-0.322-0.645-0.561
	c-0.146-0.243-0.217-0.507-0.217-0.793c0-0.262,0.061-0.504,0.18-0.729c0.123-0.226,0.289-0.412,0.494-0.562
	c0.152-0.111,0.367-0.208,0.635-0.29c0.268-0.081,0.555-0.121,0.859-0.121c0.467,0,0.873,0.068,1.223,0.206
	c0.35,0.13,0.604,0.312,0.768,0.542c0.168,0.226,0.283,0.526,0.348,0.906l-0.975,0.131c-0.043-0.299-0.174-0.532-0.393-0.701
	c-0.211-0.174-0.51-0.261-0.896-0.261c-0.461,0-0.785,0.078-0.979,0.232c-0.193,0.148-0.289,0.324-0.289,0.522
	c0,0.131,0.039,0.249,0.121,0.354c0.08,0.105,0.209,0.192,0.383,0.262c0.102,0.038,0.395,0.125,0.877,0.262
	c0.703,0.188,1.195,0.34,1.479,0.458c0.28,0.119,0.498,0.292,0.65,0.522c0.162,0.229,0.244,0.518,0.244,0.858
	c0,0.33-0.098,0.646-0.291,0.943c-0.189,0.292-0.473,0.521-0.84,0.682c-0.367,0.156-0.781,0.233-1.242,0.233
	c-0.766,0-1.35-0.159-1.756-0.477C361.562,212.953,361.309,212.482,361.195,211.859z M371.02,211.459l0.98,0.13
	c-0.105,0.672-0.379,1.202-0.822,1.588c-0.439,0.38-0.984,0.569-1.633,0.569c-0.803,0-1.451-0.262-1.943-0.784
	c-0.482-0.528-0.729-1.286-0.729-2.271c0-0.635,0.104-1.188,0.309-1.661c0.211-0.479,0.533-0.837,0.963-1.074
	c0.438-0.243,0.904-0.364,1.408-0.364c0.645,0,1.166,0.162,1.57,0.485c0.402,0.323,0.666,0.784,0.783,1.382l-0.973,0.148
	c-0.094-0.397-0.26-0.696-0.494-0.896c-0.234-0.197-0.521-0.299-0.852-0.299c-0.504,0-0.914,0.181-1.23,0.542
	c-0.312,0.36-0.469,0.931-0.469,1.709c0,0.791,0.152,1.367,0.457,1.729c0.307,0.354,0.701,0.53,1.188,0.53
	c0.393,0,0.719-0.116,0.979-0.354C370.777,212.327,370.945,211.957,371.02,211.459z M372.373,210.674
	c0-1.089,0.307-1.898,0.916-2.428c0.504-0.436,1.121-0.654,1.85-0.654c0.812,0,1.471,0.268,1.979,0.803
	c0.518,0.529,0.773,1.26,0.773,2.194c0,0.759-0.113,1.356-0.346,1.793c-0.227,0.431-0.555,0.767-0.99,1.009
	c-0.43,0.236-0.9,0.354-1.42,0.354c-0.821,0-1.486-0.265-1.998-0.793C372.629,212.424,372.373,211.664,372.373,210.674z
	 M373.4,210.674c0,0.753,0.166,1.317,0.496,1.69c0.328,0.372,0.742,0.56,1.24,0.56s0.908-0.188,1.232-0.56
	c0.33-0.38,0.494-0.956,0.494-1.729c0-0.729-0.164-1.279-0.494-1.652s-0.74-0.562-1.232-0.562c-0.498,0-0.912,0.188-1.24,0.562
	C373.566,209.357,373.4,209.921,373.4,210.674z M378.949,213.616v-5.894h0.895v0.84c0.438-0.646,1.062-0.972,1.877-0.972
	c0.355,0,0.684,0.065,0.98,0.196c0.299,0.124,0.52,0.292,0.664,0.504c0.146,0.206,0.254,0.448,0.314,0.729
	c0.037,0.188,0.057,0.512,0.057,0.972v3.624h-0.998v-3.588c0-0.403-0.039-0.705-0.121-0.904c-0.074-0.205-0.211-0.367-0.41-0.484
	s-0.434-0.179-0.701-0.179c-0.424,0-0.791,0.134-1.102,0.401c-0.309,0.269-0.459,0.781-0.459,1.541v3.214H378.949L378.949,213.616z
	 M385.15,213.616v-5.894h0.896v0.84c0.438-0.646,1.062-0.972,1.877-0.972c0.354,0,0.684,0.065,0.979,0.196
	c0.301,0.124,0.521,0.292,0.664,0.504c0.146,0.206,0.256,0.448,0.314,0.729c0.037,0.188,0.059,0.512,0.059,0.972v3.624h-1v-3.588
	c0-0.403-0.039-0.705-0.121-0.904c-0.074-0.205-0.211-0.367-0.41-0.484s-0.436-0.179-0.699-0.179c-0.424,0-0.791,0.134-1.104,0.401
	c-0.307,0.269-0.457,0.781-0.457,1.541v3.214H385.15L385.15,213.616z M395.385,211.72l1.027,0.132
	c-0.162,0.599-0.463,1.063-0.906,1.4c-0.436,0.33-0.996,0.495-1.68,0.495c-0.859,0-1.541-0.265-2.045-0.793
	c-0.506-0.529-0.758-1.272-0.758-2.231c0-0.99,0.252-1.76,0.758-2.308c0.51-0.548,1.172-0.822,1.984-0.822
	c0.791,0,1.438,0.269,1.938,0.804s0.746,1.291,0.746,2.27c0,0.057-0.002,0.145-0.01,0.262h-4.391
	c0.037,0.647,0.222,1.143,0.551,1.484c0.33,0.343,0.74,0.514,1.232,0.514c0.359,0,0.67-0.093,0.924-0.279
	C395.021,212.452,395.229,212.145,395.385,211.72z M392.107,210.105h3.285c-0.043-0.492-0.168-0.862-0.371-1.111
	c-0.316-0.387-0.73-0.579-1.242-0.579c-0.453,0-0.844,0.156-1.158,0.467C392.309,209.188,392.139,209.594,392.107,210.105z
	 M401.398,211.459l0.979,0.13c-0.104,0.672-0.379,1.202-0.82,1.588c-0.439,0.38-0.986,0.569-1.635,0.569
	c-0.803,0-1.451-0.262-1.941-0.784c-0.484-0.528-0.729-1.286-0.729-2.271c0-0.635,0.104-1.188,0.307-1.661
	c0.215-0.479,0.533-0.837,0.965-1.074c0.436-0.243,0.904-0.364,1.408-0.364c0.645,0,1.164,0.162,1.568,0.485
	s0.666,0.784,0.785,1.382l-0.973,0.148c-0.096-0.397-0.26-0.696-0.494-0.896c-0.236-0.197-0.521-0.299-0.854-0.299
	c-0.504,0-0.914,0.181-1.229,0.542c-0.312,0.36-0.471,0.931-0.471,1.709c0,0.791,0.152,1.367,0.46,1.729
	c0.306,0.354,0.698,0.53,1.187,0.53c0.393,0,0.719-0.116,0.979-0.354C401.156,212.327,401.324,211.957,401.398,211.459z
	 M405.312,212.72l0.141,0.888c-0.279,0.057-0.533,0.084-0.758,0.084c-0.359,0-0.643-0.057-0.84-0.168
	c-0.199-0.117-0.342-0.269-0.422-0.447c-0.082-0.188-0.119-0.582-0.119-1.188v-3.38h-0.738v-0.784h0.738v-1.457l0.986-0.598v2.055
	h1.012v0.784h-1.012v3.437c0,0.287,0.018,0.472,0.047,0.553c0.037,0.081,0.1,0.146,0.18,0.195c0.082,0.051,0.195,0.074,0.348,0.074
	C404.979,212.766,405.125,212.751,405.312,212.72z M410.26,211.72l1.025,0.132c-0.16,0.599-0.463,1.063-0.904,1.4
	c-0.438,0.33-0.996,0.495-1.682,0.495c-0.859,0-1.541-0.265-2.045-0.793c-0.506-0.529-0.758-1.272-0.758-2.231
	c0-0.99,0.252-1.76,0.758-2.308c0.51-0.548,1.174-0.822,1.986-0.822c0.791,0,1.438,0.269,1.936,0.804s0.748,1.291,0.748,2.27
	c0,0.057-0.004,0.145-0.014,0.262h-4.389c0.037,0.647,0.221,1.143,0.551,1.484s0.742,0.514,1.232,0.514
	c0.361,0,0.67-0.093,0.926-0.279C409.895,212.452,410.104,212.145,410.26,211.72z M406.98,210.105h3.285
	c-0.043-0.492-0.168-0.862-0.373-1.111c-0.314-0.387-0.729-0.579-1.24-0.579c-0.453,0-0.84,0.156-1.156,0.467
	C407.184,209.188,407.012,209.594,406.98,210.105z M416.246,213.616v-0.747c-0.375,0.585-0.922,0.877-1.646,0.877
	c-0.467,0-0.898-0.127-1.299-0.383c-0.393-0.262-0.695-0.623-0.916-1.083c-0.211-0.468-0.314-1.003-0.314-1.606
	c0-0.585,0.098-1.117,0.289-1.597c0.197-0.479,0.49-0.847,0.879-1.103c0.393-0.256,0.83-0.384,1.314-0.384
	c0.354,0,0.668,0.075,0.943,0.226c0.277,0.147,0.506,0.345,0.682,0.588v-2.914h0.988v8.125L416.246,213.616L416.246,213.616z
	 M413.088,210.674c0,0.753,0.16,1.317,0.479,1.69c0.322,0.374,0.699,0.56,1.131,0.56c0.436,0,0.807-0.177,1.109-0.531
	c0.307-0.354,0.457-0.898,0.457-1.635c0-0.803-0.154-1.391-0.467-1.765c-0.312-0.38-0.693-0.57-1.146-0.57
	c-0.441,0-0.812,0.181-1.109,0.542C413.238,209.327,413.088,209.896,413.088,210.674z"/>
<path fill="#CFE2F3" d="M340.82,45.256h81.486V93.37H340.82V45.256z"/>
<path fill="none" stroke="#000000" stroke-width="2" stroke-linejoin="round" stroke-miterlimit="10" d="M340.82,45.256h81.486
	V93.37H340.82V45.256z"/>
<path d="M361.275,70.149l1.072,0.271c-0.225,0.884-0.629,1.56-1.213,2.026c-0.586,0.46-1.303,0.691-2.146,0.691
	c-0.879,0-1.59-0.177-2.141-0.532c-0.547-0.361-0.965-0.878-1.252-1.55c-0.285-0.678-0.43-1.407-0.43-2.185
	c0-0.847,0.16-1.584,0.477-2.213c0.324-0.628,0.785-1.105,1.385-1.429c0.598-0.33,1.256-0.495,1.971-0.495
	c0.812,0,1.5,0.208,2.055,0.625c0.557,0.411,0.939,0.99,1.158,1.737l-1.055,0.252c-0.188-0.592-0.463-1.021-0.822-1.289
	c-0.361-0.274-0.812-0.411-1.355-0.411c-0.623,0-1.145,0.149-1.566,0.448c-0.416,0.299-0.713,0.704-0.887,1.214
	c-0.17,0.504-0.254,1.024-0.254,1.561c0,0.691,0.102,1.295,0.301,1.812c0.205,0.511,0.52,0.894,0.939,1.149
	c0.432,0.255,0.893,0.383,1.383,0.383c0.605,0,1.115-0.171,1.531-0.514C360.844,71.35,361.127,70.834,361.275,70.149z
	 M363.025,70.055c0-1.089,0.305-1.899,0.914-2.428c0.504-0.436,1.119-0.653,1.85-0.653c0.811,0,1.471,0.268,1.979,0.803
	c0.52,0.529,0.773,1.261,0.773,2.195c0,0.759-0.115,1.357-0.344,1.793c-0.229,0.429-0.559,0.766-0.99,1.008
	c-0.432,0.237-0.902,0.355-1.42,0.355c-0.822,0-1.488-0.265-1.998-0.794C363.279,71.805,363.025,71.045,363.025,70.055z
	 M364.053,70.055c0,0.753,0.164,1.317,0.494,1.69c0.33,0.374,0.744,0.561,1.242,0.561s0.908-0.187,1.232-0.561
	c0.328-0.379,0.492-0.956,0.492-1.729c0-0.728-0.164-1.279-0.492-1.653c-0.33-0.374-0.74-0.562-1.232-0.562
	c-0.498,0-0.912,0.188-1.242,0.562C364.217,68.736,364.053,69.302,364.053,70.055z M369.6,72.997v-5.893h0.896v0.841
	c0.436-0.647,1.061-0.971,1.877-0.971c0.354,0,0.682,0.065,0.979,0.196c0.301,0.125,0.521,0.292,0.664,0.504
	c0.148,0.206,0.258,0.448,0.318,0.729c0.037,0.187,0.055,0.51,0.055,0.971v3.623h-0.998v-3.586c0-0.405-0.041-0.707-0.123-0.906
	c-0.072-0.206-0.211-0.367-0.408-0.485c-0.197-0.119-0.434-0.178-0.699-0.178c-0.424,0-0.791,0.134-1.104,0.402
	c-0.305,0.268-0.457,0.781-0.457,1.541v3.212H369.6z M375.801,72.997v-5.893h0.896v0.841c0.438-0.647,1.062-0.971,1.879-0.971
	c0.354,0,0.682,0.065,0.979,0.196c0.299,0.125,0.521,0.292,0.664,0.504c0.148,0.206,0.256,0.448,0.316,0.729
	c0.037,0.187,0.057,0.51,0.057,0.971v3.623h-0.998v-3.586c0-0.405-0.041-0.707-0.123-0.906c-0.072-0.206-0.211-0.367-0.41-0.485
	c-0.197-0.119-0.432-0.178-0.699-0.178c-0.422,0-0.789,0.134-1.104,0.402c-0.305,0.268-0.457,0.781-0.457,1.541v3.212H375.801z
	 M386.035,71.101l1.027,0.131c-0.162,0.598-0.467,1.064-0.904,1.4c-0.438,0.33-0.996,0.495-1.686,0.495
	c-0.855,0-1.539-0.265-2.045-0.794c-0.504-0.529-0.756-1.273-0.756-2.232c0-0.99,0.252-1.758,0.756-2.306
	c0.514-0.548,1.175-0.822,1.99-0.822c0.791,0,1.434,0.268,1.932,0.803c0.498,0.536,0.748,1.292,0.748,2.27
	c0,0.056-0.004,0.143-0.01,0.261H382.7c0.037,0.647,0.221,1.143,0.551,1.485s0.74,0.514,1.232,0.514c0.359,0,0.668-0.093,0.926-0.28
	C385.672,71.833,385.881,71.525,386.035,71.101z M382.758,69.485h3.287c-0.043-0.492-0.168-0.862-0.373-1.111
	c-0.318-0.386-0.73-0.579-1.242-0.579c-0.455,0-0.84,0.155-1.156,0.467C382.961,68.568,382.789,68.975,382.758,69.485z
	 M392.051,70.839l0.98,0.131c-0.105,0.672-0.381,1.202-0.822,1.587c-0.441,0.38-0.986,0.57-1.635,0.57
	c-0.803,0-1.449-0.261-1.941-0.785c-0.484-0.529-0.729-1.285-0.729-2.269c0-0.635,0.104-1.189,0.311-1.662
	c0.211-0.479,0.531-0.837,0.961-1.074c0.438-0.243,0.906-0.364,1.41-0.364c0.641,0,1.164,0.162,1.568,0.485
	c0.402,0.323,0.666,0.785,0.781,1.382l-0.971,0.149c-0.094-0.398-0.258-0.697-0.494-0.896c-0.234-0.199-0.52-0.299-0.85-0.299
	c-0.504,0-0.916,0.18-1.232,0.542c-0.312,0.361-0.467,0.931-0.467,1.709c0,0.791,0.152,1.366,0.457,1.728
	c0.305,0.355,0.699,0.532,1.188,0.532c0.393,0,0.721-0.118,0.979-0.355C391.807,71.708,391.975,71.338,392.051,70.839z
	 M395.963,72.1l0.141,0.887c-0.277,0.056-0.531,0.084-0.758,0.084c-0.357,0-0.641-0.056-0.84-0.168
	c-0.199-0.118-0.34-0.268-0.42-0.448c-0.08-0.188-0.121-0.582-0.121-1.186v-3.38h-0.738v-0.785h0.738v-1.457l0.99-0.598v2.054h1.008
	v0.785h-1.008v3.437c0,0.286,0.016,0.47,0.047,0.551c0.037,0.081,0.096,0.146,0.176,0.196c0.082,0.05,0.197,0.075,0.348,0.075
	C395.631,72.147,395.775,72.131,395.963,72.1z M400.91,71.101l1.023,0.131c-0.16,0.598-0.463,1.064-0.902,1.4
	c-0.438,0.33-0.996,0.495-1.684,0.495c-0.857,0-1.541-0.265-2.045-0.794s-0.756-1.273-0.756-2.232c0-0.99,0.252-1.758,0.756-2.306
	c0.511-0.548,1.174-0.822,1.988-0.822c0.791,0,1.436,0.268,1.934,0.803c0.498,0.536,0.746,1.292,0.746,2.27
	c0,0.056-0.002,0.143-0.008,0.261h-4.391c0.037,0.647,0.223,1.143,0.553,1.485c0.328,0.342,0.74,0.514,1.23,0.514
	c0.359,0,0.67-0.093,0.926-0.28C400.545,71.833,400.754,71.525,400.91,71.101z M397.633,69.485h3.287
	c-0.045-0.492-0.168-0.862-0.375-1.111c-0.316-0.386-0.729-0.579-1.242-0.579c-0.453,0-0.84,0.155-1.156,0.467
	C397.834,68.568,397.664,68.975,397.633,69.485z M406.896,72.997V72.25c-0.373,0.585-0.924,0.878-1.646,0.878
	c-0.467,0-0.898-0.127-1.297-0.383c-0.396-0.262-0.697-0.623-0.916-1.083c-0.211-0.467-0.316-1.002-0.316-1.606
	c0-0.585,0.098-1.118,0.289-1.597c0.199-0.479,0.492-0.847,0.877-1.102c0.396-0.255,0.832-0.383,1.316-0.383
	c0.354,0,0.67,0.075,0.943,0.224c0.277,0.149,0.508,0.345,0.682,0.588v-2.914h0.99v8.125H406.896L406.896,72.997z M403.74,70.055
	c0,0.753,0.158,1.317,0.477,1.69c0.322,0.374,0.699,0.561,1.129,0.561c0.438,0,0.809-0.177,1.111-0.532s0.457-0.899,0.457-1.634
	c0-0.803-0.154-1.392-0.467-1.765c-0.312-0.379-0.693-0.569-1.148-0.569c-0.439,0-0.812,0.181-1.111,0.542
	C403.889,68.709,403.74,69.277,403.74,70.055z"/>
<path fill="#CFE2F3" d="M507.861,45.256h91.146V93.37h-91.145L507.861,45.256L507.861,45.256z"/>
<path fill="none" stroke="#000000" stroke-width="2" stroke-linejoin="round" stroke-miterlimit="10" d="M507.861,45.256h91.146
	V93.37h-91.145L507.861,45.256L507.861,45.256z"/>
<path d="M530.051,70.149l1.074,0.271c-0.225,0.884-0.629,1.56-1.215,2.026c-0.584,0.46-1.301,0.691-2.146,0.691
	c-0.879,0-1.592-0.177-2.139-0.532c-0.549-0.361-0.965-0.878-1.252-1.55c-0.287-0.678-0.43-1.407-0.43-2.185
	c0-0.847,0.156-1.584,0.477-2.213c0.324-0.628,0.785-1.105,1.383-1.429c0.6-0.33,1.254-0.495,1.969-0.495
	c0.816,0,1.504,0.208,2.059,0.625c0.555,0.411,0.938,0.99,1.158,1.737l-1.059,0.252c-0.188-0.592-0.461-1.021-0.82-1.289
	c-0.359-0.274-0.812-0.411-1.354-0.411c-0.621,0-1.146,0.149-1.567,0.448c-0.416,0.299-0.714,0.704-0.888,1.214
	c-0.168,0.504-0.252,1.024-0.252,1.561c0,0.691,0.101,1.295,0.299,1.812c0.205,0.511,0.521,0.894,0.943,1.149
	c0.43,0.255,0.891,0.383,1.381,0.383c0.604,0,1.115-0.171,1.533-0.514C529.619,71.35,529.902,70.834,530.051,70.149z
	 M531.799,70.055c0-1.089,0.309-1.899,0.916-2.428c0.504-0.436,1.121-0.653,1.852-0.653c0.811,0,1.471,0.268,1.979,0.803
	c0.52,0.529,0.775,1.261,0.775,2.195c0,0.759-0.115,1.357-0.348,1.793c-0.225,0.429-0.555,0.766-0.988,1.008
	c-0.432,0.237-0.902,0.355-1.42,0.355c-0.82,0-1.486-0.265-1.998-0.794C532.055,71.805,531.799,71.045,531.799,70.055z
	 M532.826,70.055c0,0.753,0.166,1.317,0.494,1.69c0.33,0.374,0.744,0.561,1.242,0.561c0.496,0,0.908-0.187,1.23-0.561
	c0.33-0.379,0.496-0.956,0.496-1.729c0-0.728-0.166-1.279-0.496-1.653c-0.33-0.374-0.74-0.562-1.23-0.562
	c-0.498,0-0.912,0.188-1.242,0.562C532.992,68.737,532.826,69.302,532.826,70.055z M538.375,72.997v-5.893h0.895v0.832
	c0.184-0.287,0.426-0.517,0.73-0.691c0.311-0.181,0.662-0.271,1.055-0.271c0.438,0,0.793,0.09,1.074,0.271
	c0.279,0.181,0.477,0.436,0.588,0.766c0.467-0.691,1.074-1.036,1.82-1.036c0.586,0,1.033,0.162,1.346,0.485
	c0.316,0.324,0.479,0.822,0.479,1.494v4.043h-1V69.29c0-0.398-0.029-0.685-0.096-0.859c-0.061-0.181-0.18-0.324-0.354-0.43
	c-0.168-0.105-0.367-0.159-0.598-0.159c-0.412,0-0.756,0.137-1.027,0.411c-0.273,0.274-0.41,0.716-0.41,1.326v3.417h-1v-3.829
	c0-0.442-0.08-0.772-0.242-0.99c-0.162-0.224-0.43-0.336-0.803-0.336c-0.281,0-0.543,0.075-0.785,0.224
	c-0.235,0.143-0.408,0.358-0.514,0.645c-0.105,0.286-0.158,0.697-0.158,1.232v3.054L538.375,72.997L538.375,72.997z M547.662,75.257
	v-8.153h0.916v0.766c0.211-0.299,0.449-0.523,0.719-0.672c0.273-0.149,0.6-0.224,0.979-0.224c0.506,0,0.949,0.13,1.336,0.392
	c0.387,0.255,0.676,0.62,0.869,1.092c0.197,0.474,0.299,0.99,0.299,1.55c0,0.604-0.107,1.149-0.326,1.634
	c-0.219,0.479-0.533,0.847-0.943,1.103c-0.409,0.255-0.844,0.383-1.299,0.383c-0.336,0-0.639-0.068-0.904-0.206
	c-0.262-0.143-0.477-0.32-0.646-0.532v2.867H547.662L547.662,75.257z M548.568,70.083c0,0.76,0.15,1.32,0.457,1.681
	c0.312,0.361,0.686,0.542,1.119,0.542c0.441,0,0.818-0.187,1.133-0.561c0.314-0.373,0.477-0.956,0.477-1.746
	c0-0.747-0.156-1.307-0.467-1.681c-0.309-0.374-0.672-0.561-1.104-0.561c-0.424,0-0.799,0.199-1.129,0.598
	C548.73,68.754,548.568,69.33,548.568,70.083z M553.846,72.997v-8.125h0.998v8.125H553.846z M560.375,71.101l1.025,0.131
	c-0.16,0.598-0.463,1.064-0.904,1.4c-0.436,0.33-0.996,0.495-1.682,0.495c-0.857,0-1.541-0.265-2.045-0.794
	c-0.506-0.529-0.758-1.273-0.758-2.232c0-0.99,0.252-1.758,0.758-2.306c0.51-0.548,1.174-0.822,1.986-0.822
	c0.791,0,1.438,0.268,1.936,0.803c0.498,0.536,0.748,1.292,0.748,2.27c0,0.056-0.006,0.143-0.012,0.261h-4.389
	c0.037,0.647,0.221,1.143,0.551,1.485s0.74,0.514,1.232,0.514c0.357,0,0.668-0.093,0.924-0.28
	C560.012,71.833,560.219,71.525,560.375,71.101z M557.098,69.485h3.287c-0.045-0.492-0.168-0.862-0.373-1.111
	c-0.316-0.386-0.73-0.579-1.242-0.579c-0.453,0-0.842,0.155-1.156,0.467C557.299,68.568,557.129,68.975,557.098,69.485z
	 M564.727,72.1l0.145,0.887c-0.281,0.056-0.533,0.084-0.758,0.084c-0.361,0-0.645-0.056-0.844-0.168
	c-0.197-0.118-0.338-0.268-0.42-0.448c-0.08-0.188-0.119-0.582-0.119-1.186v-3.38h-0.736v-0.785h0.736v-1.457l0.988-0.598v2.054
	h1.008v0.785h-1.008v3.437c0,0.286,0.018,0.47,0.047,0.551c0.037,0.081,0.098,0.146,0.18,0.196c0.08,0.05,0.193,0.075,0.346,0.075
	C564.395,72.147,564.541,72.131,564.727,72.1z M569.674,71.101l1.027,0.131c-0.162,0.598-0.465,1.064-0.906,1.4
	c-0.436,0.33-0.996,0.495-1.682,0.495c-0.857,0-1.541-0.265-2.045-0.794s-0.756-1.273-0.756-2.232c0-0.99,0.252-1.758,0.756-2.306
	c0.512-0.548,1.174-0.822,1.986-0.822c0.791,0,1.438,0.268,1.938,0.803c0.496,0.536,0.746,1.292,0.746,2.27
	c0,0.056-0.004,0.143-0.012,0.261h-4.389c0.037,0.647,0.221,1.143,0.551,1.485s0.74,0.514,1.232,0.514
	c0.357,0,0.67-0.093,0.924-0.28C569.311,71.833,569.518,71.525,569.674,71.101z M566.396,69.485h3.285
	c-0.043-0.492-0.168-0.862-0.373-1.111c-0.314-0.386-0.729-0.579-1.24-0.579c-0.453,0-0.844,0.155-1.158,0.467
	C566.598,68.568,566.428,68.975,566.396,69.485z M575.66,72.997V72.25c-0.373,0.585-0.922,0.878-1.646,0.878
	c-0.467,0-0.896-0.127-1.299-0.383c-0.391-0.262-0.697-0.623-0.914-1.083c-0.211-0.467-0.316-1.002-0.316-1.606
	c0-0.585,0.098-1.118,0.291-1.597c0.197-0.479,0.488-0.847,0.877-1.102c0.393-0.255,0.832-0.383,1.314-0.383
	c0.355,0,0.67,0.075,0.943,0.224c0.277,0.149,0.508,0.345,0.682,0.588v-2.914h0.99v8.125H575.66L575.66,72.997z M572.504,70.055
	c0,0.753,0.158,1.317,0.479,1.69c0.322,0.374,0.697,0.561,1.129,0.561c0.438,0,0.809-0.177,1.109-0.532
	c0.309-0.355,0.459-0.899,0.459-1.634c0-0.803-0.154-1.392-0.467-1.765c-0.312-0.379-0.695-0.569-1.148-0.569
	c-0.439,0-0.812,0.181-1.109,0.542C572.652,68.709,572.504,69.277,572.504,70.055z"/>
<path fill="#CFE2F3" d="M178.258,45.256h81.583V93.37h-81.583V45.256z"/>
<path fill="none" stroke="#000000" stroke-width="2" stroke-linejoin="round" stroke-miterlimit="10" d="M178.258,45.256h81.583
	V93.37h-81.583V45.256z"/>
<path d="M202.484,70.149l1.074,0.271c-0.224,0.884-0.629,1.56-1.214,2.026c-0.585,0.46-1.301,0.691-2.147,0.691
	c-0.878,0-1.591-0.177-2.139-0.532c-0.548-0.361-0.965-0.878-1.251-1.55c-0.286-0.678-0.429-1.407-0.429-2.185
	c0-0.847,0.159-1.584,0.476-2.213c0.324-0.628,0.784-1.105,1.382-1.429c0.598-0.33,1.255-0.495,1.971-0.495
	c0.815,0,1.5,0.208,2.054,0.625c0.554,0.411,0.94,0.99,1.158,1.737l-1.055,0.252c-0.187-0.592-0.461-1.021-0.822-1.289
	c-0.361-0.274-0.812-0.411-1.354-0.411c-0.623,0-1.146,0.149-1.569,0.448c-0.417,0.299-0.713,0.704-0.887,1.214
	c-0.168,0.504-0.252,1.024-0.252,1.561c0,0.691,0.1,1.295,0.299,1.812c0.206,0.511,0.52,0.894,0.943,1.149
	c0.43,0.255,0.89,0.383,1.382,0.383c0.604,0,1.115-0.171,1.532-0.514C202.051,71.35,202.335,70.834,202.484,70.149z M204.607,72.997
	v-8.125h0.999v2.914c0.467-0.542,1.055-0.812,1.765-0.812c0.436,0,0.812,0.087,1.13,0.261c0.324,0.168,0.554,0.405,0.691,0.71
	c0.144,0.305,0.215,0.744,0.215,1.316v3.735h-0.999v-3.735c0-0.498-0.109-0.859-0.327-1.083c-0.218-0.229-0.523-0.346-0.915-0.346
	c-0.299,0-0.579,0.078-0.84,0.233c-0.255,0.149-0.439,0.358-0.551,0.626c-0.112,0.261-0.168,0.623-0.168,1.083v3.222L204.607,72.997
	L204.607,72.997z M214.842,71.101l1.027,0.131c-0.162,0.598-0.463,1.064-0.906,1.4c-0.436,0.33-0.996,0.495-1.681,0.495
	c-0.859,0-1.541-0.265-2.045-0.794c-0.504-0.529-0.756-1.273-0.756-2.232c0-0.99,0.252-1.758,0.756-2.306
	c0.511-0.548,1.174-0.822,1.989-0.822c0.791,0,1.435,0.268,1.933,0.803c0.498,0.536,0.747,1.292,0.747,2.27
	c0,0.056-0.003,0.143-0.009,0.261h-4.389c0.038,0.647,0.221,1.143,0.551,1.485s0.741,0.514,1.233,0.514
	c0.361,0,0.669-0.093,0.924-0.28C214.479,71.833,214.687,71.525,214.842,71.101z M211.564,69.485h3.287
	c-0.043-0.492-0.168-0.862-0.374-1.111c-0.317-0.386-0.731-0.579-1.242-0.579c-0.455,0-0.84,0.155-1.158,0.467
	C211.766,68.568,211.595,68.975,211.564,69.485z M220.856,70.839l0.98,0.131c-0.106,0.672-0.38,1.202-0.822,1.587
	c-0.442,0.38-0.987,0.57-1.634,0.57c-0.803,0-1.45-0.261-1.942-0.785c-0.485-0.529-0.728-1.285-0.728-2.269
	c0-0.635,0.103-1.189,0.308-1.662c0.211-0.479,0.532-0.837,0.962-1.074c0.436-0.243,0.906-0.364,1.41-0.364
	c0.642,0,1.165,0.162,1.569,0.485c0.405,0.324,0.667,0.785,0.785,1.382l-0.971,0.149c-0.093-0.398-0.258-0.697-0.495-0.896
	c-0.236-0.199-0.52-0.299-0.85-0.299c-0.504,0-0.915,0.18-1.233,0.542c-0.311,0.361-0.467,0.931-0.467,1.709
	c0,0.791,0.153,1.366,0.458,1.728c0.305,0.355,0.701,0.532,1.186,0.532c0.392,0,0.719-0.118,0.98-0.355
	C220.613,71.708,220.781,71.338,220.856,70.839z M222.593,72.997v-8.125h1v4.632l2.362-2.4h1.289l-2.251,2.186l2.475,3.707h-1.233
	l-1.942-3.007l-0.7,0.672v2.334L222.593,72.997L222.593,72.997z M228.168,66.012v-1.14h0.999v1.14H228.168z M228.168,72.997v-5.893
	h0.999v5.893H228.168z M230.636,72.997v-5.893h0.896v0.841c0.436-0.647,1.062-0.971,1.877-0.971c0.355,0,0.682,0.065,0.98,0.196
	c0.299,0.125,0.52,0.292,0.663,0.504c0.149,0.206,0.255,0.448,0.317,0.729c0.038,0.187,0.056,0.51,0.056,0.971v3.623h-0.999v-3.586
	c0-0.405-0.041-0.707-0.122-0.906c-0.075-0.206-0.211-0.367-0.411-0.485c-0.199-0.119-0.433-0.178-0.701-0.178
	c-0.423,0-0.791,0.134-1.102,0.402c-0.305,0.268-0.458,0.781-0.458,1.541v3.212H230.636z M236.66,73.483l0.961,0.149
	c0.044,0.299,0.159,0.517,0.346,0.653c0.243,0.181,0.579,0.271,1.009,0.271c0.467,0,0.825-0.093,1.074-0.28
	c0.249-0.18,0.42-0.436,0.514-0.766c0.05-0.206,0.072-0.635,0.065-1.289c-0.436,0.517-0.978,0.775-1.625,0.775
	c-0.809,0-1.438-0.292-1.886-0.877c-0.442-0.585-0.663-1.286-0.663-2.102c0-0.56,0.103-1.077,0.308-1.55
	c0.206-0.479,0.501-0.847,0.887-1.102c0.386-0.262,0.837-0.392,1.354-0.392c0.697,0,1.27,0.28,1.718,0.84v-0.71h0.924v5.089
	c0,0.922-0.093,1.572-0.28,1.952c-0.187,0.386-0.482,0.688-0.887,0.906c-0.405,0.224-0.903,0.336-1.494,0.336
	c-0.704,0-1.273-0.159-1.709-0.476C236.846,74.594,236.641,74.117,236.66,73.483z M237.482,69.943c0,0.778,0.152,1.345,0.458,1.7
	c0.311,0.355,0.697,0.532,1.158,0.532c0.455,0,0.837-0.177,1.149-0.532c0.311-0.354,0.467-0.909,0.467-1.662
	c0-0.722-0.162-1.264-0.486-1.625c-0.317-0.367-0.7-0.551-1.148-0.551c-0.442,0-0.819,0.181-1.13,0.542
	C237.637,68.701,237.482,69.234,237.482,69.943z"/>
<path fill="#CFE2F3" d="M178.258,184.014h86.364v52.5h-86.364V184.014L178.258,184.014z"/>
<path fill="none" stroke="#000000" stroke-width="2" stroke-linejoin="round" stroke-miterlimit="10" d="M178.258,184.014h86.364
	v52.5h-86.364V184.014L178.258,184.014z"/>
<path d="M207.19,213.947v-8.125h5.481v0.953h-4.408v2.521h3.81v0.962h-3.81v3.689H207.19z M217.661,213.218
	c-0.374,0.317-0.731,0.542-1.074,0.673c-0.342,0.125-0.71,0.188-1.102,0.188c-0.641,0-1.136-0.155-1.485-0.469
	c-0.349-0.315-0.523-0.721-0.523-1.213c0-0.293,0.065-0.558,0.196-0.795c0.131-0.234,0.302-0.426,0.514-0.567
	c0.211-0.146,0.451-0.252,0.719-0.327c0.199-0.057,0.495-0.104,0.887-0.148c0.81-0.101,1.404-0.216,1.784-0.346
	c0-0.137,0-0.224,0-0.262c0-0.405-0.093-0.691-0.28-0.859c-0.255-0.224-0.635-0.336-1.139-0.336c-0.467,0-0.812,0.081-1.037,0.243
	c-0.224,0.162-0.389,0.455-0.495,0.878l-0.981-0.14c0.094-0.419,0.24-0.755,0.439-1.009c0.206-0.256,0.498-0.453,0.878-0.588
	c0.386-0.144,0.834-0.216,1.345-0.216c0.504,0,0.912,0.06,1.223,0.177c0.312,0.119,0.542,0.27,0.691,0.448
	c0.149,0.181,0.252,0.408,0.308,0.683c0.037,0.168,0.056,0.475,0.056,0.916v1.334c0,0.929,0.019,1.518,0.056,1.767
	c0.044,0.243,0.131,0.478,0.262,0.701h-1.046C217.751,213.741,217.687,213.499,217.661,213.218z M217.577,210.996
	c-0.361,0.143-0.906,0.268-1.634,0.374c-0.411,0.056-0.7,0.122-0.868,0.196s-0.299,0.184-0.393,0.326
	c-0.093,0.144-0.14,0.303-0.14,0.477c0,0.268,0.1,0.492,0.299,0.673c0.206,0.174,0.501,0.261,0.887,0.261
	c0.386,0,0.729-0.084,1.027-0.252c0.299-0.174,0.52-0.404,0.663-0.691c0.106-0.229,0.159-0.562,0.159-0.998V210.996L217.577,210.996
	z M220.024,206.962v-1.139h0.999v1.139H220.024z M220.024,213.947v-5.893h0.999v5.893H220.024z M222.473,213.947v-8.125h0.999v8.125
	H222.473z M229.003,212.051l1.027,0.131c-0.162,0.6-0.464,1.064-0.906,1.401c-0.436,0.33-0.996,0.495-1.681,0.495
	c-0.859,0-1.541-0.266-2.045-0.793c-0.504-0.529-0.756-1.273-0.756-2.232c0-0.99,0.252-1.759,0.756-2.307
	c0.51-0.548,1.173-0.822,1.989-0.822c0.791,0,1.435,0.268,1.933,0.803s0.747,1.293,0.747,2.271c0,0.056-0.003,0.144-0.009,0.262
	h-4.389c0.038,0.646,0.221,1.144,0.551,1.485c0.33,0.342,0.741,0.513,1.232,0.513c0.361,0,0.669-0.093,0.925-0.278
	C228.639,212.782,228.847,212.475,229.003,212.051z M225.725,210.436h3.287c-0.043-0.492-0.168-0.86-0.374-1.109
	c-0.317-0.387-0.731-0.579-1.242-0.579c-0.455,0-0.841,0.155-1.158,0.467C225.928,209.518,225.757,209.925,225.725,210.436z
	 M234.989,213.947V213.2c-0.374,0.585-0.921,0.877-1.644,0.877c-0.467,0-0.899-0.127-1.298-0.384
	c-0.393-0.26-0.697-0.623-0.916-1.082c-0.211-0.467-0.317-1.002-0.317-1.606c0-0.585,0.097-1.116,0.29-1.597
	c0.199-0.479,0.492-0.848,0.878-1.102c0.392-0.257,0.831-0.385,1.316-0.385c0.355,0,0.669,0.075,0.943,0.225
	c0.28,0.148,0.507,0.347,0.682,0.588v-2.914h0.99v8.125L234.989,213.947L234.989,213.947z M231.833,211.005
	c0,0.753,0.159,1.317,0.476,1.69c0.324,0.373,0.701,0.56,1.13,0.56c0.436,0,0.806-0.177,1.111-0.532
	c0.305-0.354,0.458-0.897,0.458-1.634c0-0.803-0.155-1.391-0.467-1.765c-0.311-0.381-0.694-0.57-1.148-0.57
	c-0.442,0-0.812,0.182-1.111,0.542C231.983,209.657,231.833,210.227,231.833,211.005z"/>
<path fill="none" stroke="#000000" stroke-width="2" stroke-linejoin="round" stroke-miterlimit="10" d="M259.841,69.313h73.809"/>
<path stroke="#000000" stroke-width="2" stroke-miterlimit="10" d="M333.648,71.287l5.426-1.975l-5.426-1.974V71.287z"/>
<path stroke="#000000" stroke-width="2" stroke-miterlimit="10" d="M219.277,176.896l2.117,5.371l1.831-5.477L219.277,176.896z"/>
<path fill="none" stroke="#000000" stroke-width="2" stroke-linejoin="round" stroke-miterlimit="10" d="M422.309,69.313h78.385"/>
<path stroke="#000000" stroke-width="2" stroke-miterlimit="10" d="M500.691,71.287l5.424-1.975l-5.424-1.974V71.287z"/>
<path fill="none" stroke="#000000" stroke-width="2" stroke-linejoin="round" stroke-miterlimit="10" d="M553.436,93.37
	L432.449,205.066"/>
<path stroke="#000000" stroke-width="2" stroke-miterlimit="10" d="M431.109,203.616l-2.646,5.13l5.326-2.229L431.109,203.616z"/>
<path stroke="#000000" stroke-width="2" stroke-miterlimit="10" d="M380.926,176.445l2.125,5.367l1.822-5.479L380.926,176.445z"/>
<path fill="#CFE2F3" d="M510.301,207.514h86.271v57.581h-86.271V207.514L510.301,207.514z"/>
<path fill="none" stroke="#000000" stroke-width="2" stroke-linejoin="round" stroke-miterlimit="10" d="M510.301,207.514h86.271
	v57.581h-86.271V207.514L510.301,207.514z"/>
<path d="M542.758,217.907l1.074,0.271c-0.225,0.885-0.629,1.562-1.215,2.026c-0.586,0.461-1.301,0.69-2.146,0.69
	c-0.879,0-1.592-0.18-2.139-0.531c-0.549-0.361-0.965-0.879-1.252-1.553c-0.287-0.68-0.43-1.404-0.43-2.186
	c0-0.848,0.156-1.585,0.477-2.214c0.324-0.629,0.785-1.104,1.383-1.431c0.6-0.33,1.254-0.494,1.969-0.494
	c0.816,0,1.502,0.209,2.059,0.627c0.555,0.41,0.938,0.988,1.156,1.736l-1.057,0.252c-0.188-0.593-0.461-1.021-0.822-1.289
	c-0.357-0.272-0.811-0.41-1.354-0.41c-0.623,0-1.146,0.148-1.568,0.447c-0.418,0.299-0.713,0.703-0.889,1.215
	c-0.168,0.504-0.252,1.022-0.252,1.561c0,0.689,0.1,1.295,0.299,1.812c0.205,0.513,0.521,0.896,0.943,1.147
	c0.43,0.255,0.891,0.383,1.383,0.383c0.604,0,1.113-0.171,1.531-0.514C542.324,219.107,542.607,218.592,542.758,217.907z
	 M544.861,220.755v-8.124h1v8.124H544.861z M546.984,217.812c0-1.09,0.307-1.896,0.914-2.429c0.504-0.436,1.119-0.653,1.852-0.653
	c0.809,0,1.469,0.27,1.979,0.805c0.52,0.529,0.773,1.261,0.773,2.193c0,0.762-0.115,1.356-0.346,1.793
	c-0.227,0.432-0.553,0.768-0.988,1.011c-0.432,0.235-0.904,0.354-1.42,0.354c-0.822,0-1.488-0.265-1.998-0.794
	C547.238,219.562,546.984,218.805,546.984,217.812z M548.012,217.812c0,0.754,0.164,1.315,0.494,1.689
	c0.33,0.373,0.744,0.562,1.242,0.562s0.908-0.188,1.232-0.562c0.33-0.38,0.492-0.956,0.492-1.729c0-0.729-0.163-1.277-0.492-1.651
	c-0.33-0.373-0.742-0.56-1.232-0.56c-0.498,0-0.912,0.187-1.242,0.56C548.176,216.497,548.012,217.061,548.012,217.812z
	 M553.156,219l0.99-0.159c0.057,0.398,0.209,0.703,0.455,0.915c0.258,0.205,0.611,0.309,1.064,0.309
	c0.461,0,0.801-0.094,1.018-0.277c0.227-0.188,0.338-0.405,0.338-0.654c0-0.224-0.098-0.4-0.289-0.531
	c-0.139-0.086-0.479-0.199-1.02-0.336c-0.732-0.188-1.244-0.347-1.531-0.478c-0.277-0.14-0.492-0.323-0.645-0.562
	c-0.146-0.242-0.217-0.508-0.217-0.793c0-0.263,0.061-0.506,0.18-0.729c0.125-0.227,0.289-0.411,0.494-0.562
	c0.154-0.11,0.367-0.207,0.635-0.289c0.271-0.08,0.555-0.121,0.859-0.121c0.467,0,0.873,0.068,1.225,0.205
	c0.35,0.131,0.604,0.312,0.768,0.541c0.168,0.227,0.281,0.526,0.346,0.906l-0.975,0.131c-0.043-0.299-0.174-0.531-0.391-0.699
	c-0.213-0.176-0.514-0.263-0.896-0.263c-0.461,0-0.789,0.078-0.98,0.233c-0.192,0.148-0.289,0.324-0.289,0.523
	c0,0.129,0.039,0.248,0.121,0.354c0.08,0.105,0.209,0.193,0.383,0.262c0.102,0.037,0.395,0.124,0.877,0.262
	c0.703,0.188,1.195,0.338,1.479,0.457c0.281,0.119,0.498,0.293,0.65,0.522c0.162,0.229,0.244,0.519,0.244,0.858
	c0,0.33-0.098,0.646-0.291,0.941c-0.189,0.293-0.473,0.521-0.84,0.684c-0.367,0.153-0.781,0.231-1.242,0.231
	c-0.766,0-1.35-0.157-1.756-0.478C553.523,220.092,553.27,219.622,553.156,219z M563.168,218.859l1.025,0.132
	c-0.16,0.598-0.463,1.063-0.904,1.399c-0.436,0.328-0.996,0.493-1.682,0.493c-0.859,0-1.541-0.265-2.045-0.794
	c-0.505-0.527-0.758-1.271-0.758-2.229c0-0.99,0.253-1.76,0.758-2.31c0.51-0.548,1.174-0.821,1.986-0.821
	c0.791,0,1.438,0.27,1.936,0.805s0.748,1.292,0.748,2.27c0,0.057-0.004,0.146-0.012,0.262h-4.389
	c0.037,0.646,0.221,1.145,0.551,1.484c0.33,0.342,0.74,0.514,1.232,0.514c0.357,0,0.67-0.094,0.924-0.277
	C562.803,219.591,563.012,219.283,563.168,218.859z M559.891,217.244h3.287c-0.045-0.492-0.168-0.862-0.375-1.111
	c-0.314-0.386-0.729-0.578-1.242-0.578c-0.451,0-0.84,0.154-1.154,0.467C560.092,216.325,559.922,216.734,559.891,217.244z
	 M569.154,220.755v-0.747c-0.375,0.586-0.922,0.878-1.646,0.878c-0.467,0-0.898-0.128-1.299-0.383
	c-0.393-0.262-0.697-0.622-0.914-1.083c-0.211-0.467-0.318-1.003-0.318-1.605c0-0.584,0.1-1.116,0.291-1.598
	c0.199-0.479,0.49-0.847,0.879-1.102c0.393-0.256,0.83-0.385,1.314-0.385c0.354,0,0.67,0.076,0.941,0.226
	c0.279,0.149,0.51,0.346,0.684,0.588v-2.913h0.99v8.124H569.154L569.154,220.755z M565.998,217.812c0,0.754,0.158,1.315,0.477,1.689
	c0.322,0.373,0.699,0.562,1.129,0.562c0.438,0,0.811-0.18,1.111-0.531c0.305-0.355,0.457-0.9,0.457-1.637
	c0-0.804-0.154-1.393-0.467-1.766c-0.311-0.38-0.693-0.568-1.148-0.568c-0.438,0-0.811,0.181-1.109,0.541
	C566.146,216.466,565.998,217.035,565.998,217.812z"/>
<path d="M537.492,235.968c-0.549-0.696-1.014-1.51-1.395-2.438c-0.379-0.937-0.568-1.899-0.568-2.896
	c0-0.884,0.141-1.728,0.422-2.53c0.336-0.934,0.85-1.861,1.541-2.791h0.719c-0.449,0.768-0.744,1.312-0.889,1.646
	c-0.225,0.511-0.4,1.043-0.531,1.599c-0.162,0.689-0.242,1.385-0.242,2.08c0,1.781,0.553,3.561,1.662,5.333L537.492,235.968
	L537.492,235.968z M543.146,231.42l0.979,0.131c-0.104,0.672-0.379,1.201-0.82,1.588c-0.441,0.379-0.986,0.568-1.635,0.568
	c-0.803,0-1.451-0.262-1.943-0.784c-0.482-0.528-0.729-1.284-0.729-2.269c0-0.637,0.104-1.189,0.309-1.663
	c0.215-0.479,0.533-0.837,0.965-1.073c0.438-0.243,0.902-0.363,1.408-0.363c0.645,0,1.164,0.161,1.568,0.484
	c0.404,0.324,0.666,0.784,0.785,1.382l-0.975,0.149c-0.094-0.398-0.258-0.697-0.494-0.896c-0.234-0.199-0.521-0.299-0.85-0.299
	c-0.506,0-0.916,0.182-1.234,0.542c-0.311,0.36-0.467,0.931-0.467,1.709c0,0.79,0.152,1.366,0.459,1.728
	c0.307,0.354,0.699,0.533,1.188,0.533c0.393,0,0.719-0.119,0.979-0.354C542.904,232.288,543.072,231.918,543.146,231.42z
	 M548.723,232.85c-0.375,0.316-0.729,0.541-1.072,0.672c-0.344,0.125-0.711,0.188-1.104,0.188c-0.643,0-1.137-0.153-1.486-0.467
	c-0.348-0.317-0.521-0.724-0.521-1.216c0-0.293,0.063-0.557,0.195-0.795c0.133-0.233,0.303-0.426,0.516-0.566
	c0.211-0.146,0.451-0.252,0.719-0.327c0.199-0.056,0.494-0.104,0.889-0.147c0.811-0.102,1.402-0.215,1.781-0.346
	c0-0.139,0-0.226,0-0.263c0-0.405-0.092-0.69-0.277-0.858c-0.257-0.225-0.636-0.336-1.141-0.336c-0.467,0-0.812,0.08-1.036,0.241
	c-0.226,0.162-0.39,0.455-0.494,0.878l-0.979-0.14c0.094-0.417,0.238-0.753,0.438-1.011c0.206-0.256,0.497-0.449,0.879-0.588
	c0.387-0.145,0.834-0.215,1.346-0.215c0.504,0,0.912,0.061,1.226,0.176c0.312,0.119,0.541,0.271,0.688,0.449
	c0.147,0.18,0.252,0.407,0.31,0.685c0.036,0.168,0.058,0.473,0.058,0.915v1.335c0,0.928,0.02,1.516,0.057,1.765
	c0.043,0.243,0.131,0.479,0.263,0.701h-1.048C548.812,233.371,548.746,233.129,548.723,232.85z M548.639,230.626
	c-0.359,0.144-0.904,0.269-1.635,0.373c-0.41,0.058-0.701,0.122-0.869,0.196s-0.299,0.184-0.393,0.326
	c-0.094,0.144-0.141,0.303-0.141,0.478c0,0.269,0.102,0.491,0.301,0.672c0.205,0.175,0.5,0.263,0.887,0.263s0.729-0.084,1.027-0.252
	c0.299-0.176,0.52-0.406,0.66-0.689c0.105-0.23,0.158-0.562,0.158-0.999v-0.365L548.639,230.626L548.639,230.626z M551.076,233.577
	v-5.894h0.896v0.84c0.438-0.646,1.062-0.973,1.877-0.973c0.354,0,0.684,0.065,0.98,0.196c0.299,0.124,0.52,0.292,0.662,0.504
	c0.146,0.205,0.256,0.448,0.314,0.729c0.037,0.188,0.059,0.513,0.059,0.973v3.624h-0.998v-3.586c0-0.405-0.041-0.707-0.121-0.906
	c-0.076-0.205-0.213-0.367-0.412-0.485c-0.199-0.117-0.434-0.178-0.699-0.178c-0.424,0-0.791,0.135-1.104,0.401
	c-0.309,0.268-0.457,0.78-0.457,1.541v3.213H551.076z M561.299,233.577h-0.924v-8.125h0.99v2.896
	c0.422-0.527,0.961-0.794,1.615-0.794c0.357,0,0.701,0.074,1.023,0.226c0.324,0.145,0.59,0.35,0.795,0.615
	c0.211,0.264,0.377,0.578,0.494,0.953c0.119,0.372,0.178,0.771,0.178,1.194c0,1.009-0.248,1.79-0.746,2.344
	c-0.497,0.548-1.096,0.821-1.793,0.821c-0.695,0-1.24-0.289-1.635-0.868L561.299,233.577L561.299,233.577z M561.289,230.589
	c0,0.703,0.094,1.214,0.281,1.531c0.314,0.511,0.742,0.766,1.277,0.766c0.438,0,0.812-0.187,1.131-0.561
	c0.316-0.38,0.477-0.946,0.477-1.699c0-0.767-0.152-1.332-0.457-1.7c-0.305-0.367-0.672-0.551-1.102-0.551
	c-0.438,0-0.812,0.189-1.133,0.57C561.449,229.324,561.289,229.872,561.289,230.589z M570.609,231.682l1.025,0.131
	c-0.162,0.6-0.463,1.063-0.904,1.4c-0.438,0.33-0.996,0.494-1.682,0.494c-0.857,0-1.541-0.266-2.045-0.793
	c-0.504-0.529-0.758-1.273-0.758-2.232c0-0.988,0.254-1.759,0.758-2.307c0.51-0.548,1.174-0.82,1.988-0.82
	c0.791,0,1.436,0.27,1.934,0.803c0.498,0.535,0.746,1.291,0.746,2.271c0,0.057-0.002,0.145-0.008,0.264h-4.391
	c0.035,0.646,0.223,1.143,0.553,1.482c0.328,0.343,0.74,0.516,1.229,0.516c0.361,0,0.67-0.096,0.928-0.281
	C570.246,232.412,570.455,232.104,570.609,231.682z M567.332,230.064h3.287c-0.043-0.49-0.168-0.86-0.373-1.109
	c-0.318-0.387-0.732-0.579-1.242-0.579c-0.455,0-0.84,0.156-1.158,0.467C567.535,229.146,567.363,229.555,567.332,230.064z"/>
<path d="M521.326,246.398v-5.895h0.896v0.896c0.23-0.418,0.441-0.69,0.637-0.821c0.191-0.138,0.406-0.205,0.645-0.205
	c0.336,0,0.68,0.108,1.027,0.327l-0.348,0.924c-0.24-0.145-0.486-0.214-0.736-0.214c-0.218,0-0.412,0.063-0.588,0.194
	c-0.169,0.131-0.289,0.312-0.363,0.541c-0.111,0.354-0.168,0.744-0.168,1.168v3.082L521.326,246.398L521.326,246.398z
	 M529.084,244.503l1.025,0.131c-0.16,0.599-0.463,1.064-0.904,1.4c-0.438,0.33-0.996,0.495-1.682,0.495
	c-0.859,0-1.541-0.266-2.045-0.795c-0.506-0.528-0.758-1.272-0.758-2.23c0-0.99,0.252-1.759,0.758-2.307
	c0.51-0.549,1.174-0.822,1.986-0.822c0.791,0,1.438,0.268,1.936,0.803c0.498,0.536,0.746,1.292,0.746,2.271
	c0,0.057-0.004,0.144-0.01,0.262h-4.391c0.039,0.646,0.223,1.143,0.553,1.484c0.328,0.343,0.74,0.514,1.232,0.514
	c0.357,0,0.668-0.093,0.924-0.28C528.719,245.234,528.928,244.926,529.084,244.503z M525.805,242.887h3.287
	c-0.043-0.49-0.168-0.861-0.373-1.111c-0.314-0.385-0.729-0.575-1.242-0.575c-0.451,0-0.84,0.153-1.156,0.467
	C526.008,241.969,525.836,242.377,525.805,242.887z M535.098,245.67c-0.373,0.316-0.729,0.542-1.072,0.673
	c-0.344,0.124-0.709,0.188-1.104,0.188c-0.641,0-1.137-0.156-1.482-0.469c-0.352-0.315-0.521-0.724-0.521-1.213
	c0-0.293,0.062-0.56,0.195-0.795c0.131-0.236,0.303-0.428,0.514-0.57c0.211-0.144,0.451-0.252,0.719-0.324
	c0.199-0.059,0.496-0.105,0.889-0.149c0.811-0.1,1.402-0.215,1.783-0.346c0-0.138,0-0.226,0-0.263c0-0.403-0.094-0.689-0.279-0.858
	c-0.254-0.224-0.637-0.336-1.141-0.336c-0.467,0-0.812,0.081-1.036,0.243c-0.226,0.162-0.39,0.454-0.493,0.878l-0.98-0.142
	c0.094-0.418,0.24-0.754,0.438-1.011c0.206-0.255,0.497-0.45,0.879-0.588c0.387-0.144,0.834-0.215,1.346-0.215
	c0.504,0,0.912,0.062,1.223,0.178c0.312,0.118,0.541,0.271,0.691,0.448c0.147,0.182,0.252,0.407,0.309,0.684
	c0.037,0.168,0.057,0.474,0.057,0.914v1.336c0,0.928,0.021,1.518,0.059,1.767c0.043,0.241,0.131,0.476,0.263,0.698h-1.048
	C535.188,246.193,535.123,245.95,535.098,245.67z M535.014,243.447c-0.359,0.144-0.904,0.268-1.635,0.373
	c-0.41,0.057-0.699,0.121-0.867,0.195c-0.17,0.073-0.299,0.186-0.393,0.325c-0.094,0.146-0.143,0.304-0.143,0.479
	c0,0.268,0.102,0.49,0.301,0.672c0.205,0.175,0.5,0.262,0.887,0.262s0.729-0.084,1.027-0.252c0.299-0.175,0.52-0.404,0.66-0.691
	c0.107-0.229,0.16-0.562,0.16-0.998L535.014,243.447L535.014,243.447z M541.299,244.241l0.98,0.131
	c-0.105,0.672-0.381,1.201-0.822,1.587c-0.441,0.38-0.986,0.57-1.635,0.57c-0.805,0-1.449-0.264-1.941-0.784
	c-0.486-0.529-0.729-1.286-0.729-2.271c0-0.637,0.104-1.188,0.309-1.662c0.211-0.479,0.531-0.838,0.961-1.073
	c0.438-0.243,0.906-0.364,1.41-0.364c0.643,0,1.164,0.162,1.568,0.484c0.402,0.324,0.666,0.785,0.783,1.384l-0.971,0.147
	c-0.094-0.396-0.26-0.695-0.496-0.896c-0.234-0.2-0.521-0.299-0.85-0.299c-0.506,0-0.914,0.18-1.232,0.539
	c-0.311,0.361-0.467,0.933-0.467,1.711c0,0.789,0.15,1.363,0.457,1.728c0.305,0.354,0.701,0.532,1.186,0.532
	c0.396,0,0.723-0.118,0.98-0.354C541.057,245.109,541.225,244.739,541.299,244.241z M543.025,246.398v-8.125h1v2.914
	c0.469-0.543,1.057-0.812,1.766-0.812c0.438,0,0.812,0.087,1.131,0.262c0.324,0.168,0.555,0.404,0.689,0.711
	c0.145,0.305,0.217,0.742,0.217,1.315v3.733h-1v-3.733c0-0.498-0.109-0.858-0.326-1.083c-0.219-0.23-0.523-0.348-0.916-0.348
	c-0.299,0-0.578,0.078-0.84,0.232c-0.256,0.149-0.439,0.357-0.553,0.626c-0.111,0.263-0.168,0.622-0.168,1.083v3.223h-1V246.398
	L543.025,246.398z M553.262,244.503l1.027,0.131c-0.162,0.599-0.465,1.064-0.906,1.4c-0.436,0.33-0.996,0.495-1.682,0.495
	c-0.857,0-1.539-0.266-2.045-0.795c-0.504-0.528-0.756-1.272-0.756-2.23c0-0.99,0.252-1.759,0.756-2.307
	c0.512-0.549,1.174-0.822,1.99-0.822c0.787,0,1.434,0.268,1.932,0.803c0.5,0.536,0.748,1.292,0.748,2.271
	c0,0.057-0.004,0.144-0.01,0.262h-4.391c0.037,0.646,0.223,1.143,0.552,1.484c0.329,0.343,0.739,0.514,1.231,0.514
	c0.361,0,0.67-0.093,0.924-0.28C552.896,245.234,553.105,244.926,553.262,244.503z M549.984,242.887h3.287
	c-0.047-0.49-0.17-0.861-0.375-1.111c-0.314-0.385-0.729-0.575-1.24-0.575c-0.453,0-0.842,0.153-1.158,0.467
	C550.186,241.969,550.016,242.377,549.984,242.887z M559.248,246.398v-0.746c-0.373,0.584-0.922,0.878-1.646,0.878
	c-0.467,0-0.896-0.128-1.297-0.384c-0.393-0.264-0.695-0.623-0.916-1.084c-0.211-0.469-0.316-1.002-0.316-1.604
	c0-0.586,0.098-1.118,0.291-1.597c0.197-0.479,0.488-0.848,0.877-1.104c0.393-0.255,0.832-0.383,1.314-0.383
	c0.355,0,0.67,0.075,0.943,0.226c0.279,0.148,0.508,0.346,0.682,0.588v-2.914h0.99v8.125H559.248L559.248,246.398z M556.092,243.457
	c0,0.753,0.158,1.314,0.479,1.689c0.32,0.373,0.697,0.561,1.131,0.561c0.436,0,0.807-0.177,1.107-0.532
	c0.309-0.354,0.457-0.899,0.457-1.634c0-0.805-0.152-1.393-0.467-1.768c-0.311-0.379-0.693-0.567-1.146-0.567
	c-0.439,0-0.812,0.181-1.109,0.542C556.242,242.107,556.092,242.68,556.092,243.457z M564.971,246.398v-5.107h-0.887v-0.784h0.887
	v-0.626c0-0.392,0.033-0.686,0.104-0.878c0.094-0.261,0.262-0.47,0.504-0.625c0.242-0.162,0.582-0.243,1.018-0.243
	c0.281,0,0.594,0.031,0.938,0.094l-0.15,0.879c-0.205-0.039-0.398-0.058-0.588-0.058c-0.305,0-0.52,0.065-0.645,0.196
	c-0.125,0.125-0.188,0.363-0.188,0.719v0.542h1.148v0.784h-1.148v5.107H564.971L564.971,246.398z M567.816,246.398v-5.895h0.896
	v0.896c0.229-0.418,0.441-0.69,0.635-0.821c0.193-0.138,0.408-0.205,0.646-0.205c0.336,0,0.678,0.108,1.023,0.327l-0.346,0.924
	c-0.242-0.145-0.488-0.214-0.738-0.214c-0.217,0-0.414,0.063-0.588,0.194c-0.168,0.131-0.289,0.312-0.364,0.541
	c-0.108,0.354-0.169,0.744-0.169,1.168v3.082L567.816,246.398L567.816,246.398z M571.164,243.457c0-1.09,0.307-1.898,0.916-2.43
	c0.504-0.438,1.121-0.652,1.85-0.652c0.812,0,1.471,0.268,1.979,0.803c0.518,0.529,0.773,1.262,0.773,2.195
	c0,0.759-0.113,1.355-0.346,1.793c-0.225,0.43-0.555,0.766-0.99,1.008c-0.43,0.237-0.9,0.355-1.42,0.355
	c-0.818,0-1.484-0.266-1.998-0.795C571.42,245.206,571.164,244.445,571.164,243.457z M572.191,243.457
	c0,0.753,0.166,1.314,0.494,1.689c0.33,0.373,0.744,0.561,1.242,0.561s0.908-0.188,1.232-0.561c0.33-0.381,0.494-0.957,0.494-1.729
	c0-0.729-0.164-1.278-0.494-1.651c-0.33-0.375-0.742-0.562-1.232-0.562c-0.498,0-0.912,0.187-1.242,0.562
	C572.357,242.139,572.191,242.703,572.191,243.457z M577.74,246.398v-5.895h0.895v0.831c0.184-0.286,0.424-0.519,0.73-0.69
	c0.311-0.181,0.662-0.271,1.055-0.271c0.436,0,0.793,0.091,1.074,0.271c0.279,0.183,0.477,0.438,0.588,0.769
	c0.467-0.69,1.074-1.037,1.82-1.037c0.586,0,1.031,0.162,1.346,0.485c0.316,0.322,0.477,0.82,0.477,1.492v4.045h-1v-3.707
	c0-0.397-0.029-0.688-0.094-0.858c-0.062-0.183-0.18-0.324-0.354-0.431c-0.168-0.104-0.365-0.158-0.6-0.158
	c-0.41,0-0.752,0.138-1.023,0.41c-0.273,0.272-0.41,0.717-0.41,1.326v3.418h-1v-3.828c0-0.441-0.08-0.771-0.242-0.989
	c-0.162-0.226-0.432-0.337-0.805-0.337c-0.279,0-0.541,0.074-0.783,0.225c-0.236,0.146-0.408,0.357-0.518,0.646
	c-0.104,0.285-0.154,0.695-0.154,1.229v3.056L577.74,246.398L577.74,246.398z"/>
<path d="M533.549,258.491c-0.373,0.315-0.73,0.542-1.074,0.673c-0.342,0.124-0.709,0.188-1.102,0.188
	c-0.643,0-1.137-0.153-1.484-0.468c-0.35-0.317-0.521-0.723-0.521-1.214c0-0.293,0.062-0.559,0.192-0.794
	c0.132-0.235,0.306-0.427,0.517-0.569c0.211-0.144,0.449-0.252,0.719-0.326c0.199-0.057,0.496-0.104,0.888-0.147
	c0.812-0.103,1.403-0.215,1.784-0.349c0-0.137,0-0.224,0-0.262c0-0.401-0.094-0.688-0.279-0.855
	c-0.256-0.227-0.637-0.337-1.141-0.337c-0.467,0-0.812,0.079-1.037,0.241c-0.225,0.162-0.389,0.453-0.494,0.877l-0.979-0.14
	c0.094-0.418,0.238-0.754,0.438-1.009c0.207-0.256,0.498-0.451,0.881-0.589c0.387-0.144,0.834-0.216,1.346-0.216
	c0.504,0,0.91,0.061,1.223,0.179s0.541,0.269,0.691,0.448c0.146,0.181,0.252,0.406,0.309,0.682c0.037,0.168,0.057,0.475,0.057,0.915
	v1.336c0,0.929,0.021,1.517,0.059,1.765c0.043,0.244,0.131,0.479,0.262,0.701h-1.047
	C533.639,259.016,533.574,258.771,533.549,258.491z M533.465,256.27c-0.361,0.146-0.906,0.271-1.635,0.373
	c-0.41,0.059-0.699,0.121-0.867,0.196c-0.17,0.074-0.299,0.185-0.395,0.326c-0.094,0.144-0.141,0.303-0.141,0.478
	c0,0.27,0.102,0.491,0.3,0.672c0.204,0.177,0.5,0.264,0.888,0.264c0.387,0,0.729-0.084,1.025-0.252
	c0.301-0.176,0.521-0.404,0.662-0.69c0.107-0.229,0.16-0.562,0.16-1L533.465,256.27L533.465,256.27z M535.902,259.22v-5.893h0.896
	v0.841c0.438-0.646,1.062-0.973,1.877-0.973c0.355,0,0.684,0.063,0.98,0.195c0.299,0.125,0.52,0.293,0.662,0.506
	c0.148,0.205,0.256,0.446,0.316,0.729c0.037,0.188,0.059,0.511,0.059,0.973v3.622h-1v-3.586c0-0.403-0.041-0.706-0.121-0.905
	c-0.074-0.205-0.211-0.364-0.41-0.483c-0.199-0.118-0.436-0.179-0.701-0.179c-0.424,0-0.791,0.136-1.102,0.4
	c-0.309,0.268-0.459,0.781-0.459,1.541v3.212H535.902z M542.057,261.489l-0.104-0.935c0.219,0.057,0.408,0.084,0.57,0.084
	c0.219,0,0.393-0.039,0.521-0.111c0.137-0.075,0.248-0.18,0.336-0.312c0.062-0.1,0.162-0.349,0.299-0.745
	c0.021-0.058,0.051-0.139,0.096-0.242l-2.232-5.901h1.074l1.223,3.418c0.162,0.43,0.305,0.884,0.43,1.362
	c0.113-0.461,0.25-0.907,0.412-1.347l1.25-3.437h1l-2.24,5.994c-0.234,0.646-0.424,1.094-0.561,1.337
	c-0.176,0.329-0.377,0.567-0.605,0.719c-0.229,0.156-0.506,0.231-0.82,0.231C542.508,261.609,542.293,261.57,542.057,261.489z
	 M550.375,257.464l0.99-0.157c0.055,0.397,0.207,0.702,0.457,0.914c0.256,0.205,0.607,0.312,1.062,0.312
	c0.461,0,0.799-0.097,1.02-0.28c0.225-0.188,0.336-0.404,0.336-0.652c0-0.226-0.098-0.4-0.289-0.533
	c-0.138-0.086-0.479-0.197-1.02-0.336c-0.732-0.188-1.245-0.347-1.529-0.478c-0.281-0.137-0.496-0.321-0.646-0.562
	c-0.145-0.241-0.215-0.508-0.215-0.795c0-0.262,0.059-0.504,0.178-0.729c0.123-0.225,0.289-0.411,0.494-0.562
	c0.156-0.109,0.367-0.207,0.635-0.287c0.27-0.082,0.557-0.121,0.859-0.121c0.467,0,0.875,0.066,1.223,0.205
	c0.352,0.132,0.605,0.312,0.77,0.539c0.168,0.228,0.28,0.526,0.346,0.906l-0.973,0.131c-0.043-0.299-0.175-0.529-0.395-0.697
	c-0.211-0.178-0.51-0.264-0.896-0.264c-0.459,0-0.787,0.077-0.98,0.232c-0.189,0.148-0.289,0.323-0.289,0.521
	c0,0.131,0.041,0.248,0.121,0.354c0.082,0.104,0.209,0.191,0.383,0.264c0.104,0.035,0.396,0.122,0.879,0.26
	c0.703,0.188,1.195,0.342,1.479,0.459c0.279,0.117,0.498,0.293,0.652,0.521c0.16,0.229,0.24,0.519,0.24,0.858
	c0,0.33-0.096,0.646-0.289,0.941c-0.189,0.293-0.473,0.521-0.84,0.684c-0.367,0.154-0.78,0.231-1.242,0.231
	c-0.766,0-1.352-0.157-1.756-0.477C550.742,258.557,550.486,258.087,550.375,257.464z M558.537,258.323l0.139,0.888
	c-0.279,0.057-0.531,0.084-0.756,0.084c-0.361,0-0.641-0.057-0.84-0.168c-0.199-0.119-0.34-0.27-0.42-0.447
	c-0.082-0.188-0.121-0.582-0.121-1.188v-3.381h-0.738v-0.784h0.738v-1.456l0.988-0.6v2.056h1.01v0.784h-1.01v3.438
	c0,0.286,0.016,0.471,0.047,0.551c0.037,0.082,0.098,0.146,0.178,0.196c0.082,0.05,0.195,0.074,0.346,0.074
	C558.203,258.37,558.35,258.354,558.537,258.323z M563.297,258.491c-0.373,0.315-0.73,0.542-1.074,0.673
	c-0.342,0.124-0.709,0.188-1.102,0.188c-0.643,0-1.137-0.153-1.484-0.468c-0.35-0.317-0.521-0.723-0.521-1.214
	c0-0.293,0.062-0.559,0.191-0.794c0.133-0.235,0.307-0.427,0.518-0.569c0.211-0.144,0.449-0.252,0.719-0.326
	c0.199-0.057,0.496-0.104,0.887-0.147c0.812-0.103,1.404-0.215,1.785-0.349c0-0.137,0-0.224,0-0.262c0-0.401-0.094-0.688-0.28-0.855
	c-0.257-0.227-0.636-0.337-1.14-0.337c-0.467,0-0.812,0.079-1.037,0.241c-0.225,0.162-0.389,0.453-0.494,0.877l-0.979-0.14
	c0.094-0.418,0.238-0.754,0.438-1.009c0.207-0.256,0.498-0.451,0.88-0.589c0.386-0.144,0.834-0.216,1.345-0.216
	c0.506,0,0.912,0.061,1.225,0.179s0.541,0.269,0.689,0.448s0.254,0.406,0.311,0.682c0.037,0.168,0.056,0.475,0.056,0.915v1.336
	c0,0.929,0.021,1.517,0.06,1.765c0.043,0.244,0.131,0.479,0.26,0.701H563.5C563.387,259.016,563.32,258.771,563.297,258.491z
	 M563.213,256.27c-0.361,0.146-0.906,0.271-1.635,0.373c-0.41,0.059-0.699,0.121-0.869,0.196c-0.168,0.074-0.299,0.185-0.393,0.326
	c-0.094,0.144-0.141,0.303-0.141,0.478c0,0.27,0.102,0.491,0.299,0.672c0.205,0.177,0.5,0.264,0.889,0.264
	c0.387,0,0.729-0.084,1.025-0.252c0.301-0.176,0.521-0.404,0.662-0.69c0.105-0.229,0.16-0.562,0.16-1L563.213,256.27L563.213,256.27
	z M567.836,258.323l0.139,0.888c-0.275,0.057-0.529,0.084-0.756,0.084c-0.359,0-0.641-0.057-0.84-0.168
	c-0.199-0.119-0.34-0.27-0.42-0.447c-0.082-0.188-0.121-0.582-0.121-1.188v-3.381H565.1v-0.784h0.738v-1.456l0.988-0.6v2.056h1.01
	v0.784h-1.01v3.438c0,0.286,0.016,0.471,0.047,0.551c0.037,0.082,0.098,0.146,0.178,0.196c0.082,0.05,0.197,0.074,0.346,0.074
	C567.502,258.37,567.648,258.354,567.836,258.323z M572.783,257.324l1.023,0.131c-0.16,0.598-0.463,1.062-0.904,1.398
	c-0.438,0.33-0.994,0.496-1.682,0.496c-0.857,0-1.541-0.267-2.045-0.795c-0.504-0.527-0.758-1.271-0.758-2.229
	c0-0.99,0.254-1.761,0.758-2.308c0.511-0.55,1.175-0.822,1.988-0.822c0.791,0,1.436,0.27,1.934,0.805s0.746,1.292,0.746,2.27
	c0,0.059-0.002,0.146-0.008,0.264h-4.391c0.037,0.646,0.223,1.143,0.551,1.482c0.33,0.342,0.742,0.517,1.231,0.517
	c0.36,0,0.669-0.097,0.925-0.28C572.418,258.057,572.627,257.748,572.783,257.324z M569.504,255.709h3.287
	c-0.043-0.492-0.168-0.861-0.373-1.111c-0.316-0.386-0.729-0.578-1.242-0.578c-0.455,0-0.84,0.154-1.158,0.467
	C569.707,254.79,569.535,255.198,569.504,255.709z M575.604,261.609h-0.711c1.104-1.773,1.654-3.553,1.654-5.332
	c0-0.69-0.078-1.379-0.234-2.062c-0.131-0.555-0.309-1.087-0.529-1.597c-0.146-0.337-0.438-0.892-0.891-1.663h0.711
	c0.697,0.928,1.213,1.857,1.541,2.793c0.285,0.803,0.432,1.646,0.432,2.529c0,0.996-0.193,1.962-0.578,2.896
	C576.615,260.102,576.15,260.913,575.604,261.609z"/>
<line fill="none" stroke="#000000" stroke-width="2" stroke-linejoin="round" stroke-miterlimit="10" x1="382.899" y1="93.738" x2="382.899" y2="179.074"/>
<line fill="none" stroke="#000000" stroke-width="2" stroke-linejoin="round" stroke-miterlimit="10" x1="221.251" y1="93.841" x2="221.251" y2="179.178"/>
<g>
	<g>
		
			<line fill="none" stroke="#000000" stroke-width="2" stroke-linejoin="round" x1="355.166" y1="182.268" x2="355.166" y2="100.546"/>
		<g>
			<polygon points="360.124,102.005 355.139,93.37 350.152,102.005 			"/>
		</g>
	</g>
</g>
<g>
	<g>
		
			<line fill="none" stroke="#000000" stroke-width="2" stroke-linejoin="round" x1="264.072" y1="198.971" x2="333.846" y2="198.985"/>
		<g>
			<polygon points="332.385,203.943 341.021,198.96 332.388,193.972 			"/>
		</g>
	</g>
</g>
<g>
	<g>
		
			<line fill="none" stroke="#000000" stroke-width="2" stroke-linejoin="round" x1="339.007" y1="221.409" x2="271.704" y2="220.447"/>
		<g>
			<polygon points="273.234,215.511 264.528,220.372 273.091,225.481 			"/>
		</g>
	</g>
</g>
<g>
	<g>
		
			<line fill="none" stroke="#000000" stroke-width="2" stroke-linejoin="round" x1="428.463" y1="225.312" x2="564.817" y2="98.724"/>
		<g>
			<polygon points="567.121,103.35 570.058,93.821 560.337,96.042 			"/>
		</g>
	</g>
</g>
<g>
	<g>
		
			<line fill="none" stroke="#000000" stroke-width="2" stroke-linejoin="round" x1="178.258" y1="210.264" x2="74.352" y2="70.492"/>
		<g>
			<polygon points="79.202,68.705 70.049,64.749 71.199,74.654 			"/>
		</g>
	</g>
</g>
<line fill="none" stroke="#000000" stroke-width="2" stroke-linejoin="round" stroke-miterlimit="10" x1="384.1" y1="238.135" x2="384.183" y2="265.095"/>
<line fill="none" stroke="#000000" stroke-width="2" stroke-linejoin="round" stroke-miterlimit="10" x1="384.183" y1="265.095" x2="43.5" y2="265.095"/>
<g>
	<g>
		<line fill="none" stroke="#000000" stroke-width="2" stroke-linejoin="round" x1="43.5" y1="265.095" x2="43.5" y2="71.909"/>
		<g>
			<polygon points="48.458,73.368 43.473,64.733 38.486,73.368 			"/>
		</g>
	</g>
</g>
<g>
	<g>
		<line fill="none" stroke="#000000" stroke-width="2" stroke-linejoin="round" x1="92.296" y1="64.352" x2="171.082" y2="64.352"/>
		<g>
			<polygon points="169.623,69.31 178.258,64.325 169.623,59.338 			"/>
		</g>
	</g>
</g>
<g>
	<g>
		<line fill="none" stroke="#000000" stroke-width="2" stroke-linejoin="round" x1="178.258" y1="50.5" x2="99.472" y2="50.5"/>
		<g>
			<polygon points="100.931,45.542 92.296,50.527 100.931,55.514 			"/>
		</g>
	</g>
</g>
<line fill="none" stroke="#000000" stroke-width="2" stroke-linejoin="round" stroke-miterlimit="10" x1="381.492" y1="43.979" x2="381.492" y2="33.327"/>
<g>
	<g>
		<line fill="none" stroke="#000000" stroke-width="2" stroke-linejoin="round" x1="381.492" y1="33.327" x2="99.472" y2="33.327"/>
		<g>
			<polygon points="100.931,28.369 92.296,33.354 100.931,38.341 			"/>
		</g>
	</g>
</g>
<line fill="none" stroke="#000000" stroke-width="2" stroke-linejoin="round" stroke-miterlimit="10" x1="553.525" y1="43.979" x2="553.601" y2="17.5"/>
<g>
	<g>
		<line fill="none" stroke="#000000" stroke-width="2" stroke-linejoin="round" x1="553.601" y1="17.5" x2="99.472" y2="17.5"/>
		<g>
			<polygon points="100.931,12.542 92.296,17.527 100.931,22.514 			"/>
		</g>
	</g>
</g>
</svg>
