<?xml version="1.0" encoding="utf-8"?>
<svg style="fill: none; stroke: none; stroke-linecap: square; stroke-miterlimit: 10;" viewBox="10 0.0 896 429" xmlns="http://www.w3.org/2000/svg">
  <g style="clip-path: url(#p.0);">
    <path d="m0 0l960.0 0l0 720.0l-960.0 0z" style="fill: rgb(0, 0, 0); fill-opacity: 0; fill-rule: nonzero;"/>
    <path d="m103.0 380.0l0 -329.98425" style="fill: rgb(0, 0, 0); fill-opacity: 0; fill-rule: nonzero;"/>
    <path d="m103.0 380.0l0 -317.98425" style="stroke: rgb(0, 0, 0); stroke-width: 2; stroke-linejoin: round; stroke-linecap: butt; stroke-dasharray: 2, 6; fill-rule: evenodd;"/>
    <path d="m106.30347 62.01573l-3.3034668 -9.076195l-3.3034668 9.076195z" style="fill: rgb(0, 0, 0); stroke: rgb(0, 0, 0); stroke-width: 2; stroke-linecap: butt; fill-rule: evenodd;"/>
    <path d="m108.0 380.0l744.0 0" style="fill: rgb(0, 0, 0); fill-opacity: 0; fill-rule: nonzero;"/>
    <path d="m108.0 380.0l732.0 0" style="stroke: rgb(0, 0, 0); stroke-width: 2; stroke-linejoin: round; stroke-linecap: butt; stroke-dasharray: 2, 6; fill-rule: evenodd;"/>
    <path d="m840.0 383.30347l9.076172 -3.3034668l-9.076172 -3.3034668z" style="fill: rgb(0, 0, 0); stroke: rgb(0, 0, 0); stroke-width: 2; stroke-linecap: butt; fill-rule: evenodd;"/>
    <path d="m0 22.007874l112.0 0l0 24.0l-112.0 0z" style="fill: rgb(0, 0, 0); fill-opacity: 0; fill-rule: nonzero;"/>
    <path d="m21.5233 48.92787l0 -12.0l-4.46875 0l0 -1.59375l10.765625 0l0 1.59375l-4.5 0l0 12.0l-1.796875 0zm14.474106 -3.171875l1.71875 0.21875q-0.40625 1.5 -1.515625 2.34375q-1.09375 0.828125 -2.8125 0.828125q-2.15625 0 -3.421875 -1.328125q-1.265625 -1.328125 -1.265625 -3.734375q0 -2.484375 1.265625 -3.859375q1.28125 -1.375 3.328125 -1.375q1.984375 0 3.234375 1.34375q1.25 1.34375 1.25 3.796875q0 0.140625 -0.015625 0.4375l-7.34375 0q0.09375 1.625 0.921875 2.484375q0.828125 0.859375 2.0625 0.859375q0.90625 0 1.546875 -0.46875q0.65625 -0.484375 1.046875 -1.546875zm-5.484375 -2.703125l5.5 0q-0.109375 -1.234375 -0.625 -1.859375q-0.796875 -0.96875 -2.078125 -0.96875q-1.140625 0 -1.9375 0.78125q-0.78125 0.765625 -0.859375 2.046875zm9.110092 5.875l0 -9.859375l1.5 0l0 1.390625q0.453125 -0.71875 1.21875 -1.15625q0.78125 -0.453125 1.765625 -0.453125q1.09375 0 1.796875 0.453125q0.703125 0.453125 0.984375 1.28125q1.171875 -1.734375 3.046875 -1.734375q1.46875 0 2.25 0.8125q0.796875 0.8125 0.796875 2.5l0 6.765625l-1.671875 0l0 -6.203125q0 -1.0 -0.15625 -1.4375q-0.15625 -0.453125 -0.59375 -0.71875q-0.421875 -0.265625 -1.0 -0.265625q-1.03125 0 -1.71875 0.6875q-0.6875 0.6875 -0.6875 2.21875l0 5.71875l-1.671875 0l0 -6.40625q0 -1.109375 -0.40625 -1.65625q-0.40625 -0.5625 -1.34375 -0.5625q-0.703125 0 -1.3125 0.375q-0.59375 0.359375 -0.859375 1.078125q-0.265625 0.71875 -0.265625 2.0625l0 5.109375l-1.671875 0zm15.540802 3.78125l0 -13.640625l1.53125 0l0 1.28125q0.53125 -0.75 1.203125 -1.125q0.6875 -0.375 1.640625 -0.375q1.265625 0 2.234375 0.65625q0.96875 0.640625 1.453125 1.828125q0.5 1.1875 0.5 2.59375q0 1.515625 -0.546875 2.734375q-0.546875 1.203125 -1.578125 1.84375q-1.03125 0.640625 -2.171875 0.640625q-0.84375 0 -1.515625 -0.34375q-0.65625 -0.359375 -1.078125 -0.890625l0 4.796875l-1.671875 0zm1.515625 -8.65625q0 1.90625 0.765625 2.8125q0.78125 0.90625 1.875 0.90625q1.109375 0 1.890625 -0.9375q0.796875 -0.9375 0.796875 -2.921875q0 -1.875 -0.78125 -2.8125q-0.765625 -0.9375 -1.84375 -0.9375q-1.0625 0 -1.890625 1.0q-0.8125 1.0 -0.8125 2.890625zm8.235092 -0.046875q0 -2.734375 1.53125 -4.0625q1.265625 -1.09375 3.09375 -1.09375q2.03125 0 3.3125 1.34375q1.296875 1.328125 1.296875 3.671875q0 1.90625 -0.578125 3.0q-0.5625 1.078125 -1.65625 1.6875q-1.078125 0.59375 -2.375 0.59375q-2.0625 0 -3.34375 -1.328125q-1.28125 -1.328125 -1.28125 -3.8125zm1.71875 0q0 1.890625 0.828125 2.828125q0.828125 0.9375 2.078125 0.9375q1.25 0 2.0625 -0.9375q0.828125 -0.953125 0.828125 -2.890625q0 -1.828125 -0.828125 -2.765625q-0.828125 -0.9375 -2.0625 -0.9375q-1.25 0 -2.078125 0.9375q-0.828125 0.9375 -0.828125 2.828125zm9.266342 4.921875l0 -9.859375l1.5 0l0 1.5q0.578125 -1.046875 1.0625 -1.375q0.484375 -0.34375 1.078125 -0.34375q0.84375 0 1.71875 0.546875l-0.578125 1.546875q-0.609375 -0.359375 -1.234375 -0.359375q-0.546875 0 -0.984375 0.328125q-0.421875 0.328125 -0.609375 0.90625q-0.28125 0.890625 -0.28125 1.953125l0 5.15625l-1.671875 0zm12.665802 -1.21875q-0.9375 0.796875 -1.796875 1.125q-0.859375 0.3125 -1.84375 0.3125q-1.609375 0 -2.484375 -0.78125q-0.875 -0.796875 -0.875 -2.03125q0 -0.734375 0.328125 -1.328125q0.328125 -0.59375 0.859375 -0.953125q0.53125 -0.359375 1.203125 -0.546875q0.5 -0.140625 1.484375 -0.25q2.03125 -0.25 2.984375 -0.578125q0 -0.34375 0 -0.4375q0 -1.015625 -0.46875 -1.4375q-0.640625 -0.5625 -1.90625 -0.5625q-1.171875 0 -1.734375 0.40625q-0.5625 0.40625 -0.828125 1.46875l-1.640625 -0.234375q0.234375 -1.046875 0.734375 -1.6875q0.515625 -0.640625 1.46875 -0.984375q0.96875 -0.359375 2.25 -0.359375q1.265625 0 2.046875 0.296875q0.78125 0.296875 1.15625 0.75q0.375 0.453125 0.515625 1.140625q0.09375 0.421875 0.09375 1.53125l0 2.234375q0 2.328125 0.09375 2.953125q0.109375 0.609375 0.4375 1.171875l-1.75 0q-0.265625 -0.515625 -0.328125 -1.21875zm-0.140625 -3.71875q-0.90625 0.359375 -2.734375 0.625q-1.03125 0.140625 -1.453125 0.328125q-0.421875 0.1875 -0.65625 0.546875q-0.234375 0.359375 -0.234375 0.796875q0 0.671875 0.5 1.125q0.515625 0.4375 1.484375 0.4375q0.96875 0 1.71875 -0.421875q0.75 -0.4375 1.109375 -1.15625q0.265625 -0.578125 0.265625 -1.671875l0 -0.609375zm4.047592 4.9375l0 -13.59375l1.671875 0l0 13.59375l-1.671875 0z" style="fill: rgb(0, 0, 0); fill-rule: nonzero;"/>
    <path d="m34.05665 70.92787l0 -13.59375l1.796875 0l0 11.984375l6.703125 0l0 1.609375l-8.5 0zm16.672592 -1.21875q-0.9375 0.796875 -1.796875 1.125q-0.859375 0.3125 -1.84375 0.3125q-1.609375 0 -2.484375 -0.78125q-0.875 -0.796875 -0.875 -2.03125q0 -0.734375 0.328125 -1.328125q0.328125 -0.59375 0.859375 -0.953125q0.53125 -0.359375 1.203125 -0.546875q0.5 -0.140625 1.484375 -0.25q2.03125 -0.25 2.984375 -0.578125q0 -0.34375 0 -0.4375q0 -1.015625 -0.46875 -1.4375q-0.640625 -0.5625 -1.90625 -0.5625q-1.171875 0 -1.734375 0.40625q-0.5625 0.40625 -0.828125 1.46875l-1.640625 -0.234375q0.234375 -1.046875 0.734375 -1.6875q0.515625 -0.640625 1.46875 -0.984375q0.96875 -0.359375 2.25 -0.359375q1.265625 0 2.046875 0.296875q0.78125 0.296875 1.15625 0.75q0.375 0.453125 0.515625 1.140625q0.09375 0.421875 0.09375 1.53125l0 2.234375q0 2.328125 0.09375 2.953125q0.109375 0.609375 0.4375 1.171875l-1.75 0q-0.265625 -0.515625 -0.328125 -1.21875zm-0.140625 -3.71875q-0.90625 0.359375 -2.734375 0.625q-1.03125 0.140625 -1.453125 0.328125q-0.421875 0.1875 -0.65625 0.546875q-0.234375 0.359375 -0.234375 0.796875q0 0.671875 0.5 1.125q0.515625 0.4375 1.484375 0.4375q0.96875 0 1.71875 -0.421875q0.75 -0.4375 1.109375 -1.15625q0.265625 -0.578125 0.265625 -1.671875l0 -0.609375zm4.000717 8.734375l-0.171875 -1.5625q0.546875 0.140625 0.953125 0.140625q0.546875 0 0.875 -0.1875q0.34375 -0.1875 0.5625 -0.515625q0.15625 -0.25 0.5 -1.25q0.046875 -0.140625 0.15625 -0.40625l-3.734375 -9.875l1.796875 0l2.046875 5.71875q0.40625 1.078125 0.71875 2.28125q0.28125 -1.15625 0.6875 -2.25l2.09375 -5.75l1.671875 0l-3.75 10.03125q-0.59375 1.625 -0.9375 2.234375q-0.4375 0.828125 -1.015625 1.203125q-0.578125 0.390625 -1.375 0.390625q-0.484375 0 -1.078125 -0.203125zm16.15625 -6.96875l1.71875 0.21875q-0.40625 1.5 -1.515625 2.34375q-1.09375 0.828125 -2.8125 0.828125q-2.15625 0 -3.421875 -1.328125q-1.265625 -1.328125 -1.265625 -3.734375q0 -2.484375 1.265625 -3.859375q1.28125 -1.375 3.328125 -1.375q1.984375 0 3.234375 1.34375q1.25 1.34375 1.25 3.796875q0 0.140625 -0.015625 0.4375l-7.34375 0q0.09375 1.625 0.921875 2.484375q0.828125 0.859375 2.0625 0.859375q0.90625 0 1.546875 -0.46875q0.65625 -0.484375 1.046875 -1.546875zm-5.484375 -2.703125l5.5 0q-0.109375 -1.234375 -0.625 -1.859375q-0.796875 -0.96875 -2.078125 -0.96875q-1.140625 0 -1.9375 0.78125q-0.78125 0.765625 -0.859375 2.046875zm9.094467 5.875l0 -9.859375l1.5 0l0 1.5q0.578125 -1.046875 1.0625 -1.375q0.484375 -0.34375 1.078125 -0.34375q0.84375 0 1.71875 0.546875l-0.578125 1.546875q-0.609375 -0.359375 -1.234375 -0.359375q-0.546875 0 -0.984375 0.328125q-0.421875 0.328125 -0.609375 0.90625q-0.28125 0.890625 -0.28125 1.953125l0 5.15625l-1.671875 0z" style="fill: rgb(0, 0, 0); fill-rule: nonzero;"/>
    <path d="m136.0 395.99213l697.98425 0l0 85.98425l-697.98425 0z" style="fill: rgb(0, 0, 0); fill-opacity: 0; fill-rule: nonzero;"/>
    <path d="m145.78125 416.20898q0 -2.421875 0.5 -3.890625q0.5 -1.46875 1.46875 -2.265625q0.984375 -0.796875 2.46875 -0.796875q1.09375 0 1.921875 0.4375q0.828125 0.4375 1.359375 1.28125q0.546875 0.828125 0.84375 2.015625q0.3125 1.1875 0.3125 3.21875q0 2.390625 -0.5 3.859375q-0.484375 1.46875 -1.46875 2.28125q-0.96875 0.796875 -2.46875 0.796875q-1.96875 0 -3.078125 -1.40625q-1.359375 -1.703125 -1.359375 -5.53125zm1.71875 0q0 3.34375 0.78125 4.453125q0.796875 1.109375 1.9375 1.109375q1.15625 0 1.9375 -1.109375q0.78125 -1.125 0.78125 -4.453125q0 -3.359375 -0.78125 -4.46875q-0.78125 -1.109375 -1.953125 -1.109375q-1.15625 0 -1.828125 0.984375q-0.875 1.234375 -0.875 4.59375zm87.520096 6.703125l-1.671875 0l0 -10.640625q-0.59375 0.578125 -1.578125 1.15625q-0.984375 0.5625 -1.765625 0.859375l0 -1.625q1.40625 -0.65625 2.453125 -1.59375q1.046875 -0.9375 1.484375 -1.8125l1.078125 0l0 13.65625zm85.426346 -1.609375l0 1.609375l-8.984375 0q-0.015625 -0.609375 0.1875 -1.15625q0.34375 -0.921875 1.09375 -1.8125q0.765625 -0.890625 2.1875 -2.0625q2.21875 -1.8125 3.0 -2.875q0.78125 -1.0625 0.78125 -2.015625q0 -0.984375 -0.71875 -1.671875q-0.703125 -0.6875 -1.84375 -0.6875q-1.203125 0 -1.9375 0.734375q-0.71875 0.71875 -0.71875 2.0l-1.71875 -0.171875q0.171875 -1.921875 1.328125 -2.921875q1.15625 -1.015625 3.09375 -1.015625q1.953125 0 3.09375 1.09375q1.140625 1.078125 1.140625 2.6875q0 0.8125 -0.34375 1.609375q-0.328125 0.78125 -1.109375 1.65625q-0.765625 0.859375 -2.5625 2.390625q-1.5 1.265625 -1.9375 1.71875q-0.421875 0.4375 -0.703125 0.890625l6.671875 0zm74.17636 -1.984375l1.671875 -0.21875q0.28125 1.421875 0.96875 2.046875q0.703125 0.625 1.6875 0.625q1.1875 0 2.0 -0.8125q0.8125 -0.828125 0.8125 -2.03125q0 -1.140625 -0.765625 -1.890625q-0.75 -0.75 -1.90625 -0.75q-0.46875 0 -1.171875 0.1875l0.1875 -1.46875q0.15625 0.015625 0.265625 0.015625q1.0625 0 1.90625 -0.546875q0.859375 -0.5625 0.859375 -1.71875q0 -0.921875 -0.625 -1.515625q-0.609375 -0.609375 -1.59375 -0.609375q-0.96875 0 -1.625 0.609375q-0.640625 0.609375 -0.828125 1.84375l-1.671875 -0.296875q0.296875 -1.6875 1.375 -2.609375q1.09375 -0.921875 2.71875 -0.921875q1.109375 0 2.046875 0.484375q0.9375 0.46875 1.421875 1.296875q0.5 0.828125 0.5 1.75q0 0.890625 -0.46875 1.609375q-0.46875 0.71875 -1.40625 1.15625q1.21875 0.265625 1.875 1.15625q0.671875 0.875 0.671875 2.1875q0 1.78125 -1.296875 3.015625q-1.296875 1.234375 -3.28125 1.234375q-1.796875 0 -2.984375 -1.0625q-1.171875 -1.0625 -1.34375 -2.765625zm88.28552 3.59375l0 -3.25l-5.90625 0l0 -1.53125l6.21875 -8.8125l1.359375 0l0 8.8125l1.84375 0l0 1.53125l-1.84375 0l0 3.25l-1.671875 0zm0 -4.78125l0 -6.140625l-4.25 6.140625l4.25 0zm77.5824 1.21875l1.765625 -0.15625q0.1875 1.28125 0.890625 1.9375q0.71875 0.640625 1.71875 0.640625q1.203125 0 2.03125 -0.90625q0.84375 -0.90625 0.84375 -2.421875q0 -1.421875 -0.8125 -2.25q-0.796875 -0.828125 -2.09375 -0.828125q-0.796875 0 -1.453125 0.375q-0.640625 0.359375 -1.015625 0.953125l-1.578125 -0.203125l1.328125 -7.0l6.765625 0l0 1.609375l-5.4375 0l-0.734375 3.640625q1.234375 -0.84375 2.578125 -0.84375q1.78125 0 3.0 1.234375q1.234375 1.234375 1.234375 3.171875q0 1.84375 -1.078125 3.1875q-1.3125 1.65625 -3.578125 1.65625q-1.859375 0 -3.03125 -1.03125q-1.171875 -1.046875 -1.34375 -2.765625zm91.61365 -6.703125l-1.65625 0.125q-0.21875 -0.984375 -0.640625 -1.421875q-0.671875 -0.71875 -1.65625 -0.71875q-0.8125 0 -1.40625 0.4375q-0.796875 0.578125 -1.25 1.6875q-0.453125 1.09375 -0.46875 3.140625q0.609375 -0.921875 1.46875 -1.359375q0.875 -0.453125 1.828125 -0.453125q1.671875 0 2.84375 1.234375q1.171875 1.234375 1.171875 3.171875q0 1.28125 -0.546875 2.390625q-0.546875 1.09375 -1.515625 1.6875q-0.96875 0.578125 -2.1875 0.578125q-2.09375 0 -3.40625 -1.53125q-1.3125 -1.546875 -1.3125 -5.0625q0 -3.953125 1.453125 -5.734375q1.265625 -1.5625 3.421875 -1.5625q1.609375 0 2.625 0.90625q1.03125 0.890625 1.234375 2.484375zm-6.8125 5.859375q0 0.859375 0.359375 1.65625q0.375 0.78125 1.03125 1.203125q0.65625 0.40625 1.375 0.40625q1.0625 0 1.8125 -0.84375q0.765625 -0.859375 0.765625 -2.328125q0 -1.40625 -0.75 -2.21875q-0.75 -0.8125 -1.890625 -0.8125q-1.125 0 -1.921875 0.8125q-0.78125 0.8125 -0.78125 2.125zm81.2074 -7.40625l0 -1.609375l8.796875 0l0 1.296875q-1.296875 1.375 -2.578125 3.671875q-1.265625 2.296875 -1.96875 4.71875q-0.5 1.703125 -0.640625 3.734375l-1.71875 0q0.03125 -1.609375 0.625 -3.875q0.609375 -2.28125 1.734375 -4.390625q1.140625 -2.109375 2.40625 -3.546875l-6.65625 0zm80.21161 4.4375q-1.046875 -0.375 -1.546875 -1.078125q-0.5 -0.71875 -0.5 -1.703125q0 -1.484375 1.0625 -2.484375q1.078125 -1.015625 2.84375 -1.015625q1.78125 0 2.859375 1.03125q1.09375 1.03125 1.09375 2.515625q0 0.953125 -0.5 1.65625q-0.484375 0.703125 -1.5 1.078125q1.25 0.40625 1.90625 1.3125q0.65625 0.90625 0.65625 2.171875q0 1.75 -1.234375 2.9375q-1.234375 1.1875 -3.25 1.1875q-2.015625 0 -3.25 -1.1875q-1.234375 -1.203125 -1.234375 -2.984375q0 -1.328125 0.671875 -2.21875q0.671875 -0.890625 1.921875 -1.21875zm-0.328125 -2.828125q0 0.96875 0.609375 1.578125q0.625 0.609375 1.625 0.609375q0.953125 0 1.5625 -0.609375q0.625 -0.609375 0.625 -1.484375q0 -0.921875 -0.640625 -1.546875q-0.625 -0.625 -1.578125 -0.625q-0.953125 0 -1.578125 0.609375q-0.625 0.609375 -0.625 1.46875zm-0.546875 6.28125q0 0.71875 0.328125 1.390625q0.34375 0.65625 1.015625 1.03125q0.671875 0.359375 1.4375 0.359375q1.203125 0 1.984375 -0.765625q0.78125 -0.78125 0.78125 -1.96875q0 -1.203125 -0.8125 -1.984375q-0.796875 -0.796875 -2.0 -0.796875q-1.1875 0 -1.96875 0.78125q-0.765625 0.78125 -0.765625 1.953125z" style="fill: rgb(0, 0, 0); fill-rule: nonzero;"/>
    <path d="m58.503937 104.00656l201.00787 0l0 24.0l-201.00787 0z" style="fill: rgb(0, 0, 0); fill-opacity: 0; fill-rule: nonzero;"/>
    <path d="m74.58206 130.92656l-1.671875 0l0 -10.640625q-0.59375 0.578125 -1.578125 1.15625q-0.984375 0.5625 -1.765625 0.859375l0 -1.625q1.40625 -0.65625 2.453125 -1.59375q1.046875 -0.9375 1.484375 -1.8125l1.078125 0l0 13.65625z" style="fill: rgb(0, 0, 0); fill-rule: nonzero;"/>
    <path d="m68.28519 322.22345q0 -2.421875 0.5 -3.890625q0.5 -1.46875 1.46875 -2.265625q0.984375 -0.796875 2.46875 -0.796875q1.09375 0 1.921875 0.4375q0.828125 0.4375 1.359375 1.28125q0.546875 0.828125 0.84375 2.015625q0.3125 1.1875 0.3125 3.21875q0 2.390625 -0.5 3.859375q-0.484375 1.46875 -1.46875 2.28125q-0.96875 0.796875 -2.46875 0.796875q-1.96875 0 -3.078125 -1.40625q-1.359375 -1.703125 -1.359375 -5.53125zm1.71875 0q0 3.34375 0.78125 4.453125q0.796875 1.109375 1.9375 1.109375q1.15625 0 1.9375 -1.109375q0.78125 -1.125 0.78125 -4.453125q0 -3.359375 -0.78125 -4.46875q-0.78125 -1.109375 -1.953125 -1.109375q-1.15625 0 -1.828125 0.984375q-0.875 1.234375 -0.875 4.59375z" style="fill: rgb(0, 0, 0); fill-rule: nonzero;"/>
    <path d="m130.0 299.0l58.015747 0l0 52.0l-58.015747 0z" style="fill: rgb(243, 243, 243); fill-rule: nonzero;"/>
    <path d="m130.0 299.0l58.015747 0l0 52.0l-58.015747 0z" style="stroke: rgb(0, 0, 0); stroke-width: 2; stroke-linejoin: round; stroke-linecap: butt; fill-rule: nonzero;"/>
    <path d="m151.13223 331.91998l0 -13.59375l1.8125 0l0 13.59375l-1.8125 0zm4.198929 -6.703125q0 -2.421875 0.5 -3.890625q0.5 -1.46875 1.46875 -2.265625q0.984375 -0.796875 2.46875 -0.796875q1.09375 0 1.921875 0.4375q0.828125 0.4375 1.359375 1.28125q0.546875 0.828125 0.84375 2.015625q0.3125 1.1875 0.3125 3.21875q0 2.390625 -0.5 3.859375q-0.484375 1.46875 -1.46875 2.28125q-0.96875 0.796875 -2.46875 0.796875q-1.96875 0 -3.078125 -1.40625q-1.359375 -1.703125 -1.359375 -5.53125zm1.71875 0q0 3.34375 0.78125 4.453125q0.796875 1.109375 1.9375 1.109375q1.15625 0 1.9375 -1.109375q0.78125 -1.125 0.78125 -4.453125q0 -3.359375 -0.78125 -4.46875q-0.78125 -1.109375 -1.953125 -1.109375q-1.15625 0 -1.828125 0.984375q-0.875 1.234375 -0.875 4.59375z" style="fill: rgb(0, 0, 0); fill-rule: nonzero;"/>
    <path d="m847.0 275.0l112.0 0l0 24.0l-112.0 0z" style="fill: rgb(0, 0, 0); fill-opacity: 0; fill-rule: nonzero;"/>
    <path d="m860.9219 301.91998l0 -12.0l-4.46875 0l0 -1.59375l10.765625 0l0 1.59375l-4.5 0l0 12.0l-1.796875 0zm7.739746 -11.6875l0 -1.90625l1.671875 0l0 1.90625l-1.671875 0zm0 11.6875l0 -9.859375l1.671875 0l0 9.859375l-1.671875 0zm4.1291504 0l0 -9.859375l1.5 0l0 1.390625q0.453125 -0.71875 1.21875 -1.15625q0.78125 -0.453125 1.765625 -0.453125q1.09375 0 1.796875 0.453125q0.703125 0.453125 0.984375 1.28125q1.171875 -1.734375 3.046875 -1.734375q1.46875 0 2.25 0.8125q0.796875 0.8125 0.796875 2.5l0 6.765625l-1.671875 0l0 -6.203125q0 -1.0 -0.15625 -1.4375q-0.15625 -0.453125 -0.59375 -0.71875q-0.421875 -0.265625 -1.0 -0.265625q-1.03125 0 -1.71875 0.6875q-0.6875 0.6875 -0.6875 2.21875l0 5.71875l-1.671875 0l0 -6.40625q0 -1.109375 -0.40625 -1.65625q-0.40625 -0.5625 -1.34375 -0.5625q-0.703125 0 -1.3125 0.375q-0.59375 0.359375 -0.859375 1.078125q-0.265625 0.71875 -0.265625 2.0625l0 5.109375l-1.671875 0zm22.290833 -3.171875l1.71875 0.21875q-0.40625 1.5 -1.515625 2.34375q-1.09375 0.828125 -2.8125 0.828125q-2.15625 0 -3.421875 -1.328125q-1.265625 -1.328125 -1.265625 -3.734375q0 -2.484375 1.265625 -3.859375q1.28125 -1.375 3.328125 -1.375q1.984375 0 3.234375 1.34375q1.25 1.34375 1.25 3.796875q0 0.140625 -0.015625 0.4375l-7.34375 0q0.09375 1.625 0.921875 2.484375q0.828125 0.859375 2.0625 0.859375q0.90625 0 1.546875 -0.46875q0.65625 -0.484375 1.046875 -1.546875zm-5.484375 -2.703125l5.5 0q-0.109375 -1.234375 -0.625 -1.859375q-0.796875 -0.96875 -2.078125 -0.96875q-1.140625 0 -1.9375 0.78125q-0.78125 0.765625 -0.859375 2.046875z" style="fill: rgb(0, 0, 0); fill-rule: nonzero;"/>
    <path d="m129.99869 202.00787l58.015747 0l0 52.0l-58.015747 0z" style="fill: rgb(243, 243, 243); fill-rule: nonzero;"/>
    <path d="m129.99869 202.00787l58.015747 0l0 52.0l-58.015747 0z" style="stroke: rgb(0, 0, 0); stroke-width: 2; stroke-linejoin: round; stroke-linecap: butt; fill-rule: nonzero;"/>
    <path d="m145.68199 234.92787l0 -13.59375l9.84375 0l0 1.59375l-8.046875 0l0 4.171875l7.53125 0l0 1.59375l-7.53125 0l0 4.625l8.359375 0l0 1.609375l-10.15625 0zm12.709198 0l0 -13.59375l1.8125 0l0 13.59375l-1.8125 0zm4.198929 -6.703125q0 -2.421875 0.5 -3.890625q0.5 -1.46875 1.46875 -2.265625q0.984375 -0.796875 2.46875 -0.796875q1.09375 0 1.921875 0.4375q0.828125 0.4375 1.359375 1.28125q0.546875 0.828125 0.84375 2.015625q0.3125 1.1875 0.3125 3.21875q0 2.390625 -0.5 3.859375q-0.484375 1.46875 -1.46875 2.28125q-0.96875 0.796875 -2.46875 0.796875q-1.96875 0 -3.078125 -1.40625q-1.359375 -1.703125 -1.359375 -5.53125zm1.71875 0q0 3.34375 0.78125 4.453125q0.796875 1.109375 1.9375 1.109375q1.15625 0 1.9375 -1.109375q0.78125 -1.125 0.78125 -4.453125q0 -3.359375 -0.78125 -4.46875q-0.78125 -1.109375 -1.953125 -1.109375q-1.15625 0 -1.828125 0.984375q-0.875 1.234375 -0.875 4.59375z" style="fill: rgb(0, 0, 0); fill-rule: nonzero;"/>
    <path d="m201.49606 99.00787l58.015747 0l0 52.0l-58.015747 0z" style="fill: rgb(243, 243, 243); fill-rule: nonzero;"/>
    <path d="m201.49606 99.00787l58.015747 0l0 52.0l-58.015747 0z" style="stroke: rgb(0, 0, 0); stroke-width: 2; stroke-linejoin: round; stroke-linecap: butt; fill-rule: nonzero;"/>
    <path d="m217.14812 131.92787l0 -13.59375l5.125 0q1.359375 0 2.078125 0.125q1.0 0.171875 1.671875 0.640625q0.671875 0.46875 1.078125 1.3125q0.421875 0.84375 0.421875 1.84375q0 1.734375 -1.109375 2.9375q-1.09375 1.203125 -3.984375 1.203125l-3.484375 0l0 5.53125l-1.796875 0zm1.796875 -7.140625l3.515625 0q1.75 0 2.46875 -0.640625q0.734375 -0.65625 0.734375 -1.828125q0 -0.859375 -0.4375 -1.46875q-0.421875 -0.609375 -1.125 -0.796875q-0.453125 -0.125 -1.671875 -0.125l-3.484375 0l0 4.859375zm16.256073 7.140625l-1.671875 0l0 -10.640625q-0.59375 0.578125 -1.578125 1.15625q-0.984375 0.5625 -1.765625 0.859375l0 -1.625q1.40625 -0.65625 2.453125 -1.59375q1.046875 -0.9375 1.484375 -1.8125l1.078125 0l0 13.65625z" style="fill: rgb(0, 0, 0); fill-rule: nonzero;"/>
    <path d="m201.49475 8.0078745l58.015747 0l0 52.0l-58.015747 0z" style="fill: rgb(243, 243, 243); fill-rule: nonzero;"/>
    <path d="m201.49475 8.0078745l58.015747 0l0 52.0l-58.015747 0z" style="stroke: rgb(0, 0, 0); stroke-width: 2; stroke-linejoin: round; stroke-linecap: butt; fill-rule: nonzero;"/>
    <path d="m211.99475 40.92787l0 -13.59375l9.84375 0l0 1.59375l-8.046875 0l0 4.171875l7.53125 0l0 1.59375l-7.53125 0l0 4.625l8.359375 0l0 1.609375l-10.15625 0zm12.412323 0l0 -13.59375l5.125 0q1.359375 0 2.078125 0.125q1.0 0.171875 1.671875 0.640625q0.671875 0.46875 1.078125 1.3125q0.421875 0.84375 0.421875 1.84375q0 1.734375 -1.109375 2.9375q-1.09375 1.203125 -3.984375 1.203125l-3.484375 0l0 5.53125l-1.796875 0zm1.796875 -7.140625l3.515625 0q1.75 0 2.46875 -0.640625q0.734375 -0.65625 0.734375 -1.828125q0 -0.859375 -0.4375 -1.46875q-0.421875 -0.609375 -1.125 -0.796875q-0.453125 -0.125 -1.671875 -0.125l-3.484375 0l0 4.859375zm16.256073 7.140625l-1.671875 0l0 -10.640625q-0.59375 0.578125 -1.578125 1.15625q-0.984375 0.5625 -1.765625 0.859375l0 -1.625q1.40625 -0.65625 2.453125 -1.59375q1.046875 -0.9375 1.484375 -1.8125l1.078125 0l0 13.65625z" style="fill: rgb(0, 0, 0); fill-rule: nonzero;"/>
    <path d="m279.7533 299.0l58.015747 0l0 52.0l-58.015747 0z" style="fill: rgb(243, 243, 243); fill-rule: nonzero;"/>
    <path d="m279.7533 299.0l58.015747 0l0 52.0l-58.015747 0z" style="stroke: rgb(0, 0, 0); stroke-width: 2; stroke-linejoin: round; stroke-linecap: butt; fill-rule: nonzero;"/>
    <path d="m300.58865 331.91998l0 -13.59375l5.125 0q1.359375 0 2.078125 0.125q1.0 0.171875 1.671875 0.640625q0.671875 0.46875 1.078125 1.3125q0.421875 0.84375 0.421875 1.84375q0 1.734375 -1.109375 2.9375q-1.09375 1.203125 -3.984375 1.203125l-3.484375 0l0 5.53125l-1.796875 0zm1.796875 -7.140625l3.515625 0q1.75 0 2.46875 -0.640625q0.734375 -0.65625 0.734375 -1.828125q0 -0.859375 -0.4375 -1.46875q-0.421875 -0.609375 -1.125 -0.796875q-0.453125 -0.125 -1.671875 -0.125l-3.484375 0l0 4.859375zm9.959198 0.4375q0 -2.421875 0.5 -3.890625q0.5 -1.46875 1.46875 -2.265625q0.984375 -0.796875 2.46875 -0.796875q1.09375 0 1.921875 0.4375q0.828125 0.4375 1.359375 1.28125q0.546875 0.828125 0.84375 2.015625q0.3125 1.1875 0.3125 3.21875q0 2.390625 -0.5 3.859375q-0.484375 1.46875 -1.46875 2.28125q-0.96875 0.796875 -2.46875 0.796875q-1.96875 0 -3.078125 -1.40625q-1.359375 -1.703125 -1.359375 -5.53125zm1.71875 0q0 3.34375 0.78125 4.453125q0.796875 1.109375 1.9375 1.109375q1.15625 0 1.9375 -1.109375q0.78125 -1.125 0.78125 -4.453125q0 -3.359375 -0.78125 -4.46875q-0.78125 -1.109375 -1.953125 -1.109375q-1.15625 0 -1.828125 0.984375q-0.875 1.234375 -0.875 4.59375z" style="fill: rgb(0, 0, 0); fill-rule: nonzero;"/>
    <path d="m278.98294 202.00787l58.015747 0l0 52.0l-58.015747 0z" style="fill: rgb(243, 243, 243); fill-rule: nonzero;"/>
    <path d="m278.98294 202.00787l58.015747 0l0 52.0l-58.015747 0z" style="stroke: rgb(0, 0, 0); stroke-width: 2; stroke-linejoin: round; stroke-linecap: butt; fill-rule: nonzero;"/>
    <path d="m289.48294 234.92787l0 -13.59375l9.84375 0l0 1.59375l-8.046875 0l0 4.171875l7.53125 0l0 1.59375l-7.53125 0l0 4.625l8.359375 0l0 1.609375l-10.15625 0zm12.412323 0l0 -13.59375l5.125 0q1.359375 0 2.078125 0.125q1.0 0.171875 1.671875 0.640625q0.671875 0.46875 1.078125 1.3125q0.421875 0.84375 0.421875 1.84375q0 1.734375 -1.109375 2.9375q-1.09375 1.203125 -3.984375 1.203125l-3.484375 0l0 5.53125l-1.796875 0zm1.796875 -7.140625l3.515625 0q1.75 0 2.46875 -0.640625q0.734375 -0.65625 0.734375 -1.828125q0 -0.859375 -0.4375 -1.46875q-0.421875 -0.609375 -1.125 -0.796875q-0.453125 -0.125 -1.671875 -0.125l-3.484375 0l0 4.859375zm9.959198 0.4375q0 -2.421875 0.5 -3.890625q0.5 -1.46875 1.46875 -2.265625q0.984375 -0.796875 2.46875 -0.796875q1.09375 0 1.921875 0.4375q0.828125 0.4375 1.359375 1.28125q0.546875 0.828125 0.84375 2.015625q0.3125 1.1875 0.3125 3.21875q0 2.390625 -0.5 3.859375q-0.484375 1.46875 -1.46875 2.28125q-0.96875 0.796875 -2.46875 0.796875q-1.96875 0 -3.078125 -1.40625q-1.359375 -1.703125 -1.359375 -5.53125zm1.71875 0q0 3.34375 0.78125 4.453125q0.796875 1.109375 1.9375 1.109375q1.15625 0 1.9375 -1.109375q0.78125 -1.125 0.78125 -4.453125q0 -3.359375 -0.78125 -4.46875q-0.78125 -1.109375 -1.953125 -1.109375q-1.15625 0 -1.828125 0.984375q-0.875 1.234375 -0.875 4.59375z" style="fill: rgb(0, 0, 0); fill-rule: nonzero;"/>
    <path d="m358.00787 99.00787l58.015747 0l0 52.0l-58.015747 0z" style="fill: rgb(243, 243, 243); fill-rule: nonzero;"/>
    <path d="m358.00787 99.00787l58.015747 0l0 52.0l-58.015747 0z" style="stroke: rgb(0, 0, 0); stroke-width: 2; stroke-linejoin: round; stroke-linecap: butt; fill-rule: nonzero;"/>
    <path d="m373.65994 131.92787l0 -13.59375l5.125 0q1.359375 0 2.078125 0.125q1.0 0.171875 1.671875 0.640625q0.671875 0.46875 1.078125 1.3125q0.421875 0.84375 0.421875 1.84375q0 1.734375 -1.109375 2.9375q-1.09375 1.203125 -3.984375 1.203125l-3.484375 0l0 5.53125l-1.796875 0zm1.796875 -7.140625l3.515625 0q1.75 0 2.46875 -0.640625q0.734375 -0.65625 0.734375 -1.828125q0 -0.859375 -0.4375 -1.46875q-0.421875 -0.609375 -1.125 -0.796875q-0.453125 -0.125 -1.671875 -0.125l-3.484375 0l0 4.859375zm16.256073 7.140625l-1.671875 0l0 -10.640625q-0.59375 0.578125 -1.578125 1.15625q-0.984375 0.5625 -1.765625 0.859375l0 -1.625q1.40625 -0.65625 2.453125 -1.59375q1.046875 -0.9375 1.484375 -1.8125l1.078125 0l0 13.65625z" style="fill: rgb(0, 0, 0); fill-rule: nonzero;"/>
    <path d="m514.5197 99.00787l58.015747 0l0 52.0l-58.015747 0z" style="fill: rgb(243, 243, 243); fill-rule: nonzero;"/>
    <path d="m514.5197 99.00787l58.015747 0l0 52.0l-58.015747 0z" style="stroke: rgb(0, 0, 0); stroke-width: 2; stroke-linejoin: round; stroke-linecap: butt; fill-rule: nonzero;"/>
    <path d="m530.17175 131.92787l0 -13.59375l5.125 0q1.359375 0 2.078125 0.125q1.0 0.171875 1.671875 0.640625q0.671875 0.46875 1.078125 1.3125q0.421875 0.84375 0.421875 1.84375q0 1.734375 -1.109375 2.9375q-1.09375 1.203125 -3.984375 1.203125l-3.484375 0l0 5.53125l-1.796875 0zm1.796875 -7.140625l3.515625 0q1.75 0 2.46875 -0.640625q0.734375 -0.65625 0.734375 -1.828125q0 -0.859375 -0.4375 -1.46875q-0.421875 -0.609375 -1.125 -0.796875q-0.453125 -0.125 -1.671875 -0.125l-3.484375 0l0 4.859375zm16.256042 7.140625l-1.671875 0l0 -10.640625q-0.59375 0.578125 -1.578125 1.15625q-0.984375 0.5625 -1.765625 0.859375l0 -1.625q1.40625 -0.65625 2.453125 -1.59375q1.046875 -0.9375 1.484375 -1.8125l1.078125 0l0 13.65625z" style="fill: rgb(0, 0, 0); fill-rule: nonzero;"/>
    <path d="m433.51443 299.0l58.015747 0l0 52.0l-58.015747 0z" style="fill: rgb(243, 243, 243); fill-rule: nonzero;"/>
    <path d="m433.51443 299.0l58.015747 0l0 52.0l-58.015747 0z" style="stroke: rgb(0, 0, 0); stroke-width: 2; stroke-linejoin: round; stroke-linecap: butt; fill-rule: nonzero;"/>
    <path d="m454.3498 331.91998l0 -13.59375l5.125 0q1.359375 0 2.078125 0.125q1.0 0.171875 1.671875 0.640625q0.671875 0.46875 1.078125 1.3125q0.421875 0.84375 0.421875 1.84375q0 1.734375 -1.109375 2.9375q-1.09375 1.203125 -3.984375 1.203125l-3.484375 0l0 5.53125l-1.796875 0zm1.796875 -7.140625l3.515625 0q1.75 0 2.46875 -0.640625q0.734375 -0.65625 0.734375 -1.828125q0 -0.859375 -0.4375 -1.46875q-0.421875 -0.609375 -1.125 -0.796875q-0.453125 -0.125 -1.671875 -0.125l-3.484375 0l0 4.859375zm9.959198 0.4375q0 -2.421875 0.5 -3.890625q0.5 -1.46875 1.46875 -2.265625q0.984375 -0.796875 2.46875 -0.796875q1.09375 0 1.921875 0.4375q0.828125 0.4375 1.359375 1.28125q0.546875 0.828125 0.84375 2.015625q0.3125 1.1875 0.3125 3.21875q0 2.390625 -0.5 3.859375q-0.484375 1.46875 -1.46875 2.28125q-0.96875 0.796875 -2.46875 0.796875q-1.96875 0 -3.078125 -1.40625q-1.359375 -1.703125 -1.359375 -5.53125zm1.71875 0q0 3.34375 0.78125 4.453125q0.796875 1.109375 1.9375 1.109375q1.15625 0 1.9375 -1.109375q0.78125 -1.125 0.78125 -4.453125q0 -3.359375 -0.78125 -4.46875q-0.78125 -1.109375 -1.953125 -1.109375q-1.15625 0 -1.828125 0.984375q-0.875 1.234375 -0.875 4.59375z" style="fill: rgb(0, 0, 0); fill-rule: nonzero;"/>
    <path d="m358.00787 8.0078745l58.015747 0l0 52.0l-58.015747 0z" style="fill: rgb(243, 243, 243); fill-rule: nonzero;"/>
    <path d="m358.00787 8.0078745l58.015747 0l0 52.0l-58.015747 0z" style="stroke: rgb(0, 0, 0); stroke-width: 2; stroke-linejoin: round; stroke-linecap: butt; fill-rule: nonzero;"/>
    <path d="m368.50787 40.92787l0 -13.59375l9.84375 0l0 1.59375l-8.046875 0l0 4.171875l7.53125 0l0 1.59375l-7.53125 0l0 4.625l8.359375 0l0 1.609375l-10.15625 0zm12.412323 0l0 -13.59375l5.125 0q1.359375 0 2.078125 0.125q1.0 0.171875 1.671875 0.640625q0.671875 0.46875 1.078125 1.3125q0.421875 0.84375 0.421875 1.84375q0 1.734375 -1.109375 2.9375q-1.09375 1.203125 -3.984375 1.203125l-3.484375 0l0 5.53125l-1.796875 0zm1.796875 -7.140625l3.515625 0q1.75 0 2.46875 -0.640625q0.734375 -0.65625 0.734375 -1.828125q0 -0.859375 -0.4375 -1.46875q-0.421875 -0.609375 -1.125 -0.796875q-0.453125 -0.125 -1.671875 -0.125l-3.484375 0l0 4.859375zm16.256073 7.140625l-1.671875 0l0 -10.640625q-0.59375 0.578125 -1.578125 1.15625q-0.984375 0.5625 -1.765625 0.859375l0 -1.625q1.40625 -0.65625 2.453125 -1.59375q1.046875 -0.9375 1.484375 -1.8125l1.078125 0l0 13.65625z" style="fill: rgb(0, 0, 0); fill-rule: nonzero;"/>
    <path d="m433.51443 202.00787l58.015747 0l0 52.0l-58.015747 0z" style="fill: rgb(243, 243, 243); fill-rule: nonzero;"/>
    <path d="m433.51443 202.00787l58.015747 0l0 52.0l-58.015747 0z" style="stroke: rgb(0, 0, 0); stroke-width: 2; stroke-linejoin: round; stroke-linecap: butt; fill-rule: nonzero;"/>
    <path d="m444.01443 234.92787l0 -13.59375l9.84375 0l0 1.59375l-8.046875 0l0 4.171875l7.53125 0l0 1.59375l-7.53125 0l0 4.625l8.359375 0l0 1.609375l-10.15625 0zm12.412323 0l0 -13.59375l5.125 0q1.359375 0 2.078125 0.125q1.0 0.171875 1.671875 0.640625q0.671875 0.46875 1.078125 1.3125q0.421875 0.84375 0.421875 1.84375q0 1.734375 -1.109375 2.9375q-1.09375 1.203125 -3.984375 1.203125l-3.484375 0l0 5.53125l-1.796875 0zm1.796875 -7.140625l3.515625 0q1.75 0 2.46875 -0.640625q0.734375 -0.65625 0.734375 -1.828125q0 -0.859375 -0.4375 -1.46875q-0.421875 -0.609375 -1.125 -0.796875q-0.453125 -0.125 -1.671875 -0.125l-3.484375 0l0 4.859375zm9.959198 0.4375q0 -2.421875 0.5 -3.890625q0.5 -1.46875 1.46875 -2.265625q0.984375 -0.796875 2.46875 -0.796875q1.09375 0 1.921875 0.4375q0.828125 0.4375 1.359375 1.28125q0.546875 0.828125 0.84375 2.015625q0.3125 1.1875 0.3125 3.21875q0 2.390625 -0.5 3.859375q-0.484375 1.46875 -1.46875 2.28125q-0.96875 0.796875 -2.46875 0.796875q-1.96875 0 -3.078125 -1.40625q-1.359375 -1.703125 -1.359375 -5.53125zm1.71875 0q0 3.34375 0.78125 4.453125q0.796875 1.109375 1.9375 1.109375q1.15625 0 1.9375 -1.109375q0.78125 -1.125 0.78125 -4.453125q0 -3.359375 -0.78125 -4.46875q-0.78125 -1.109375 -1.953125 -1.109375q-1.15625 0 -1.828125 0.984375q-0.875 1.234375 -0.875 4.59375z" style="fill: rgb(0, 0, 0); fill-rule: nonzero;"/>
    <path d="m514.5197 8.0078745l58.015747 0l0 52.0l-58.015747 0z" style="fill: rgb(243, 243, 243); fill-rule: nonzero;"/>
    <path d="m514.5197 8.0078745l58.015747 0l0 52.0l-58.015747 0z" style="stroke: rgb(0, 0, 0); stroke-width: 2; stroke-linejoin: round; stroke-linecap: butt; fill-rule: nonzero;"/>
    <path d="m525.0197 40.92787l0 -13.59375l9.84375 0l0 1.59375l-8.046875 0l0 4.171875l7.53125 0l0 1.59375l-7.53125 0l0 4.625l8.359375 0l0 1.609375l-10.15625 0zm12.4122925 0l0 -13.59375l5.125 0q1.359375 0 2.078125 0.125q1.0 0.171875 1.671875 0.640625q0.671875 0.46875 1.078125 1.3125q0.421875 0.84375 0.421875 1.84375q0 1.734375 -1.109375 2.9375q-1.09375 1.203125 -3.984375 1.203125l-3.484375 0l0 5.53125l-1.796875 0zm1.796875 -7.140625l3.515625 0q1.75 0 2.46875 -0.640625q0.734375 -0.65625 0.734375 -1.828125q0 -0.859375 -0.4375 -1.46875q-0.421875 -0.609375 -1.125 -0.796875q-0.453125 -0.125 -1.671875 -0.125l-3.484375 0l0 4.859375zm16.256104 7.140625l-1.671875 0l0 -10.640625q-0.59375 0.578125 -1.578125 1.15625q-0.984375 0.5625 -1.765625 0.859375l0 -1.625q1.40625 -0.65625 2.453125 -1.59375q1.046875 -0.9375 1.484375 -1.8125l1.078125 0l0 13.65625z" style="fill: rgb(0, 0, 0); fill-rule: nonzero;"/>
    <path d="m595.5236 299.0l58.015747 0l0 52.0l-58.015747 0z" style="fill: rgb(243, 243, 243); fill-rule: nonzero;"/>
    <path d="m595.5236 299.0l58.015747 0l0 52.0l-58.015747 0z" style="stroke: rgb(0, 0, 0); stroke-width: 2; stroke-linejoin: round; stroke-linecap: butt; fill-rule: nonzero;"/>
    <path d="m616.359 331.91998l0 -13.59375l5.125 0q1.359375 0 2.078125 0.125q1.0 0.171875 1.671875 0.640625q0.671875 0.46875 1.078125 1.3125q0.421875 0.84375 0.421875 1.84375q0 1.734375 -1.109375 2.9375q-1.09375 1.203125 -3.984375 1.203125l-3.484375 0l0 5.53125l-1.796875 0zm1.796875 -7.140625l3.515625 0q1.75 0 2.46875 -0.640625q0.734375 -0.65625 0.734375 -1.828125q0 -0.859375 -0.4375 -1.46875q-0.421875 -0.609375 -1.125 -0.796875q-0.453125 -0.125 -1.671875 -0.125l-3.484375 0l0 4.859375zm9.9591675 0.4375q0 -2.421875 0.5 -3.890625q0.5 -1.46875 1.46875 -2.265625q0.984375 -0.796875 2.46875 -0.796875q1.09375 0 1.921875 0.4375q0.828125 0.4375 1.359375 1.28125q0.546875 0.828125 0.84375 2.015625q0.3125 1.1875 0.3125 3.21875q0 2.390625 -0.5 3.859375q-0.484375 1.46875 -1.46875 2.28125q-0.96875 0.796875 -2.46875 0.796875q-1.96875 0 -3.078125 -1.40625q-1.359375 -1.703125 -1.359375 -5.53125zm1.71875 0q0 3.34375 0.78125 4.453125q0.796875 1.109375 1.9375 1.109375q1.15625 0 1.9375 -1.109375q0.78125 -1.125 0.78125 -4.453125q0 -3.359375 -0.78125 -4.46875q-0.78125 -1.109375 -1.953125 -1.109375q-1.15625 0 -1.828125 0.984375q-0.875 1.234375 -0.875 4.59375z" style="fill: rgb(0, 0, 0); fill-rule: nonzero;"/>
    <path d="m677.5197 99.00787l58.015747 0l0 52.0l-58.015747 0z" style="fill: rgb(243, 243, 243); fill-rule: nonzero;"/>
    <path d="m677.5197 99.00787l58.015747 0l0 52.0l-58.015747 0z" style="stroke: rgb(0, 0, 0); stroke-width: 2; stroke-linejoin: round; stroke-linecap: butt; fill-rule: nonzero;"/>
    <path d="m693.17175 131.92787l0 -13.59375l5.125 0q1.359375 0 2.078125 0.125q1.0 0.171875 1.671875 0.640625q0.671875 0.46875 1.078125 1.3125q0.421875 0.84375 0.421875 1.84375q0 1.734375 -1.109375 2.9375q-1.09375 1.203125 -3.984375 1.203125l-3.484375 0l0 5.53125l-1.796875 0zm1.796875 -7.140625l3.515625 0q1.75 0 2.46875 -0.640625q0.734375 -0.65625 0.734375 -1.828125q0 -0.859375 -0.4375 -1.46875q-0.421875 -0.609375 -1.125 -0.796875q-0.453125 -0.125 -1.671875 -0.125l-3.484375 0l0 4.859375zm16.256042 7.140625l-1.671875 0l0 -10.640625q-0.59375 0.578125 -1.578125 1.15625q-0.984375 0.5625 -1.765625 0.859375l0 -1.625q1.40625 -0.65625 2.453125 -1.59375q1.046875 -0.9375 1.484375 -1.8125l1.078125 0l0 13.65625z" style="fill: rgb(0, 0, 0); fill-rule: nonzero;"/>
    <path d="m775.9685 299.0l58.015747 0l0 52.0l-58.015747 0z" style="fill: rgb(243, 243, 243); fill-rule: nonzero;"/>
    <path d="m775.9685 299.0l58.015747 0l0 52.0l-58.015747 0z" style="stroke: rgb(0, 0, 0); stroke-width: 2; stroke-linejoin: round; stroke-linecap: butt; fill-rule: nonzero;"/>
    <path d="m796.80383 331.91998l0 -13.59375l5.125 0q1.359375 0 2.078125 0.125q1.0 0.171875 1.671875 0.640625q0.671875 0.46875 1.078125 1.3125q0.421875 0.84375 0.421875 1.84375q0 1.734375 -1.109375 2.9375q-1.09375 1.203125 -3.984375 1.203125l-3.484375 0l0 5.53125l-1.796875 0zm1.796875 -7.140625l3.515625 0q1.75 0 2.46875 -0.640625q0.734375 -0.65625 0.734375 -1.828125q0 -0.859375 -0.4375 -1.46875q-0.421875 -0.609375 -1.125 -0.796875q-0.453125 -0.125 -1.671875 -0.125l-3.484375 0l0 4.859375zm9.9592285 0.4375q0 -2.421875 0.5 -3.890625q0.5 -1.46875 1.46875 -2.265625q0.984375 -0.796875 2.46875 -0.796875q1.09375 0 1.921875 0.4375q0.828125 0.4375 1.359375 1.28125q0.546875 0.828125 0.84375 2.015625q0.3125 1.1875 0.3125 3.21875q0 2.390625 -0.5 3.859375q-0.484375 1.46875 -1.46875 2.28125q-0.96875 0.796875 -2.46875 0.796875q-1.96875 0 -3.078125 -1.40625q-1.359375 -1.703125 -1.359375 -5.53125zm1.71875 0q0 3.34375 0.78125 4.453125q0.796875 1.109375 1.9375 1.109375q1.15625 0 1.9375 -1.109375q0.78125 -1.125 0.78125 -4.453125q0 -3.359375 -0.78125 -4.46875q-0.78125 -1.109375 -1.953125 -1.109375q-1.15625 0 -1.828125 0.984375q-0.875 1.234375 -0.875 4.59375z" style="fill: rgb(0, 0, 0); fill-rule: nonzero;"/>
    <path d="m595.52496 202.00787l58.015747 0l0 52.0l-58.015747 0z" style="fill: rgb(243, 243, 243); fill-rule: nonzero;"/>
    <path d="m595.52496 202.00787l58.015747 0l0 52.0l-58.015747 0z" style="stroke: rgb(0, 0, 0); stroke-width: 2; stroke-linejoin: round; stroke-linecap: butt; fill-rule: nonzero;"/>
    <path d="m606.02496 234.92787l0 -13.59375l9.84375 0l0 1.59375l-8.046875 0l0 4.171875l7.53125 0l0 1.59375l-7.53125 0l0 4.625l8.359375 0l0 1.609375l-10.15625 0zm12.4122925 0l0 -13.59375l5.125 0q1.359375 0 2.078125 0.125q1.0 0.171875 1.671875 0.640625q0.671875 0.46875 1.078125 1.3125q0.421875 0.84375 0.421875 1.84375q0 1.734375 -1.109375 2.9375q-1.09375 1.203125 -3.984375 1.203125l-3.484375 0l0 5.53125l-1.796875 0zm1.796875 -7.140625l3.515625 0q1.75 0 2.46875 -0.640625q0.734375 -0.65625 0.734375 -1.828125q0 -0.859375 -0.4375 -1.46875q-0.421875 -0.609375 -1.125 -0.796875q-0.453125 -0.125 -1.671875 -0.125l-3.484375 0l0 4.859375zm9.9592285 0.4375q0 -2.421875 0.5 -3.890625q0.5 -1.46875 1.46875 -2.265625q0.984375 -0.796875 2.46875 -0.796875q1.09375 0 1.921875 0.4375q0.828125 0.4375 1.359375 1.28125q0.546875 0.828125 0.84375 2.015625q0.3125 1.1875 0.3125 3.21875q0 2.390625 -0.5 3.859375q-0.484375 1.46875 -1.46875 2.28125q-0.96875 0.796875 -2.46875 0.796875q-1.96875 0 -3.078125 -1.40625q-1.359375 -1.703125 -1.359375 -5.53125zm1.71875 0q0 3.34375 0.78125 4.453125q0.796875 1.109375 1.9375 1.109375q1.15625 0 1.9375 -1.109375q0.78125 -1.125 0.78125 -4.453125q0 -3.359375 -0.78125 -4.46875q-0.78125 -1.109375 -1.953125 -1.109375q-1.15625 0 -1.828125 0.984375q-0.875 1.234375 -0.875 4.59375z" style="fill: rgb(0, 0, 0); fill-rule: nonzero;"/>
    <path d="m677.5197 8.0236225l58.015747 0l0 52.0l-58.015747 0z" style="fill: rgb(243, 243, 243); fill-rule: nonzero;"/>
    <path d="m677.5197 8.0236225l58.015747 0l0 52.0l-58.015747 0z" style="stroke: rgb(0, 0, 0); stroke-width: 2; stroke-linejoin: round; stroke-linecap: butt; fill-rule: nonzero;"/>
    <path d="m688.0197 40.94362l0 -13.593748l9.84375 0l0 1.59375l-8.046875 0l0 4.171873l7.53125 0l0 1.59375l-7.53125 0l0 4.625l8.359375 0l0 1.609375l-10.15625 0zm12.4122925 0l0 -13.593748l5.125 0q1.359375 0 2.078125 0.125q1.0 0.171875 1.671875 0.640625q0.671875 0.46875 1.078125 1.3125q0.421875 0.84375 0.421875 1.84375q0 1.7343731 -1.109375 2.937498q-1.09375 1.203125 -3.984375 1.203125l-3.484375 0l0 5.53125l-1.796875 0zm1.796875 -7.140625l3.515625 0q1.75 0 2.46875 -0.640625q0.734375 -0.65625 0.734375 -1.8281231q0 -0.859375 -0.4375 -1.46875q-0.421875 -0.609375 -1.125 -0.796875q-0.453125 -0.125 -1.671875 -0.125l-3.484375 0l0 4.859373zm16.256104 7.140625l-1.671875 0l0 -10.640623q-0.59375 0.578125 -1.578125 1.15625q-0.984375 0.5624981 -1.765625 0.8593731l0 -1.6249981q1.40625 -0.65625 2.453125 -1.59375q1.046875 -0.9375 1.484375 -1.8125l1.078125 0l0 13.656248z" style="fill: rgb(0, 0, 0); fill-rule: nonzero;"/>
    <path d="m775.9685 202.00787l58.015747 0l0 52.0l-58.015747 0z" style="fill: rgb(243, 243, 243); fill-rule: nonzero;"/>
    <path d="m775.9685 202.00787l58.015747 0l0 52.0l-58.015747 0z" style="stroke: rgb(0, 0, 0); stroke-width: 2; stroke-linejoin: round; stroke-linecap: butt; fill-rule: nonzero;"/>
    <path d="m786.4685 234.92787l0 -13.59375l9.84375 0l0 1.59375l-8.046875 0l0 4.171875l7.53125 0l0 1.59375l-7.53125 0l0 4.625l8.359375 0l0 1.609375l-10.15625 0zm12.4122925 0l0 -13.59375l5.125 0q1.359375 0 2.078125 0.125q1.0 0.171875 1.671875 0.640625q0.671875 0.46875 1.078125 1.3125q0.421875 0.84375 0.421875 1.84375q0 1.734375 -1.109375 2.9375q-1.09375 1.203125 -3.984375 1.203125l-3.484375 0l0 5.53125l-1.796875 0zm1.796875 -7.140625l3.515625 0q1.75 0 2.46875 -0.640625q0.734375 -0.65625 0.734375 -1.828125q0 -0.859375 -0.4375 -1.46875q-0.421875 -0.609375 -1.125 -0.796875q-0.453125 -0.125 -1.671875 -0.125l-3.484375 0l0 4.859375zm9.9592285 0.4375q0 -2.421875 0.5 -3.890625q0.5 -1.46875 1.46875 -2.265625q0.984375 -0.796875 2.46875 -0.796875q1.09375 0 1.921875 0.4375q0.828125 0.4375 1.359375 1.28125q0.546875 0.828125 0.84375 2.015625q0.3125 1.1875 0.3125 3.21875q0 2.390625 -0.5 3.859375q-0.484375 1.46875 -1.46875 2.28125q-0.96875 0.796875 -2.46875 0.796875q-1.96875 0 -3.078125 -1.40625q-1.359375 -1.703125 -1.359375 -5.53125zm1.71875 0q0 3.34375 0.78125 4.453125q0.796875 1.109375 1.9375 1.109375q1.15625 0 1.9375 -1.109375q0.78125 -1.125 0.78125 -4.453125q0 -3.359375 -0.78125 -4.46875q-0.78125 -1.109375 -1.953125 -1.109375q-1.15625 0 -1.828125 0.984375q-0.875 1.234375 -0.875 4.59375z" style="fill: rgb(0, 0, 0); fill-rule: nonzero;"/>
    <path d="m159.00787 299.0l0 -45.007874" style="fill: rgb(0, 0, 0); fill-opacity: 0; fill-rule: nonzero;"/>
    <path d="m188.01575 325.0l42.48819 -173.98425" style="fill: rgb(0, 0, 0); fill-opacity: 0; fill-rule: nonzero;"/>
    <path d="m188.01575 325.0l39.641357 -162.32683" style="stroke: rgb(0, 0, 0); stroke-width: 2; stroke-linejoin: round; stroke-linecap: butt; fill-rule: evenodd;"/>
    <path d="m230.86627 163.45688l-1.0559692 -9.6008l-5.3623505 8.0334015z" style="fill: rgb(0, 0, 0); stroke: rgb(0, 0, 0); stroke-width: 2; stroke-linecap: butt; fill-rule: evenodd;"/>
    <path d="m188.01575 325.0l91.74805 0" style="fill: rgb(0, 0, 0); fill-opacity: 0; fill-rule: nonzero;"/>
    <path d="m188.01575 325.0l79.74805 0" style="stroke: rgb(0, 0, 0); stroke-width: 2; stroke-linejoin: round; stroke-linecap: butt; fill-rule: evenodd;"/>
    <path d="m267.7638 328.30347l9.076172 -3.3034668l-9.076172 -3.3034668z" style="fill: rgb(0, 0, 0); stroke: rgb(0, 0, 0); stroke-width: 2; stroke-linecap: butt; fill-rule: evenodd;"/>
    <path d="m337.76904 325.0l95.74802 0" style="fill: rgb(0, 0, 0); fill-opacity: 0; fill-rule: nonzero;"/>
    <path d="m337.76904 325.0l83.74802 0" style="stroke: rgb(0, 0, 0); stroke-width: 2; stroke-linejoin: round; stroke-linecap: butt; fill-rule: evenodd;"/>
    <path d="m421.51706 328.30347l9.076202 -3.3034668l-9.076202 -3.3034668z" style="fill: rgb(0, 0, 0); stroke: rgb(0, 0, 0); stroke-width: 2; stroke-linecap: butt; fill-rule: evenodd;"/>
    <path d="m308.76117 299.0l-0.7559204 -45.007874" style="fill: rgb(0, 0, 0); fill-opacity: 0; fill-rule: nonzero;"/>
    <path d="m462.5223 299.0l0 -45.007874" style="fill: rgb(0, 0, 0); fill-opacity: 0; fill-rule: nonzero;"/>
    <path d="m624.5315 299.0l0 -45.007874" style="fill: rgb(0, 0, 0); fill-opacity: 0; fill-rule: nonzero;"/>
    <path d="m804.9764 299.0l0 -45.007874" style="fill: rgb(0, 0, 0); fill-opacity: 0; fill-rule: nonzero;"/>
    <path d="m491.53018 325.0l104.00003 0" style="fill: rgb(0, 0, 0); fill-opacity: 0; fill-rule: nonzero;"/>
    <path d="m491.53018 325.0l92.00003 0" style="stroke: rgb(0, 0, 0); stroke-width: 2; stroke-linejoin: round; stroke-linecap: butt; fill-rule: evenodd;"/>
    <path d="m583.5302 328.30347l9.076172 -3.3034668l-9.076172 -3.3034668z" style="fill: rgb(0, 0, 0); stroke: rgb(0, 0, 0); stroke-width: 2; stroke-linecap: butt; fill-rule: evenodd;"/>
    <path d="m653.53937 325.0l122.42517 0" style="fill: rgb(0, 0, 0); fill-opacity: 0; fill-rule: nonzero;"/>
    <path d="m653.53937 325.0l110.42517 0" style="stroke: rgb(0, 0, 0); stroke-width: 2; stroke-linejoin: round; stroke-linecap: butt; fill-rule: evenodd;"/>
    <path d="m763.96454 328.30347l9.076233 -3.3034668l-9.076233 -3.3034668z" style="fill: rgb(0, 0, 0); stroke: rgb(0, 0, 0); stroke-width: 2; stroke-linecap: butt; fill-rule: evenodd;"/>
    <path d="m339.99213 327.00787l47.02362 -176.0" style="fill: rgb(0, 0, 0); fill-opacity: 0; fill-rule: nonzero;"/>
    <path d="m339.99213 327.00787l43.926086 -164.40666" style="stroke: rgb(0, 0, 0); stroke-width: 2; stroke-linejoin: round; stroke-linecap: butt; fill-rule: evenodd;"/>
    <path d="m387.10977 163.45392l-0.84872437 -9.621323l-5.5343323 7.915909z" style="fill: rgb(0, 0, 0); stroke: rgb(0, 0, 0); stroke-width: 2; stroke-linecap: butt; fill-rule: evenodd;"/>
    <path d="m491.52756 324.99213l52.00003 -173.98425" style="fill: rgb(0, 0, 0); fill-opacity: 0; fill-rule: nonzero;"/>
    <path d="m491.52756 324.99213l48.56363 -162.4868" style="stroke: rgb(0, 0, 0); stroke-width: 2; stroke-linejoin: round; stroke-linecap: butt; fill-rule: evenodd;"/>
    <path d="m543.25635 163.45132l-0.56604004 -9.64209l-5.764221 7.750122z" style="fill: rgb(0, 0, 0); stroke: rgb(0, 0, 0); stroke-width: 2; stroke-linecap: butt; fill-rule: evenodd;"/>
    <path d="m653.01575 326.0l53.51184 -174.99213" style="fill: rgb(0, 0, 0); fill-opacity: 0; fill-rule: nonzero;"/>
    <path d="m653.01575 326.0l50.002686 -163.51668" style="stroke: rgb(0, 0, 0); stroke-width: 2; stroke-linejoin: round; stroke-linecap: butt; fill-rule: evenodd;"/>
    <path d="m706.1775 163.44936l-0.50494385 -9.645477l-5.8131714 7.7134094z" style="fill: rgb(0, 0, 0); stroke: rgb(0, 0, 0); stroke-width: 2; stroke-linecap: butt; fill-rule: evenodd;"/>
    <path d="m188.01443 228.00787l90.96063 0" style="fill: rgb(0, 0, 0); fill-opacity: 0; fill-rule: nonzero;"/>
    <path d="m188.01443 228.00787l78.96063 0" style="stroke: rgb(0, 0, 0); stroke-width: 2; stroke-linejoin: round; stroke-linecap: butt; fill-rule: evenodd;"/>
    <path d="m266.97507 231.31134l9.076202 -3.3034668l-9.076202 -3.3034668z" style="fill: rgb(0, 0, 0); stroke: rgb(0, 0, 0); stroke-width: 2; stroke-linecap: butt; fill-rule: evenodd;"/>
    <path d="m189.99869 227.01575l11.496063 -193.00787" style="fill: rgb(0, 0, 0); fill-opacity: 0; fill-rule: nonzero;"/>
    <path d="m189.99869 227.01575l10.7825775 -181.0291" style="stroke: rgb(0, 0, 0); stroke-width: 2; stroke-linejoin: round; stroke-linecap: butt; fill-rule: evenodd;"/>
    <path d="m204.07889 46.18306l-2.7579803 -9.256554l-3.837265 8.863724z" style="fill: rgb(0, 0, 0); stroke: rgb(0, 0, 0); stroke-width: 2; stroke-linecap: butt; fill-rule: evenodd;"/>
    <path d="m336.9987 228.00787l96.50394 0" style="fill: rgb(0, 0, 0); fill-opacity: 0; fill-rule: nonzero;"/>
    <path d="m336.9987 228.00787l84.50394 0" style="stroke: rgb(0, 0, 0); stroke-width: 2; stroke-linejoin: round; stroke-linecap: butt; fill-rule: evenodd;"/>
    <path d="m421.50262 231.31134l9.076202 -3.3034668l-9.076202 -3.3034668z" style="fill: rgb(0, 0, 0); stroke: rgb(0, 0, 0); stroke-width: 2; stroke-linecap: butt; fill-rule: evenodd;"/>
    <path d="m491.53018 228.00787l104.00003 0" style="fill: rgb(0, 0, 0); fill-opacity: 0; fill-rule: nonzero;"/>
    <path d="m491.53018 228.00787l92.00003 0" style="stroke: rgb(0, 0, 0); stroke-width: 2; stroke-linejoin: round; stroke-linecap: butt; fill-rule: evenodd;"/>
    <path d="m583.5302 231.31134l9.076172 -3.3034668l-9.076172 -3.3034668z" style="fill: rgb(0, 0, 0); stroke: rgb(0, 0, 0); stroke-width: 2; stroke-linecap: butt; fill-rule: evenodd;"/>
    <path d="m653.5407 228.00787l122.42517 0" style="fill: rgb(0, 0, 0); fill-opacity: 0; fill-rule: nonzero;"/>
    <path d="m653.5407 228.00787l110.42517 0" style="stroke: rgb(0, 0, 0); stroke-width: 2; stroke-linejoin: round; stroke-linecap: butt; fill-rule: evenodd;"/>
    <path d="m763.9659 231.31134l9.076172 -3.3034668l-9.076172 -3.3034668z" style="fill: rgb(0, 0, 0); stroke: rgb(0, 0, 0); stroke-width: 2; stroke-linecap: butt; fill-rule: evenodd;"/>
    <path d="m339.99213 227.99213l18.015747 -193.98425" style="fill: rgb(0, 0, 0); fill-opacity: 0; fill-rule: nonzero;"/>
    <path d="m339.99213 227.99213l16.906036 -182.03568" style="stroke: rgb(0, 0, 0); stroke-width: 2; stroke-linejoin: round; stroke-linecap: butt; fill-rule: evenodd;"/>
    <path d="m360.1875 46.26194l-2.4500122 -9.342789l-4.128601 8.731819z" style="fill: rgb(0, 0, 0); stroke: rgb(0, 0, 0); stroke-width: 2; stroke-linecap: butt; fill-rule: evenodd;"/>
    <path d="m493.00787 229.0l21.51184 -194.99213" style="fill: rgb(0, 0, 0); fill-opacity: 0; fill-rule: nonzero;"/>
    <path d="m493.00787 229.0l20.195923 -183.06448" style="stroke: rgb(0, 0, 0); stroke-width: 2; stroke-linejoin: round; stroke-linecap: butt; fill-rule: evenodd;"/>
    <path d="m516.48737 46.297752l-2.288269 -9.383705l-4.278839 8.659218z" style="fill: rgb(0, 0, 0); stroke: rgb(0, 0, 0); stroke-width: 2; stroke-linecap: butt; fill-rule: evenodd;"/>
    <path d="m653.5407 228.00787l23.968506 -193.98425" style="fill: rgb(0, 0, 0); fill-opacity: 0; fill-rule: nonzero;"/>
    <path d="m653.5407 228.00787l22.496948 -182.07481" style="stroke: rgb(0, 0, 0); stroke-width: 2; stroke-linejoin: round; stroke-linecap: butt; fill-rule: evenodd;"/>
    <path d="m679.3162 46.33815l-2.1655884 -9.412788l-4.3914795 8.602604z" style="fill: rgb(0, 0, 0); stroke: rgb(0, 0, 0); stroke-width: 2; stroke-linecap: butt; fill-rule: evenodd;"/>
    <path d="m230.50394 99.00787l0 -38.992126" style="fill: rgb(0, 0, 0); fill-opacity: 0; fill-rule: nonzero;"/>
    <path d="m387.01575 99.00787l0 -38.992126" style="fill: rgb(0, 0, 0); fill-opacity: 0; fill-rule: nonzero;"/>
    <path d="m543.5276 99.00787l0 -38.992126" style="fill: rgb(0, 0, 0); fill-opacity: 0; fill-rule: nonzero;"/>
    <path d="m706.5276 99.00787l0 -38.992126" style="fill: rgb(0, 0, 0); fill-opacity: 0; fill-rule: nonzero;"/>
  </g>
</svg>