<?xml version="1.0" encoding="utf-8"?>
<!-- Generator: Adobe Illustrator 15.0.2, SVG Export Plug-In . SVG Version: 6.00 Build 0)  -->
<!DOCTYPE svg PUBLIC "-//W3C//DTD SVG 1.1//EN" "http://www.w3.org/Graphics/SVG/1.1/DTD/svg11.dtd">
<svg version="1.1" id="Layer_1" xmlns="http://www.w3.org/2000/svg" xmlns:xlink="http://www.w3.org/1999/xlink" x="0px" y="0px"
	 width="300px" height="300px" viewBox="0 0 300 300" enable-background="new 0 0 300 300" xml:space="preserve">
<text transform="matrix(1 0 0 1 39.0347 128.6133)" font-family="'MyriadPro-Regular'" font-size="12">left</text>
<text transform="matrix(1 0 0 1 96.4697 129.7793)" font-family="'MyriadPro-Regular'" font-size="12">user</text>
<text transform="matrix(1 0 0 1 156.2363 131.2373)" font-family="'MyriadPro-Regular'" font-size="12">right</text>
<text transform="matrix(1 0 0 1 75.4775 105.2896)" font-family="'MyriadPro-Regular'" font-size="12">environment</text>
<g>
	<line stroke="#000000" stroke-miterlimit="10" x1="49.531" y1="131.237" x2="70.813" y2="200.898"/>
	<line stroke="#000000" stroke-miterlimit="10" x1="42.854" y1="131.407" x2="21.572" y2="201.068"/>
</g>
<g>
	<line stroke="#000000" stroke-miterlimit="10" x1="107.269" y1="131.406" x2="128.552" y2="201.067"/>
	<line stroke="#000000" stroke-miterlimit="10" x1="100.592" y1="131.575" x2="79.31" y2="201.237"/>
</g>
<g>
	<line stroke="#000000" stroke-miterlimit="10" x1="169.44" y1="133.635" x2="190.722" y2="203.297"/>
	<line stroke="#000000" stroke-miterlimit="10" x1="162.763" y1="133.804" x2="141.481" y2="203.467"/>
</g>
<g>
	<line stroke="#000000" stroke-miterlimit="10" x1="101.424" y1="95.534" x2="80.143" y2="25.872"/>
	<line stroke="#000000" stroke-miterlimit="10" x1="108.102" y1="95.364" x2="129.383" y2="25.702"/>
</g>
<ellipse fill="none" stroke="#000000" stroke-miterlimit="10" cx="106.204" cy="240.013" rx="10.787" ry="10.203"/>
<text transform="matrix(1 0 0 1 88.5977 259.8086)" font-family="'MyriadPro-Regular'" font-size="12">person</text>
<text transform="matrix(1 0 0 1 8.7783 14.1572)" font-family="'MyriadPro-Regular'" font-size="12">Top down view</text>
</svg>
