<?xml version="1.0" encoding="UTF-8" standalone="no" ?>
<!DOCTYPE svg PUBLIC "-//W3C//DTD SVG 1.1//EN" "http://www.w3.org/Graphics/SVG/1.1/DTD/svg11.dtd">
<svg xmlns="http://www.w3.org/2000/svg" xmlns:xlink="http://www.w3.org/1999/xlink" version="1.1" width="880" height="381" viewBox="0 0 880 381" xml:space="preserve">
<desc>Created with Fabric.js 3.6.3</desc>
<defs>
</defs>
<g transform="matrix(1 0 0 1 182.67 229.5)"  >
<line style="stroke: rgb(0,0,0); stroke-width: 2; stroke-dasharray: none; stroke-linecap: butt; stroke-dashoffset: 0; stroke-linejoin: miter; stroke-miterlimit: 4; fill: rgb(0,0,0); fill-rule: nonzero; opacity: 1;"  x1="0" y1="0" x2="0" y2="0" />
</g>
<g transform="matrix(1 0 0 1 468.5 342.5)"  >
<path style="stroke: none; stroke-width: 1; stroke-dasharray: none; stroke-linecap: square; stroke-dashoffset: 0; stroke-linejoin: miter; stroke-miterlimit: 10; fill: rgb(0,0,0); fill-opacity: 0; fill-rule: nonzero; opacity: 1;"  transform=" translate(-480, -360)" d="M 0 0 L 960 0 L 960 720 L 0 720 L 0 0 Z" stroke-linecap="round" />
</g>
<g transform="matrix(1 0 0 1 59.49 79)"  >
<path style="stroke: none; stroke-width: 1; stroke-dasharray: none; stroke-linecap: square; stroke-dashoffset: 0; stroke-linejoin: miter; stroke-miterlimit: 10; fill: rgb(201,218,248); fill-rule: nonzero; opacity: 1;"  transform=" translate(-70.99, -96.5)" d="m 12 53 l 117.98425 0 l 0 86.99213 l -117.98425 0 z" stroke-linecap="round" />
</g>
<g transform="matrix(1 0 0 1 59.49 79)"  >
<path style="stroke: rgb(0,0,0); stroke-width: 1; stroke-dasharray: none; stroke-linecap: butt; stroke-dashoffset: 0; stroke-linejoin: round; stroke-miterlimit: 10; fill: none; fill-rule: nonzero; opacity: 1;"  transform=" translate(-70.99, -96.5)" d="m 12 53 l 117.98425 0 l 0 86.99213 l -117.98425 0 z" stroke-linecap="round" />
</g>
<g transform="matrix(1 0 0 1 60.29 57.49)"  >
<path style="stroke: none; stroke-width: 1; stroke-dasharray: none; stroke-linecap: square; stroke-dashoffset: 0; stroke-linejoin: miter; stroke-miterlimit: 10; fill: rgb(0,0,0); fill-rule: nonzero; opacity: 1;"  transform=" translate(-71.79, -74.99)" d="m 63.178688 79.92 l -2.609375 0 l 0 -5.03125 q 0 -1.59375 -0.171875 -2.0625 q -0.15625 -0.46875 -0.53125 -0.71875 q -0.375 -0.265625 -0.90625 -0.265625 q -0.6875 0 -1.234375 0.375 q -0.53125 0.359375 -0.734375 0.984375 q -0.1875 0.609375 -0.1875 2.25 l 0 4.46875 l -2.609375 0 l 0 -9.859375 l 2.421875 0 l 0 1.453125 q 1.296875 -1.671875 3.25 -1.671875 q 0.859375 0 1.578125 0.3125 q 0.71875 0.3125 1.078125 0.796875 q 0.359375 0.484375 0.5 1.09375 q 0.15625 0.609375 0.15625 1.75 l 0 6.125 z m 8.130356 -3.140625 l 2.609375 0.4375 q -0.5 1.4375 -1.59375 2.1875 q -1.078125 0.734375 -2.703125 0.734375 q -2.5625 0 -3.796875 -1.671875 q -0.96875 -1.34375 -0.96875 -3.40625 q 0 -2.4375 1.265625 -3.828125 q 1.28125 -1.390625 3.25 -1.390625 q 2.1875 0 3.453125 1.453125 q 1.28125 1.453125 1.234375 4.453125 l -6.53125 0 q 0.015625 1.15625 0.625 1.8125 q 0.609375 0.640625 1.5 0.640625 q 0.609375 0 1.03125 -0.328125 q 0.421875 -0.34375 0.625 -1.09375 z m 0.15625 -2.625 q -0.03125 -1.140625 -0.59375 -1.71875 q -0.546875 -0.59375 -1.34375 -0.59375 q -0.859375 0 -1.40625 0.625 q -0.5625 0.609375 -0.546875 1.6875 l 3.890625 0 z m 6.360092 5.765625 l -3.125 -9.859375 l 2.53125 0 l 1.859375 6.46875 l 1.6875 -6.46875 l 2.515625 0 l 1.640625 6.46875 l 1.890625 -6.46875 l 2.5625 0 l -3.15625 9.859375 l -2.515625 0 l -1.6875 -6.34375 l -1.671875 6.34375 l -2.53125 0 z" stroke-linecap="round" />
</g>
<g transform="matrix(1 0 0 1 59.48 75.93)"  >
<path style="stroke: none; stroke-width: 1; stroke-dasharray: none; stroke-linecap: square; stroke-dashoffset: 0; stroke-linejoin: miter; stroke-miterlimit: 10; fill: rgb(0,0,0); fill-rule: nonzero; opacity: 1;"  transform=" translate(-70.98, -93.43)" d="m 41.546135 99.53438 l -1.21875 0 q -0.984375 -1.46875 -1.5 -3.046875 q -0.5 -1.578125 -0.5 -3.0625 q 0 -1.828125 0.640625 -3.46875 q 0.546875 -1.421875 1.375 -2.625 l 1.21875 0 q -0.859375 1.921875 -1.1875 3.28125 q -0.328125 1.34375 -0.328125 2.859375 q 0 1.03125 0.1875 2.125 q 0.203125 1.09375 0.53125 2.078125 q 0.21875 0.65625 0.78125 1.859375 z m 3.1883698 -2.734375 l -1.78125 0 l 0 -6.734375 l 1.65625 0 l 0 0.953125 q 0.421875 -0.6875 0.765625 -0.890625 q 0.34375 -0.21875 0.765625 -0.21875 q 0.609375 0 1.171875 0.328125 l -0.546875 1.5625 q -0.453125 -0.296875 -0.84375 -0.296875 q -0.375 0 -0.640625 0.21875 q -0.25 0.203125 -0.40625 0.75 q -0.140625 0.53125 -0.140625 2.25 l 0 2.078125 z m 7.389908 -2.140625 l 1.765625 0.296875 q -0.34375 0.96875 -1.078125 1.484375 q -0.734375 0.515625 -1.84375 0.515625 q -1.765625 0 -2.609375 -1.15625 q -0.671875 -0.921875 -0.671875 -2.3125 q 0 -1.6875 0.875 -2.625 q 0.890625 -0.953125 2.21875 -0.953125 q 1.515625 0 2.375 1 q 0.875 0.984375 0.828125 3.03125 l -4.46875 0 q 0.03125 0.796875 0.4375 1.234375 q 0.40625 0.4375 1.03125 0.4375 q 0.421875 0 0.703125 -0.21875 q 0.28125 -0.234375 0.4375 -0.734375 z m 0.09375 -1.8125 q -0.015625 -0.765625 -0.40625 -1.171875 q -0.375 -0.40625 -0.921875 -0.40625 q -0.578125 0 -0.96875 0.421875 q -0.375 0.4375 -0.375 1.15625 l 2.671875 0 z m 4.7406006 -0.734375 l -1.625 -0.296875 q 0.28125 -0.96875 0.9375 -1.4375 q 0.671875 -0.46875 1.984375 -0.46875 q 1.203125 0 1.78125 0.28125 q 0.578125 0.28125 0.8125 0.71875 q 0.25 0.4375 0.25 1.59375 l -0.015625 2.078125 q 0 0.890625 0.078125 1.3125 q 0.09375 0.421875 0.328125 0.90625 l -1.765625 0 q -0.078125 -0.171875 -0.171875 -0.53125 q -0.046875 -0.15625 -0.0625 -0.203125 q -0.46875 0.4375 -0.984375 0.671875 q -0.515625 0.21875 -1.109375 0.21875 q -1.046875 0 -1.640625 -0.5625 q -0.59375 -0.578125 -0.59375 -1.4375 q 0 -0.5625 0.265625 -1.015625 q 0.28125 -0.453125 0.765625 -0.6875 q 0.5 -0.234375 1.421875 -0.421875 q 1.25 -0.234375 1.734375 -0.4375 l 0 -0.171875 q 0 -0.515625 -0.265625 -0.734375 q -0.25 -0.21875 -0.953125 -0.21875 q -0.46875 0 -0.734375 0.1875 q -0.265625 0.1875 -0.4375 0.65625 z m 2.390625 1.453125 q -0.34375 0.109375 -1.09375 0.265625 q -0.734375 0.15625 -0.96875 0.3125 q -0.34375 0.25 -0.34375 0.625 q 0 0.375 0.28125 0.65625 q 0.28125 0.265625 0.703125 0.265625 q 0.484375 0 0.921875 -0.3125 q 0.328125 -0.234375 0.421875 -0.59375 q 0.078125 -0.21875 0.078125 -0.859375 l 0 -0.359375 z m 9.568726 -1.515625 l -1.765625 0.3125 q -0.078125 -0.515625 -0.40625 -0.78125 q -0.3125 -0.265625 -0.8125 -0.265625 q -0.65625 0 -1.0625 0.453125 q -0.390625 0.453125 -0.390625 1.546875 q 0 1.1875 0.40625 1.6875 q 0.40625 0.5 1.078125 0.5 q 0.515625 0 0.828125 -0.28125 q 0.328125 -0.296875 0.453125 -1 l 1.765625 0.296875 q -0.28125 1.203125 -1.0625 1.828125 q -0.765625 0.609375 -2.0625 0.609375 q -1.484375 0 -2.359375 -0.9375 q -0.875 -0.9375 -0.875 -2.578125 q 0 -1.671875 0.875 -2.59375 q 0.875 -0.9375 2.390625 -0.9375 q 1.234375 0 1.953125 0.53125 q 0.734375 0.53125 1.046875 1.609375 z m 3.3031006 -4.5625 l 0 3.421875 q 0.875 -1 2.078125 -1 q 0.609375 0 1.09375 0.234375 q 0.5 0.21875 0.75 0.578125 q 0.25 0.359375 0.34375 0.796875 q 0.09375 0.421875 0.09375 1.328125 l 0 3.953125 l -1.78125 0 l 0 -3.5625 q 0 -1.0625 -0.109375 -1.34375 q -0.09375 -0.28125 -0.359375 -0.453125 q -0.25 -0.171875 -0.640625 -0.171875 q -0.4375 0 -0.796875 0.21875 q -0.34375 0.21875 -0.515625 0.65625 q -0.15625 0.421875 -0.15625 1.28125 l 0 3.375 l -1.78125 0 l 0 -9.3125 l 1.78125 0 z m 7.7038574 4.625 l -1.625 -0.296875 q 0.28125 -0.96875 0.9375 -1.4375 q 0.671875 -0.46875 1.984375 -0.46875 q 1.203125 0 1.78125 0.28125 q 0.578125 0.28125 0.8125 0.71875 q 0.25 0.4375 0.25 1.59375 l -0.015625 2.078125 q 0 0.890625 0.078125 1.3125 q 0.09375 0.421875 0.328125 0.90625 l -1.765625 0 q -0.078125 -0.171875 -0.171875 -0.53125 q -0.046875 -0.15625 -0.0625 -0.203125 q -0.46875 0.4375 -0.984375 0.671875 q -0.515625 0.21875 -1.109375 0.21875 q -1.046875 0 -1.640625 -0.5625 q -0.59375 -0.578125 -0.59375 -1.4375 q 0 -0.5625 0.265625 -1.015625 q 0.28125 -0.453125 0.765625 -0.6875 q 0.5 -0.234375 1.421875 -0.421875 q 1.25 -0.234375 1.734375 -0.4375 l 0 -0.171875 q 0 -0.515625 -0.265625 -0.734375 q -0.25 -0.21875 -0.953125 -0.21875 q -0.46875 0 -0.734375 0.1875 q -0.265625 0.1875 -0.4375 0.65625 z m 2.390625 1.453125 q -0.34375 0.109375 -1.09375 0.265625 q -0.734375 0.15625 -0.96875 0.3125 q -0.34375 0.25 -0.34375 0.625 q 0 0.375 0.28125 0.65625 q 0.28125 0.265625 0.703125 0.265625 q 0.484375 0 0.921875 -0.3125 q 0.328125 -0.234375 0.421875 -0.59375 q 0.078125 -0.21875 0.078125 -0.859375 l 0 -0.359375 z m 3.6156006 3.234375 l 0 -9.3125 l 1.78125 0 l 0 3.359375 q 0.828125 -0.9375 1.953125 -0.9375 q 1.234375 0 2.03125 0.890625 q 0.8125 0.890625 0.8125 2.5625 q 0 1.71875 -0.828125 2.65625 q -0.8125 0.9375 -1.984375 0.9375 q -0.578125 0 -1.140625 -0.28125 q -0.5625 -0.296875 -0.96875 -0.859375 l 0 0.984375 l -1.65625 0 z m 1.765625 -3.515625 q 0 1.046875 0.328125 1.546875 q 0.46875 0.71875 1.234375 0.71875 q 0.59375 0 1 -0.5 q 0.421875 -0.515625 0.421875 -1.609375 q 0 -1.140625 -0.421875 -1.65625 q -0.40625 -0.515625 -1.0625 -0.515625 q -0.640625 0 -1.078125 0.5 q -0.421875 0.5 -0.421875 1.515625 z m 6.4538574 3.515625 l 0 -9.3125 l 1.78125 0 l 0 9.3125 l -1.78125 0 z m 7.6092377 -2.140625 l 1.765625 0.296875 q -0.34375 0.96875 -1.078125 1.484375 q -0.734375 0.515625 -1.84375 0.515625 q -1.765625 0 -2.609375 -1.15625 q -0.671875 -0.921875 -0.671875 -2.3125 q 0 -1.6875 0.875 -2.625 q 0.890625 -0.953125 2.21875 -0.953125 q 1.515625 0 2.375 1 q 0.875 0.984375 0.828125 3.03125 l -4.46875 0 q 0.03125 0.796875 0.4375 1.234375 q 0.40625 0.4375 1.03125 0.4375 q 0.421875 0 0.703125 -0.21875 q 0.28125 -0.234375 0.4375 -0.734375 z m 0.09375 -1.8125 q -0.015625 -0.765625 -0.40625 -1.171875 q -0.375 -0.40625 -0.921875 -0.40625 q -0.578125 0 -0.96875 0.421875 q -0.375 0.4375 -0.375 1.15625 l 2.671875 0 z" stroke-linecap="round" />
</g>
<g transform="matrix(1 0 0 1 59.23 91.93)"  >
<path style="stroke: none; stroke-width: 1; stroke-dasharray: none; stroke-linecap: square; stroke-dashoffset: 0; stroke-linejoin: miter; stroke-miterlimit: 10; fill: rgb(0,0,0); fill-rule: nonzero; opacity: 1;"  transform=" translate(-70.72, -109.43)" d="m 25.596474 106.06563 l 0.984375 0 l 0 -0.515625 q 0 -0.84375 0.171875 -1.265625 q 0.1875 -0.421875 0.671875 -0.6875 q 0.484375 -0.265625 1.234375 -0.265625 q 0.765625 0 1.484375 0.234375 l -0.234375 1.25 q -0.421875 -0.109375 -0.8125 -0.109375 q -0.390625 0 -0.5625 0.1875 q -0.171875 0.171875 -0.171875 0.6875 l 0 0.484375 l 1.34375 0 l 0 1.390625 l -1.34375 0 l 0 5.34375 l -1.78125 0 l 0 -5.34375 l -0.984375 0 l 0 -1.390625 z m 6.9227448 6.734375 l -1.78125 0 l 0 -6.734375 l 1.65625 0 l 0 0.953125 q 0.421875 -0.6875 0.765625 -0.890625 q 0.34375 -0.21875 0.765625 -0.21875 q 0.609375 0 1.171875 0.328125 l -0.546875 1.5625 q -0.453125 -0.296875 -0.84375 -0.296875 q -0.375 0 -0.640625 0.21875 q -0.25 0.203125 -0.40625 0.75 q -0.140625 0.53125 -0.140625 2.25 l 0 2.078125 z m 3.0617828 -3.46875 q 0 -0.890625 0.4375 -1.71875 q 0.4375 -0.828125 1.234375 -1.265625 q 0.8125 -0.4375 1.8125 -0.4375 q 1.515625 0 2.5 1 q 0.984375 0.984375 0.984375 2.5 q 0 1.53125 -1 2.546875 q -0.984375 1 -2.484375 1 q -0.921875 0 -1.765625 -0.421875 q -0.84375 -0.421875 -1.28125 -1.21875 q -0.4375 -0.8125 -0.4375 -1.984375 z m 1.828125 0.09375 q 0 1 0.46875 1.546875 q 0.484375 0.53125 1.1875 0.53125 q 0.703125 0 1.171875 -0.53125 q 0.46875 -0.546875 0.46875 -1.5625 q 0 -0.984375 -0.46875 -1.515625 q -0.46875 -0.53125 -1.171875 -0.53125 q -0.703125 0 -1.1875 0.53125 q -0.46875 0.53125 -0.46875 1.53125 z m 6.5944824 -3.359375 l 1.640625 0 l 0 0.90625 q 0.890625 -1.0625 2.109375 -1.0625 q 0.640625 0 1.109375 0.265625 q 0.484375 0.265625 0.796875 0.796875 q 0.4375 -0.53125 0.953125 -0.796875 q 0.515625 -0.265625 1.09375 -0.265625 q 0.75 0 1.265625 0.296875 q 0.515625 0.296875 0.765625 0.890625 q 0.1875 0.421875 0.1875 1.390625 l 0 4.3125 l -1.78125 0 l 0 -3.859375 q 0 -1 -0.1875 -1.28125 q -0.25 -0.390625 -0.765625 -0.390625 q -0.375 0 -0.703125 0.234375 q -0.328125 0.21875 -0.484375 0.671875 q -0.140625 0.4375 -0.140625 1.390625 l 0 3.234375 l -1.78125 0 l 0 -3.6875 q 0 -0.984375 -0.09375 -1.265625 q -0.09375 -0.296875 -0.296875 -0.4375 q -0.203125 -0.140625 -0.546875 -0.140625 q -0.40625 0 -0.734375 0.234375 q -0.328125 0.21875 -0.484375 0.640625 q -0.140625 0.40625 -0.140625 1.375 l 0 3.28125 l -1.78125 0 l 0 -6.734375 z m 17.022583 2.046875 l -1.625 -0.296875 q 0.28125 -0.96875 0.9375 -1.4375 q 0.671875 -0.46875 1.984375 -0.46875 q 1.203125 0 1.78125 0.28125 q 0.578125 0.28125 0.8125 0.71875 q 0.25 0.4375 0.25 1.59375 l -0.015625 2.078125 q 0 0.890625 0.078125 1.3125 q 0.09375 0.421875 0.328125 0.90625 l -1.765625 0 q -0.078125 -0.171875 -0.171875 -0.53125 q -0.046875 -0.15625 -0.0625 -0.203125 q -0.46875 0.4375 -0.984375 0.671875 q -0.515625 0.21875 -1.109375 0.21875 q -1.046875 0 -1.640625 -0.5625 q -0.59375 -0.578125 -0.59375 -1.4375 q 0 -0.5625 0.265625 -1.015625 q 0.28125 -0.453125 0.765625 -0.6875 q 0.5 -0.234375 1.421875 -0.421875 q 1.25 -0.234375 1.734375 -0.4375 l 0 -0.171875 q 0 -0.515625 -0.265625 -0.734375 q -0.25 -0.21875 -0.953125 -0.21875 q -0.46875 0 -0.734375 0.1875 q -0.265625 0.1875 -0.4375 0.65625 z m 2.390625 1.453125 q -0.34375 0.109375 -1.09375 0.265625 q -0.734375 0.15625 -0.96875 0.3125 q -0.34375 0.25 -0.34375 0.625 q 0 0.375 0.28125 0.65625 q 0.28125 0.265625 0.703125 0.265625 q 0.484375 0 0.921875 -0.3125 q 0.328125 -0.234375 0.421875 -0.59375 q 0.078125 -0.21875 0.078125 -0.859375 l 0 -0.359375 z m 9.818726 3.234375 l -1.78125 0 l 0 -3.4375 q 0 -1.09375 -0.125 -1.40625 q -0.109375 -0.328125 -0.375 -0.5 q -0.25 -0.1875 -0.609375 -0.1875 q -0.453125 0 -0.828125 0.265625 q -0.359375 0.25 -0.5 0.671875 q -0.140625 0.40625 -0.140625 1.546875 l 0 3.046875 l -1.78125 0 l 0 -6.734375 l 1.65625 0 l 0 0.984375 q 0.875 -1.140625 2.21875 -1.140625 q 0.59375 0 1.078125 0.21875 q 0.484375 0.203125 0.734375 0.53125 q 0.265625 0.328125 0.359375 0.75 q 0.09375 0.421875 0.09375 1.203125 l 0 4.1875 z m 1.1726074 -6.734375 l 1.890625 0 l 1.609375 4.78125 l 1.578125 -4.78125 l 1.84375 0 l -2.375 6.484375 l -0.421875 1.171875 q -0.234375 0.59375 -0.453125 0.90625 q -0.203125 0.3125 -0.484375 0.5 q -0.28125 0.1875 -0.6875 0.296875 q -0.390625 0.109375 -0.90625 0.109375 q -0.515625 0 -1.015625 -0.109375 l -0.15625 -1.390625 q 0.421875 0.078125 0.765625 0.078125 q 0.609375 0 0.90625 -0.375 q 0.3125 -0.359375 0.46875 -0.921875 l -2.5625 -6.75 z m 11.334213 4.8125 l 1.78125 -0.28125 q 0.109375 0.53125 0.453125 0.796875 q 0.359375 0.265625 0.984375 0.265625 q 0.703125 0 1.046875 -0.25 q 0.234375 -0.171875 0.234375 -0.46875 q 0 -0.203125 -0.125 -0.34375 q -0.140625 -0.125 -0.59375 -0.234375 q -2.15625 -0.46875 -2.734375 -0.875 q -0.8125 -0.546875 -0.8125 -1.515625 q 0 -0.875 0.6875 -1.46875 q 0.703125 -0.59375 2.15625 -0.59375 q 1.390625 0 2.0625 0.453125 q 0.671875 0.4375 0.921875 1.328125 l -1.6875 0.3125 q -0.109375 -0.390625 -0.40625 -0.59375 q -0.296875 -0.21875 -0.859375 -0.21875 q -0.703125 0 -1.015625 0.1875 q -0.203125 0.140625 -0.203125 0.375 q 0 0.1875 0.1875 0.3125 q 0.234375 0.1875 1.65625 0.515625 q 1.4375 0.3125 2 0.78125 q 0.5625 0.484375 0.5625 1.328125 q 0 0.921875 -0.78125 1.59375 q -0.78125 0.671875 -2.296875 0.671875 q -1.375 0 -2.1875 -0.5625 q -0.796875 -0.5625 -1.03125 -1.515625 z m 11.131226 -4.8125 l 0 1.421875 l -1.21875 0 l 0 2.703125 q 0 0.828125 0.03125 0.96875 q 0.03125 0.140625 0.15625 0.234375 q 0.125 0.078125 0.296875 0.078125 q 0.25 0 0.71875 -0.171875 l 0.15625 1.390625 q -0.625 0.265625 -1.40625 0.265625 q -0.484375 0 -0.875 -0.15625 q -0.390625 -0.171875 -0.578125 -0.421875 q -0.171875 -0.265625 -0.234375 -0.703125 q -0.0625 -0.3125 -0.0625 -1.25 l 0 -2.9375 l -0.8125 0 l 0 -1.421875 l 0.8125 0 l 0 -1.34375 l 1.796875 -1.046875 l 0 2.390625 l 1.21875 0 z m 2.6727448 2.046875 l -1.625 -0.296875 q 0.28125 -0.96875 0.9375 -1.4375 q 0.671875 -0.46875 1.984375 -0.46875 q 1.203125 0 1.78125 0.28125 q 0.578125 0.28125 0.8125 0.71875 q 0.25 0.4375 0.25 1.59375 l -0.015625 2.078125 q 0 0.890625 0.078125 1.3125 q 0.09375 0.421875 0.328125 0.90625 l -1.765625 0 q -0.078125 -0.171875 -0.171875 -0.53125 q -0.046875 -0.15625 -0.0625 -0.203125 q -0.46875 0.4375 -0.984375 0.671875 q -0.515625 0.21875 -1.109375 0.21875 q -1.046875 0 -1.640625 -0.5625 q -0.59375 -0.578125 -0.59375 -1.4375 q 0 -0.5625 0.265625 -1.015625 q 0.28125 -0.453125 0.765625 -0.6875 q 0.5 -0.234375 1.421875 -0.421875 q 1.25 -0.234375 1.734375 -0.4375 l 0 -0.171875 q 0 -0.515625 -0.265625 -0.734375 q -0.25 -0.21875 -0.953125 -0.21875 q -0.46875 0 -0.734375 0.1875 q -0.265625 0.1875 -0.4375 0.65625 z m 2.390625 1.453125 q -0.34375 0.109375 -1.09375 0.265625 q -0.734375 0.15625 -0.96875 0.3125 q -0.34375 0.25 -0.34375 0.625 q 0 0.375 0.28125 0.65625 q 0.28125 0.265625 0.703125 0.265625 q 0.484375 0 0.921875 -0.3125 q 0.328125 -0.234375 0.421875 -0.59375 q 0.078125 -0.21875 0.078125 -0.859375 l 0 -0.359375 z m 6.7874756 -3.5 l 0 1.421875 l -1.21875 0 l 0 2.703125 q 0 0.828125 0.03125 0.96875 q 0.03125 0.140625 0.15625 0.234375 q 0.125 0.078125 0.296875 0.078125 q 0.25 0 0.71875 -0.171875 l 0.15625 1.390625 q -0.625 0.265625 -1.40625 0.265625 q -0.484375 0 -0.875 -0.15625 q -0.390625 -0.171875 -0.578125 -0.421875 q -0.171875 -0.265625 -0.234375 -0.703125 q -0.0625 -0.3125 -0.0625 -1.25 l 0 -2.9375 l -0.8125 0 l 0 -1.421875 l 0.8125 0 l 0 -1.34375 l 1.796875 -1.046875 l 0 2.390625 l 1.21875 0 z m 5.2508698 4.59375 l 1.765625 0.296875 q -0.34375 0.96875 -1.078125 1.484375 q -0.734375 0.515625 -1.84375 0.515625 q -1.765625 0 -2.609375 -1.15625 q -0.671875 -0.921875 -0.671875 -2.3125 q 0 -1.6875 0.875 -2.625 q 0.890625 -0.953125 2.21875 -0.953125 q 1.515625 0 2.375 1 q 0.875 0.984375 0.828125 3.03125 l -4.46875 0 q 0.03125 0.796875 0.4375 1.234375 q 0.40625 0.4375 1.03125 0.4375 q 0.421875 0 0.703125 -0.21875 q 0.28125 -0.234375 0.4375 -0.734375 z m 0.09375 -1.8125 q -0.015625 -0.765625 -0.40625 -1.171875 q -0.375 -0.40625 -0.921875 -0.40625 q -0.578125 0 -0.96875 0.421875 q -0.375 0.4375 -0.375 1.15625 l 2.671875 0 z" stroke-linecap="round" />
</g>
<g transform="matrix(1 0 0 1 59.3 107.93)"  >
<path style="stroke: none; stroke-width: 1; stroke-dasharray: none; stroke-linecap: square; stroke-dashoffset: 0; stroke-linejoin: miter; stroke-miterlimit: 10; fill: rgb(0,0,0); fill-rule: nonzero; opacity: 1;"  transform=" translate(-70.8, -125.43)" d="m 29.538818 126.65938 l 1.765625 0.296875 q -0.34375 0.96875 -1.078125 1.484375 q -0.734375 0.515625 -1.84375 0.515625 q -1.765625 0 -2.609375 -1.15625 q -0.671875 -0.921875 -0.671875 -2.3125 q 0 -1.6875 0.875 -2.625 q 0.890625 -0.953125 2.21875 -0.953125 q 1.515625 0 2.375 1 q 0.875 0.984375 0.828125 3.03125 l -4.46875 0 q 0.03125 0.796875 0.4375 1.234375 q 0.40625 0.4375 1.03125 0.4375 q 0.421875 0 0.703125 -0.21875 q 0.28125 -0.234375 0.4375 -0.734375 z m 0.09375 -1.8125 q -0.015625 -0.765625 -0.40625 -1.171875 q -0.375 -0.40625 -0.921875 -0.40625 q -0.578125 0 -0.96875 0.421875 q -0.375 0.4375 -0.375 1.15625 l 2.671875 0 z m 2.5531006 3.953125 l 2.421875 -3.46875 l -2.328125 -3.265625 l 2.1875 0 l 1.1875 1.84375 l 1.265625 -1.84375 l 2.09375 0 l -2.296875 3.1875 l 2.5 3.546875 l -2.1875 0 l -1.375 -2.09375 l -1.375 2.09375 l -2.09375 0 z m 14.146851 -4.75 l -1.765625 0.3125 q -0.078125 -0.515625 -0.40625 -0.78125 q -0.3125 -0.265625 -0.8125 -0.265625 q -0.65625 0 -1.0625 0.453125 q -0.390625 0.453125 -0.390625 1.546875 q 0 1.1875 0.40625 1.6875 q 0.40625 0.5 1.078125 0.5 q 0.515625 0 0.828125 -0.28125 q 0.328125 -0.296875 0.453125 -1 l 1.765625 0.296875 q -0.28125 1.203125 -1.0625 1.828125 q -0.765625 0.609375 -2.0625 0.609375 q -1.484375 0 -2.359375 -0.9375 q -0.875 -0.9375 -0.875 -2.578125 q 0 -1.671875 0.875 -2.59375 q 0.875 -0.9375 2.390625 -0.9375 q 1.234375 0 1.953125 0.53125 q 0.734375 0.53125 1.046875 1.609375 z m 5.4437256 2.609375 l 1.765625 0.296875 q -0.34375 0.96875 -1.078125 1.484375 q -0.734375 0.515625 -1.84375 0.515625 q -1.765625 0 -2.609375 -1.15625 q -0.671875 -0.921875 -0.671875 -2.3125 q 0 -1.6875 0.875 -2.625 q 0.890625 -0.953125 2.21875 -0.953125 q 1.515625 0 2.375 1 q 0.875 0.984375 0.828125 3.03125 l -4.46875 0 q 0.03125 0.796875 0.4375 1.234375 q 0.40625 0.4375 1.03125 0.4375 q 0.421875 0 0.703125 -0.21875 q 0.28125 -0.234375 0.4375 -0.734375 z m 0.09375 -1.8125 q -0.015625 -0.765625 -0.40625 -1.171875 q -0.375 -0.40625 -0.921875 -0.40625 q -0.578125 0 -0.96875 0.421875 q -0.375 0.4375 -0.375 1.15625 l 2.671875 0 z m 3.3499756 -2.78125 l 1.671875 0 l 0 0.984375 q 0.328125 -0.515625 0.875 -0.828125 q 0.546875 -0.3125 1.21875 -0.3125 q 1.1875 0 2 0.921875 q 0.8125 0.921875 0.8125 2.5625 q 0 1.6875 -0.828125 2.625 q -0.8125 0.9375 -1.984375 0.9375 q -0.5625 0 -1.015625 -0.21875 q -0.453125 -0.234375 -0.953125 -0.765625 l 0 3.390625 l -1.796875 0 l 0 -9.296875 z m 1.765625 3.25 q 0 1.140625 0.453125 1.6875 q 0.453125 0.53125 1.109375 0.53125 q 0.609375 0 1.015625 -0.5 q 0.421875 -0.5 0.421875 -1.625 q 0 -1.0625 -0.421875 -1.578125 q -0.421875 -0.515625 -1.046875 -0.515625 q -0.65625 0 -1.09375 0.515625 q -0.4375 0.5 -0.4375 1.484375 z m 9.531982 -3.25 l 0 1.421875 l -1.21875 0 l 0 2.703125 q 0 0.828125 0.03125 0.96875 q 0.03125 0.140625 0.15625 0.234375 q 0.125 0.078125 0.296875 0.078125 q 0.25 0 0.71875 -0.171875 l 0.15625 1.390625 q -0.625 0.265625 -1.40625 0.265625 q -0.484375 0 -0.875 -0.15625 q -0.390625 -0.171875 -0.578125 -0.421875 q -0.171875 -0.265625 -0.234375 -0.703125 q -0.0625 -0.3125 -0.0625 -1.25 l 0 -2.9375 l -0.8125 0 l 0 -1.421875 l 0.8125 0 l 0 -1.34375 l 1.796875 -1.046875 l 0 2.390625 l 1.21875 0 z m 10.922607 1.984375 l -1.765625 0.3125 q -0.078125 -0.515625 -0.40625 -0.78125 q -0.3125 -0.265625 -0.8125 -0.265625 q -0.65625 0 -1.0625 0.453125 q -0.390625 0.453125 -0.390625 1.546875 q 0 1.1875 0.40625 1.6875 q 0.40625 0.5 1.078125 0.5 q 0.515625 0 0.828125 -0.28125 q 0.328125 -0.296875 0.453125 -1 l 1.765625 0.296875 q -0.28125 1.203125 -1.0625 1.828125 q -0.765625 0.609375 -2.0625 0.609375 q -1.484375 0 -2.359375 -0.9375 q -0.875 -0.9375 -0.875 -2.578125 q 0 -1.671875 0.875 -2.59375 q 0.875 -0.9375 2.390625 -0.9375 q 1.234375 0 1.953125 0.53125 q 0.734375 0.53125 1.046875 1.609375 z m 1.5374756 4.75 l 0 -9.3125 l 1.78125 0 l 0 9.3125 l -1.78125 0 z m 3.2811127 -3.46875 q 0 -0.890625 0.4375 -1.71875 q 0.4375 -0.828125 1.234375 -1.265625 q 0.8125 -0.4375 1.8125 -0.4375 q 1.515625 0 2.5 1 q 0.984375 0.984375 0.984375 2.5 q 0 1.53125 -1 2.546875 q -0.984375 1 -2.484375 1 q -0.921875 0 -1.765625 -0.421875 q -0.84375 -0.421875 -1.28125 -1.21875 q -0.4375 -0.8125 -0.4375 -1.984375 z m 1.828125 0.09375 q 0 1 0.46875 1.546875 q 0.484375 0.53125 1.1875 0.53125 q 0.703125 0 1.171875 -0.53125 q 0.46875 -0.546875 0.46875 -1.5625 q 0 -0.984375 -0.46875 -1.515625 q -0.46875 -0.53125 -1.171875 -0.53125 q -0.703125 0 -1.1875 0.53125 q -0.46875 0.53125 -0.46875 1.53125 z m 6.1101074 1.453125 l 1.78125 -0.28125 q 0.109375 0.53125 0.453125 0.796875 q 0.359375 0.265625 0.984375 0.265625 q 0.703125 0 1.046875 -0.25 q 0.234375 -0.171875 0.234375 -0.46875 q 0 -0.203125 -0.125 -0.34375 q -0.140625 -0.125 -0.59375 -0.234375 q -2.15625 -0.46875 -2.734375 -0.875 q -0.8125 -0.546875 -0.8125 -1.515625 q 0 -0.875 0.6875 -1.46875 q 0.703125 -0.59375 2.15625 -0.59375 q 1.390625 0 2.0625 0.453125 q 0.671875 0.4375 0.921875 1.328125 l -1.6875 0.3125 q -0.109375 -0.390625 -0.40625 -0.59375 q -0.296875 -0.21875 -0.859375 -0.21875 q -0.703125 0 -1.015625 0.1875 q -0.203125 0.140625 -0.203125 0.375 q 0 0.1875 0.1875 0.3125 q 0.234375 0.1875 1.65625 0.515625 q 1.4375 0.3125 2 0.78125 q 0.5625 0.484375 0.5625 1.328125 q 0 0.921875 -0.78125 1.59375 q -0.78125 0.671875 -2.296875 0.671875 q -1.375 0 -2.1875 -0.5625 q -0.796875 -0.5625 -1.03125 -1.515625 z m 11.943726 -0.21875 l 1.765625 0.296875 q -0.34375 0.96875 -1.078125 1.484375 q -0.734375 0.515625 -1.84375 0.515625 q -1.765625 0 -2.609375 -1.15625 q -0.671875 -0.921875 -0.671875 -2.3125 q 0 -1.6875 0.875 -2.625 q 0.890625 -0.953125 2.21875 -0.953125 q 1.515625 0 2.375 1 q 0.875 0.984375 0.828125 3.03125 l -4.46875 0 q 0.03125 0.796875 0.4375 1.234375 q 0.40625 0.4375 1.03125 0.4375 q 0.421875 0 0.703125 -0.21875 q 0.28125 -0.234375 0.4375 -0.734375 z m 0.09375 -1.8125 q -0.015625 -0.765625 -0.40625 -1.171875 q -0.375 -0.40625 -0.921875 -0.40625 q -0.578125 0 -0.96875 0.421875 q -0.375 0.4375 -0.375 1.15625 l 2.671875 0 z m 9.584351 3.953125 l -1.65625 0 l 0 -0.984375 q -0.40625 0.578125 -0.96875 0.859375 q -0.5625 0.28125 -1.125 0.28125 q -1.171875 0 -2 -0.9375 q -0.828125 -0.9375 -0.828125 -2.609375 q 0 -1.71875 0.796875 -2.609375 q 0.8125 -0.890625 2.046875 -0.890625 q 1.125 0 1.953125 0.9375 l 0 -3.359375 l 1.78125 0 l 0 9.3125 z m -4.75 -3.515625 q 0 1.078125 0.296875 1.5625 q 0.421875 0.703125 1.203125 0.703125 q 0.609375 0 1.046875 -0.515625 q 0.4375 -0.53125 0.4375 -1.578125 q 0 -1.15625 -0.421875 -1.671875 q -0.421875 -0.515625 -1.078125 -0.515625 q -0.625 0 -1.0625 0.515625 q -0.421875 0.5 -0.421875 1.5 z m 6.2194824 6.25 q 0.53125 -1.125 0.734375 -1.734375 q 0.21875 -0.59375 0.40625 -1.375 q 0.1875 -0.796875 0.265625 -1.5 q 0.09375 -0.71875 0.09375 -1.453125 q 0 -1.515625 -0.328125 -2.859375 q -0.3125 -1.359375 -1.1875 -3.28125 l 1.21875 0 q 0.953125 1.375 1.484375 2.90625 q 0.53125 1.515625 0.53125 3.09375 q 0 1.328125 -0.421875 2.84375 q -0.46875 1.703125 -1.5625 3.359375 l -1.234375 0 z" stroke-linecap="round" />
</g>
<g transform="matrix(1 0 0 1 326.49 79)"  >
<path style="stroke: none; stroke-width: 1; stroke-dasharray: none; stroke-linecap: square; stroke-dashoffset: 0; stroke-linejoin: miter; stroke-miterlimit: 10; fill: rgb(201,218,248); fill-rule: nonzero; opacity: 1;"  transform=" translate(-337.99, -96.5)" d="m 279 53 l 117.98425 0 l 0 86.99213 l -117.98425 0 z" stroke-linecap="round" />
</g>
<g transform="matrix(1 0 0 1 326.49 79)"  >
<path style="stroke: rgb(0,0,0); stroke-width: 1; stroke-dasharray: none; stroke-linecap: butt; stroke-dashoffset: 0; stroke-linejoin: round; stroke-miterlimit: 10; fill: none; fill-rule: nonzero; opacity: 1;"  transform=" translate(-337.99, -96.5)" d="m 279 53 l 117.98425 0 l 0 86.99213 l -117.98425 0 z" stroke-linecap="round" />
</g>
<g transform="matrix(1 0 0 1 326.38 79.63)"  >
<path style="stroke: none; stroke-width: 1; stroke-dasharray: none; stroke-linecap: square; stroke-dashoffset: 0; stroke-linejoin: miter; stroke-miterlimit: 10; fill: rgb(0,0,0); fill-rule: nonzero; opacity: 1;"  transform=" translate(-337.88, -97.12)" d="m 307.50818 94.9825 l -2.5625 0.46875 q -0.140625 -0.78125 -0.59375 -1.171875 q -0.453125 -0.390625 -1.1875 -0.390625 q -0.984375 0 -1.5625 0.671875 q -0.578125 0.671875 -0.578125 2.25 q 0 1.765625 0.578125 2.484375 q 0.59375 0.71875 1.59375 0.71875 q 0.75 0 1.21875 -0.421875 q 0.46875 -0.421875 0.671875 -1.453125 l 2.546875 0.4375 q -0.390625 1.765625 -1.53125 2.671875 q -1.125 0.890625 -3.03125 0.890625 q -2.15625 0 -3.453125 -1.359375 q -1.28125 -1.359375 -1.28125 -3.78125 q 0 -2.4375 1.296875 -3.796875 q 1.296875 -1.359375 3.484375 -1.359375 q 1.796875 0 2.859375 0.78125 q 1.0625 0.765625 1.53125 2.359375 z m 4.3913574 -6.65625 l 0 5 q 1.25 -1.484375 3.015625 -1.484375 q 0.890625 0 1.609375 0.34375 q 0.734375 0.328125 1.09375 0.84375 q 0.375 0.515625 0.5 1.15625 q 0.140625 0.625 0.140625 1.953125 l 0 5.78125 l -2.609375 0 l 0 -5.203125 q 0 -1.546875 -0.15625 -1.96875 q -0.140625 -0.421875 -0.515625 -0.65625 q -0.375 -0.25 -0.9375 -0.25 q -0.65625 0 -1.171875 0.3125 q -0.5 0.3125 -0.734375 0.953125 q -0.234375 0.640625 -0.234375 1.875 l 0 4.9375 l -2.609375 0 l 0 -13.59375 l 2.609375 0 z m 14.489746 10.453125 l 2.609375 0.4375 q -0.5 1.4375 -1.59375 2.1875 q -1.078125 0.734375 -2.703125 0.734375 q -2.5625 0 -3.796875 -1.671875 q -0.96875 -1.34375 -0.96875 -3.40625 q 0 -2.4375 1.265625 -3.828125 q 1.28125 -1.390625 3.25 -1.390625 q 2.1875 0 3.453125 1.453125 q 1.28125 1.453125 1.234375 4.453125 l -6.53125 0 q 0.015625 1.15625 0.625 1.8125 q 0.609375 0.640625 1.5 0.640625 q 0.609375 0 1.03125 -0.328125 q 0.421875 -0.34375 0.625 -1.09375 z m 0.15625 -2.625 q -0.03125 -1.140625 -0.59375 -1.71875 q -0.546875 -0.59375 -1.34375 -0.59375 q -0.859375 0 -1.40625 0.625 q -0.5625 0.609375 -0.546875 1.6875 l 3.890625 0 z m 13.110077 -1.171875 l -2.5625 0.46875 q -0.140625 -0.78125 -0.59375 -1.171875 q -0.453125 -0.390625 -1.1875 -0.390625 q -0.984375 0 -1.5625 0.671875 q -0.578125 0.671875 -0.578125 2.25 q 0 1.765625 0.578125 2.484375 q 0.59375 0.71875 1.59375 0.71875 q 0.75 0 1.21875 -0.421875 q 0.46875 -0.421875 0.671875 -1.453125 l 2.546875 0.4375 q -0.390625 1.765625 -1.53125 2.671875 q -1.125 0.890625 -3.03125 0.890625 q -2.15625 0 -3.453125 -1.359375 q -1.28125 -1.359375 -1.28125 -3.78125 q 0 -2.4375 1.296875 -3.796875 q 1.296875 -1.359375 3.484375 -1.359375 q 1.796875 0 2.859375 0.78125 q 1.0625 0.765625 1.53125 2.359375 z m 1.6882019 6.9375 l 0 -13.59375 l 2.609375 0 l 0 7.203125 l 3.0625 -3.46875 l 3.203125 0 l -3.375 3.609375 l 3.609375 6.25 l -2.796875 0 l -2.484375 -4.421875 l -1.21875 1.265625 l 0 3.15625 l -2.609375 0 z m 10.469482 -11.1875 l 0 -2.40625 l 2.609375 0 l 0 2.40625 l -2.609375 0 z m 0 11.1875 l 0 -9.859375 l 2.609375 0 l 0 9.859375 l -2.609375 0 z m 14.152039 0 l -2.609375 0 l 0 -5.03125 q 0 -1.59375 -0.171875 -2.0625 q -0.15625 -0.46875 -0.53125 -0.71875 q -0.375 -0.265625 -0.90625 -0.265625 q -0.6875 0 -1.234375 0.375 q -0.53125 0.359375 -0.734375 0.984375 q -0.1875 0.609375 -0.1875 2.25 l 0 4.46875 l -2.609375 0 l 0 -9.859375 l 2.421875 0 l 0 1.453125 q 1.296875 -1.671875 3.25 -1.671875 q 0.859375 0 1.578125 0.3125 q 0.71875 0.3125 1.078125 0.796875 q 0.359375 0.484375 0.5 1.09375 q 0.15625 0.609375 0.15625 1.75 l 0 6.125 z m 2.192871 0.65625 l 2.96875 0.359375 q 0.078125 0.515625 0.34375 0.703125 q 0.375 0.28125 1.171875 0.28125 q 1.03125 0 1.53125 -0.296875 q 0.34375 -0.203125 0.515625 -0.65625 q 0.125 -0.328125 0.125 -1.203125 l 0 -1.4375 q -1.171875 1.59375 -2.953125 1.59375 q -1.984375 0 -3.140625 -1.671875 q -0.90625 -1.328125 -0.90625 -3.3125 q 0 -2.46875 1.1875 -3.78125 q 1.1875 -1.3125 2.96875 -1.3125 q 1.828125 0 3.015625 1.609375 l 0 -1.390625 l 2.4375 0 l 0 8.84375 q 0 1.75 -0.296875 2.609375 q -0.28125 0.859375 -0.796875 1.34375 q -0.515625 0.5 -1.390625 0.78125 q -0.859375 0.28125 -2.1875 0.28125 q -2.515625 0 -3.5625 -0.859375 q -1.046875 -0.859375 -1.046875 -2.171875 q 0 -0.140625 0.015625 -0.3125 z m 2.328125 -5.78125 q 0 1.5625 0.609375 2.296875 q 0.609375 0.71875 1.5 0.71875 q 0.953125 0 1.609375 -0.734375 q 0.65625 -0.75 0.65625 -2.21875 q 0 -1.53125 -0.640625 -2.265625 q -0.625 -0.75 -1.578125 -0.75 q -0.9375 0 -1.546875 0.734375 q -0.609375 0.71875 -0.609375 2.21875 z" stroke-linecap="round" />
</g>
<g transform="matrix(1 0 0 1 557.49 79)"  >
<path style="stroke: none; stroke-width: 1; stroke-dasharray: none; stroke-linecap: square; stroke-dashoffset: 0; stroke-linejoin: miter; stroke-miterlimit: 10; fill: rgb(201,218,248); fill-rule: nonzero; opacity: 1;"  transform=" translate(-568.99, -96.5)" d="m 510 53 l 117.98425 0 l 0 86.99213 l -117.98425 0 z" stroke-linecap="round" />
</g>
<g transform="matrix(1 0 0 1 557.49 79)"  >
<path style="stroke: rgb(0,0,0); stroke-width: 1; stroke-dasharray: none; stroke-linecap: butt; stroke-dashoffset: 0; stroke-linejoin: round; stroke-miterlimit: 10; fill: none; fill-rule: nonzero; opacity: 1;"  transform=" translate(-568.99, -96.5)" d="m 510 53 l 117.98425 0 l 0 86.99213 l -117.98425 0 z" stroke-linecap="round" />
</g>
<g transform="matrix(1 0 0 1 557.38 77.74)"  >
<path style="stroke: none; stroke-width: 1; stroke-dasharray: none; stroke-linecap: square; stroke-dashoffset: 0; stroke-linejoin: miter; stroke-miterlimit: 10; fill: rgb(0,0,0); fill-rule: nonzero; opacity: 1;"  transform=" translate(-568.89, -95.23)" d="m 532.29553 94.9825 l -2.5625 0.46875 q -0.140625 -0.78125 -0.59375 -1.171875 q -0.453125 -0.390625 -1.1875 -0.390625 q -0.984375 0 -1.5625 0.671875 q -0.578125 0.671875 -0.578125 2.25 q 0 1.765625 0.578125 2.484375 q 0.59375 0.71875 1.59375 0.71875 q 0.75 0 1.21875 -0.421875 q 0.46875 -0.421875 0.671875 -1.453125 l 2.546875 0.4375 q -0.390625 1.765625 -1.53125 2.671875 q -1.125 0.890625 -3.03125 0.890625 q -2.15625 0 -3.453125 -1.359375 q -1.28125 -1.359375 -1.28125 -3.78125 q 0 -2.4375 1.296875 -3.796875 q 1.296875 -1.359375 3.484375 -1.359375 q 1.796875 0 2.859375 0.78125 q 1.0625 0.765625 1.53125 2.359375 z m 1.1882324 1.875 q 0 -1.296875 0.640625 -2.515625 q 0.640625 -1.21875 1.8125 -1.859375 q 1.171875 -0.640625 2.609375 -0.640625 q 2.25 0 3.671875 1.453125 q 1.421875 1.453125 1.421875 3.671875 q 0 2.234375 -1.4375 3.703125 q -1.4375 1.46875 -3.625 1.46875 q -1.359375 0 -2.59375 -0.609375 q -1.21875 -0.609375 -1.859375 -1.796875 q -0.640625 -1.1875 -0.640625 -2.875 z m 2.671875 0.140625 q 0 1.46875 0.6875 2.25 q 0.703125 0.765625 1.71875 0.765625 q 1.015625 0 1.703125 -0.765625 q 0.703125 -0.78125 0.703125 -2.265625 q 0 -1.453125 -0.703125 -2.234375 q -0.6875 -0.78125 -1.703125 -0.78125 q -1.015625 0 -1.71875 0.78125 q -0.6875 0.78125 -0.6875 2.25 z m 18.28656 4.921875 l -2.609375 0 l 0 -5.03125 q 0 -1.59375 -0.171875 -2.0625 q -0.15625 -0.46875 -0.53125 -0.71875 q -0.375 -0.265625 -0.90625 -0.265625 q -0.6875 0 -1.234375 0.375 q -0.53125 0.359375 -0.734375 0.984375 q -0.1875 0.609375 -0.1875 2.25 l 0 4.46875 l -2.609375 0 l 0 -9.859375 l 2.421875 0 l 0 1.453125 q 1.296875 -1.671875 3.25 -1.671875 q 0.859375 0 1.578125 0.3125 q 0.71875 0.3125 1.078125 0.796875 q 0.359375 0.484375 0.5 1.09375 q 0.15625 0.609375 0.15625 1.75 l 0 6.125 z m 11.395996 0 l -2.609375 0 l 0 -5.03125 q 0 -1.59375 -0.171875 -2.0625 q -0.15625 -0.46875 -0.53125 -0.71875 q -0.375 -0.265625 -0.90625 -0.265625 q -0.6875 0 -1.234375 0.375 q -0.53125 0.359375 -0.734375 0.984375 q -0.1875 0.609375 -0.1875 2.25 l 0 4.46875 l -2.609375 0 l 0 -9.859375 l 2.421875 0 l 0 1.453125 q 1.296875 -1.671875 3.25 -1.671875 q 0.859375 0 1.578125 0.3125 q 0.71875 0.3125 1.078125 0.796875 q 0.359375 0.484375 0.5 1.09375 q 0.15625 0.609375 0.15625 1.75 l 0 6.125 z m 8.130371 -3.140625 l 2.609375 0.4375 q -0.5 1.4375 -1.59375 2.1875 q -1.078125 0.734375 -2.703125 0.734375 q -2.5625 0 -3.796875 -1.671875 q -0.96875 -1.34375 -0.96875 -3.40625 q 0 -2.4375 1.265625 -3.828125 q 1.28125 -1.390625 3.25 -1.390625 q 2.1875 0 3.453125 1.453125 q 1.28125 1.453125 1.234375 4.453125 l -6.53125 0 q 0.015625 1.15625 0.625 1.8125 q 0.609375 0.640625 1.5 0.640625 q 0.609375 0 1.03125 -0.328125 q 0.421875 -0.34375 0.625 -1.09375 z m 0.15625 -2.625 q -0.03125 -1.140625 -0.59375 -1.71875 q -0.546875 -0.59375 -1.34375 -0.59375 q -0.859375 0 -1.40625 0.625 q -0.5625 0.609375 -0.546875 1.6875 l 3.890625 0 z m 13.110046 -1.171875 l -2.5625 0.46875 q -0.140625 -0.78125 -0.59375 -1.171875 q -0.453125 -0.390625 -1.1875 -0.390625 q -0.984375 0 -1.5625 0.671875 q -0.578125 0.671875 -0.578125 2.25 q 0 1.765625 0.578125 2.484375 q 0.59375 0.71875 1.59375 0.71875 q 0.75 0 1.21875 -0.421875 q 0.46875 -0.421875 0.671875 -1.453125 l 2.546875 0.4375 q -0.390625 1.765625 -1.53125 2.671875 q -1.125 0.890625 -3.03125 0.890625 q -2.15625 0 -3.453125 -1.359375 q -1.28125 -1.359375 -1.28125 -3.78125 q 0 -2.4375 1.296875 -3.796875 q 1.296875 -1.359375 3.484375 -1.359375 q 1.796875 0 2.859375 0.78125 q 1.0625 0.765625 1.53125 2.359375 z m 6.2976074 -2.921875 l 0 2.078125 l -1.78125 0 l 0 3.984375 q 0 1.203125 0.046875 1.40625 q 0.0625 0.1875 0.234375 0.328125 q 0.1875 0.125 0.453125 0.125 q 0.359375 0 1.046875 -0.25 l 0.21875 2.015625 q -0.90625 0.390625 -2.0625 0.390625 q -0.703125 0 -1.265625 -0.234375 q -0.5625 -0.234375 -0.828125 -0.609375 q -0.265625 -0.375 -0.375 -1.015625 q -0.078125 -0.453125 -0.078125 -1.84375 l 0 -4.296875 l -1.203125 0 l 0 -2.078125 l 1.203125 0 l 0 -1.953125 l 2.609375 -1.515625 l 0 3.46875 l 1.78125 0 z m 7.4002075 6.71875 l 2.609375 0.4375 q -0.5 1.4375 -1.59375 2.1875 q -1.078125 0.734375 -2.703125 0.734375 q -2.5625 0 -3.796875 -1.671875 q -0.96875 -1.34375 -0.96875 -3.40625 q 0 -2.4375 1.265625 -3.828125 q 1.28125 -1.390625 3.25 -1.390625 q 2.1875 0 3.453125 1.453125 q 1.28125 1.453125 1.234375 4.453125 l -6.53125 0 q 0.015625 1.15625 0.625 1.8125 q 0.609375 0.640625 1.5 0.640625 q 0.609375 0 1.03125 -0.328125 q 0.421875 -0.34375 0.625 -1.09375 z m 0.15625 -2.625 q -0.03125 -1.140625 -0.59375 -1.71875 q -0.546875 -0.59375 -1.34375 -0.59375 q -0.859375 0 -1.40625 0.625 q -0.5625 0.609375 -0.546875 1.6875 l 3.890625 0 z m 13.563171 5.765625 l -2.421875 0 l 0 -1.453125 q -0.609375 0.84375 -1.4375 1.265625 q -0.8125 0.40625 -1.640625 0.40625 q -1.703125 0 -2.921875 -1.359375 q -1.203125 -1.375 -1.203125 -3.828125 q 0 -2.5 1.171875 -3.796875 q 1.1875 -1.3125 2.984375 -1.3125 q 1.65625 0 2.859375 1.375 l 0 -4.890625 l 2.609375 0 l 0 13.59375 z m -6.96875 -5.140625 q 0 1.578125 0.4375 2.28125 q 0.640625 1.015625 1.765625 1.015625 q 0.90625 0 1.53125 -0.765625 q 0.625 -0.765625 0.625 -2.28125 q 0 -1.703125 -0.609375 -2.4375 q -0.609375 -0.75 -1.5625 -0.75 q -0.9375 0 -1.5625 0.734375 q -0.625 0.734375 -0.625 2.203125 z" stroke-linecap="round" />
</g>
<g transform="matrix(1 0 0 1 766.49 79)"  >
<path style="stroke: none; stroke-width: 1; stroke-dasharray: none; stroke-linecap: square; stroke-dashoffset: 0; stroke-linejoin: miter; stroke-miterlimit: 10; fill: rgb(201,218,248); fill-rule: nonzero; opacity: 1;"  transform=" translate(-777.99, -96.5)" d="m 719 53 l 117.98425 0 l 0 86.99213 l -117.98425 0 z" stroke-linecap="round" />
</g>
<g transform="matrix(1 0 0 1 766.49 79)"  >
<path style="stroke: rgb(0,0,0); stroke-width: 1; stroke-dasharray: none; stroke-linecap: butt; stroke-dashoffset: 0; stroke-linejoin: round; stroke-miterlimit: 10; fill: none; fill-rule: nonzero; opacity: 1;"  transform=" translate(-777.99, -96.5)" d="m 719 53 l 117.98425 0 l 0 86.99213 l -117.98425 0 z" stroke-linecap="round" />
</g>
<g transform="matrix(1 0 0 1 766.38 79.5)"  >
<path style="stroke: none; stroke-width: 1; stroke-dasharray: none; stroke-linecap: square; stroke-dashoffset: 0; stroke-linejoin: miter; stroke-miterlimit: 10; fill: rgb(0,0,0); fill-rule: nonzero; opacity: 1;"  transform=" translate(-777.89, -97)" d="m 741.29553 94.9825 l -2.5625 0.46875 q -0.140625 -0.78125 -0.59375 -1.171875 q -0.453125 -0.390625 -1.1875 -0.390625 q -0.984375 0 -1.5625 0.671875 q -0.578125 0.671875 -0.578125 2.25 q 0 1.765625 0.578125 2.484375 q 0.59375 0.71875 1.59375 0.71875 q 0.75 0 1.21875 -0.421875 q 0.46875 -0.421875 0.671875 -1.453125 l 2.546875 0.4375 q -0.390625 1.765625 -1.53125 2.671875 q -1.125 0.890625 -3.03125 0.890625 q -2.15625 0 -3.453125 -1.359375 q -1.28125 -1.359375 -1.28125 -3.78125 q 0 -2.4375 1.296875 -3.796875 q 1.296875 -1.359375 3.484375 -1.359375 q 1.796875 0 2.859375 0.78125 q 1.0625 0.765625 1.53125 2.359375 z m 1.1882324 1.875 q 0 -1.296875 0.640625 -2.515625 q 0.640625 -1.21875 1.8125 -1.859375 q 1.171875 -0.640625 2.609375 -0.640625 q 2.25 0 3.671875 1.453125 q 1.421875 1.453125 1.421875 3.671875 q 0 2.234375 -1.4375 3.703125 q -1.4375 1.46875 -3.625 1.46875 q -1.359375 0 -2.59375 -0.609375 q -1.21875 -0.609375 -1.859375 -1.796875 q -0.640625 -1.1875 -0.640625 -2.875 z m 2.671875 0.140625 q 0 1.46875 0.6875 2.25 q 0.703125 0.765625 1.71875 0.765625 q 1.015625 0 1.703125 -0.765625 q 0.703125 -0.78125 0.703125 -2.265625 q 0 -1.453125 -0.703125 -2.234375 q -0.6875 -0.78125 -1.703125 -0.78125 q -1.015625 0 -1.71875 0.78125 q -0.6875 0.78125 -0.6875 2.25 z m 9.13031 -4.9375 l 2.40625 0 l 0 1.359375 q 1.28125 -1.578125 3.0625 -1.578125 q 0.953125 0 1.640625 0.390625 q 0.703125 0.390625 1.140625 1.1875 q 0.65625 -0.796875 1.40625 -1.1875 q 0.75 -0.390625 1.609375 -0.390625 q 1.078125 0 1.828125 0.453125 q 0.75 0.4375 1.125 1.28125 q 0.265625 0.640625 0.265625 2.046875 l 0 6.296875 l -2.609375 0 l 0 -5.625 q 0 -1.46875 -0.265625 -1.90625 q -0.359375 -0.546875 -1.109375 -0.546875 q -0.546875 0 -1.03125 0.34375 q -0.484375 0.328125 -0.703125 0.96875 q -0.203125 0.640625 -0.203125 2.03125 l 0 4.734375 l -2.609375 0 l 0 -5.40625 q 0 -1.4375 -0.140625 -1.84375 q -0.140625 -0.421875 -0.4375 -0.625 q -0.28125 -0.203125 -0.78125 -0.203125 q -0.609375 0 -1.09375 0.328125 q -0.484375 0.3125 -0.6875 0.9375 q -0.203125 0.609375 -0.203125 2.03125 l 0 4.78125 l -2.609375 0 l 0 -9.859375 z m 16.71344 0 l 2.421875 0 l 0 1.453125 q 0.46875 -0.734375 1.28125 -1.203125 q 0.8125 -0.46875 1.796875 -0.46875 q 1.703125 0 2.90625 1.34375 q 1.203125 1.34375 1.203125 3.75 q 0 2.46875 -1.21875 3.84375 q -1.203125 1.359375 -2.921875 1.359375 q -0.8125 0 -1.484375 -0.3125 q -0.65625 -0.328125 -1.390625 -1.125 l 0 4.96875 l -2.59375 0 l 0 -13.609375 z m 2.578125 4.765625 q 0 1.65625 0.65625 2.453125 q 0.65625 0.796875 1.59375 0.796875 q 0.921875 0 1.515625 -0.71875 q 0.609375 -0.734375 0.609375 -2.40625 q 0 -1.546875 -0.625 -2.296875 q -0.625 -0.75 -1.53125 -0.75 q -0.96875 0 -1.59375 0.734375 q -0.625 0.734375 -0.625 2.1875 z m 8.88031 5.09375 l 0 -13.59375 l 2.609375 0 l 0 13.59375 l -2.609375 0 z m 10.886414 -3.140625 l 2.609375 0.4375 q -0.5 1.4375 -1.59375 2.1875 q -1.078125 0.734375 -2.703125 0.734375 q -2.5625 0 -3.796875 -1.671875 q -0.96875 -1.34375 -0.96875 -3.40625 q 0 -2.4375 1.265625 -3.828125 q 1.28125 -1.390625 3.25 -1.390625 q 2.1875 0 3.453125 1.453125 q 1.28125 1.453125 1.234375 4.453125 l -6.53125 0 q 0.015625 1.15625 0.625 1.8125 q 0.609375 0.640625 1.5 0.640625 q 0.609375 0 1.03125 -0.328125 q 0.421875 -0.34375 0.625 -1.09375 z m 0.15625 -2.625 q -0.03125 -1.140625 -0.59375 -1.71875 q -0.546875 -0.59375 -1.34375 -0.59375 q -0.859375 0 -1.40625 0.625 q -0.5625 0.609375 -0.546875 1.6875 l 3.890625 0 z m 9.031982 -4.09375 l 0 2.078125 l -1.78125 0 l 0 3.984375 q 0 1.203125 0.046875 1.40625 q 0.0625 0.1875 0.234375 0.328125 q 0.1875 0.125 0.453125 0.125 q 0.359375 0 1.046875 -0.25 l 0.21875 2.015625 q -0.90625 0.390625 -2.0625 0.390625 q -0.703125 0 -1.265625 -0.234375 q -0.5625 -0.234375 -0.828125 -0.609375 q -0.265625 -0.375 -0.375 -1.015625 q -0.078125 -0.453125 -0.078125 -1.84375 l 0 -4.296875 l -1.203125 0 l 0 -2.078125 l 1.203125 0 l 0 -1.953125 l 2.609375 -1.515625 l 0 3.46875 l 1.78125 0 z m 7.4002075 6.71875 l 2.609375 0.4375 q -0.5 1.4375 -1.59375 2.1875 q -1.078125 0.734375 -2.703125 0.734375 q -2.5625 0 -3.796875 -1.671875 q -0.96875 -1.34375 -0.96875 -3.40625 q 0 -2.4375 1.265625 -3.828125 q 1.28125 -1.390625 3.25 -1.390625 q 2.1875 0 3.453125 1.453125 q 1.28125 1.453125 1.234375 4.453125 l -6.53125 0 q 0.015625 1.15625 0.625 1.8125 q 0.609375 0.640625 1.5 0.640625 q 0.609375 0 1.03125 -0.328125 q 0.421875 -0.34375 0.625 -1.09375 z m 0.15625 -2.625 q -0.03125 -1.140625 -0.59375 -1.71875 q -0.546875 -0.59375 -1.34375 -0.59375 q -0.859375 0 -1.40625 0.625 q -0.5625 0.609375 -0.546875 1.6875 l 3.890625 0 z m 13.563171 5.765625 l -2.421875 0 l 0 -1.453125 q -0.609375 0.84375 -1.4375 1.265625 q -0.8125 0.40625 -1.640625 0.40625 q -1.703125 0 -2.921875 -1.359375 q -1.203125 -1.375 -1.203125 -3.828125 q 0 -2.5 1.171875 -3.796875 q 1.1875 -1.3125 2.984375 -1.3125 q 1.65625 0 2.859375 1.375 l 0 -4.890625 l 2.609375 0 l 0 13.59375 z m -6.96875 -5.140625 q 0 1.578125 0.4375 2.28125 q 0.640625 1.015625 1.765625 1.015625 q 0.90625 0 1.53125 -0.765625 q 0.625 -0.765625 0.625 -2.28125 q 0 -1.703125 -0.609375 -2.4375 q -0.609375 -0.75 -1.5625 -0.75 q -0.9375 0 -1.5625 0.734375 q -0.625 0.734375 -0.625 2.203125 z" stroke-linecap="round" />
</g>
<g transform="matrix(1 0 0 1 557.49 294)"  >
<path style="stroke: none; stroke-width: 1; stroke-dasharray: none; stroke-linecap: square; stroke-dashoffset: 0; stroke-linejoin: miter; stroke-miterlimit: 10; fill: rgb(201,218,248); fill-rule: nonzero; opacity: 1;"  transform=" translate(-568.99, -311.5)" d="m 510 268 l 117.98425 0 l 0 86.99213 l -117.98425 0 z" stroke-linecap="round" />
</g>
<g transform="matrix(1 0 0 1 557.49 294)"  >
<path style="stroke: rgb(0,0,0); stroke-width: 1; stroke-dasharray: none; stroke-linecap: butt; stroke-dashoffset: 0; stroke-linejoin: round; stroke-miterlimit: 10; fill: none; fill-rule: nonzero; opacity: 1;"  transform=" translate(-568.99, -311.5)" d="m 510 268 l 117.98425 0 l 0 86.99213 l -117.98425 0 z" stroke-linecap="round" />
</g>
<g transform="matrix(1 0 0 1 557.43 290.3)"  >
<path style="stroke: none; stroke-width: 1; stroke-dasharray: none; stroke-linecap: square; stroke-dashoffset: 0; stroke-linejoin: miter; stroke-miterlimit: 10; fill: rgb(0,0,0); fill-rule: nonzero; opacity: 1;"  transform=" translate(-568.92, -307.8)" d="m 529.9596 313.08002 l -1.90625 0 l 0 -1.140625 q -0.46875 0.671875 -1.125 1 q -0.640625 0.3125 -1.296875 0.3125 q -1.34375 0 -2.3125 -1.078125 q -0.953125 -1.078125 -0.953125 -3.015625 q 0 -1.96875 0.921875 -3 q 0.9375 -1.03125 2.359375 -1.03125 q 1.3125 0 2.265625 1.078125 l 0 -3.859375 l 2.046875 0 l 0 10.734375 z m -5.484375 -4.0625 q 0 1.25 0.34375 1.8125 q 0.5 0.796875 1.390625 0.796875 q 0.703125 0 1.203125 -0.59375 q 0.5 -0.609375 0.5 -1.8125 q 0 -1.34375 -0.484375 -1.921875 q -0.484375 -0.59375 -1.234375 -0.59375 q -0.734375 0 -1.234375 0.578125 q -0.484375 0.578125 -0.484375 1.734375 z m 7.3120117 -4.765625 l 0 -1.90625 l 2.0625 0 l 0 1.90625 l -2.0625 0 z m 0 8.828125 l 0 -7.78125 l 2.0625 0 l 0 7.78125 l -2.0625 0 z m 3.3532104 -2.21875 l 2.0625 -0.3125 q 0.125 0.59375 0.53125 0.90625 q 0.40625 0.3125 1.125 0.3125 q 0.796875 0 1.203125 -0.296875 q 0.265625 -0.203125 0.265625 -0.546875 q 0 -0.234375 -0.140625 -0.390625 q -0.15625 -0.140625 -0.6875 -0.265625 q -2.484375 -0.546875 -3.15625 -1 q -0.921875 -0.640625 -0.921875 -1.75 q 0 -1.015625 0.796875 -1.703125 q 0.796875 -0.6875 2.46875 -0.6875 q 1.609375 0 2.375 0.515625 q 0.78125 0.515625 1.078125 1.546875 l -1.953125 0.359375 q -0.125 -0.453125 -0.46875 -0.6875 q -0.34375 -0.25 -0.984375 -0.25 q -0.8125 0 -1.171875 0.21875 q -0.234375 0.15625 -0.234375 0.421875 q 0 0.21875 0.203125 0.375 q 0.28125 0.203125 1.921875 0.578125 q 1.65625 0.375 2.296875 0.90625 q 0.65625 0.5625 0.65625 1.53125 q 0 1.078125 -0.90625 1.84375 q -0.890625 0.765625 -2.640625 0.765625 q -1.59375 0 -2.515625 -0.640625 q -0.921875 -0.640625 -1.203125 -1.75 z m 15.651123 -3.265625 l -2.03125 0.375 q -0.09375 -0.609375 -0.46875 -0.90625 q -0.359375 -0.3125 -0.9375 -0.3125 q -0.765625 0 -1.234375 0.53125 q -0.453125 0.515625 -0.453125 1.765625 q 0 1.390625 0.46875 1.96875 q 0.46875 0.5625 1.25 0.5625 q 0.59375 0 0.953125 -0.328125 q 0.375 -0.34375 0.53125 -1.15625 l 2.03125 0.34375 q -0.328125 1.390625 -1.21875 2.109375 q -0.890625 0.703125 -2.390625 0.703125 q -1.703125 0 -2.71875 -1.078125 q -1.015625 -1.078125 -1.015625 -2.96875 q 0 -1.9375 1.015625 -3 q 1.015625 -1.078125 2.75 -1.078125 q 1.421875 0 2.265625 0.609375 q 0.84375 0.609375 1.203125 1.859375 z m 0.88549805 1.484375 q 0 -1.03125 0.5 -1.984375 q 0.515625 -0.953125 1.4375 -1.453125 q 0.9375 -0.515625 2.078125 -0.515625 q 1.765625 0 2.890625 1.15625 q 1.125 1.140625 1.125 2.890625 q 0 1.765625 -1.140625 2.921875 q -1.140625 1.15625 -2.859375 1.15625 q -1.078125 0 -2.046875 -0.484375 q -0.96875 -0.484375 -1.484375 -1.40625 q -0.5 -0.9375 -0.5 -2.28125 z m 2.109375 0.109375 q 0 1.15625 0.546875 1.78125 q 0.5625 0.609375 1.359375 0.609375 q 0.8125 0 1.359375 -0.609375 q 0.546875 -0.625 0.546875 -1.796875 q 0 -1.140625 -0.546875 -1.75 q -0.546875 -0.625 -1.359375 -0.625 q -0.796875 0 -1.359375 0.625 q -0.546875 0.609375 -0.546875 1.765625 z m 14.405762 3.890625 l -2.0625 0 l 0 -3.96875 q 0 -1.265625 -0.140625 -1.625 q -0.125 -0.375 -0.421875 -0.578125 q -0.296875 -0.203125 -0.71875 -0.203125 q -0.53125 0 -0.953125 0.296875 q -0.421875 0.28125 -0.578125 0.765625 q -0.15625 0.484375 -0.15625 1.796875 l 0 3.515625 l -2.0625 0 l 0 -7.78125 l 1.90625 0 l 0 1.140625 q 1.015625 -1.3125 2.5625 -1.3125 q 0.6875 0 1.25 0.25 q 0.5625 0.234375 0.84375 0.625 q 0.296875 0.375 0.40625 0.859375 q 0.125 0.484375 0.125 1.390625 l 0 4.828125 z m 8.952576 0 l -2.0625 0 l 0 -3.96875 q 0 -1.265625 -0.140625 -1.625 q -0.125 -0.375 -0.421875 -0.578125 q -0.296875 -0.203125 -0.71875 -0.203125 q -0.53125 0 -0.953125 0.296875 q -0.421875 0.28125 -0.578125 0.765625 q -0.15625 0.484375 -0.15625 1.796875 l 0 3.515625 l -2.0625 0 l 0 -7.78125 l 1.90625 0 l 0 1.140625 q 1.015625 -1.3125 2.5625 -1.3125 q 0.6875 0 1.25 0.25 q 0.5625 0.234375 0.84375 0.625 q 0.296875 0.375 0.40625 0.859375 q 0.125 0.484375 0.125 1.390625 l 0 4.828125 z m 6.3745117 -2.46875 l 2.046875 0.34375 q -0.390625 1.125 -1.25 1.71875 q -0.84375 0.578125 -2.125 0.578125 q -2.03125 0 -3 -1.328125 q -0.78125 -1.0625 -0.78125 -2.671875 q 0 -1.9375 1.015625 -3.03125 q 1.015625 -1.09375 2.5625 -1.09375 q 1.734375 0 2.734375 1.15625 q 1 1.140625 0.953125 3.5 l -5.15625 0 q 0.03125 0.921875 0.5 1.4375 q 0.484375 0.5 1.1875 0.5 q 0.484375 0 0.8125 -0.265625 q 0.328125 -0.265625 0.5 -0.84375 z m 0.125 -2.09375 q -0.03125 -0.890625 -0.46875 -1.34375 q -0.4375 -0.46875 -1.0625 -0.46875 q -0.671875 0 -1.125 0.484375 q -0.4375 0.5 -0.421875 1.328125 l 3.078125 0 z m 10.307373 -0.921875 l -2.03125 0.375 q -0.09375 -0.609375 -0.46875 -0.90625 q -0.359375 -0.3125 -0.9375 -0.3125 q -0.765625 0 -1.234375 0.53125 q -0.453125 0.515625 -0.453125 1.765625 q 0 1.390625 0.46875 1.96875 q 0.46875 0.5625 1.25 0.5625 q 0.59375 0 0.953125 -0.328125 q 0.375 -0.34375 0.53125 -1.15625 l 2.03125 0.34375 q -0.328125 1.390625 -1.21875 2.109375 q -0.890625 0.703125 -2.390625 0.703125 q -1.703125 0 -2.71875 -1.078125 q -1.015625 -1.078125 -1.015625 -2.96875 q 0 -1.9375 1.015625 -3 q 1.015625 -1.078125 2.75 -1.078125 q 1.421875 0 2.265625 0.609375 q 0.84375 0.609375 1.203125 1.859375 z m 4.932373 -2.296875 l 0 1.640625 l -1.40625 0 l 0 3.140625 q 0 0.953125 0.03125 1.109375 q 0.046875 0.15625 0.1875 0.265625 q 0.15625 0.09375 0.359375 0.09375 q 0.28125 0 0.828125 -0.203125 l 0.171875 1.609375 q -0.71875 0.296875 -1.625 0.296875 q -0.5625 0 -1.015625 -0.1875 q -0.4375 -0.1875 -0.65625 -0.484375 q -0.203125 -0.296875 -0.28125 -0.796875 q -0.0625 -0.359375 -0.0625 -1.453125 l 0 -3.390625 l -0.9375 0 l 0 -1.640625 l 0.9375 0 l 0 -1.546875 l 2.0625 -1.203125 l 0 2.75 l 1.40625 0 z m 5.818115 5.3125 l 2.046875 0.34375 q -0.390625 1.125 -1.25 1.71875 q -0.84375 0.578125 -2.125 0.578125 q -2.03125 0 -3 -1.328125 q -0.78125 -1.0625 -0.78125 -2.671875 q 0 -1.9375 1.015625 -3.03125 q 1.015625 -1.09375 2.5625 -1.09375 q 1.734375 0 2.734375 1.15625 q 1 1.140625 0.953125 3.5 l -5.15625 0 q 0.03125 0.921875 0.5 1.4375 q 0.484375 0.5 1.1875 0.5 q 0.484375 0 0.8125 -0.265625 q 0.328125 -0.265625 0.5 -0.84375 z m 0.125 -2.09375 q -0.03125 -0.890625 -0.46875 -1.34375 q -0.4375 -0.46875 -1.0625 -0.46875 q -0.671875 0 -1.125 0.484375 q -0.4375 0.5 -0.421875 1.328125 l 3.078125 0 z m 10.651123 4.5625 l -1.90625 0 l 0 -1.140625 q -0.46875 0.671875 -1.125 1 q -0.640625 0.3125 -1.296875 0.3125 q -1.34375 0 -2.3125 -1.078125 q -0.953125 -1.078125 -0.953125 -3.015625 q 0 -1.96875 0.921875 -3 q 0.9375 -1.03125 2.359375 -1.03125 q 1.3125 0 2.265625 1.078125 l 0 -3.859375 l 2.046875 0 l 0 10.734375 z m -5.484375 -4.0625 q 0 1.25 0.34375 1.8125 q 0.5 0.796875 1.390625 0.796875 q 0.703125 0 1.203125 -0.59375 q 0.5 -0.609375 0.5 -1.8125 q 0 -1.34375 -0.484375 -1.921875 q -0.484375 -0.59375 -1.234375 -0.59375 q -0.734375 0 -1.234375 0.578125 q -0.484375 0.578125 -0.484375 1.734375 z" stroke-linecap="round" />
</g>
<g transform="matrix(1 0 0 1 326.49 294)"  >
<path style="stroke: none; stroke-width: 1; stroke-dasharray: none; stroke-linecap: square; stroke-dashoffset: 0; stroke-linejoin: miter; stroke-miterlimit: 10; fill: rgb(201,218,248); fill-rule: nonzero; opacity: 1;"  transform=" translate(-337.99, -311.5)" d="m 279 268 l 117.98425 0 l 0 86.99213 l -117.98425 0 z" stroke-linecap="round" />
</g>
<g transform="matrix(1 0 0 1 326.49 294)"  >
<path style="stroke: rgb(0,0,0); stroke-width: 1; stroke-dasharray: none; stroke-linecap: butt; stroke-dashoffset: 0; stroke-linejoin: round; stroke-miterlimit: 10; fill: none; fill-rule: nonzero; opacity: 1;"  transform=" translate(-337.99, -311.5)" d="m 279 268 l 117.98425 0 l 0 86.99213 l -117.98425 0 z" stroke-linecap="round" />
</g>
<g transform="matrix(1 0 0 1 326.09 291.12)"  >
<path style="stroke: none; stroke-width: 1; stroke-dasharray: none; stroke-linecap: square; stroke-dashoffset: 0; stroke-linejoin: miter; stroke-miterlimit: 10; fill: rgb(0,0,0); fill-rule: nonzero; opacity: 1;"  transform=" translate(-337.58, -308.63)" d="m 317.2851 306.0631 l 1.21875 0 l 0 -0.625 q 0 -1.046875 0.21875 -1.5625 q 0.234375 -0.515625 0.828125 -0.84375 q 0.59375 -0.328125 1.515625 -0.328125 q 0.9375 0 1.828125 0.28125 l -0.296875 1.53125 q -0.515625 -0.125 -1 -0.125 q -0.484375 0 -0.6875 0.234375 q -0.203125 0.21875 -0.203125 0.84375 l 0 0.59375 l 1.640625 0 l 0 1.71875 l -1.640625 0 l 0 6.578125 l -2.203125 0 l 0 -6.578125 l -1.21875 0 l 0 -1.71875 z m 7.9375 2.53125 l -2 -0.359375 q 0.34375 -1.203125 1.15625 -1.78125 q 0.828125 -0.578125 2.4375 -0.578125 q 1.46875 0 2.1875 0.34375 q 0.71875 0.34375 1.015625 0.890625 q 0.296875 0.53125 0.296875 1.953125 l -0.03125 2.5625 q 0 1.09375 0.109375 1.625 q 0.109375 0.515625 0.390625 1.109375 l -2.171875 0 q -0.078125 -0.21875 -0.203125 -0.65625 q -0.0625 -0.1875 -0.078125 -0.25 q -0.5625 0.546875 -1.203125 0.828125 q -0.640625 0.265625 -1.375 0.265625 q -1.28125 0 -2.015625 -0.6875 q -0.734375 -0.703125 -0.734375 -1.765625 q 0 -0.703125 0.328125 -1.25 q 0.34375 -0.5625 0.9375 -0.84375 q 0.609375 -0.296875 1.75 -0.515625 q 1.546875 -0.296875 2.140625 -0.546875 l 0 -0.21875 q 0 -0.625 -0.3125 -0.890625 q -0.3125 -0.28125 -1.1875 -0.28125 q -0.578125 0 -0.90625 0.234375 q -0.328125 0.234375 -0.53125 0.8125 z m 2.9375 1.78125 q -0.421875 0.140625 -1.34375 0.34375 q -0.90625 0.1875 -1.1875 0.375 q -0.4375 0.296875 -0.4375 0.765625 q 0 0.46875 0.34375 0.8125 q 0.34375 0.328125 0.875 0.328125 q 0.59375 0 1.140625 -0.390625 q 0.390625 -0.296875 0.515625 -0.734375 q 0.09375 -0.28125 0.09375 -1.0625 l 0 -0.4375 z m 4.3203125 -5.4375 l 0 -2.03125 l 2.1875 0 l 0 2.03125 l -2.1875 0 z m 0 9.421875 l 0 -8.296875 l 2.1875 0 l 0 8.296875 l -2.1875 0 z m 4.4453125 0 l 0 -11.453125 l 2.1875 0 l 0 11.453125 l -2.1875 0 z m 9.2421875 -2.640625 l 2.1875 0.359375 q -0.421875 1.203125 -1.328125 1.84375 q -0.90625 0.625 -2.28125 0.625 q -2.15625 0 -3.203125 -1.421875 q -0.8125 -1.125 -0.8125 -2.859375 q 0 -2.0625 1.078125 -3.21875 q 1.078125 -1.171875 2.71875 -1.171875 q 1.859375 0 2.921875 1.21875 q 1.078125 1.21875 1.03125 3.75 l -5.5 0 q 0.015625 0.96875 0.515625 1.515625 q 0.515625 0.546875 1.28125 0.546875 q 0.515625 0 0.859375 -0.28125 q 0.359375 -0.28125 0.53125 -0.90625 z m 0.125 -2.21875 q -0.015625 -0.953125 -0.484375 -1.453125 q -0.46875 -0.5 -1.140625 -0.5 q -0.71875 0 -1.1875 0.53125 q -0.46875 0.515625 -0.46875 1.421875 l 3.28125 0 z m 11.5859375 4.859375 l -2.046875 0 l 0 -1.21875 q -0.5 0.703125 -1.203125 1.0625 q -0.6875 0.34375 -1.390625 0.34375 q -1.421875 0 -2.453125 -1.15625 q -1.015625 -1.15625 -1.015625 -3.21875 q 0 -2.109375 0.984375 -3.203125 q 1 -1.09375 2.515625 -1.09375 q 1.390625 0 2.40625 1.15625 l 0 -4.125 l 2.203125 0 l 0 11.453125 z m -5.859375 -4.328125 q 0 1.328125 0.359375 1.921875 q 0.53125 0.859375 1.484375 0.859375 q 0.765625 0 1.296875 -0.640625 q 0.53125 -0.65625 0.53125 -1.9375 q 0 -1.421875 -0.515625 -2.046875 q -0.515625 -0.640625 -1.328125 -0.640625 q -0.78125 0 -1.3125 0.625 q -0.515625 0.625 -0.515625 1.859375 z" stroke-linecap="round" />
</g>
<g transform="matrix(1 0 0 1 780.49 294)"  >
<path style="stroke: none; stroke-width: 1; stroke-dasharray: none; stroke-linecap: square; stroke-dashoffset: 0; stroke-linejoin: miter; stroke-miterlimit: 10; fill: rgb(201,218,248); fill-rule: nonzero; opacity: 1;"  transform=" translate(-791.99, -311.5)" d="m 733 268 l 117.98425 0 l 0 86.99213 l -117.98425 0 z" stroke-linecap="round" />
</g>
<g transform="matrix(1 0 0 1 780.49 294)"  >
<path style="stroke: rgb(0,0,0); stroke-width: 1; stroke-dasharray: none; stroke-linecap: butt; stroke-dashoffset: 0; stroke-linejoin: round; stroke-miterlimit: 10; fill: none; fill-rule: nonzero; opacity: 1;"  transform=" translate(-791.99, -311.5)" d="m 733 268 l 117.98425 0 l 0 86.99213 l -117.98425 0 z" stroke-linecap="round" />
</g>
<g transform="matrix(1 0 0 1 775.5 270.74)"  >
<path style="stroke: none; stroke-width: 1; stroke-dasharray: none; stroke-linecap: square; stroke-dashoffset: 0; stroke-linejoin: miter; stroke-miterlimit: 10; fill: rgb(0,0,0); fill-rule: nonzero; opacity: 1;"  transform=" translate(-787, -288.23)" d="m 767.50305 287.98248 l -2.5625 0.46875 q -0.140625 -0.78125 -0.59375 -1.171875 q -0.453125 -0.390625 -1.1875 -0.390625 q -0.984375 0 -1.5625 0.671875 q -0.578125 0.671875 -0.578125 2.25 q 0 1.765625 0.578125 2.484375 q 0.59375 0.71875 1.59375 0.71875 q 0.75 0 1.21875 -0.421875 q 0.46875 -0.421875 0.671875 -1.453125 l 2.546875 0.4375 q -0.390625 1.765625 -1.53125 2.671875 q -1.125 0.890625 -3.03125 0.890625 q -2.15625 0 -3.453125 -1.359375 q -1.28125 -1.359375 -1.28125 -3.78125 q 0 -2.4375 1.296875 -3.796875 q 1.296875 -1.359375 3.484375 -1.359375 q 1.796875 0 2.859375 0.78125 q 1.0625 0.765625 1.53125 2.359375 z m 1.7819824 6.9375 l 0 -13.59375 l 2.609375 0 l 0 13.59375 l -2.609375 0 z m 4.5895386 -5.0625 q 0 -1.296875 0.640625 -2.515625 q 0.640625 -1.21875 1.8125 -1.859375 q 1.171875 -0.640625 2.609375 -0.640625 q 2.25 0 3.671875 1.453125 q 1.421875 1.453125 1.421875 3.671875 q 0 2.234375 -1.4375 3.703125 q -1.4375 1.46875 -3.625 1.46875 q -1.359375 0 -2.59375 -0.609375 q -1.21875 -0.609375 -1.859375 -1.796875 q -0.640625 -1.1875 -0.640625 -2.875 z m 2.671875 0.140625 q 0 1.46875 0.6875 2.25 q 0.703125 0.765625 1.71875 0.765625 q 1.015625 0 1.703125 -0.765625 q 0.703125 -0.78125 0.703125 -2.265625 q 0 -1.453125 -0.703125 -2.234375 q -0.6875 -0.78125 -1.703125 -0.78125 q -1.015625 0 -1.71875 0.78125 q -0.6875 0.78125 -0.6875 2.25 z m 8.41156 2.109375 l 2.609375 -0.390625 q 0.171875 0.75 0.671875 1.15625 q 0.515625 0.390625 1.4375 0.390625 q 1 0 1.515625 -0.375 q 0.34375 -0.265625 0.34375 -0.703125 q 0 -0.296875 -0.1875 -0.484375 q -0.1875 -0.1875 -0.875 -0.34375 q -3.140625 -0.703125 -4 -1.265625 q -1.15625 -0.796875 -1.15625 -2.21875 q 0 -1.28125 1 -2.15625 q 1.015625 -0.875 3.140625 -0.875 q 2.03125 0 3 0.65625 q 0.984375 0.65625 1.359375 1.953125 l -2.453125 0.453125 q -0.15625 -0.578125 -0.609375 -0.875 q -0.4375 -0.3125 -1.25 -0.3125 q -1.03125 0 -1.46875 0.296875 q -0.296875 0.203125 -0.296875 0.515625 q 0 0.28125 0.25 0.484375 q 0.359375 0.25 2.4375 0.734375 q 2.078125 0.46875 2.90625 1.15625 q 0.828125 0.6875 0.828125 1.9375 q 0 1.359375 -1.140625 2.328125 q -1.125 0.96875 -3.34375 0.96875 q -2.015625 0 -3.1875 -0.8125 q -1.171875 -0.8125 -1.53125 -2.21875 z m 16.985107 -0.328125 l 2.609375 0.4375 q -0.5 1.4375 -1.59375 2.1875 q -1.078125 0.734375 -2.703125 0.734375 q -2.5625 0 -3.796875 -1.671875 q -0.96875 -1.34375 -0.96875 -3.40625 q 0 -2.4375 1.265625 -3.828125 q 1.28125 -1.390625 3.25 -1.390625 q 2.1875 0 3.453125 1.453125 q 1.28125 1.453125 1.234375 4.453125 l -6.53125 0 q 0.015625 1.15625 0.625 1.8125 q 0.609375 0.640625 1.5 0.640625 q 0.609375 0 1.03125 -0.328125 q 0.421875 -0.34375 0.625 -1.09375 z m 0.15625 -2.625 q -0.03125 -1.140625 -0.59375 -1.71875 q -0.546875 -0.59375 -1.34375 -0.59375 q -0.859375 0 -1.40625 0.625 q -0.5625 0.609375 -0.546875 1.6875 l 3.890625 0 z m 13.563232 5.765625 l -2.421875 0 l 0 -1.453125 q -0.609375 0.84375 -1.4375 1.265625 q -0.8125 0.40625 -1.640625 0.40625 q -1.703125 0 -2.921875 -1.359375 q -1.203125 -1.375 -1.203125 -3.828125 q 0 -2.5 1.171875 -3.796875 q 1.1875 -1.3125 2.984375 -1.3125 q 1.65625 0 2.859375 1.375 l 0 -4.890625 l 2.609375 0 l 0 13.59375 z m -6.96875 -5.140625 q 0 1.578125 0.4375 2.28125 q 0.640625 1.015625 1.765625 1.015625 q 0.90625 0 1.53125 -0.765625 q 0.625 -0.765625 0.625 -2.28125 q 0 -1.703125 -0.609375 -2.4375 q -0.609375 -0.75 -1.5625 -0.75 q -0.9375 0 -1.5625 0.734375 q -0.625 0.734375 -0.625 2.203125 z" stroke-linecap="round" />
</g>
<g transform="matrix(1 0 0 1 780.48 290.93)"  >
<path style="stroke: none; stroke-width: 1; stroke-dasharray: none; stroke-linecap: square; stroke-dashoffset: 0; stroke-linejoin: miter; stroke-miterlimit: 10; fill: rgb(0,0,0); fill-rule: nonzero; opacity: 1;"  transform=" translate(-791.98, -308.43)" d="m 762.54614 314.53436 l -1.21875 0 q -0.984375 -1.46875 -1.5 -3.046875 q -0.5 -1.578125 -0.5 -3.0625 q 0 -1.828125 0.640625 -3.46875 q 0.546875 -1.421875 1.375 -2.625 l 1.21875 0 q -0.859375 1.921875 -1.1875 3.28125 q -0.328125 1.34375 -0.328125 2.859375 q 0 1.03125 0.1875 2.125 q 0.203125 1.09375 0.53125 2.078125 q 0.21875 0.65625 0.78125 1.859375 z m 3.1883545 -2.734375 l -1.78125 0 l 0 -6.734375 l 1.65625 0 l 0 0.953125 q 0.421875 -0.6875 0.765625 -0.890625 q 0.34375 -0.21875 0.765625 -0.21875 q 0.609375 0 1.171875 0.328125 l -0.546875 1.5625 q -0.453125 -0.296875 -0.84375 -0.296875 q -0.375 0 -0.640625 0.21875 q -0.25 0.203125 -0.40625 0.75 q -0.140625 0.53125 -0.140625 2.25 l 0 2.078125 z m 7.3898926 -2.140625 l 1.765625 0.296875 q -0.34375 0.96875 -1.078125 1.484375 q -0.734375 0.515625 -1.84375 0.515625 q -1.765625 0 -2.609375 -1.15625 q -0.671875 -0.921875 -0.671875 -2.3125 q 0 -1.6875 0.875 -2.625 q 0.890625 -0.953125 2.21875 -0.953125 q 1.515625 0 2.375 1 q 0.875 0.984375 0.828125 3.03125 l -4.46875 0 q 0.03125 0.796875 0.4375 1.234375 q 0.40625 0.4375 1.03125 0.4375 q 0.421875 0 0.703125 -0.21875 q 0.28125 -0.234375 0.4375 -0.734375 z m 0.09375 -1.8125 q -0.015625 -0.765625 -0.40625 -1.171875 q -0.375 -0.40625 -0.921875 -0.40625 q -0.578125 0 -0.96875 0.421875 q -0.375 0.4375 -0.375 1.15625 l 2.671875 0 z m 4.7406006 -0.734375 l -1.625 -0.296875 q 0.28125 -0.96875 0.9375 -1.4375 q 0.671875 -0.46875 1.984375 -0.46875 q 1.203125 0 1.78125 0.28125 q 0.578125 0.28125 0.8125 0.71875 q 0.25 0.4375 0.25 1.59375 l -0.015625 2.078125 q 0 0.890625 0.078125 1.3125 q 0.09375 0.421875 0.328125 0.90625 l -1.765625 0 q -0.078125 -0.171875 -0.171875 -0.53125 q -0.046875 -0.15625 -0.0625 -0.203125 q -0.46875 0.4375 -0.984375 0.671875 q -0.515625 0.21875 -1.109375 0.21875 q -1.046875 0 -1.640625 -0.5625 q -0.59375 -0.578125 -0.59375 -1.4375 q 0 -0.5625 0.265625 -1.015625 q 0.28125 -0.453125 0.765625 -0.6875 q 0.5 -0.234375 1.421875 -0.421875 q 1.25 -0.234375 1.734375 -0.4375 l 0 -0.171875 q 0 -0.515625 -0.265625 -0.734375 q -0.25 -0.21875 -0.953125 -0.21875 q -0.46875 0 -0.734375 0.1875 q -0.265625 0.1875 -0.4375 0.65625 z m 2.390625 1.453125 q -0.34375 0.109375 -1.09375 0.265625 q -0.734375 0.15625 -0.96875 0.3125 q -0.34375 0.25 -0.34375 0.625 q 0 0.375 0.28125 0.65625 q 0.28125 0.265625 0.703125 0.265625 q 0.484375 0 0.921875 -0.3125 q 0.328125 -0.234375 0.421875 -0.59375 q 0.078125 -0.21875 0.078125 -0.859375 l 0 -0.359375 z m 9.568726 -1.515625 l -1.765625 0.3125 q -0.078125 -0.515625 -0.40625 -0.78125 q -0.3125 -0.265625 -0.8125 -0.265625 q -0.65625 0 -1.0625 0.453125 q -0.390625 0.453125 -0.390625 1.546875 q 0 1.1875 0.40625 1.6875 q 0.40625 0.5 1.078125 0.5 q 0.515625 0 0.828125 -0.28125 q 0.328125 -0.296875 0.453125 -1 l 1.765625 0.296875 q -0.28125 1.203125 -1.0625 1.828125 q -0.765625 0.609375 -2.0625 0.609375 q -1.484375 0 -2.359375 -0.9375 q -0.875 -0.9375 -0.875 -2.578125 q 0 -1.671875 0.875 -2.59375 q 0.875 -0.9375 2.390625 -0.9375 q 1.234375 0 1.953125 0.53125 q 0.734375 0.53125 1.046875 1.609375 z m 3.3031006 -4.5625 l 0 3.421875 q 0.875 -1 2.078125 -1 q 0.609375 0 1.09375 0.234375 q 0.5 0.21875 0.75 0.578125 q 0.25 0.359375 0.34375 0.796875 q 0.09375 0.421875 0.09375 1.328125 l 0 3.953125 l -1.78125 0 l 0 -3.5625 q 0 -1.0625 -0.109375 -1.34375 q -0.09375 -0.28125 -0.359375 -0.453125 q -0.25 -0.171875 -0.640625 -0.171875 q -0.4375 0 -0.796875 0.21875 q -0.34375 0.21875 -0.515625 0.65625 q -0.15625 0.421875 -0.15625 1.28125 l 0 3.375 l -1.78125 0 l 0 -9.3125 l 1.78125 0 z m 7.7038574 4.625 l -1.625 -0.296875 q 0.28125 -0.96875 0.9375 -1.4375 q 0.671875 -0.46875 1.984375 -0.46875 q 1.203125 0 1.78125 0.28125 q 0.578125 0.28125 0.8125 0.71875 q 0.25 0.4375 0.25 1.59375 l -0.015625 2.078125 q 0 0.890625 0.078125 1.3125 q 0.09375 0.421875 0.328125 0.90625 l -1.765625 0 q -0.078125 -0.171875 -0.171875 -0.53125 q -0.046875 -0.15625 -0.0625 -0.203125 q -0.46875 0.4375 -0.984375 0.671875 q -0.515625 0.21875 -1.109375 0.21875 q -1.046875 0 -1.640625 -0.5625 q -0.59375 -0.578125 -0.59375 -1.4375 q 0 -0.5625 0.265625 -1.015625 q 0.28125 -0.453125 0.765625 -0.6875 q 0.5 -0.234375 1.421875 -0.421875 q 1.25 -0.234375 1.734375 -0.4375 l 0 -0.171875 q 0 -0.515625 -0.265625 -0.734375 q -0.25 -0.21875 -0.953125 -0.21875 q -0.46875 0 -0.734375 0.1875 q -0.265625 0.1875 -0.4375 0.65625 z m 2.390625 1.453125 q -0.34375 0.109375 -1.09375 0.265625 q -0.734375 0.15625 -0.96875 0.3125 q -0.34375 0.25 -0.34375 0.625 q 0 0.375 0.28125 0.65625 q 0.28125 0.265625 0.703125 0.265625 q 0.484375 0 0.921875 -0.3125 q 0.328125 -0.234375 0.421875 -0.59375 q 0.078125 -0.21875 0.078125 -0.859375 l 0 -0.359375 z m 3.6156006 3.234375 l 0 -9.3125 l 1.78125 0 l 0 3.359375 q 0.828125 -0.9375 1.953125 -0.9375 q 1.234375 0 2.03125 0.890625 q 0.8125 0.890625 0.8125 2.5625 q 0 1.71875 -0.828125 2.65625 q -0.8125 0.9375 -1.984375 0.9375 q -0.578125 0 -1.140625 -0.28125 q -0.5625 -0.296875 -0.96875 -0.859375 l 0 0.984375 l -1.65625 0 z m 1.765625 -3.515625 q 0 1.046875 0.328125 1.546875 q 0.46875 0.71875 1.234375 0.71875 q 0.59375 0 1 -0.5 q 0.421875 -0.515625 0.421875 -1.609375 q 0 -1.140625 -0.421875 -1.65625 q -0.40625 -0.515625 -1.0625 -0.515625 q -0.640625 0 -1.078125 0.5 q -0.421875 0.5 -0.421875 1.515625 z m 6.4538574 3.515625 l 0 -9.3125 l 1.78125 0 l 0 9.3125 l -1.78125 0 z m 7.609253 -2.140625 l 1.765625 0.296875 q -0.34375 0.96875 -1.078125 1.484375 q -0.734375 0.515625 -1.84375 0.515625 q -1.765625 0 -2.609375 -1.15625 q -0.671875 -0.921875 -0.671875 -2.3125 q 0 -1.6875 0.875 -2.625 q 0.890625 -0.953125 2.21875 -0.953125 q 1.515625 0 2.375 1 q 0.875 0.984375 0.828125 3.03125 l -4.46875 0 q 0.03125 0.796875 0.4375 1.234375 q 0.40625 0.4375 1.03125 0.4375 q 0.421875 0 0.703125 -0.21875 q 0.28125 -0.234375 0.4375 -0.734375 z m 0.09375 -1.8125 q -0.015625 -0.765625 -0.40625 -1.171875 q -0.375 -0.40625 -0.921875 -0.40625 q -0.578125 0 -0.96875 0.421875 q -0.375 0.4375 -0.375 1.15625 l 2.671875 0 z" stroke-linecap="round" />
</g>
<g transform="matrix(1 0 0 1 780.18 306.93)"  >
<path style="stroke: none; stroke-width: 1; stroke-dasharray: none; stroke-linecap: square; stroke-dashoffset: 0; stroke-linejoin: miter; stroke-miterlimit: 10; fill: rgb(0,0,0); fill-rule: nonzero; opacity: 1;"  transform=" translate(-791.68, -324.43)" d="m 744.3773 321.0656 l 0.984375 0 l 0 -0.515625 q 0 -0.84375 0.171875 -1.265625 q 0.1875 -0.421875 0.671875 -0.6875 q 0.484375 -0.265625 1.234375 -0.265625 q 0.765625 0 1.484375 0.234375 l -0.234375 1.25 q -0.421875 -0.109375 -0.8125 -0.109375 q -0.390625 0 -0.5625 0.1875 q -0.171875 0.171875 -0.171875 0.6875 l 0 0.484375 l 1.34375 0 l 0 1.390625 l -1.34375 0 l 0 5.34375 l -1.78125 0 l 0 -5.34375 l -0.984375 0 l 0 -1.390625 z m 6.9227295 6.734375 l -1.78125 0 l 0 -6.734375 l 1.65625 0 l 0 0.953125 q 0.421875 -0.6875 0.765625 -0.890625 q 0.34375 -0.21875 0.765625 -0.21875 q 0.609375 0 1.171875 0.328125 l -0.546875 1.5625 q -0.453125 -0.296875 -0.84375 -0.296875 q -0.375 0 -0.640625 0.21875 q -0.25 0.203125 -0.40625 0.75 q -0.140625 0.53125 -0.140625 2.25 l 0 2.078125 z m 3.0617676 -3.46875 q 0 -0.890625 0.4375 -1.71875 q 0.4375 -0.828125 1.234375 -1.265625 q 0.8125 -0.4375 1.8125 -0.4375 q 1.515625 0 2.5 1 q 0.984375 0.984375 0.984375 2.5 q 0 1.53125 -1 2.546875 q -0.984375 1 -2.484375 1 q -0.921875 0 -1.765625 -0.421875 q -0.84375 -0.421875 -1.28125 -1.21875 q -0.4375 -0.8125 -0.4375 -1.984375 z m 1.828125 0.09375 q 0 1 0.46875 1.546875 q 0.484375 0.53125 1.1875 0.53125 q 0.703125 0 1.171875 -0.53125 q 0.46875 -0.546875 0.46875 -1.5625 q 0 -0.984375 -0.46875 -1.515625 q -0.46875 -0.53125 -1.171875 -0.53125 q -0.703125 0 -1.1875 0.53125 q -0.46875 0.53125 -0.46875 1.53125 z m 6.5944824 -3.359375 l 1.640625 0 l 0 0.90625 q 0.890625 -1.0625 2.109375 -1.0625 q 0.640625 0 1.109375 0.265625 q 0.484375 0.265625 0.796875 0.796875 q 0.4375 -0.53125 0.953125 -0.796875 q 0.515625 -0.265625 1.09375 -0.265625 q 0.75 0 1.265625 0.296875 q 0.515625 0.296875 0.765625 0.890625 q 0.1875 0.421875 0.1875 1.390625 l 0 4.3125 l -1.78125 0 l 0 -3.859375 q 0 -1 -0.1875 -1.28125 q -0.25 -0.390625 -0.765625 -0.390625 q -0.375 0 -0.703125 0.234375 q -0.328125 0.21875 -0.484375 0.671875 q -0.140625 0.4375 -0.140625 1.390625 l 0 3.234375 l -1.78125 0 l 0 -3.6875 q 0 -0.984375 -0.09375 -1.265625 q -0.09375 -0.296875 -0.296875 -0.4375 q -0.203125 -0.140625 -0.546875 -0.140625 q -0.40625 0 -0.734375 0.234375 q -0.328125 0.21875 -0.484375 0.640625 q -0.140625 0.40625 -0.140625 1.375 l 0 3.28125 l -1.78125 0 l 0 -6.734375 z m 17.022583 2.046875 l -1.625 -0.296875 q 0.28125 -0.96875 0.9375 -1.4375 q 0.671875 -0.46875 1.984375 -0.46875 q 1.203125 0 1.78125 0.28125 q 0.578125 0.28125 0.8125 0.71875 q 0.25 0.4375 0.25 1.59375 l -0.015625 2.078125 q 0 0.890625 0.078125 1.3125 q 0.09375 0.421875 0.328125 0.90625 l -1.765625 0 q -0.078125 -0.171875 -0.171875 -0.53125 q -0.046875 -0.15625 -0.0625 -0.203125 q -0.46875 0.4375 -0.984375 0.671875 q -0.515625 0.21875 -1.109375 0.21875 q -1.046875 0 -1.640625 -0.5625 q -0.59375 -0.578125 -0.59375 -1.4375 q 0 -0.5625 0.265625 -1.015625 q 0.28125 -0.453125 0.765625 -0.6875 q 0.5 -0.234375 1.421875 -0.421875 q 1.25 -0.234375 1.734375 -0.4375 l 0 -0.171875 q 0 -0.515625 -0.265625 -0.734375 q -0.25 -0.21875 -0.953125 -0.21875 q -0.46875 0 -0.734375 0.1875 q -0.265625 0.1875 -0.4375 0.65625 z m 2.390625 1.453125 q -0.34375 0.109375 -1.09375 0.265625 q -0.734375 0.15625 -0.96875 0.3125 q -0.34375 0.25 -0.34375 0.625 q 0 0.375 0.28125 0.65625 q 0.28125 0.265625 0.703125 0.265625 q 0.484375 0 0.921875 -0.3125 q 0.328125 -0.234375 0.421875 -0.59375 q 0.078125 -0.21875 0.078125 -0.859375 l 0 -0.359375 z m 9.818726 3.234375 l -1.78125 0 l 0 -3.4375 q 0 -1.09375 -0.125 -1.40625 q -0.109375 -0.328125 -0.375 -0.5 q -0.25 -0.1875 -0.609375 -0.1875 q -0.453125 0 -0.828125 0.265625 q -0.359375 0.25 -0.5 0.671875 q -0.140625 0.40625 -0.140625 1.546875 l 0 3.046875 l -1.78125 0 l 0 -6.734375 l 1.65625 0 l 0 0.984375 q 0.875 -1.140625 2.21875 -1.140625 q 0.59375 0 1.078125 0.21875 q 0.484375 0.203125 0.734375 0.53125 q 0.265625 0.328125 0.359375 0.75 q 0.09375 0.421875 0.09375 1.203125 l 0 4.1875 z m 1.1726074 -6.734375 l 1.890625 0 l 1.609375 4.78125 l 1.578125 -4.78125 l 1.84375 0 l -2.375 6.484375 l -0.421875 1.171875 q -0.234375 0.59375 -0.453125 0.90625 q -0.203125 0.3125 -0.484375 0.5 q -0.28125 0.1875 -0.6875 0.296875 q -0.390625 0.109375 -0.90625 0.109375 q -0.515625 0 -1.015625 -0.109375 l -0.15625 -1.390625 q 0.421875 0.078125 0.765625 0.078125 q 0.609375 0 0.90625 -0.375 q 0.3125 -0.359375 0.46875 -0.921875 l -2.5625 -6.75 z m 11.3342285 4.8125 l 1.78125 -0.28125 q 0.109375 0.53125 0.453125 0.796875 q 0.359375 0.265625 0.984375 0.265625 q 0.703125 0 1.046875 -0.25 q 0.234375 -0.171875 0.234375 -0.46875 q 0 -0.203125 -0.125 -0.34375 q -0.140625 -0.125 -0.59375 -0.234375 q -2.15625 -0.46875 -2.734375 -0.875 q -0.8125 -0.546875 -0.8125 -1.515625 q 0 -0.875 0.6875 -1.46875 q 0.703125 -0.59375 2.15625 -0.59375 q 1.390625 0 2.0625 0.453125 q 0.671875 0.4375 0.921875 1.328125 l -1.6875 0.3125 q -0.109375 -0.390625 -0.40625 -0.59375 q -0.296875 -0.21875 -0.859375 -0.21875 q -0.703125 0 -1.015625 0.1875 q -0.203125 0.140625 -0.203125 0.375 q 0 0.1875 0.1875 0.3125 q 0.234375 0.1875 1.65625 0.515625 q 1.4375 0.3125 2 0.78125 q 0.5625 0.484375 0.5625 1.328125 q 0 0.921875 -0.78125 1.59375 q -0.78125 0.671875 -2.296875 0.671875 q -1.375 0 -2.1875 -0.5625 q -0.796875 -0.5625 -1.03125 -1.515625 z m 11.131226 -4.8125 l 0 1.421875 l -1.21875 0 l 0 2.703125 q 0 0.828125 0.03125 0.96875 q 0.03125 0.140625 0.15625 0.234375 q 0.125 0.078125 0.296875 0.078125 q 0.25 0 0.71875 -0.171875 l 0.15625 1.390625 q -0.625 0.265625 -1.40625 0.265625 q -0.484375 0 -0.875 -0.15625 q -0.390625 -0.171875 -0.578125 -0.421875 q -0.171875 -0.265625 -0.234375 -0.703125 q -0.0625 -0.3125 -0.0625 -1.25 l 0 -2.9375 l -0.8125 0 l 0 -1.421875 l 0.8125 0 l 0 -1.34375 l 1.796875 -1.046875 l 0 2.390625 l 1.21875 0 z m 2.6727295 2.046875 l -1.625 -0.296875 q 0.28125 -0.96875 0.9375 -1.4375 q 0.671875 -0.46875 1.984375 -0.46875 q 1.203125 0 1.78125 0.28125 q 0.578125 0.28125 0.8125 0.71875 q 0.25 0.4375 0.25 1.59375 l -0.015625 2.078125 q 0 0.890625 0.078125 1.3125 q 0.09375 0.421875 0.328125 0.90625 l -1.765625 0 q -0.078125 -0.171875 -0.171875 -0.53125 q -0.046875 -0.15625 -0.0625 -0.203125 q -0.46875 0.4375 -0.984375 0.671875 q -0.515625 0.21875 -1.109375 0.21875 q -1.046875 0 -1.640625 -0.5625 q -0.59375 -0.578125 -0.59375 -1.4375 q 0 -0.5625 0.265625 -1.015625 q 0.28125 -0.453125 0.765625 -0.6875 q 0.5 -0.234375 1.421875 -0.421875 q 1.25 -0.234375 1.734375 -0.4375 l 0 -0.171875 q 0 -0.515625 -0.265625 -0.734375 q -0.25 -0.21875 -0.953125 -0.21875 q -0.46875 0 -0.734375 0.1875 q -0.265625 0.1875 -0.4375 0.65625 z m 2.390625 1.453125 q -0.34375 0.109375 -1.09375 0.265625 q -0.734375 0.15625 -0.96875 0.3125 q -0.34375 0.25 -0.34375 0.625 q 0 0.375 0.28125 0.65625 q 0.28125 0.265625 0.703125 0.265625 q 0.484375 0 0.921875 -0.3125 q 0.328125 -0.234375 0.421875 -0.59375 q 0.078125 -0.21875 0.078125 -0.859375 l 0 -0.359375 z m 6.7874756 -3.5 l 0 1.421875 l -1.21875 0 l 0 2.703125 q 0 0.828125 0.03125 0.96875 q 0.03125 0.140625 0.15625 0.234375 q 0.125 0.078125 0.296875 0.078125 q 0.25 0 0.71875 -0.171875 l 0.15625 1.390625 q -0.625 0.265625 -1.40625 0.265625 q -0.484375 0 -0.875 -0.15625 q -0.390625 -0.171875 -0.578125 -0.421875 q -0.171875 -0.265625 -0.234375 -0.703125 q -0.0625 -0.3125 -0.0625 -1.25 l 0 -2.9375 l -0.8125 0 l 0 -1.421875 l 0.8125 0 l 0 -1.34375 l 1.796875 -1.046875 l 0 2.390625 l 1.21875 0 z m 5.2508545 4.59375 l 1.765625 0.296875 q -0.34375 0.96875 -1.078125 1.484375 q -0.734375 0.515625 -1.84375 0.515625 q -1.765625 0 -2.609375 -1.15625 q -0.671875 -0.921875 -0.671875 -2.3125 q 0 -1.6875 0.875 -2.625 q 0.890625 -0.953125 2.21875 -0.953125 q 1.515625 0 2.375 1 q 0.875 0.984375 0.828125 3.03125 l -4.46875 0 q 0.03125 0.796875 0.4375 1.234375 q 0.40625 0.4375 1.03125 0.4375 q 0.421875 0 0.703125 -0.21875 q 0.28125 -0.234375 0.4375 -0.734375 z m 0.09375 -1.8125 q -0.015625 -0.765625 -0.40625 -1.171875 q -0.375 -0.40625 -0.921875 -0.40625 q -0.578125 0 -0.96875 0.421875 q -0.375 0.4375 -0.375 1.15625 l 2.671875 0 z m 2.9124756 6.6875 q 0.53125 -1.125 0.734375 -1.734375 q 0.21875 -0.59375 0.40625 -1.375 q 0.1875 -0.796875 0.265625 -1.5 q 0.09375 -0.71875 0.09375 -1.453125 q 0 -1.515625 -0.328125 -2.859375 q -0.3125 -1.359375 -1.1875 -3.28125 l 1.21875 0 q 0.953125 1.375 1.484375 2.90625 q 0.53125 1.515625 0.53125 3.09375 q 0 1.328125 -0.421875 2.84375 q -0.46875 1.703125 -1.5625 3.359375 l -1.234375 0 z" stroke-linecap="round" />
</g>
<g transform="matrix(1 0 0 1 192.98 79)"  >
<path style="stroke: none; stroke-width: 1; stroke-dasharray: none; stroke-linecap: square; stroke-dashoffset: 0; stroke-linejoin: miter; stroke-miterlimit: 10; fill: rgb(0,0,0); fill-opacity: 0; fill-rule: nonzero; opacity: 1;"  transform=" translate(-204.49, -96.5)" d="m 129.98425 96.49606 l 149.00787 0" stroke-linecap="round" />
</g>
<g transform="matrix(1 0 0 1 186.98 79)"  >
<path style="stroke: rgb(0,0,0); stroke-width: 2; stroke-dasharray: none; stroke-linecap: butt; stroke-dashoffset: 0; stroke-linejoin: round; stroke-miterlimit: 10; fill: none; fill-rule: evenodd; opacity: 1;"  transform=" translate(-198.49, -96.5)" d="m 129.98425 96.49606 l 137.00787 0" stroke-linecap="round" />
</g>
<g transform="matrix(1 0 0 1 260.03 78.99)"  >
<path style="stroke: rgb(0,0,0); stroke-width: 2; stroke-dasharray: none; stroke-linecap: butt; stroke-dashoffset: 0; stroke-linejoin: miter; stroke-miterlimit: 10; fill: rgb(0,0,0); fill-rule: evenodd; opacity: 1;"  transform=" translate(-271.53, -96.5)" d="m 266.99213 99.79953 l 9.076202 -3.3034668 l -9.076202 -3.3034668 z" stroke-linecap="round" />
</g>
<g transform="matrix(1 0 0 1 337.79 186.49)"  >
<path style="stroke: none; stroke-width: 1; stroke-dasharray: none; stroke-linecap: square; stroke-dashoffset: 0; stroke-linejoin: miter; stroke-miterlimit: 10; fill: rgb(0,0,0); fill-opacity: 0; fill-rule: nonzero; opacity: 1;"  transform=" translate(-349.29, -203.99)" d="m 349.28873 139.99081 l 0 128" stroke-linecap="round" />
</g>
<g transform="matrix(1 0 0 1 337.79 180.49)"  >
<path style="stroke: rgb(0,0,0); stroke-width: 2; stroke-dasharray: none; stroke-linecap: butt; stroke-dashoffset: 0; stroke-linejoin: round; stroke-miterlimit: 10; fill: none; fill-rule: evenodd; opacity: 1;"  transform=" translate(-349.29, -197.99)" d="m 349.28873 139.99081 l 0 116" stroke-linecap="round" />
</g>
<g transform="matrix(1 0 0 1 337.79 243.03)"  >
<path style="stroke: rgb(0,0,0); stroke-width: 2; stroke-dasharray: none; stroke-linecap: butt; stroke-dashoffset: 0; stroke-linejoin: miter; stroke-miterlimit: 10; fill: rgb(0,0,0); fill-rule: evenodd; opacity: 1;"  transform=" translate(-349.29, -260.53)" d="m 345.98526 255.99081 l 3.3034668 9.076202 l 3.3034668 -9.076202 z" stroke-linecap="round" />
</g>
<g transform="matrix(1 0 0 1 442.99 65.87)"  >
<path style="stroke: none; stroke-width: 1; stroke-dasharray: none; stroke-linecap: square; stroke-dashoffset: 0; stroke-linejoin: miter; stroke-miterlimit: 10; fill: rgb(0,0,0); fill-opacity: 0; fill-rule: nonzero; opacity: 1;"  transform=" translate(-454.5, -83.37)" d="m 397.99213 83.3727 l 113.00787 0" stroke-linecap="round" />
</g>
<g transform="matrix(1 0 0 1 436.99 65.87)"  >
<path style="stroke: rgb(0,0,0); stroke-width: 2; stroke-dasharray: none; stroke-linecap: butt; stroke-dashoffset: 0; stroke-linejoin: round; stroke-miterlimit: 10; fill: none; fill-rule: evenodd; opacity: 1;"  transform=" translate(-448.5, -83.37)" d="m 397.99213 83.3727 l 101.00787 0" stroke-linecap="round" />
</g>
<g transform="matrix(1 0 0 1 492.04 65.87)"  >
<path style="stroke: rgb(0,0,0); stroke-width: 2; stroke-dasharray: none; stroke-linecap: butt; stroke-dashoffset: 0; stroke-linejoin: miter; stroke-miterlimit: 10; fill: rgb(0,0,0); fill-rule: evenodd; opacity: 1;"  transform=" translate(-503.54, -83.37)" d="m 499 86.67617 l 9.076202 -3.3034668 l -9.076202 -3.3034668 z" stroke-linecap="round" />
</g>
<g transform="matrix(1 0 0 1 442.99 89.19)"  >
<path style="stroke: none; stroke-width: 1; stroke-dasharray: none; stroke-linecap: square; stroke-dashoffset: 0; stroke-linejoin: miter; stroke-miterlimit: 10; fill: rgb(0,0,0); fill-opacity: 0; fill-rule: nonzero; opacity: 1;"  transform=" translate(-454.5, -106.69)" d="m 511 106.68767 l -113.00787 0" stroke-linecap="round" />
</g>
<g transform="matrix(1 0 0 1 448.99 89.19)"  >
<path style="stroke: rgb(0,0,0); stroke-width: 2; stroke-dasharray: none; stroke-linecap: butt; stroke-dashoffset: 0; stroke-linejoin: round; stroke-miterlimit: 10; fill: none; fill-rule: evenodd; opacity: 1;"  transform=" translate(-460.5, -106.69)" d="m 511 106.68767 l -101.00787 0" stroke-linecap="round" />
</g>
<g transform="matrix(1 0 0 1 393.96 89.18)"  >
<path style="stroke: rgb(0,0,0); stroke-width: 2; stroke-dasharray: none; stroke-linecap: butt; stroke-dashoffset: 0; stroke-linejoin: miter; stroke-miterlimit: 10; fill: rgb(0,0,0); fill-rule: evenodd; opacity: 1;"  transform=" translate(-405.45, -106.69)" d="m 409.99213 103.3842 l -9.076202 3.3034668 l 9.076202 3.3034592 z" stroke-linecap="round" />
</g>
<g transform="matrix(1 0 0 1 551.83 187.5)"  >
<path style="stroke: none; stroke-width: 1; stroke-dasharray: none; stroke-linecap: square; stroke-dashoffset: 0; stroke-linejoin: miter; stroke-miterlimit: 10; fill: rgb(0,0,0); fill-opacity: 0; fill-rule: nonzero; opacity: 1;"  transform=" translate(-563.33, -205)" d="m 563.32806 141 l 0 128" stroke-linecap="round" />
</g>
<g transform="matrix(1 0 0 1 551.83 181.5)"  >
<path style="stroke: rgb(0,0,0); stroke-width: 2; stroke-dasharray: none; stroke-linecap: butt; stroke-dashoffset: 0; stroke-linejoin: round; stroke-miterlimit: 10; fill: none; fill-rule: evenodd; opacity: 1;"  transform=" translate(-563.33, -199)" d="m 563.32806 141 l 0 116" stroke-linecap="round" />
</g>
<g transform="matrix(1 0 0 1 551.82 244.04)"  >
<path style="stroke: rgb(0,0,0); stroke-width: 2; stroke-dasharray: none; stroke-linecap: butt; stroke-dashoffset: 0; stroke-linejoin: miter; stroke-miterlimit: 10; fill: rgb(0,0,0); fill-rule: evenodd; opacity: 1;"  transform=" translate(-563.33, -261.54)" d="m 560.0246 257 l 3.3034668 9.076202 l 3.3034668 -9.076202 z" stroke-linecap="round" />
</g>
<g transform="matrix(1 0 0 1 569.97 187.5)"  >
<path style="stroke: none; stroke-width: 1; stroke-dasharray: none; stroke-linecap: square; stroke-dashoffset: 0; stroke-linejoin: miter; stroke-miterlimit: 10; fill: rgb(0,0,0); fill-opacity: 0; fill-rule: nonzero; opacity: 1;"  transform=" translate(-581.47, -205)" d="m 581.4698 269 l 0 -128" stroke-linecap="round" />
</g>
<g transform="matrix(1 0 0 1 569.97 193.5)"  >
<path style="stroke: rgb(0,0,0); stroke-width: 2; stroke-dasharray: none; stroke-linecap: butt; stroke-dashoffset: 0; stroke-linejoin: round; stroke-miterlimit: 10; fill: none; fill-rule: evenodd; opacity: 1;"  transform=" translate(-581.47, -211)" d="m 581.4698 269 l 0 -116" stroke-linecap="round" />
</g>
<g transform="matrix(1 0 0 1 569.97 130.96)"  >
<path style="stroke: rgb(0,0,0); stroke-width: 2; stroke-dasharray: none; stroke-linecap: butt; stroke-dashoffset: 0; stroke-linejoin: miter; stroke-miterlimit: 10; fill: rgb(0,0,0); fill-rule: evenodd; opacity: 1;"  transform=" translate(-581.47, -148.46)" d="m 584.77325 153 l -3.3034668 -9.076202 l -3.3034058 9.076202 z" stroke-linecap="round" />
</g>
<g transform="matrix(1 0 0 1 662.49 67.25)"  >
<path style="stroke: none; stroke-width: 1; stroke-dasharray: none; stroke-linecap: square; stroke-dashoffset: 0; stroke-linejoin: miter; stroke-miterlimit: 10; fill: rgb(0,0,0); fill-opacity: 0; fill-rule: nonzero; opacity: 1;"  transform=" translate(-673.99, -84.75)" d="m 628.4803 84.74672 l 91.02368 0" stroke-linecap="round" />
</g>
<g transform="matrix(1 0 0 1 656.49 67.25)"  >
<path style="stroke: rgb(0,0,0); stroke-width: 2; stroke-dasharray: none; stroke-linecap: butt; stroke-dashoffset: 0; stroke-linejoin: round; stroke-miterlimit: 10; fill: none; fill-rule: evenodd; opacity: 1;"  transform=" translate(-667.99, -84.75)" d="m 628.4803 84.74672 l 79.02368 0" stroke-linecap="round" />
</g>
<g transform="matrix(1 0 0 1 700.54 67.24)"  >
<path style="stroke: rgb(0,0,0); stroke-width: 2; stroke-dasharray: none; stroke-linecap: butt; stroke-dashoffset: 0; stroke-linejoin: miter; stroke-miterlimit: 10; fill: rgb(0,0,0); fill-rule: evenodd; opacity: 1;"  transform=" translate(-712.04, -84.75)" d="m 707.50397 88.050186 l 9.076172 -3.3034668 l -9.076172 -3.3034668 z" stroke-linecap="round" />
</g>
<g transform="matrix(1 0 0 1 691.49 208.25)"  >
<path style="stroke: none; stroke-width: 1; stroke-dasharray: none; stroke-linecap: square; stroke-dashoffset: 0; stroke-linejoin: miter; stroke-miterlimit: 10; fill: rgb(0,0,0); fill-opacity: 0; fill-rule: nonzero; opacity: 1;"  transform=" translate(-702.99, -225.75)" d="m 627.98425 311.49606 l 150.01575 -171.49606" stroke-linecap="round" />
</g>
<g transform="matrix(1 0 0 1 687.54 212.76)"  >
<path style="stroke: rgb(0,0,0); stroke-width: 2; stroke-dasharray: none; stroke-linecap: butt; stroke-dashoffset: 0; stroke-linejoin: round; stroke-miterlimit: 10; fill: none; fill-rule: evenodd; opacity: 1;"  transform=" translate(-699.04, -230.26)" d="m 627.98425 311.49606 l 142.11499 -162.46402" stroke-linecap="round" />
</g>
<g transform="matrix(1 0 0 1 760.34 129.2)"  >
<path style="stroke: rgb(0,0,0); stroke-width: 2; stroke-dasharray: none; stroke-linecap: butt; stroke-dashoffset: 0; stroke-linejoin: miter; stroke-miterlimit: 10; fill: rgb(0,0,0); fill-rule: evenodd; opacity: 1;"  transform=" translate(-771.84, -146.7)" d="m 772.58563 151.20705 l 3.4893188 -9.006378 l -8.462158 4.6563873 z" stroke-linecap="round" />
</g>
<g transform="matrix(1 0 0 1 707.01 225)"  >
<path style="stroke: none; stroke-width: 1; stroke-dasharray: none; stroke-linecap: square; stroke-dashoffset: 0; stroke-linejoin: miter; stroke-miterlimit: 10; fill: rgb(0,0,0); fill-opacity: 0; fill-rule: nonzero; opacity: 1;"  transform=" translate(-718.5, -242.5)" d="m 808 141 l -178.99213 202.99213" stroke-linecap="round" />
</g>
<g transform="matrix(1 0 0 1 710.97 220.5)"  >
<path style="stroke: rgb(0,0,0); stroke-width: 2; stroke-dasharray: none; stroke-linecap: butt; stroke-dashoffset: 0; stroke-linejoin: round; stroke-miterlimit: 10; fill: none; fill-rule: evenodd; opacity: 1;"  transform=" translate(-722.47, -238)" d="m 808 141 l -171.0556 193.99146" stroke-linecap="round" />
</g>
<g transform="matrix(1 0 0 1 623.68 319.81)"  >
<path style="stroke: rgb(0,0,0); stroke-width: 2; stroke-dasharray: none; stroke-linecap: butt; stroke-dashoffset: 0; stroke-linejoin: miter; stroke-miterlimit: 10; fill: rgb(0,0,0); fill-rule: evenodd; opacity: 1;"  transform=" translate(-635.18, -337.3)" d="m 634.4666 332.80664 l -3.5250244 8.992462 l 8.480591 -4.6228027 z" stroke-linecap="round" />
</g>
<g transform="matrix(1 0 0 1 441.99 294)"  >
<path style="stroke: none; stroke-width: 1; stroke-dasharray: none; stroke-linecap: square; stroke-dashoffset: 0; stroke-linejoin: miter; stroke-miterlimit: 10; fill: rgb(0,0,0); fill-opacity: 0; fill-rule: nonzero; opacity: 1;"  transform=" translate(-453.49, -311.5)" d="m 509.4908 311.49606 l -112 0" stroke-linecap="round" />
</g>
<g transform="matrix(1 0 0 1 447.99 294)"  >
<path style="stroke: rgb(0,0,0); stroke-width: 2; stroke-dasharray: none; stroke-linecap: butt; stroke-dashoffset: 0; stroke-linejoin: round; stroke-miterlimit: 10; fill: none; fill-rule: evenodd; opacity: 1;"  transform=" translate(-459.49, -311.5)" d="m 509.4908 311.49606 l -100 0" stroke-linecap="round" />
</g>
<g transform="matrix(1 0 0 1 393.45 293.99)"  >
<path style="stroke: rgb(0,0,0); stroke-width: 2; stroke-dasharray: none; stroke-linecap: butt; stroke-dashoffset: 0; stroke-linejoin: miter; stroke-miterlimit: 10; fill: rgb(0,0,0); fill-rule: evenodd; opacity: 1;"  transform=" translate(-404.95, -311.5)" d="m 409.4908 308.1926 l -9.076202 3.3034668 l 9.076202 3.3034668 z" stroke-linecap="round" />
</g>
<g transform="matrix(1 0 0 1 460.01 187.5)"  >
<path style="stroke: none; stroke-width: 1; stroke-dasharray: none; stroke-linecap: square; stroke-dashoffset: 0; stroke-linejoin: miter; stroke-miterlimit: 10; fill: rgb(0,0,0); fill-opacity: 0; fill-rule: nonzero; opacity: 1;"  transform=" translate(-471.5, -205)" d="m 549 269 l -154.99213 -128" stroke-linecap="round" />
</g>
<g transform="matrix(1 0 0 1 464.63 191.32)"  >
<path style="stroke: rgb(0,0,0); stroke-width: 2; stroke-dasharray: none; stroke-linecap: butt; stroke-dashoffset: 0; stroke-linejoin: round; stroke-miterlimit: 10; fill: none; fill-rule: evenodd; opacity: 1;"  transform=" translate(-476.13, -208.82)" d="m 549 269 l -145.7395 -120.358734" stroke-linecap="round" />
</g>
<g transform="matrix(1 0 0 1 389.31 129.52)"  >
<path style="stroke: rgb(0,0,0); stroke-width: 2; stroke-dasharray: none; stroke-linecap: butt; stroke-dashoffset: 0; stroke-linejoin: miter; stroke-miterlimit: 10; fill: rgb(0,0,0); fill-rule: evenodd; opacity: 1;"  transform=" translate(-400.81, -147.03)" d="m 405.36404 146.09412 l -9.101776 -3.232315 l 4.894684 8.326614 z" stroke-linecap="round" />
</g>
<g transform="matrix(1 0 0 1 433 187.5)"  >
<path style="stroke: none; stroke-width: 1; stroke-dasharray: none; stroke-linecap: square; stroke-dashoffset: 0; stroke-linejoin: miter; stroke-miterlimit: 10; fill: rgb(0,0,0); fill-opacity: 0; fill-rule: nonzero; opacity: 1;"  transform=" translate(-444.5, -205)" d="m 366 141 l 157.00787 128" stroke-linecap="round" />
</g>
<g transform="matrix(1 0 0 1 428.35 183.71)"  >
<path style="stroke: rgb(0,0,0); stroke-width: 2; stroke-dasharray: none; stroke-linecap: butt; stroke-dashoffset: 0; stroke-linejoin: round; stroke-miterlimit: 10; fill: none; fill-rule: evenodd; opacity: 1;"  transform=" translate(-439.85, -201.21)" d="m 366 141 l 147.70703 120.41751" stroke-linecap="round" />
</g>
<g transform="matrix(1 0 0 1 504.68 245.51)"  >
<path style="stroke: rgb(0,0,0); stroke-width: 2; stroke-dasharray: none; stroke-linecap: butt; stroke-dashoffset: 0; stroke-linejoin: miter; stroke-miterlimit: 10; fill: rgb(0,0,0); fill-rule: evenodd; opacity: 1;"  transform=" translate(-516.18, -263)" d="m 511.61966 263.97794 l 9.12204 3.174591 l -4.9473267 -8.295441 z" stroke-linecap="round" />
</g>
<g transform="matrix(1 0 0 1 321.24 358.74)"  >
<path style="stroke: none; stroke-width: 1; stroke-dasharray: none; stroke-linecap: square; stroke-dashoffset: 0; stroke-linejoin: miter; stroke-miterlimit: 10; fill: rgb(0,0,0); fill-opacity: 0; fill-rule: nonzero; opacity: 1;"  transform=" translate(-332.74, -376.24)" d="m 332.73752 397.5013 l 0 -42.519684" stroke-linecap="round" />
</g>
<g transform="matrix(1 0 0 1 321.24 364.74)"  >
<path style="stroke: rgb(0,0,0); stroke-width: 2; stroke-dasharray: none; stroke-linecap: butt; stroke-dashoffset: 0; stroke-linejoin: round; stroke-miterlimit: 10; fill: none; fill-rule: evenodd; opacity: 1;"  transform=" translate(-332.74, -382.24)" d="m 332.73752 397.5013 l 0 -30.519684" stroke-linecap="round" />
</g>
<g transform="matrix(1 0 0 1 321.23 344.95)"  >
<path style="stroke: rgb(0,0,0); stroke-width: 2; stroke-dasharray: none; stroke-linecap: butt; stroke-dashoffset: 0; stroke-linejoin: miter; stroke-miterlimit: 10; fill: rgb(0,0,0); fill-rule: evenodd; opacity: 1;"  transform=" translate(-332.74, -362.44)" d="m 336.041 366.98163 l -3.3034668 -9.076202 l -3.3034363 9.076202 z" stroke-linecap="round" />
</g>
<g transform="matrix(1 0 0 1 600.7 380)"  >
<path style="stroke: none; stroke-width: 1; stroke-dasharray: none; stroke-linecap: square; stroke-dashoffset: 0; stroke-linejoin: miter; stroke-miterlimit: 10; fill: rgb(0,0,0); fill-opacity: 0; fill-rule: nonzero; opacity: 1;"  transform=" translate(-612.2, -397.5)" d="m 332.73752 397.5013 l 558.9292 0" stroke-linecap="round" />
</g>
<g transform="matrix(1 0 0 1 600.7 380)"  >
<path style="stroke: rgb(0,0,0); stroke-width: 2; stroke-dasharray: none; stroke-linecap: butt; stroke-dashoffset: 0; stroke-linejoin: round; stroke-miterlimit: 10; fill: none; fill-rule: nonzero; opacity: 1;"  transform=" translate(-612.2, -397.5)" d="m 332.73752 397.5013 l 558.9292 0" stroke-linecap="round" />
</g>
<g transform="matrix(1 0 0 1 851.98 79)"  >
<path style="stroke: none; stroke-width: 1; stroke-dasharray: none; stroke-linecap: square; stroke-dashoffset: 0; stroke-linejoin: miter; stroke-miterlimit: 10; fill: rgb(0,0,0); fill-opacity: 0; fill-rule: nonzero; opacity: 1;"  transform=" translate(-863.49, -96.5)" d="m 836.98425 96.49606 l 53.007874 0" stroke-linecap="round" />
</g>
<g transform="matrix(1 0 0 1 851.98 79)"  >
<path style="stroke: rgb(0,0,0); stroke-width: 2; stroke-dasharray: none; stroke-linecap: butt; stroke-dashoffset: 0; stroke-linejoin: round; stroke-miterlimit: 10; fill: none; fill-rule: nonzero; opacity: 1;"  transform=" translate(-863.49, -96.5)" d="m 836.98425 96.49606 l 53.007874 0" stroke-linecap="round" />
</g>
<g transform="matrix(1 0 0 1 878.5 230)"  >
<path style="stroke: none; stroke-width: 1; stroke-dasharray: none; stroke-linecap: square; stroke-dashoffset: 0; stroke-linejoin: miter; stroke-miterlimit: 10; fill: rgb(0,0,0); fill-opacity: 0; fill-rule: nonzero; opacity: 1;"  transform=" translate(-890, -247.5)" d="m 890 96.666664 l 0 301.6693" stroke-linecap="round" />
</g>
<g transform="matrix(1 0 0 1 878.5 230)"  >
<path style="stroke: rgb(0,0,0); stroke-width: 2; stroke-dasharray: none; stroke-linecap: butt; stroke-dashoffset: 0; stroke-linejoin: round; stroke-miterlimit: 10; fill: none; fill-rule: nonzero; opacity: 1;"  transform=" translate(-890, -247.5)" d="m 890 96.666664 l 0 301.6693" stroke-linecap="round" />
</g>
<g transform="matrix(1 0 0 1 546.66 1.7)"  >
<path style="stroke: none; stroke-width: 1; stroke-dasharray: none; stroke-linecap: square; stroke-dashoffset: 0; stroke-linejoin: miter; stroke-miterlimit: 10; fill: rgb(0,0,0); fill-opacity: 0; fill-rule: nonzero; opacity: 1;"  transform=" translate(-558.16, -19.2)" d="m 338.39896 19.19685 l 439.52756 0" stroke-linecap="round" />
</g>
<g transform="matrix(1 0 0 1 546.66 1.7)"  >
<path style="stroke: rgb(0,0,0); stroke-width: 2; stroke-dasharray: none; stroke-linecap: butt; stroke-dashoffset: 0; stroke-linejoin: round; stroke-miterlimit: 10; fill: none; fill-rule: nonzero; opacity: 1;"  transform=" translate(-558.16, -19.2)" d="m 338.39896 19.19685 l 439.52756 0" stroke-linecap="round" />
</g>
<g transform="matrix(1 0 0 1 766.49 18.01)"  >
<path style="stroke: none; stroke-width: 1; stroke-dasharray: none; stroke-linecap: square; stroke-dashoffset: 0; stroke-linejoin: miter; stroke-miterlimit: 10; fill: rgb(0,0,0); fill-opacity: 0; fill-rule: nonzero; opacity: 1;"  transform=" translate(-777.99, -35.5)" d="m 777.9921 18.007874 l 0 34.992126" stroke-linecap="round" />
</g>
<g transform="matrix(1 0 0 1 766.49 12.01)"  >
<path style="stroke: rgb(0,0,0); stroke-width: 2; stroke-dasharray: none; stroke-linecap: butt; stroke-dashoffset: 0; stroke-linejoin: round; stroke-miterlimit: 10; fill: none; fill-rule: evenodd; opacity: 1;"  transform=" translate(-777.99, -29.5)" d="m 777.9921 18.007874 l 0 22.992126" stroke-linecap="round" />
</g>
<g transform="matrix(1 0 0 1 766.49 28.04)"  >
<path style="stroke: rgb(0,0,0); stroke-width: 2; stroke-dasharray: none; stroke-linecap: butt; stroke-dashoffset: 0; stroke-linejoin: miter; stroke-miterlimit: 10; fill: rgb(0,0,0); fill-rule: evenodd; opacity: 1;"  transform=" translate(-777.99, -45.54)" d="m 774.68866 41 l 3.3034668 9.076195 l 3.3034668 -9.076195 z" stroke-linecap="round" />
</g>
<g transform="matrix(1 0 0 1 326.49 18.6)"  >
<path style="stroke: none; stroke-width: 1; stroke-dasharray: none; stroke-linecap: square; stroke-dashoffset: 0; stroke-linejoin: miter; stroke-miterlimit: 10; fill: rgb(0,0,0); fill-opacity: 0; fill-rule: nonzero; opacity: 1;"  transform=" translate(-337.99, -36.1)" d="m 337.99213 53 l 0 -33.795273" stroke-linecap="round" />
</g>
<g transform="matrix(1 0 0 1 326.49 18.6)"  >
<path style="stroke: rgb(0,0,0); stroke-width: 2; stroke-dasharray: none; stroke-linecap: butt; stroke-dashoffset: 0; stroke-linejoin: round; stroke-miterlimit: 10; fill: none; fill-rule: nonzero; opacity: 1;"  transform=" translate(-337.99, -36.1)" d="m 337.99213 53 l 0 -33.795273" stroke-linecap="round" />
</g>
<g transform="matrix(1 0 0 1 260.41 274.98)"  >
<path style="stroke: rgb(0,0,0); stroke-width: 2; stroke-dasharray: none; stroke-linecap: butt; stroke-dashoffset: 0; stroke-linejoin: miter; stroke-miterlimit: 10; fill: rgb(0,0,0); fill-rule: evenodd; opacity: 1;"  transform=" translate(-516.18, -263)" d="m 511.61966 263.97794 l 9.12204 3.174591 l -4.9473267 -8.295441 z" stroke-linecap="round" />
</g>
<g transform="matrix(1.24 0 0 1.24 166.37 198.69)"  >
<path style="stroke: rgb(0,0,0); stroke-width: 2; stroke-dasharray: none; stroke-linecap: butt; stroke-dashoffset: 0; stroke-linejoin: round; stroke-miterlimit: 10; fill: none; fill-rule: evenodd; opacity: 1;"  transform=" translate(-439.85, -201.21)" d="m 366 141 l 147.70703 120.41751" stroke-linecap="round" />
</g>
</svg>