<svg baseProfile="full" xmlns="http://www.w3.org/2000/svg" width="1575" height="1460">
<text x="825" y="20"  font-size="15"  text-anchor="middle">Simple Call Flow</text>
<text x="75" y="60"  font-size="15"  text-anchor="middle">Alice's Turn</text>
<line x1="75" y1="80" x2="75" y2="1380" width = "1" stroke="black"/>
<text x="75" y="1420"  font-size="15"  text-anchor="middle">Alice's Turn</text>
<text x="225" y="60"  font-size="15"  text-anchor="middle">Alice's Browser</text>
<line x1="225" y1="80" x2="225" y2="1380" width = "1" stroke="black"/>
<text x="225" y="1420"  font-size="15"  text-anchor="middle">Alice's Browser</text>
<text x="375" y="60"  font-size="15"  text-anchor="middle">Alice's App</text>
<line x1="375" y1="80" x2="375" y2="1380" width = "1" stroke="black"/>
<text x="375" y="1420"  font-size="15"  text-anchor="middle">Alice's App</text>
<text x="525" y="60"  font-size="15"  text-anchor="middle">Alice</text>
<line x1="525" y1="80" x2="525" y2="1380" width = "1" stroke="black"/>
<text x="525" y="1420"  font-size="15"  text-anchor="middle">Alice</text>
<text x="675" y="60"  font-size="15"  text-anchor="middle">Alice's Web Server</text>
<line x1="675" y1="80" x2="675" y2="1380" width = "1" stroke="black"/>
<text x="675" y="1420"  font-size="15"  text-anchor="middle">Alice's Web Server</text>
<text x="825" y="60"  font-size="15"  text-anchor="middle">Bob's Web Server</text>
<line x1="825" y1="80" x2="825" y2="1380" width = "1" stroke="black"/>
<text x="825" y="1420"  font-size="15"  text-anchor="middle">Bob's Web Server</text>
<text x="975" y="60"  font-size="15"  text-anchor="middle">Bob</text>
<line x1="975" y1="80" x2="975" y2="1380" width = "1" stroke="black"/>
<text x="975" y="1420"  font-size="15"  text-anchor="middle">Bob</text>
<text x="1125" y="60"  font-size="15"  text-anchor="middle">Bob's App</text>
<line x1="1125" y1="80" x2="1125" y2="1380" width = "1" stroke="black"/>
<text x="1125" y="1420"  font-size="15"  text-anchor="middle">Bob's App</text>
<text x="1275" y="60"  font-size="15"  text-anchor="middle">Bob's Browser</text>
<line x1="1275" y1="80" x2="1275" y2="1380" width = "1" stroke="black"/>
<text x="1275" y="1420"  font-size="15"  text-anchor="middle">Bob's Browser</text>
<text x="1425" y="60"  font-size="15"  text-anchor="middle">Bob's Turn</text>
<line x1="1425" y1="80" x2="1425" y2="1380" width = "1" stroke="black"/>
<text x="1425" y="1420"  font-size="15"  text-anchor="middle">Bob's Turn</text>
<line x1="225" y1="120" x2="675" y2="120" width = "1" stroke="black"/>
<line x1="675" y1="120" x2="668" y2="113"  transform="rotate(0, 675, 120)"  width="1"  stroke="black"/><line x1="675" y1="120" x2="668" y2="127"  transform="rotate(0, 675, 120)"  width="1"  stroke="black"/><line x1="225" y1="120" x2="232" y2="113"  transform="rotate(0, 225, 120)"  width="1"  stroke="black"/><line x1="225" y1="120" x2="232" y2="127"  transform="rotate(0, 225, 120)"  width="1"  stroke="black"/><text x="450" y="117"  font-size="15"  text-anchor="middle"  transform="rotate(0, 450, 117)"  fill = "black" >1. Load Page </text>
<line x1="225" y1="140" x2="675" y2="140" width = "1" stroke="black"/>
<line x1="675" y1="140" x2="668" y2="133"  transform="rotate(0, 675, 140)"  width="1"  stroke="black"/><line x1="675" y1="140" x2="668" y2="147"  transform="rotate(0, 675, 140)"  width="1"  stroke="black"/><line x1="225" y1="140" x2="232" y2="133"  transform="rotate(0, 225, 140)"  width="1"  stroke="black"/><line x1="225" y1="140" x2="232" y2="147"  transform="rotate(0, 225, 140)"  width="1"  stroke="black"/><text x="450" y="137"  font-size="15"  text-anchor="middle"  transform="rotate(0, 450, 137)"  fill = "black" >2. Authenticate</text>
<line x1="1275" y1="160" x2="825" y2="160" width = "1" stroke="black"/>
<line x1="1275" y1="160" x2="1268" y2="153"  transform="rotate(0, 1275, 160)"  width="1"  stroke="black"/><line x1="1275" y1="160" x2="1268" y2="167"  transform="rotate(0, 1275, 160)"  width="1"  stroke="black"/><line x1="825" y1="160" x2="832" y2="153"  transform="rotate(0, 825, 160)"  width="1"  stroke="black"/><line x1="825" y1="160" x2="832" y2="167"  transform="rotate(0, 825, 160)"  width="1"  stroke="black"/><text x="1050" y="157"  font-size="15"  text-anchor="middle"  transform="rotate(0, 1050, 157)"  fill = "black" >3. Load Page </text>
<line x1="1275" y1="180" x2="825" y2="180" width = "1" stroke="black"/>
<line x1="1275" y1="180" x2="1268" y2="173"  transform="rotate(0, 1275, 180)"  width="1"  stroke="black"/><line x1="1275" y1="180" x2="1268" y2="187"  transform="rotate(0, 1275, 180)"  width="1"  stroke="black"/><line x1="825" y1="180" x2="832" y2="173"  transform="rotate(0, 825, 180)"  width="1"  stroke="black"/><line x1="825" y1="180" x2="832" y2="187"  transform="rotate(0, 825, 180)"  width="1"  stroke="black"/><text x="1050" y="177"  font-size="15"  text-anchor="middle"  transform="rotate(0, 1050, 177)"  fill = "black" >4. Authenticate</text>
<line x1="525" y1="200" x2="375" y2="200" width = "1" stroke="black"/>
<line x1="375" y1="200" x2="382" y2="193"  transform="rotate(0, 375, 200)"  width="1"  stroke="black"/><line x1="375" y1="200" x2="382" y2="207"  transform="rotate(0, 375, 200)"  width="1"  stroke="black"/><text x="522" y="197"  font-size="15"  text-anchor="end"  transform="rotate(0, 522, 197)"  fill = "black" >5. Call Bob </text>
<line x1="375" y1="220" x2="225" y2="220" width = "1" stroke="black"/>
<line x1="225" y1="220" x2="232" y2="213"  transform="rotate(0, 225, 220)"  width="1"  stroke="black"/><line x1="225" y1="220" x2="232" y2="227"  transform="rotate(0, 225, 220)"  width="1"  stroke="black"/><text x="372" y="217"  font-size="15"  text-anchor="end"  transform="rotate(0, 372, 217)"  fill = "black" >6. new RTCPeerConnection()</text>
<line x1="375" y1="240" x2="225" y2="240" width = "1" stroke="black"/>
<line x1="225" y1="240" x2="232" y2="233"  transform="rotate(0, 225, 240)"  width="1"  stroke="black"/><line x1="225" y1="240" x2="232" y2="247"  transform="rotate(0, 225, 240)"  width="1"  stroke="black"/><text x="372" y="237"  font-size="15"  text-anchor="end"  transform="rotate(0, 372, 237)"  fill = "black" >7. createDataChannel()</text>
<line x1="375" y1="260" x2="225" y2="260" width = "1" stroke="black"/>
<line x1="225" y1="260" x2="232" y2="253"  transform="rotate(0, 225, 260)"  width="1"  stroke="black"/><line x1="225" y1="260" x2="232" y2="267"  transform="rotate(0, 225, 260)"  width="1"  stroke="black"/><text x="372" y="257"  font-size="15"  text-anchor="end"  transform="rotate(0, 372, 257)"  fill = "black" >8. addStream(stream)</text>
<line x1="225" y1="280" x2="375" y2="280" width = "1" stroke="black"/>
<line x1="375" y1="280" x2="368" y2="273"  transform="rotate(0, 375, 280)"  width="1"  stroke="black"/><line x1="375" y1="280" x2="368" y2="287"  transform="rotate(0, 375, 280)"  width="1"  stroke="black"/><text x="228" y="277"  font-size="15"  text-anchor="start"  transform="rotate(0, 228, 277)"  fill = "black" >9. event: "negotiationneeded"</text>
<line x1="375" y1="300" x2="225" y2="300" width = "1" stroke="black"/>
<line x1="225" y1="300" x2="232" y2="293"  transform="rotate(0, 225, 300)"  width="1"  stroke="black"/><line x1="225" y1="300" x2="232" y2="307"  transform="rotate(0, 225, 300)"  width="1"  stroke="black"/><text x="372" y="297"  font-size="15"  text-anchor="end"  transform="rotate(0, 372, 297)"  fill = "black" >10. createOffer(gotOffer)</text>
<line x1="225" y1="320" x2="75" y2="320" width = "1" stroke="black"/>
<line x1="75" y1="320" x2="82" y2="313"  transform="rotate(0, 75, 320)"  width="1"  stroke="black"/><line x1="75" y1="320" x2="82" y2="327"  transform="rotate(0, 75, 320)"  width="1"  stroke="black"/><text x="222" y="317"  font-size="15"  text-anchor="end"  transform="rotate(0, 222, 317)"  fill = "black" >11. Alloc</text>
<line x1="75" y1="340" x2="225" y2="340" width = "1" stroke="black"/>
<line x1="225" y1="340" x2="218" y2="333"  transform="rotate(0, 225, 340)"  width="1"  stroke="black"/><line x1="225" y1="340" x2="218" y2="347"  transform="rotate(0, 225, 340)"  width="1"  stroke="black"/><text x="78" y="337"  font-size="15"  text-anchor="start"  transform="rotate(0, 78, 337)"  fill = "black" >12. IPs and Ports</text>
<line x1="225" y1="360" x2="375" y2="360" width = "1" stroke="black"/>
<line x1="375" y1="360" x2="368" y2="353"  transform="rotate(0, 375, 360)"  width="1"  stroke="black"/><line x1="375" y1="360" x2="368" y2="367"  transform="rotate(0, 375, 360)"  width="1"  stroke="black"/><text x="228" y="357"  font-size="15"  text-anchor="start"  transform="rotate(0, 228, 357)"  fill = "black" >13. callback: gotOffer(offer)</text>
<line x1="375" y1="380" x2="225" y2="380" width = "1" stroke="black"/>
<line x1="225" y1="380" x2="232" y2="373"  transform="rotate(0, 225, 380)"  width="1"  stroke="black"/><line x1="225" y1="380" x2="232" y2="387"  transform="rotate(0, 225, 380)"  width="1"  stroke="black"/><text x="372" y="377"  font-size="15"  text-anchor="end"  transform="rotate(0, 372, 377)"  fill = "black" >14. setLocalDescription(offer)</text>
<line x1="375" y1="400" x2="675" y2="400" width = "1" stroke="black"/>
<line x1="675" y1="400" x2="668" y2="393"  transform="rotate(0, 675, 400)"  width="1"  stroke="black"/><line x1="675" y1="400" x2="668" y2="407"  transform="rotate(0, 675, 400)"  width="1"  stroke="black"/><text x="378" y="397"  font-size="15"  text-anchor="start"  transform="rotate(0, 378, 397)"  fill = "black" >15. offer  </text>
<line x1="675" y1="400" x2="825" y2="400" width = "1" stroke="black"/>
<line x1="825" y1="400" x2="818" y2="393"  transform="rotate(0, 825, 400)"  width="1"  stroke="black"/><line x1="825" y1="400" x2="818" y2="407"  transform="rotate(0, 825, 400)"  width="1"  stroke="black"/><text x="678" y="397"  font-size="15"  text-anchor="start"  transform="rotate(0, 678, 397)"  fill = "black" >16. offer  </text>
<line x1="825" y1="400" x2="1125" y2="400" width = "1" stroke="black"/>
<line x1="1125" y1="400" x2="1118" y2="393"  transform="rotate(0, 1125, 400)"  width="1"  stroke="black"/><line x1="1125" y1="400" x2="1118" y2="407"  transform="rotate(0, 1125, 400)"  width="1"  stroke="black"/><text x="828" y="397"  font-size="15"  text-anchor="start"  transform="rotate(0, 828, 397)"  fill = "black" >17. offer</text>
<line x1="1125" y1="420" x2="1275" y2="420" width = "1" stroke="black"/>
<line x1="1275" y1="420" x2="1268" y2="413"  transform="rotate(0, 1275, 420)"  width="1"  stroke="black"/><line x1="1275" y1="420" x2="1268" y2="427"  transform="rotate(0, 1275, 420)"  width="1"  stroke="black"/><text x="1128" y="417"  font-size="15"  text-anchor="start"  transform="rotate(0, 1128, 417)"  fill = "black" >18. new RTCPeerConnection()</text>
<line x1="1125" y1="440" x2="1275" y2="440" width = "1" stroke="black"/>
<line x1="1275" y1="440" x2="1268" y2="433"  transform="rotate(0, 1275, 440)"  width="1"  stroke="black"/><line x1="1275" y1="440" x2="1268" y2="447"  transform="rotate(0, 1275, 440)"  width="1"  stroke="black"/><text x="1128" y="437"  font-size="15"  text-anchor="start"  transform="rotate(0, 1128, 437)"  fill = "black" >19. setRemoteDescription(offer)</text>
<line x1="1275" y1="460" x2="1125" y2="460" width = "1" stroke="black"/>
<line x1="1125" y1="460" x2="1132" y2="453"  transform="rotate(0, 1125, 460)"  width="1"  stroke="black"/><line x1="1125" y1="460" x2="1132" y2="467"  transform="rotate(0, 1125, 460)"  width="1"  stroke="black"/><text x="1272" y="457"  font-size="15"  text-anchor="end"  transform="rotate(0, 1272, 457)"  fill = "black" >20. event: "addstream" with remoteStream</text>
<line x1="1125" y1="480" x2="975" y2="480" width = "1" stroke="black"/>
<line x1="975" y1="480" x2="982" y2="473"  transform="rotate(0, 975, 480)"  width="1"  stroke="black"/><line x1="975" y1="480" x2="982" y2="487"  transform="rotate(0, 975, 480)"  width="1"  stroke="black"/><text x="1122" y="477"  font-size="15"  text-anchor="end"  transform="rotate(0, 1122, 477)"  fill = "black" >21. Phones Ringing Dude</text>
<line x1="1125" y1="500" x2="1125" y2="500" width = "1" stroke="black"/>
<line x1="1125" y1="500" x2="1118" y2="493"  transform="rotate(NaN, 1125, 500)"  width="1"  stroke="black"/><line x1="1125" y1="500" x2="1118" y2="507"  transform="rotate(NaN, 1125, 500)"  width="1"  stroke="black"/><line x1="1125" y1="500" x2="1132" y2="493"  transform="rotate(NaN, 1125, 500)"  width="1"  stroke="black"/><line x1="1125" y1="500" x2="1132" y2="507"  transform="rotate(NaN, 1125, 500)"  width="1"  stroke="black"/><text x="1125" y="497"  font-size="15"  text-anchor="middle"  transform="rotate(NaN, 1125, 497)"  fill = "black" >22. constr = {iceTransports: "relay"}</text>
<line x1="1125" y1="520" x2="1275" y2="520" width = "1" stroke="black"/>
<line x1="1275" y1="520" x2="1268" y2="513"  transform="rotate(0, 1275, 520)"  width="1"  stroke="black"/><line x1="1275" y1="520" x2="1268" y2="527"  transform="rotate(0, 1275, 520)"  width="1"  stroke="black"/><text x="1128" y="517"  font-size="15"  text-anchor="start"  transform="rotate(0, 1128, 517)"  fill = "black" >23. createAnswer(gotAnswer, constr)</text>
<line x1="1275" y1="540" x2="1425" y2="540" width = "1" stroke="black"/>
<line x1="1425" y1="540" x2="1418" y2="533"  transform="rotate(0, 1425, 540)"  width="1"  stroke="black"/><line x1="1425" y1="540" x2="1418" y2="547"  transform="rotate(0, 1425, 540)"  width="1"  stroke="black"/><text x="1278" y="537"  font-size="15"  text-anchor="start"  transform="rotate(0, 1278, 537)"  fill = "black" >24. Alloc</text>
<line x1="1425" y1="560" x2="1275" y2="560" width = "1" stroke="black"/>
<line x1="1275" y1="560" x2="1282" y2="553"  transform="rotate(0, 1275, 560)"  width="1"  stroke="black"/><line x1="1275" y1="560" x2="1282" y2="567"  transform="rotate(0, 1275, 560)"  width="1"  stroke="black"/><text x="1422" y="557"  font-size="15"  text-anchor="end"  transform="rotate(0, 1422, 557)"  fill = "black" >25. IPs and Ports</text>
<line x1="1275" y1="580" x2="1125" y2="580" width = "1" stroke="black"/>
<line x1="1125" y1="580" x2="1132" y2="573"  transform="rotate(0, 1125, 580)"  width="1"  stroke="black"/><line x1="1125" y1="580" x2="1132" y2="587"  transform="rotate(0, 1125, 580)"  width="1"  stroke="black"/><text x="1272" y="577"  font-size="15"  text-anchor="end"  transform="rotate(0, 1272, 577)"  fill = "black" >26. callback: gotAnswer(answer)</text>
<line x1="1125" y1="600" x2="1125" y2="600" width = "1" stroke="black"/>
<line x1="1125" y1="600" x2="1118" y2="593"  transform="rotate(NaN, 1125, 600)"  width="1"  stroke="black"/><line x1="1125" y1="600" x2="1118" y2="607"  transform="rotate(NaN, 1125, 600)"  width="1"  stroke="black"/><line x1="1125" y1="600" x2="1132" y2="593"  transform="rotate(NaN, 1125, 600)"  width="1"  stroke="black"/><line x1="1125" y1="600" x2="1132" y2="607"  transform="rotate(NaN, 1125, 600)"  width="1"  stroke="black"/><text x="1125" y="597"  font-size="15"  text-anchor="middle"  transform="rotate(NaN, 1125, 597)"  fill = "black" >27. answer.type = "pranswer"; pranswer = answer</text>
<line x1="1125" y1="620" x2="1275" y2="620" width = "1" stroke="black"/>
<line x1="1275" y1="620" x2="1268" y2="613"  transform="rotate(0, 1275, 620)"  width="1"  stroke="black"/><line x1="1275" y1="620" x2="1268" y2="627"  transform="rotate(0, 1275, 620)"  width="1"  stroke="black"/><text x="1128" y="617"  font-size="15"  text-anchor="start"  transform="rotate(0, 1128, 617)"  fill = "black" >28. setLocalDescription(pranswer)</text>
<line x1="1125" y1="640" x2="825" y2="640" width = "1" stroke="black"/>
<line x1="825" y1="640" x2="832" y2="633"  transform="rotate(0, 825, 640)"  width="1"  stroke="black"/><line x1="825" y1="640" x2="832" y2="647"  transform="rotate(0, 825, 640)"  width="1"  stroke="black"/><text x="1122" y="637"  font-size="15"  text-anchor="end"  transform="rotate(0, 1122, 637)"  fill = "black" >29. pranswer</text>
<line x1="1275" y1="640" x2="1425" y2="640" width = "1" stroke="black"/>
<line x1="1425" y1="640" x2="1418" y2="633"  transform="rotate(0, 1425, 640)"  width="1"  stroke="black"/><line x1="1425" y1="640" x2="1418" y2="647"  transform="rotate(0, 1425, 640)"  width="1"  stroke="black"/><text x="1278" y="637"  font-size="15"  text-anchor="start"  transform="rotate(0, 1278, 637)"  fill = "black" >30. Permission</text>
<line x1="825" y1="640" x2="675" y2="640" width = "1" stroke="black"/>
<line x1="675" y1="640" x2="682" y2="633"  transform="rotate(0, 675, 640)"  width="1"  stroke="black"/><line x1="675" y1="640" x2="682" y2="647"  transform="rotate(0, 675, 640)"  width="1"  stroke="black"/><text x="822" y="637"  font-size="15"  text-anchor="end"  transform="rotate(0, 822, 637)"  fill = "black" >31. pranswer </text>
<line x1="675" y1="640" x2="375" y2="640" width = "1" stroke="black"/>
<line x1="375" y1="640" x2="382" y2="633"  transform="rotate(0, 375, 640)"  width="1"  stroke="black"/><line x1="375" y1="640" x2="382" y2="647"  transform="rotate(0, 375, 640)"  width="1"  stroke="black"/><text x="672" y="637"  font-size="15"  text-anchor="end"  transform="rotate(0, 672, 637)"  fill = "black" >32. pranswer  </text>
<line x1="375" y1="660" x2="225" y2="660" width = "1" stroke="black"/>
<line x1="225" y1="660" x2="232" y2="653"  transform="rotate(0, 225, 660)"  width="1"  stroke="black"/><line x1="225" y1="660" x2="232" y2="667"  transform="rotate(0, 225, 660)"  width="1"  stroke="black"/><text x="372" y="657"  font-size="15"  text-anchor="end"  transform="rotate(0, 372, 657)"  fill = "black" >33. setRemoteDescription(pranswer)</text>
<line x1="225" y1="680" x2="75" y2="680" width = "1" stroke="black"/>
<line x1="75" y1="680" x2="82" y2="673"  transform="rotate(0, 75, 680)"  width="1"  stroke="black"/><line x1="75" y1="680" x2="82" y2="687"  transform="rotate(0, 75, 680)"  width="1"  stroke="black"/><text x="222" y="677"  font-size="15"  text-anchor="end"  transform="rotate(0, 222, 677)"  fill = "black" >34. Permission</text>
<line x1="1275" y1="700" x2="1425" y2="700" width = "1" stroke="black"/>
<line x1="1425" y1="700" x2="1418" y2="693"  transform="rotate(0, 1425, 700)"  width="1"  stroke="black"/><line x1="1425" y1="700" x2="1418" y2="707"  transform="rotate(0, 1425, 700)"  width="1"  stroke="black"/><line x1="1275" y1="700" x2="1282" y2="693"  transform="rotate(0, 1275, 700)"  width="1"  stroke="black"/><line x1="1275" y1="700" x2="1282" y2="707"  transform="rotate(0, 1275, 700)"  width="1"  stroke="black"/><text x="1350" y="697"  font-size="15"  text-anchor="middle"  transform="rotate(0, 1350, 697)"  fill = "black" >35. ICE Check</text>
<line x1="1425" y1="720" x2="225" y2="720" width = "1" stroke="black"/>
<line x1="1425" y1="720" x2="1418" y2="713"  transform="rotate(0, 1425, 720)"  width="1"  stroke="black"/><line x1="1425" y1="720" x2="1418" y2="727"  transform="rotate(0, 1425, 720)"  width="1"  stroke="black"/><line x1="225" y1="720" x2="232" y2="713"  transform="rotate(0, 225, 720)"  width="1"  stroke="black"/><line x1="225" y1="720" x2="232" y2="727"  transform="rotate(0, 225, 720)"  width="1"  stroke="black"/><text x="825" y="717"  font-size="15"  text-anchor="middle"  transform="rotate(0, 825, 717)"  fill = "black" >36. ICE Check </text>
<line x1="1275" y1="740" x2="1425" y2="740" width = "1" stroke="black"/>
<line x1="1425" y1="740" x2="1418" y2="733"  transform="rotate(0, 1425, 740)"  width="1"  stroke="black"/><line x1="1425" y1="740" x2="1418" y2="747"  transform="rotate(0, 1425, 740)"  width="1"  stroke="black"/><line x1="1275" y1="740" x2="1282" y2="733"  transform="rotate(0, 1275, 740)"  width="1"  stroke="black"/><line x1="1275" y1="740" x2="1282" y2="747"  transform="rotate(0, 1275, 740)"  width="1"  stroke="black"/><text x="1350" y="737"  font-size="15"  text-anchor="middle"  transform="rotate(0, 1350, 737)"  fill = "black" >37. DTLS</text>
<line x1="1425" y1="760" x2="225" y2="760" width = "1" stroke="black"/>
<line x1="1425" y1="760" x2="1418" y2="753"  transform="rotate(0, 1425, 760)"  width="1"  stroke="black"/><line x1="1425" y1="760" x2="1418" y2="767"  transform="rotate(0, 1425, 760)"  width="1"  stroke="black"/><line x1="225" y1="760" x2="232" y2="753"  transform="rotate(0, 225, 760)"  width="1"  stroke="black"/><line x1="225" y1="760" x2="232" y2="767"  transform="rotate(0, 225, 760)"  width="1"  stroke="black"/><text x="825" y="757"  font-size="15"  text-anchor="middle"  transform="rotate(0, 825, 757)"  fill = "black" >38. DTLS</text>
<line x1="1275" y1="780" x2="1425" y2="780" width = "1" stroke="black"/>
<line x1="1425" y1="780" x2="1418" y2="773"  transform="rotate(0, 1425, 780)"  width="1"  stroke="black"/><line x1="1425" y1="780" x2="1418" y2="787"  transform="rotate(0, 1425, 780)"  width="1"  stroke="black"/><line x1="1275" y1="780" x2="1282" y2="773"  transform="rotate(0, 1275, 780)"  width="1"  stroke="black"/><line x1="1275" y1="780" x2="1282" y2="787"  transform="rotate(0, 1275, 780)"  width="1"  stroke="black"/><text x="1350" y="777"  font-size="15"  text-anchor="middle"  transform="rotate(0, 1350, 777)"  fill = "black" >39. SCTP/Data</text>
<line x1="1425" y1="800" x2="225" y2="800" width = "1" stroke="black"/>
<line x1="1425" y1="800" x2="1418" y2="793"  transform="rotate(0, 1425, 800)"  width="1"  stroke="black"/><line x1="1425" y1="800" x2="1418" y2="807"  transform="rotate(0, 1425, 800)"  width="1"  stroke="black"/><line x1="225" y1="800" x2="232" y2="793"  transform="rotate(0, 225, 800)"  width="1"  stroke="black"/><line x1="225" y1="800" x2="232" y2="807"  transform="rotate(0, 225, 800)"  width="1"  stroke="black"/><text x="825" y="797"  font-size="15"  text-anchor="middle"  transform="rotate(0, 825, 797)"  fill = "black" >40. SCTP/Data</text>
<line x1="1275" y1="820" x2="1125" y2="820" width = "1" stroke="black"/>
<line x1="1125" y1="820" x2="1132" y2="813"  transform="rotate(0, 1125, 820)"  width="1"  stroke="black"/><line x1="1125" y1="820" x2="1132" y2="827"  transform="rotate(0, 1125, 820)"  width="1"  stroke="black"/><text x="1272" y="817"  font-size="15"  text-anchor="end"  transform="rotate(0, 1272, 817)"  fill = "black" >41. event: "datachannel"</text>
<line x1="975" y1="840" x2="1125" y2="840" width = "1" stroke="black"/>
<line x1="1125" y1="840" x2="1118" y2="833"  transform="rotate(0, 1125, 840)"  width="1"  stroke="black"/><line x1="1125" y1="840" x2="1118" y2="847"  transform="rotate(0, 1125, 840)"  width="1"  stroke="black"/><text x="978" y="837"  font-size="15"  text-anchor="start"  transform="rotate(0, 978, 837)"  fill = "black" >42. Accept Audio and Video </text>
<line x1="1125" y1="860" x2="1275" y2="860" width = "1" stroke="black"/>
<line x1="1275" y1="860" x2="1268" y2="853"  transform="rotate(0, 1275, 860)"  width="1"  stroke="black"/><line x1="1275" y1="860" x2="1268" y2="867"  transform="rotate(0, 1275, 860)"  width="1"  stroke="black"/><text x="1128" y="857"  font-size="15"  text-anchor="start"  transform="rotate(0, 1128, 857)"  fill = "black" >43. addStream(stream)</text>
<line x1="1125" y1="880" x2="1275" y2="880" width = "1" stroke="black"/>
<line x1="1275" y1="880" x2="1268" y2="873"  transform="rotate(0, 1275, 880)"  width="1"  stroke="black"/><line x1="1275" y1="880" x2="1268" y2="887"  transform="rotate(0, 1275, 880)"  width="1"  stroke="black"/><text x="1128" y="877"  font-size="15"  text-anchor="start"  transform="rotate(0, 1128, 877)"  fill = "black" >44. createAnswer(gotAnswer)</text>
<line x1="1275" y1="900" x2="1125" y2="900" width = "1" stroke="black"/>
<line x1="1125" y1="900" x2="1132" y2="893"  transform="rotate(0, 1125, 900)"  width="1"  stroke="black"/><line x1="1125" y1="900" x2="1132" y2="907"  transform="rotate(0, 1125, 900)"  width="1"  stroke="black"/><text x="1272" y="897"  font-size="15"  text-anchor="end"  transform="rotate(0, 1272, 897)"  fill = "black" >45. callback: gotAnswer(answer)</text>
<line x1="1125" y1="920" x2="1275" y2="920" width = "1" stroke="black"/>
<line x1="1275" y1="920" x2="1268" y2="913"  transform="rotate(0, 1275, 920)"  width="1"  stroke="black"/><line x1="1275" y1="920" x2="1268" y2="927"  transform="rotate(0, 1275, 920)"  width="1"  stroke="black"/><text x="1128" y="917"  font-size="15"  text-anchor="start"  transform="rotate(0, 1128, 917)"  fill = "black" >46. setLocalDescription(answer)</text>
<line x1="1125" y1="940" x2="825" y2="940" width = "1" stroke="black"/>
<line x1="825" y1="940" x2="832" y2="933"  transform="rotate(0, 825, 940)"  width="1"  stroke="black"/><line x1="825" y1="940" x2="832" y2="947"  transform="rotate(0, 825, 940)"  width="1"  stroke="black"/><text x="1122" y="937"  font-size="15"  text-anchor="end"  transform="rotate(0, 1122, 937)"  fill = "black" >47. answer</text>
<line x1="1275" y1="960" x2="1425" y2="960" width = "1" stroke="black"/>
<line x1="1425" y1="960" x2="1418" y2="953"  transform="rotate(0, 1425, 960)"  width="1"  stroke="black"/><line x1="1425" y1="960" x2="1418" y2="967"  transform="rotate(0, 1425, 960)"  width="1"  stroke="black"/><line x1="1275" y1="960" x2="1282" y2="953"  transform="rotate(0, 1275, 960)"  width="1"  stroke="black"/><line x1="1275" y1="960" x2="1282" y2="967"  transform="rotate(0, 1275, 960)"  width="1"  stroke="black"/><text x="1350" y="957"  font-size="15"  text-anchor="middle"  transform="rotate(0, 1350, 957)"  fill = "black" >48. SRTP</text>
<line x1="1425" y1="980" x2="225" y2="980" width = "1" stroke="black"/>
<line x1="1425" y1="980" x2="1418" y2="973"  transform="rotate(0, 1425, 980)"  width="1"  stroke="black"/><line x1="1425" y1="980" x2="1418" y2="987"  transform="rotate(0, 1425, 980)"  width="1"  stroke="black"/><line x1="225" y1="980" x2="232" y2="973"  transform="rotate(0, 225, 980)"  width="1"  stroke="black"/><line x1="225" y1="980" x2="232" y2="987"  transform="rotate(0, 225, 980)"  width="1"  stroke="black"/><text x="825" y="977"  font-size="15"  text-anchor="middle"  transform="rotate(0, 825, 977)"  fill = "black" >49. SRTP </text>
<line x1="1275" y1="1000" x2="225" y2="1000" width = "1" stroke="black"/>
<line x1="1275" y1="1000" x2="1268" y2="993"  transform="rotate(0, 1275, 1000)"  width="1"  stroke="black"/><line x1="1275" y1="1000" x2="1268" y2="1007"  transform="rotate(0, 1275, 1000)"  width="1"  stroke="black"/><line x1="225" y1="1000" x2="232" y2="993"  transform="rotate(0, 225, 1000)"  width="1"  stroke="black"/><line x1="225" y1="1000" x2="232" y2="1007"  transform="rotate(0, 225, 1000)"  width="1"  stroke="black"/><text x="750" y="997"  font-size="15"  text-anchor="middle"  transform="rotate(0, 750, 997)"  fill = "black" >50. ICE Check</text>
<line x1="1275" y1="1020" x2="225" y2="1020" width = "1" stroke="black"/>
<line x1="1275" y1="1020" x2="1268" y2="1013"  transform="rotate(0, 1275, 1020)"  width="1"  stroke="black"/><line x1="1275" y1="1020" x2="1268" y2="1027"  transform="rotate(0, 1275, 1020)"  width="1"  stroke="black"/><line x1="225" y1="1020" x2="232" y2="1013"  transform="rotate(0, 225, 1020)"  width="1"  stroke="black"/><line x1="225" y1="1020" x2="232" y2="1027"  transform="rotate(0, 225, 1020)"  width="1"  stroke="black"/><text x="750" y="1017"  font-size="15"  text-anchor="middle"  transform="rotate(0, 750, 1017)"  fill = "black" >51. SRTP without relay</text>
<line x1="825" y1="940" x2="675" y2="1040" width = "1" stroke="black"/>
<line x1="675" y1="1040" x2="682" y2="1033"  transform="rotate(-33.70715561737648, 675, 1040)"  width="1"  stroke="black"/><line x1="675" y1="1040" x2="682" y2="1047"  transform="rotate(-33.70715561737648, 675, 1040)"  width="1"  stroke="black"/><text x="822" y="937"  font-size="15"  text-anchor="end"  transform="rotate(-33.70715561737648, 822, 937)"  fill = "black" >52. answer </text>
<line x1="675" y1="1060" x2="375" y2="1060" width = "1" stroke="black"/>
<line x1="375" y1="1060" x2="382" y2="1053"  transform="rotate(0, 375, 1060)"  width="1"  stroke="black"/><line x1="375" y1="1060" x2="382" y2="1067"  transform="rotate(0, 375, 1060)"  width="1"  stroke="black"/><text x="672" y="1057"  font-size="15"  text-anchor="end"  transform="rotate(0, 672, 1057)"  fill = "black" >53. answer</text>
<line x1="375" y1="1080" x2="225" y2="1080" width = "1" stroke="black"/>
<line x1="225" y1="1080" x2="232" y2="1073"  transform="rotate(0, 225, 1080)"  width="1"  stroke="black"/><line x1="225" y1="1080" x2="232" y2="1087"  transform="rotate(0, 225, 1080)"  width="1"  stroke="black"/><text x="372" y="1077"  font-size="15"  text-anchor="end"  transform="rotate(0, 372, 1077)"  fill = "black" >54. setRemoteDescription(answer)</text>
<line x1="225" y1="1100" x2="375" y2="1100" width = "1" stroke="black"/>
<line x1="375" y1="1100" x2="368" y2="1093"  transform="rotate(0, 375, 1100)"  width="1"  stroke="black"/><line x1="375" y1="1100" x2="368" y2="1107"  transform="rotate(0, 375, 1100)"  width="1"  stroke="black"/><text x="228" y="1097"  font-size="15"  text-anchor="start"  transform="rotate(0, 228, 1097)"  fill = "black" >55. event: "addstream" with remoteStream</text>
<line x1="975" y1="1120" x2="1125" y2="1120" width = "1" stroke="black"/>
<line x1="1125" y1="1120" x2="1118" y2="1113"  transform="rotate(0, 1125, 1120)"  width="1"  stroke="black"/><line x1="1125" y1="1120" x2="1118" y2="1127"  transform="rotate(0, 1125, 1120)"  width="1"  stroke="black"/><text x="978" y="1117"  font-size="15"  text-anchor="start"  transform="rotate(0, 978, 1117)"  fill = "black" >56. Add document camera</text>
<line x1="1125" y1="1140" x2="1275" y2="1140" width = "1" stroke="black"/>
<line x1="1275" y1="1140" x2="1268" y2="1133"  transform="rotate(0, 1275, 1140)"  width="1"  stroke="black"/><line x1="1275" y1="1140" x2="1268" y2="1147"  transform="rotate(0, 1275, 1140)"  width="1"  stroke="black"/><text x="1128" y="1137"  font-size="15"  text-anchor="start"  transform="rotate(0, 1128, 1137)"  fill = "black" >57. addStream(docStream)</text>
<line x1="1275" y1="1160" x2="1125" y2="1160" width = "1" stroke="black"/>
<line x1="1125" y1="1160" x2="1132" y2="1153"  transform="rotate(0, 1125, 1160)"  width="1"  stroke="black"/><line x1="1125" y1="1160" x2="1132" y2="1167"  transform="rotate(0, 1125, 1160)"  width="1"  stroke="black"/><text x="1272" y="1157"  font-size="15"  text-anchor="end"  transform="rotate(0, 1272, 1157)"  fill = "black" >58. event: "negotationneeded"</text>
<line x1="1125" y1="1180" x2="1275" y2="1180" width = "1" stroke="black"/>
<line x1="1275" y1="1180" x2="1268" y2="1173"  transform="rotate(0, 1275, 1180)"  width="1"  stroke="black"/><line x1="1275" y1="1180" x2="1268" y2="1187"  transform="rotate(0, 1275, 1180)"  width="1"  stroke="black"/><text x="1128" y="1177"  font-size="15"  text-anchor="start"  transform="rotate(0, 1128, 1177)"  fill = "black" >59. createOffer(gotOffer)</text>
<line x1="1275" y1="1200" x2="1125" y2="1200" width = "1" stroke="black"/>
<line x1="1125" y1="1200" x2="1132" y2="1193"  transform="rotate(0, 1125, 1200)"  width="1"  stroke="black"/><line x1="1125" y1="1200" x2="1132" y2="1207"  transform="rotate(0, 1125, 1200)"  width="1"  stroke="black"/><text x="1272" y="1197"  font-size="15"  text-anchor="end"  transform="rotate(0, 1272, 1197)"  fill = "black" >60. callbakc: gotOffer(offer)</text>
<line x1="1125" y1="1220" x2="1275" y2="1220" width = "1" stroke="black"/>
<line x1="1275" y1="1220" x2="1268" y2="1213"  transform="rotate(0, 1275, 1220)"  width="1"  stroke="black"/><line x1="1275" y1="1220" x2="1268" y2="1227"  transform="rotate(0, 1275, 1220)"  width="1"  stroke="black"/><text x="1128" y="1217"  font-size="15"  text-anchor="start"  transform="rotate(0, 1128, 1217)"  fill = "black" >61. setLocalDescription(offer)</text>
<line x1="1125" y1="1240" x2="825" y2="1240" width = "1" stroke="black"/>
<line x1="825" y1="1240" x2="832" y2="1233"  transform="rotate(0, 825, 1240)"  width="1"  stroke="black"/><line x1="825" y1="1240" x2="832" y2="1247"  transform="rotate(0, 825, 1240)"  width="1"  stroke="black"/><text x="1122" y="1237"  font-size="15"  text-anchor="end"  transform="rotate(0, 1122, 1237)"  fill = "black" >62. offer</text>
<line x1="825" y1="1240" x2="675" y2="1240" width = "1" stroke="black"/>
<line x1="675" y1="1240" x2="682" y2="1233"  transform="rotate(0, 675, 1240)"  width="1"  stroke="black"/><line x1="675" y1="1240" x2="682" y2="1247"  transform="rotate(0, 675, 1240)"  width="1"  stroke="black"/><text x="822" y="1237"  font-size="15"  text-anchor="end"  transform="rotate(0, 822, 1237)"  fill = "black" >63. offer</text>
<line x1="675" y1="1240" x2="375" y2="1240" width = "1" stroke="black"/>
<line x1="375" y1="1240" x2="382" y2="1233"  transform="rotate(0, 375, 1240)"  width="1"  stroke="black"/><line x1="375" y1="1240" x2="382" y2="1247"  transform="rotate(0, 375, 1240)"  width="1"  stroke="black"/><text x="672" y="1237"  font-size="15"  text-anchor="end"  transform="rotate(0, 672, 1237)"  fill = "black" >64. offer</text>
<line x1="375" y1="1260" x2="225" y2="1260" width = "1" stroke="black"/>
<line x1="225" y1="1260" x2="232" y2="1253"  transform="rotate(0, 225, 1260)"  width="1"  stroke="black"/><line x1="225" y1="1260" x2="232" y2="1267"  transform="rotate(0, 225, 1260)"  width="1"  stroke="black"/><text x="372" y="1257"  font-size="15"  text-anchor="end"  transform="rotate(0, 372, 1257)"  fill = "black" >65. setRemoteDescription(offer)</text>
<line x1="225" y1="1280" x2="375" y2="1280" width = "1" stroke="black"/>
<line x1="375" y1="1280" x2="368" y2="1273"  transform="rotate(0, 375, 1280)"  width="1"  stroke="black"/><line x1="375" y1="1280" x2="368" y2="1287"  transform="rotate(0, 375, 1280)"  width="1"  stroke="black"/><text x="228" y="1277"  font-size="15"  text-anchor="start"  transform="rotate(0, 228, 1277)"  fill = "black" >66. event: "addstream" with docStream</text>
<line x1="375" y1="1300" x2="225" y2="1300" width = "1" stroke="black"/>
<line x1="225" y1="1300" x2="232" y2="1293"  transform="rotate(0, 225, 1300)"  width="1"  stroke="black"/><line x1="225" y1="1300" x2="232" y2="1307"  transform="rotate(0, 225, 1300)"  width="1"  stroke="black"/><text x="372" y="1297"  font-size="15"  text-anchor="end"  transform="rotate(0, 372, 1297)"  fill = "black" >67. createAnswer(gotAnswer)</text>
<line x1="225" y1="1320" x2="375" y2="1320" width = "1" stroke="black"/>
<line x1="375" y1="1320" x2="368" y2="1313"  transform="rotate(0, 375, 1320)"  width="1"  stroke="black"/><line x1="375" y1="1320" x2="368" y2="1327"  transform="rotate(0, 375, 1320)"  width="1"  stroke="black"/><text x="228" y="1317"  font-size="15"  text-anchor="start"  transform="rotate(0, 228, 1317)"  fill = "black" >68. callback: gotAnswer(answer)</text>
<line x1="375" y1="1340" x2="675" y2="1340" width = "1" stroke="black"/>
<line x1="675" y1="1340" x2="668" y2="1333"  transform="rotate(0, 675, 1340)"  width="1"  stroke="black"/><line x1="675" y1="1340" x2="668" y2="1347"  transform="rotate(0, 675, 1340)"  width="1"  stroke="black"/><text x="378" y="1337"  font-size="15"  text-anchor="start"  transform="rotate(0, 378, 1337)"  fill = "black" >69. answer</text>
<line x1="675" y1="1340" x2="825" y2="1340" width = "1" stroke="black"/>
<line x1="825" y1="1340" x2="818" y2="1333"  transform="rotate(0, 825, 1340)"  width="1"  stroke="black"/><line x1="825" y1="1340" x2="818" y2="1347"  transform="rotate(0, 825, 1340)"  width="1"  stroke="black"/><text x="678" y="1337"  font-size="15"  text-anchor="start"  transform="rotate(0, 678, 1337)"  fill = "black" >70. answer</text>
<line x1="825" y1="1340" x2="1125" y2="1340" width = "1" stroke="black"/>
<line x1="1125" y1="1340" x2="1118" y2="1333"  transform="rotate(0, 1125, 1340)"  width="1"  stroke="black"/><line x1="1125" y1="1340" x2="1118" y2="1347"  transform="rotate(0, 1125, 1340)"  width="1"  stroke="black"/><text x="828" y="1337"  font-size="15"  text-anchor="start"  transform="rotate(0, 828, 1337)"  fill = "black" >71. answer</text>
<line x1="1125" y1="1360" x2="1275" y2="1360" width = "1" stroke="black"/>
<line x1="1275" y1="1360" x2="1268" y2="1353"  transform="rotate(0, 1275, 1360)"  width="1"  stroke="black"/><line x1="1275" y1="1360" x2="1268" y2="1367"  transform="rotate(0, 1275, 1360)"  width="1"  stroke="black"/><text x="1128" y="1357"  font-size="15"  text-anchor="start"  transform="rotate(0, 1128, 1357)"  fill = "black" >72. setRemoteDescription(answer);</text>
</svg>